<?xml version="1.0" encoding="UTF-8"?>
<!DOCTYPE svg PUBLIC "-//W3C//DTD SVG 1.1//EN" "http://www.w3.org/Graphics/SVG/1.1/DTD/svg11.dtd">
<!-- Creator: CorelDRAW 2021 (64-Bit) -->
<svg xmlns="http://www.w3.org/2000/svg" xml:space="preserve" width="5mm" height="5mm" version="1.1" style="shape-rendering:geometricPrecision; text-rendering:geometricPrecision; image-rendering:optimizeQuality; fill-rule:evenodd; clip-rule:evenodd"
viewBox="0 0 55.17 55.17"
 xmlns:xlink="http://www.w3.org/1999/xlink"
 xmlns:xodm="http://www.corel.com/coreldraw/odm/2003">
 <defs>
  <style type="text/css">
   <![CDATA[
    .fil0 {fill:#626264;fill-rule:nonzero}
   ]]>
  </style>
 </defs>
 <g id="Слой_x0020_1">
  <metadata id="CorelCorpID_0Corel-Layer"/>
  <path class="fil0" d="M35.9 21.22l-0.43 5.63 -5.78 0 0 19.55 -7.29 0 0 -19.55 -3.9 0 0 -5.63 3.9 0 0 -3.78c0,-1.66 0.04,-4.23 1.25,-5.84 1.28,-1.69 3.03,-2.84 6.04,-2.84 4.91,0 6.97,0.71 6.97,0.71l-0.97 5.76c0,0 -1.62,-0.47 -3.13,-0.47 -1.52,0 -2.87,0.54 -2.87,2.06l0 4.4 6.2 0zm-8.31 -21.22c-15.24,0 -27.59,12.35 -27.59,27.59 0,15.24 12.35,27.59 27.59,27.59 15.24,0 27.59,-12.35 27.59,-27.59 0,-15.24 -12.35,-27.59 -27.59,-27.59z"/>
 </g>
</svg>
