<?xml version="1.0" encoding="UTF-8"?>
<!DOCTYPE svg PUBLIC "-//W3C//DTD SVG 1.1//EN" "http://www.w3.org/Graphics/SVG/1.1/DTD/svg11.dtd">
<!-- Creator: CorelDRAW 2021 (64-Bit) -->
<svg xmlns="http://www.w3.org/2000/svg" xml:space="preserve" width="5mm" height="5mm" version="1.1" style="shape-rendering:geometricPrecision; text-rendering:geometricPrecision; image-rendering:optimizeQuality; fill-rule:evenodd; clip-rule:evenodd"
viewBox="0 0 72.32 72.32"
 xmlns:xlink="http://www.w3.org/1999/xlink"
 xmlns:xodm="http://www.corel.com/coreldraw/odm/2003">
 <defs>
  <style type="text/css">
   <![CDATA[
    .fil0 {fill:#626264;fill-rule:nonzero}
   ]]>
  </style>
 </defs>
 <g id="Слой_x0020_1">
  <metadata id="CorelCorpID_0Corel-Layer"/>
  <path class="fil0" d="M36.16 0c-19.97,0 -36.16,16.19 -36.16,36.16 0,19.97 16.19,36.16 36.16,36.16 19.97,0 36.16,-16.19 36.16,-36.16 0,-19.97 -16.19,-36.16 -36.16,-36.16zm-9.71 16.2l19.42 0c5.64,0 10.25,4.61 10.25,10.25l0 19.42c0,5.64 -4.61,10.25 -10.25,10.25l-19.42 0c-5.64,0 -10.25,-4.61 -10.25,-10.25l0 -19.42c0,-5.64 4.61,-10.25 10.25,-10.25zm0.1 -4.68l19.21 0c8.27,0 15.03,6.76 15.03,15.03l0 19.21c0,8.27 -6.76,15.03 -15.03,15.03l-19.21 0c-8.27,0 -15.03,-6.76 -15.03,-15.03l0 -19.21c0,-8.27 6.76,-15.03 15.03,-15.03zm22.67 9.12c-1.48,0 -2.96,1.23 -2.96,2.96 0,1.72 1.23,2.96 2.96,2.96 1.72,0 2.96,-1.23 2.96,-2.96 -0.25,-1.73 -1.48,-2.96 -2.96,-2.96zm-13.06 3.7c-6.65,0 -12.07,5.42 -12.07,12.07 0,6.65 5.42,12.07 12.07,12.07 6.65,0 12.07,-5.42 12.07,-12.07 0.25,-6.65 -5.17,-12.07 -12.07,-12.07zm0 19.96c-4.19,0 -7.88,-3.45 -7.88,-7.89 0,-4.19 3.45,-7.88 7.88,-7.88 4.19,0 7.88,3.45 7.88,7.88 0,4.44 -3.45,7.89 -7.88,7.89z"/>
 </g>
</svg>
