<?xml version="1.0" encoding="UTF-8"?>
<!DOCTYPE svg PUBLIC "-//W3C//DTD SVG 1.1//EN" "http://www.w3.org/Graphics/SVG/1.1/DTD/svg11.dtd">
<!-- Creator: CorelDRAW 2021 (64-Bit) -->
<svg xmlns="http://www.w3.org/2000/svg" xml:space="preserve" width="4.1916mm" height="4.9901mm" version="1.1" style="shape-rendering:geometricPrecision; text-rendering:geometricPrecision; image-rendering:optimizeQuality; fill-rule:evenodd; clip-rule:evenodd"
viewBox="0 0 156.9 186.79"
 xmlns:xlink="http://www.w3.org/1999/xlink"
 xmlns:xodm="http://www.corel.com/coreldraw/odm/2003">
 <defs>
  <style type="text/css">
   <![CDATA[
    .fil0 {fill:#FF7221;fill-rule:nonzero}
   ]]>
  </style>
 </defs>
 <g id="Слой_x0020_1">
  <metadata id="CorelCorpID_0Corel-Layer"/>
  <path class="fil0" d="M97.13 119.55c33.01,0 59.77,-26.77 59.77,-59.78 0,-33 -26.76,-59.77 -59.77,-59.77l-56.04 0c-6.19,0 -11.21,5.02 -11.21,11.21l0 85.93 -18.68 0c-6.19,0 -11.21,5.02 -11.21,11.21 0,6.19 5.02,11.21 11.21,11.21l18.68 0 0 14.94 -18.68 0c-6.19,0 -11.21,5.02 -11.21,11.21 0,6.19 5.02,11.21 11.21,11.21l18.68 0 0 18.68c0,6.19 5.02,11.21 11.21,11.21 6.19,0 11.21,-5.02 11.21,-11.21l0 -18.68 41.09 0c6.19,0 11.21,-5.02 11.21,-11.21 0,-6.19 -5.02,-11.21 -11.21,-11.21l-41.09 0 0 -14.94 44.83 0zm-44.83 -97.13l44.83 0c20.63,0 37.36,16.73 37.36,37.36 0,20.63 -16.73,37.36 -37.36,37.36l-44.83 0 0 -74.72z"/>
 </g>
</svg>
