<?xml version="1.0" encoding="UTF-8"?>
<!DOCTYPE svg PUBLIC "-//W3C//DTD SVG 1.1//EN" "http://www.w3.org/Graphics/SVG/1.1/DTD/svg11.dtd">
<!-- Creator: CorelDRAW 2021 (64-Bit) -->
<svg xmlns="http://www.w3.org/2000/svg" xml:space="preserve" width="5mm" height="5mm" version="1.1" style="shape-rendering:geometricPrecision; text-rendering:geometricPrecision; image-rendering:optimizeQuality; fill-rule:evenodd; clip-rule:evenodd"
viewBox="0 0 110.3 110.3"
 xmlns:xlink="http://www.w3.org/1999/xlink"
 xmlns:xodm="http://www.corel.com/coreldraw/odm/2003">
 <defs>
  <style type="text/css">
   <![CDATA[
    .fil0 {fill:#626264;fill-rule:nonzero}
   ]]>
  </style>
 </defs>
 <g id="Слой_x0020_1">
  <metadata id="CorelCorpID_0Corel-Layer"/>
  <path class="fil0" d="M55.15 0c-30.46,0 -55.15,24.69 -55.15,55.15 0,30.46 24.69,55.15 55.15,55.15 30.46,0 55.15,-24.69 55.15,-55.15 0,-30.46 -24.69,-55.15 -55.15,-55.15zm29.29 64.41c0,0 6.53,6.44 8.14,9.44 0.05,0.06 0.07,0.12 0.09,0.15 0.65,1.1 0.81,1.95 0.48,2.59 -0.54,1.06 -2.38,1.59 -3.02,1.63l-11.54 0c-0.8,0 -2.48,-0.21 -4.51,-1.61 -1.56,-1.09 -3.1,-2.89 -4.6,-4.63 -2.24,-2.6 -4.18,-4.85 -6.13,-4.85 0,0 -0,0 -0,0 -0.25,0 -0.49,0.04 -0.73,0.12 -1.48,0.48 -3.37,2.58 -3.37,8.2 0,1.75 -1.38,2.76 -2.36,2.76l-5.29 0c-1.8,0 -11.18,-0.63 -19.48,-9.39 -10.17,-10.73 -19.32,-32.25 -19.4,-32.45 -0.58,-1.39 0.61,-2.14 1.91,-2.14l11.65 0c1.55,0 2.06,0.94 2.42,1.78 0.41,0.98 1.94,4.86 4.44,9.23 4.05,7.12 6.54,10.02 8.53,10.02 0.37,-0 0.74,-0.09 1.07,-0.28 2.6,-1.44 2.12,-10.71 2,-12.64 0,-0.36 -0.01,-4.15 -1.34,-5.96 -0.96,-1.31 -2.58,-1.82 -3.56,-2 0.4,-0.55 0.92,-0.99 1.53,-1.3 1.78,-0.89 5,-1.02 8.19,-1.02l1.78 0c3.46,0.05 4.35,0.27 5.61,0.58 2.54,0.61 2.59,2.25 2.37,7.85 -0.07,1.59 -0.14,3.39 -0.14,5.51 0,0.46 -0.02,0.95 -0.02,1.48 -0.08,2.85 -0.17,6.09 1.85,7.42 0.26,0.17 0.57,0.25 0.88,0.25 0.7,0 2.81,0 8.51,-9.79 1.75,-3.14 3.27,-6.45 4.58,-9.8 0.08,-0.21 0.45,-0.81 0.85,-1.05 0.28,-0.15 0.6,-0.22 0.93,-0.22 0.01,0 0.02,0 0.02,0l13.7 0c1.49,0 2.51,0.22 2.71,0.8 0.34,0.91 -0.06,3.71 -6.31,12.17l-2.79 3.68c-5.67,7.43 -5.67,7.81 0.35,13.45l0 0z"/>
 </g>
</svg>
