<?xml version="1.0" encoding="UTF-8"?>
<!DOCTYPE svg PUBLIC "-//W3C//DTD SVG 1.1//EN" "http://www.w3.org/Graphics/SVG/1.1/DTD/svg11.dtd">
<!-- Creator: CorelDRAW 2021.5 -->
<svg xmlns="http://www.w3.org/2000/svg" xml:space="preserve" width="336px" height="176px" version="1.1" style="shape-rendering:geometricPrecision; text-rendering:geometricPrecision; image-rendering:optimizeQuality; fill-rule:evenodd; clip-rule:evenodd"
viewBox="0 0 336 176"
 xmlns:xlink="http://www.w3.org/1999/xlink"
 xmlns:xodm="http://www.corel.com/coreldraw/odm/2003">
 <defs>
  <style type="text/css">
   <![CDATA[
    .fil1 {fill:#D9DADA}
    .fil2 {fill:#FF904F}
    .fil0 {fill:white}
    .fil3 {fill:#FEFEFE;fill-rule:nonzero}
   ]]>
  </style>
 </defs>
 <g id="Слой_x0020_1">
  <metadata id="CorelCorpID_0Corel-Layer"/>
  <rect class="fil0" width="336" height="176"/>
  <g id="_105553178363488">
   <path class="fil1" d="M203.77 46.62l-47.38 0c-0.33,0 -0.62,0.12 -0.84,0.37 -0.23,0.24 -0.33,0.54 -0.3,0.87l2.6 31.53c0.04,0.51 0.4,0.92 0.91,1.03 1.84,0.39 3.61,0.91 4.56,1.16 4.66,1.26 10.34,3.81 13.04,7.34 2.87,3.74 2.48,5.41 2.48,10.92l0.18 12.37c0.01,0.63 0.52,1.13 1.15,1.13l18.13 0.02c0.6,0 1.09,-0.45 1.15,-1.05l5.46 -64.45c0.03,-0.33 -0.07,-0.63 -0.3,-0.87 -0.22,-0.24 -0.51,-0.37 -0.84,-0.37l0 0zm-27.41 48.09c0.48,-0.14 0.49,-0.28 0.12,-1.54 -2.04,-6.99 -13.95,-10.04 -20.24,-10.84 -9.8,-1.24 -21.05,0.53 -27.63,4.82 -1.63,1.07 -3.24,2.36 -4.28,4.04 -2.79,4.52 0.36,3.69 2.52,3.69 5.71,0 47.67,0.31 49.51,-0.17l0 0zm-23.18 -50.19l53.8 0c0.35,0 0.65,-0.14 0.88,-0.4 0.22,-0.27 0.31,-0.59 0.25,-0.93l-1.2 -7.25c-0.1,-0.56 -0.57,-0.96 -1.13,-0.96l-51.4 -0.02c-0.56,0 -1.03,0.4 -1.13,0.96l-1.2 7.27c-0.06,0.35 0.03,0.66 0.25,0.93 0.23,0.26 0.53,0.4 0.88,0.4zm-30.08 70.16c0.45,3.09 3.29,3.38 6.52,3.38l39.38 0c3.29,0 6.44,0.19 7.47,-2.44 0.06,-0.15 1.63,-9.36 -1.78,-6.13 -1.65,1.56 -2.48,3.62 -5.43,4.27 -5.68,1.24 -6.97,-4.35 -9.53,-5.05 -2.82,-0.76 -3.84,2.25 -5.79,3.77 -2.17,1.7 -5.14,1.93 -7.46,0.38 -1.42,-0.94 -1.37,-1.19 -2.43,-2.33 -5.72,-6.09 -5.43,3.71 -12.45,3.35 -3.05,-0.15 -4.63,-2.34 -5.97,-3.91 -0.51,-0.59 -2.35,-2.24 -2.57,-0.05 -0.08,0.78 -0.07,4.01 0.04,4.76l0 0zm44.9 -3.63c2.79,-0.08 3.77,-2.11 5.33,-3.71 1.61,-1.65 2.14,-1.17 2.96,-1.59 0.48,-0.26 1.45,-2.45 -1.14,-2.47l-45.13 0.01c-4.9,0 -7.53,-0.73 -6.92,1.89 0.16,0.72 0.76,0.61 1.52,0.85 2.75,0.86 5.12,7.49 9.93,4.28 1.82,-1.22 5.49,-8.49 10.87,-1.94 5.49,6.67 8.93,-0.54 10.76,-1.76 2.44,-1.61 5.04,-0.7 6.49,0.95 1.19,1.36 2.52,3.57 5.33,3.49l0 0zm18.44 -79.04c0.56,0.08 1.2,0.13 1.72,0.1 0.52,-0.03 1.01,-0.39 1.05,-0.91 0.24,-2.76 1.1,-9.42 1.34,-11.71 0.24,-2.26 0.82,-3.87 2.14,-4.8 3.76,-2.63 6.75,-0.45 10.16,1.56l7.79 4.39c0.52,0.29 1.16,0.11 1.49,-0.38 0.37,-0.55 0.75,-1.23 0.83,-1.53 0.33,-1.09 -0.78,-1.41 -1.44,-1.78 -2.95,-1.65 -5.85,-3.31 -8.8,-5.05 -3.24,-1.9 -6.52,-3.54 -10.83,-1.37 -3.18,1.59 -4.76,4.16 -5.25,8.6 -0.2,1.87 -1.18,9 -1.18,11.75 0,0.58 0.41,1.05 0.98,1.13l0 0zm-11.29 65.66c-0.59,0 -1.2,0.01 -1.8,0.01l-46.11 0c-2.13,0 -4.62,-0.56 -4.22,1.69 0.09,0.54 0.53,0.92 1.07,0.95 6.25,0.28 45.29,0.29 51.62,0.02 0.59,-0.03 1.05,-0.48 1.1,-1.06 0.03,-0.42 -0.04,-0.85 -0.28,-1.19 -0.31,-0.35 -0.18,-0.41 -1.38,-0.42l0 0zm-42.59 37.04l0 -0.79c-1.12,0 -2,-0.29 -2.63,-0.88 -0.64,-0.59 -0.96,-1.36 -0.96,-2.29 0,-0.92 0.32,-1.66 0.96,-2.24 0.64,-0.57 1.52,-0.86 2.63,-0.86l0 -0.62 1.97 0 0 0.62c1.12,0 1.99,0.29 2.63,0.86 0.64,0.58 0.96,1.32 0.96,2.24 0,0.93 -0.31,1.7 -0.95,2.29 -0.64,0.59 -1.52,0.88 -2.64,0.88l0 0.79 -1.97 0zm0 -2.53l0 -2.79c-0.47,0 -0.85,0.12 -1.14,0.37 -0.29,0.25 -0.44,0.59 -0.44,1.02 0,0.44 0.15,0.79 0.43,1.03 0.29,0.25 0.67,0.37 1.15,0.37l0 0zm1.97 0c0.48,0 0.86,-0.12 1.15,-0.37 0.29,-0.24 0.43,-0.59 0.43,-1.03 0,-0.43 -0.14,-0.77 -0.43,-1.02 -0.29,-0.25 -0.68,-0.37 -1.15,-0.37l0 2.79 0 0zm10.77 1.3c-0.73,0.71 -1.64,1.07 -2.73,1.07 -1.08,0 -1.99,-0.36 -2.71,-1.07 -0.73,-0.71 -1.09,-1.58 -1.09,-2.61 0,-1.03 0.37,-1.9 1.1,-2.61 0.73,-0.72 1.64,-1.07 2.72,-1.07 1.09,0 1.99,0.35 2.72,1.06 0.72,0.72 1.09,1.59 1.09,2.62 0,1.02 -0.37,1.89 -1.1,2.61l0 0zm-2.71 -0.7c0.54,0 0.97,-0.19 1.3,-0.56 0.34,-0.37 0.5,-0.82 0.5,-1.35 0,-0.53 -0.17,-0.98 -0.51,-1.35 -0.35,-0.38 -0.78,-0.56 -1.31,-0.56 -0.52,0 -0.95,0.18 -1.29,0.55 -0.33,0.37 -0.5,0.83 -0.5,1.36 0,0.52 0.17,0.97 0.51,1.35 0.34,0.37 0.78,0.56 1.3,0.56zm6.56 1.63l0 -5.36 -2.13 0 0 -1.72 6.21 0 0 1.72 -2.12 0 0 5.36 -1.96 0zm11.23 -0.93c-0.73,0.71 -1.64,1.07 -2.73,1.07 -1.08,0 -1.99,-0.36 -2.71,-1.07 -0.73,-0.71 -1.09,-1.58 -1.09,-2.61 0,-1.03 0.37,-1.9 1.1,-2.61 0.73,-0.72 1.64,-1.07 2.72,-1.07 1.09,0 1.99,0.35 2.72,1.06 0.72,0.72 1.09,1.59 1.09,2.62 0,1.02 -0.37,1.89 -1.1,2.61l0 0zm-2.71 -0.7c0.54,0 0.97,-0.19 1.3,-0.56 0.34,-0.37 0.5,-0.82 0.5,-1.35 0,-0.53 -0.17,-0.98 -0.51,-1.35 -0.35,-0.38 -0.78,-0.56 -1.31,-0.56 -0.52,0 -0.95,0.18 -1.29,0.55 -0.33,0.37 -0.5,0.83 -0.5,1.36 0,0.52 0.17,0.97 0.51,1.35 0.34,0.37 0.78,0.56 1.3,0.56zm4.83 1.63l0 -7.08 5.1 0 0 1.72 -3.14 0 0 5.36 -1.96 0zm5.92 0l0 -7.08 3.04 0c0.9,0 1.62,0.22 2.15,0.66 0.53,0.44 0.79,1.06 0.79,1.85 0,0.81 -0.28,1.43 -0.84,1.88 -0.56,0.44 -1.29,0.67 -2.2,0.67l-0.97 0 0 2.02 -1.97 0zm1.97 -3.56l0.93 0c0.35,0 0.62,-0.09 0.82,-0.26 0.2,-0.16 0.3,-0.39 0.3,-0.68 0,-0.31 -0.1,-0.54 -0.3,-0.7 -0.2,-0.15 -0.48,-0.23 -0.83,-0.23l-0.92 0 0 1.87 0 0zm4.27 3.56l3.02 -7.13 1.89 0 3.01 7.13 -2.1 0 -0.52 -1.27 -2.73 0 -0.5 1.27 -2.07 0 0 0zm3.15 -2.79l1.59 0 -0.79 -2.02 -0.8 2.02 0 0zm8.69 3.09l0 -0.79c-1.12,0 -2,-0.29 -2.64,-0.88 -0.63,-0.59 -0.95,-1.36 -0.95,-2.29 0,-0.92 0.32,-1.66 0.96,-2.24 0.64,-0.57 1.52,-0.86 2.63,-0.86l0 -0.62 1.97 0 0 0.62c1.11,0 1.99,0.29 2.63,0.86 0.64,0.58 0.96,1.32 0.96,2.24 0,0.93 -0.32,1.7 -0.96,2.29 -0.63,0.59 -1.51,0.88 -2.63,0.88l0 0.79 -1.97 0zm0 -2.53l0 -2.79c-0.47,0 -0.86,0.12 -1.14,0.37 -0.29,0.25 -0.44,0.59 -0.44,1.02 0,0.44 0.14,0.79 0.43,1.03 0.29,0.25 0.67,0.37 1.15,0.37l0 0zm1.97 0c0.48,0 0.86,-0.12 1.15,-0.37 0.28,-0.24 0.43,-0.59 0.43,-1.03 0,-0.43 -0.15,-0.77 -0.44,-1.02 -0.29,-0.25 -0.67,-0.37 -1.14,-0.37l0 2.79 0 0zm4.48 2.23l0 -7.08 1.94 0 0 3.98 2.74 -3.98 1.83 0 0 7.08 -1.94 0 0 -3.99 -2.74 3.99 -1.83 0zm7.44 0l1.69 -2.47c-0.97,-0.41 -1.45,-1.14 -1.45,-2.19 0,-0.79 0.27,-1.39 0.82,-1.8 0.55,-0.42 1.25,-0.62 2.11,-0.62l3.35 0 0 7.08 -1.96 0 0 -2.15 -0.86 0 -1.43 2.15 -2.27 0 0 0zm3.26 -3.65l1.3 0 0 -1.76 -1.29 0c-0.33,0 -0.59,0.07 -0.78,0.23 -0.19,0.16 -0.28,0.37 -0.28,0.66 0,0.26 0.09,0.47 0.28,0.63 0.18,0.16 0.44,0.24 0.77,0.24zm-82.06 15.24c-1.02,0 -1.89,-0.35 -2.59,-1.05 -0.71,-0.7 -1.06,-1.57 -1.06,-2.63 0,-1.04 0.36,-1.91 1.07,-2.62 0.71,-0.71 1.6,-1.06 2.66,-1.06 1.27,0 2.26,0.5 2.98,1.49l-1.44 1.12c-0.44,-0.55 -0.96,-0.82 -1.56,-0.82 -0.49,0 -0.89,0.18 -1.21,0.54 -0.32,0.37 -0.48,0.81 -0.48,1.35 0,0.54 0.16,0.99 0.48,1.35 0.32,0.36 0.72,0.54 1.21,0.54 0.35,0 0.64,-0.07 0.88,-0.22 0.25,-0.14 0.49,-0.36 0.72,-0.64l1.48 1.05c-0.37,0.51 -0.8,0.9 -1.3,1.18 -0.49,0.28 -1.1,0.42 -1.84,0.42l0 0zm3.98 -0.14l0 -7.08 1.96 0 0 2.87 2.44 -2.87 2.32 0 -2.68 3.04 2.77 4.04 -2.35 0 -1.78 -2.63 -0.72 0.8 0 1.83 -1.96 0 0 0zm13.67 -0.93c-0.74,0.71 -1.64,1.07 -2.73,1.07 -1.08,0 -1.99,-0.36 -2.71,-1.07 -0.73,-0.71 -1.09,-1.58 -1.09,-2.61 0,-1.03 0.36,-1.9 1.09,-2.61 0.74,-0.72 1.65,-1.07 2.73,-1.07 1.09,0 1.99,0.35 2.72,1.06 0.72,0.71 1.08,1.59 1.08,2.62 0,1.02 -0.36,1.89 -1.09,2.61l0 0zm-2.71 -0.7c0.53,0 0.97,-0.19 1.3,-0.56 0.33,-0.37 0.5,-0.82 0.5,-1.35 0,-0.53 -0.17,-0.98 -0.52,-1.35 -0.34,-0.38 -0.77,-0.56 -1.3,-0.56 -0.53,0 -0.96,0.18 -1.29,0.55 -0.33,0.37 -0.5,0.82 -0.5,1.36 0,0.52 0.17,0.97 0.51,1.35 0.34,0.37 0.78,0.56 1.3,0.56zm4.82 1.63l0 -7.08 3.04 0c0.9,0 1.62,0.22 2.15,0.66 0.53,0.44 0.79,1.06 0.79,1.85 0,0.8 -0.28,1.43 -0.84,1.88 -0.56,0.44 -1.29,0.66 -2.2,0.66l-0.97 0 0 2.03 -1.97 0zm1.97 -3.56l0.93 0c0.35,0 0.62,-0.09 0.82,-0.26 0.2,-0.16 0.3,-0.39 0.3,-0.68 0,-0.31 -0.1,-0.54 -0.3,-0.7 -0.2,-0.16 -0.48,-0.24 -0.83,-0.24l-0.92 0 0 1.88 0 0zm11.13 2.63c-0.73,0.71 -1.64,1.07 -2.73,1.07 -1.08,0 -1.99,-0.36 -2.71,-1.07 -0.73,-0.71 -1.09,-1.58 -1.09,-2.61 0,-1.03 0.36,-1.9 1.1,-2.61 0.73,-0.72 1.64,-1.07 2.72,-1.07 1.09,0 1.99,0.35 2.72,1.06 0.72,0.71 1.08,1.59 1.08,2.62 0,1.02 -0.36,1.89 -1.09,2.61l0 0zm-2.71 -0.7c0.53,0 0.97,-0.19 1.3,-0.56 0.34,-0.37 0.5,-0.82 0.5,-1.35 0,-0.53 -0.17,-0.98 -0.51,-1.35 -0.35,-0.38 -0.78,-0.56 -1.31,-0.56 -0.52,0 -0.95,0.18 -1.29,0.55 -0.33,0.37 -0.5,0.82 -0.5,1.36 0,0.52 0.17,0.97 0.51,1.35 0.34,0.37 0.78,0.56 1.3,0.56zm7.63 1.63l0 -7.08 6.34 0 0 7.08 -1.96 0 0 -5.36 -2.42 0 0 5.36 -1.96 0zm13.88 -0.93c-0.73,0.71 -1.64,1.07 -2.73,1.07 -1.08,0 -1.99,-0.36 -2.71,-1.07 -0.73,-0.71 -1.09,-1.58 -1.09,-2.61 0,-1.03 0.37,-1.9 1.1,-2.61 0.73,-0.72 1.64,-1.07 2.72,-1.07 1.09,0 1.99,0.35 2.72,1.06 0.72,0.71 1.08,1.59 1.08,2.62 0,1.02 -0.36,1.89 -1.09,2.61l0 0zm-2.71 -0.7c0.54,0 0.97,-0.19 1.3,-0.56 0.34,-0.37 0.5,-0.82 0.5,-1.35 0,-0.53 -0.17,-0.98 -0.51,-1.35 -0.35,-0.38 -0.78,-0.56 -1.31,-0.56 -0.52,0 -0.95,0.18 -1.29,0.55 -0.33,0.37 -0.5,0.82 -0.5,1.36 0,0.52 0.17,0.97 0.51,1.35 0.35,0.37 0.78,0.56 1.3,0.56zm4.5 1.63l1.69 -2.47c-0.97,-0.41 -1.45,-1.14 -1.45,-2.2 0,-0.78 0.27,-1.39 0.82,-1.8 0.55,-0.41 1.25,-0.61 2.11,-0.61l3.35 0 0 7.08 -1.97 0 0 -2.15 -0.85 0 -1.43 2.15 -2.27 0 0 0zm3.26 -3.65l1.29 0 0 -1.76 -1.28 0c-0.33,0 -0.59,0.07 -0.78,0.23 -0.19,0.15 -0.28,0.37 -0.28,0.66 0,0.26 0.09,0.47 0.28,0.63 0.18,0.16 0.44,0.24 0.77,0.24zm4.51 3.65l0 -7.08 3.63 0c0.87,0 1.51,0.21 1.93,0.63 0.31,0.31 0.46,0.7 0.46,1.17 0,0.73 -0.37,1.26 -1.09,1.58 0.46,0.14 0.8,0.36 1.04,0.63 0.24,0.28 0.36,0.65 0.36,1.12 0,0.6 -0.23,1.08 -0.71,1.43 -0.47,0.34 -1.12,0.52 -1.97,0.52l-3.65 0zm1.91 -1.58l1.52 0c0.63,0 0.94,-0.22 0.94,-0.67 0,-0.42 -0.32,-0.64 -0.96,-0.64l-1.5 0 0 1.31zm0 -2.68l1.24 0c0.62,0 0.93,-0.21 0.93,-0.64 0,-0.4 -0.3,-0.6 -0.89,-0.6l-1.28 0 0 1.24zm5.32 4.26l0 -7.08 1.94 0 0 3.98 2.75 -3.98 1.83 0 0 7.08 -1.95 0 0 -3.99 -2.74 3.99 -1.83 0zm9.5 0l0 -5.36 -2.12 0 0 -1.72 6.21 0 0 1.72 -2.13 0 0 5.36 -1.96 0zm8.35 0.14c-1.02,0 -1.89,-0.35 -2.59,-1.05 -0.7,-0.7 -1.06,-1.57 -1.06,-2.63 0,-1.04 0.36,-1.91 1.07,-2.62 0.71,-0.71 1.6,-1.06 2.67,-1.06 1.26,0 2.25,0.5 2.97,1.49l-1.44 1.12c-0.44,-0.55 -0.95,-0.82 -1.55,-0.82 -0.5,0 -0.9,0.18 -1.22,0.54 -0.32,0.37 -0.47,0.81 -0.47,1.35 0,0.54 0.15,0.99 0.47,1.35 0.32,0.36 0.72,0.54 1.22,0.54 0.34,0 0.63,-0.07 0.88,-0.22 0.24,-0.14 0.48,-0.36 0.71,-0.64l1.48 1.05c-0.37,0.51 -0.8,0.9 -1.29,1.18 -0.5,0.28 -1.11,0.42 -1.85,0.42l0 0zm3.65 -0.14l1.7 -2.47c-0.98,-0.41 -1.46,-1.14 -1.46,-2.2 0,-0.78 0.27,-1.39 0.82,-1.8 0.55,-0.41 1.25,-0.61 2.11,-0.61l3.35 0 0 7.08 -1.96 0 0 -2.15 -0.86 0 -1.43 2.15 -2.27 0 0 0zm3.26 -3.65l1.3 0 0 -1.76 -1.29 0c-0.33,0 -0.59,0.07 -0.78,0.23 -0.19,0.15 -0.28,0.37 -0.28,0.66 0,0.26 0.09,0.47 0.28,0.63 0.18,0.16 0.44,0.24 0.77,0.24z"/>
   <path class="fil2" d="M188.44 66.76c-0.25,-0.02 -0.36,0.12 -0.68,0.16 -0.78,0.12 -1.67,0.02 -2.15,-0.61 -0.26,-0.35 -0.41,-0.95 -0.33,-1.52 0.22,-1.65 1.87,-1.82 2.93,-1.34 0.23,-0.51 0.42,-0.96 0.55,-1.34 -0.51,-0.29 -1.49,-0.41 -2.17,-0.32 -0.75,0.1 -1.83,0.4 -2.54,1.47 -0.59,0.88 -0.72,2.14 -0.38,3.06 0.59,1.61 1.87,2.11 3.51,2.07 0.13,-0.01 0.69,-0.07 0.82,-0.11 0.33,-0.08 0.44,-0.05 0.67,-0.24l-0.23 -1.28 0 0zm7.99 3.57c0.36,-0.09 0.94,-0.22 1.23,-0.42 1.07,-0.74 1.55,-2.11 2,-3.34 0.36,-1 0.7,-1.97 1.02,-2.98l-1.74 -0.02c-0.1,0.51 -0.4,2.5 -0.73,2.48 -0.33,-0.01 -0.65,-1.97 -0.75,-2.47l-1.83 0c0.03,0.31 0.98,2.46 1.17,2.95 0.49,1.29 0.92,1.49 0.06,2.06 -0.26,0.17 -0.42,0.17 -0.76,0.25 0.13,0.55 0.18,0.86 0.33,1.49l0 0zm-3.84 -6.75l-0.58 0 0.02 1.28 0.57 0c0.13,1.08 -0.46,3.29 1.2,3.49 0.37,0.05 1.17,0.02 1.41,-0.13l0.02 -1.28c-0.67,-0.02 -0.96,0.24 -0.98,-0.52l0 -1.55 1 0 -0.01 -1.28 -0.98 -0.01 0 -1.24 -1.67 -0.01 0 1.25 0 0zm-1.37 4.69l0.02 -4.68 -1.66 0 -0.02 4.69 1.66 -0.01zm-1.2 -6.51c-0.78,0.24 -0.69,1.68 0.64,1.49 0.47,-0.07 0.74,-0.59 0.63,-0.97 -0.12,-0.37 -0.5,-0.76 -1.27,-0.52zm-27.81 6.38c0.89,0.32 3,0.22 3.76,-0.2l-0.02 -3.41c-0.22,0 -1.15,-0.02 -1.31,-0.02 -1.24,0.01 -1.32,-0.11 -1.31,0.3l0.01 0.87 0.96 -0.01c0.01,0.56 0.01,1.11 0,1.23 -0.31,0.12 -0.82,0.06 -1.12,-0.01 -0.95,-0.21 -1.45,-1.35 -1.18,-2.4 0.32,-1.26 1.87,-1.4 2.93,-1.09l0.46 0.14 0.38 -1.39c-1.69,-0.51 -3.64,-0.52 -4.88,0.93 -1.42,1.67 -0.76,4.3 1.32,5.06l0 0zm17.31 -2.02c-0.08,-0.62 0.2,-1.12 0.6,-1.3 0.25,-0.11 0.53,0.04 0.69,0.16 0.19,0.15 0.27,0.38 0.27,0.7 0.01,0.68 0.05,1.13 -0.58,1.31 -0.59,0.16 -0.92,-0.38 -0.98,-0.87l0 0zm3.19 -4.67l-1.61 0 -0.04 2.29c-0.2,0 -0.64,-0.33 -1.28,-0.26 -1.3,0.15 -1.97,1.25 -1.96,2.61 0.02,1.45 1.18,2.48 2.28,2.29 0.85,-0.15 0.8,-0.38 1.06,-0.43 0.11,0.13 0.07,0.2 0.13,0.33 0.17,0.04 0.85,0.01 1.15,0.01 0.05,0 0.13,0.01 0.18,0 0.15,-0.02 0.07,0.01 0.14,-0.04 0.01,-0.01 -0.04,-6.1 -0.05,-6.8zm-12.74 4.75c-0.31,1.63 -1.68,1.01 -1.51,-0.55 0.13,-1.19 1.21,-1.17 1.44,-0.33 0.07,0.26 0.12,0.61 0.07,0.88zm1.7 0.19c0.1,-0.89 0,-1.43 -0.41,-1.99 -1.14,-1.54 -4.23,-1.11 -4.52,1.06 -0.11,0.87 0.06,1.5 0.44,2.01 0.37,0.49 0.96,0.82 1.57,0.89 1.48,0.16 2.75,-0.59 2.92,-1.97l0 0zm3.84 0c-0.09,0.5 -0.55,0.99 -1.06,0.65 -0.45,-0.29 -0.52,-0.91 -0.4,-1.55 0.24,-1.29 1.79,-0.98 1.46,0.9zm1.73 0c0.18,-1.1 -0.29,-2.13 -1.06,-2.57 -0.58,-0.33 -1.45,-0.42 -2.1,-0.26 -0.89,0.22 -1.66,0.93 -1.77,1.89 -0.37,3.16 2.86,3.38 4.02,2.46 0.45,-0.35 0.79,-0.81 0.91,-1.52z"/>
   <path class="fil3" d="M161.31 72.69l0 -0.63 0.16 0c0.14,-0.28 0.21,-0.67 0.21,-1.18l0 -0.23 1.18 0 0 1.41 0.2 0 -0.04 0.63 -0.24 0 0 -0.36 -1.19 0 -0.02 0.36 -0.26 0zm0.47 -0.63l0.78 0 0 -1.15 -0.59 0 0 0.19c0,0.4 -0.06,0.72 -0.19,0.96zm2.98 0.04c-0.17,0.17 -0.38,0.26 -0.63,0.26 -0.25,0 -0.46,-0.09 -0.63,-0.26 -0.16,-0.16 -0.25,-0.37 -0.25,-0.61 0,-0.24 0.09,-0.45 0.25,-0.62 0.17,-0.17 0.38,-0.25 0.63,-0.25 0.26,0 0.47,0.08 0.63,0.25 0.17,0.17 0.25,0.37 0.25,0.62 0,0.24 -0.08,0.44 -0.25,0.61l0 0zm-1.03 -0.19c0.1,0.12 0.24,0.17 0.4,0.17 0.17,0 0.31,-0.05 0.41,-0.17 0.11,-0.11 0.16,-0.26 0.16,-0.42 0,-0.17 -0.05,-0.31 -0.16,-0.43 -0.11,-0.11 -0.25,-0.17 -0.41,-0.17 -0.17,0 -0.3,0.06 -0.41,0.17 -0.1,0.12 -0.16,0.26 -0.16,0.43 0,0.16 0.06,0.3 0.16,0.42l0.01 0zm2.42 0.45c-0.25,0 -0.45,-0.09 -0.61,-0.25 -0.16,-0.17 -0.25,-0.38 -0.25,-0.62 0,-0.25 0.09,-0.45 0.25,-0.62 0.16,-0.17 0.37,-0.25 0.62,-0.25 0.15,0 0.27,0.02 0.37,0.06 0.1,0.05 0.2,0.11 0.29,0.2l-0.19 0.22c-0.15,-0.14 -0.31,-0.21 -0.47,-0.21 -0.16,0 -0.29,0.06 -0.4,0.17 -0.1,0.12 -0.16,0.26 -0.16,0.43 0,0.16 0.06,0.3 0.16,0.42 0.11,0.12 0.24,0.17 0.4,0.17 0.09,0 0.18,-0.01 0.25,-0.05 0.08,-0.04 0.15,-0.09 0.23,-0.16l0.19 0.19c-0.09,0.1 -0.19,0.17 -0.3,0.22 -0.11,0.05 -0.23,0.07 -0.38,0.07l0 0.01zm1.4 -0.03l0 -1.41 -0.53 0 0 -0.27 1.36 0 0 0.27 -0.53 0 0 1.41 -0.3 0zm1 0l0.74 -1.7 0.27 0 0.74 1.7 -0.31 0 -0.17 -0.41 -0.79 0 -0.18 0.41 -0.3 0zm0.59 -0.67l0.57 0 -0.29 -0.67 -0.28 0.67zm1.45 0.67l0 -1.68 0.75 0c0.2,0 0.35,0.04 0.44,0.14 0.08,0.08 0.12,0.17 0.12,0.29 0,0.16 -0.08,0.29 -0.24,0.37 0.22,0.08 0.33,0.22 0.33,0.42 0,0.14 -0.05,0.26 -0.17,0.34 -0.11,0.08 -0.26,0.12 -0.45,0.12l-0.78 0 0 0zm0.29 -0.98l0.41 0c0.09,0 0.17,-0.02 0.23,-0.06 0.05,-0.03 0.08,-0.09 0.08,-0.17 0,-0.07 -0.02,-0.12 -0.07,-0.16 -0.06,-0.03 -0.13,-0.05 -0.22,-0.05l-0.43 0 0 0.44 0 0zm0 0.71l0.49 0c0.1,0 0.18,-0.02 0.24,-0.06 0.06,-0.04 0.09,-0.09 0.09,-0.17 0,-0.15 -0.12,-0.23 -0.35,-0.23l-0.47 0 0 0.46 0 0zm1.45 0.27l0 -1.68 0.29 0 0 0.84 0.8 -0.84 0.36 0 -0.7 0.72 0.73 0.96 -0.35 0 -0.58 -0.76 -0.26 0.27 0 0.49 -0.29 0zm1.59 0l0.74 -1.7 0.27 0 0.74 1.7 -0.31 0 -0.17 -0.41 -0.79 0 -0.18 0.41 -0.3 0zm0.59 -0.67l0.57 0 -0.29 -0.67 -0.28 0.67zm2.17 0.67l0 -1.68 0.76 0c0.19,0 0.34,0.04 0.44,0.14 0.07,0.08 0.11,0.17 0.11,0.29 0,0.16 -0.08,0.29 -0.24,0.37 0.22,0.08 0.33,0.22 0.33,0.42 0,0.14 -0.05,0.26 -0.17,0.34 -0.11,0.08 -0.26,0.12 -0.45,0.12l-0.78 0 0 0zm0.29 -0.98l0.41 0c0.09,0 0.17,-0.02 0.23,-0.06 0.05,-0.03 0.08,-0.09 0.08,-0.17 0,-0.07 -0.02,-0.12 -0.07,-0.16 -0.06,-0.03 -0.13,-0.05 -0.22,-0.05l-0.43 0 0 0.44 0 0zm0 0.71l0.49 0c0.1,0 0.18,-0.02 0.24,-0.06 0.06,-0.04 0.09,-0.09 0.09,-0.17 0,-0.15 -0.12,-0.23 -0.35,-0.23l-0.47 0 0 0.46 0 0zm1.44 0.27l0 -1.68 0.3 0 0 0.84 0.8 -0.84 0.36 0 -0.7 0.72 0.73 0.96 -0.35 0 -0.58 -0.76 -0.26 0.27 0 0.49 -0.3 0zm2.04 0.02c-0.12,0 -0.23,-0.03 -0.33,-0.08l0.11 -0.22c0.06,0.03 0.13,0.05 0.21,0.05 0.1,0 0.19,-0.06 0.26,-0.18l-0.7 -1.27 0.33 0 0.53 0.97 0.46 -0.97 0.31 0 -0.65 1.31c-0.13,0.26 -0.31,0.39 -0.53,0.39l0 0zm2.24 0.01c-0.24,0 -0.44,-0.09 -0.61,-0.25 -0.16,-0.17 -0.24,-0.38 -0.24,-0.62 0,-0.25 0.08,-0.45 0.24,-0.62 0.17,-0.17 0.37,-0.25 0.62,-0.25 0.15,0 0.27,0.02 0.38,0.06 0.1,0.05 0.19,0.11 0.28,0.2l-0.19 0.22c-0.15,-0.14 -0.3,-0.21 -0.47,-0.21 -0.16,0 -0.29,0.06 -0.39,0.17 -0.11,0.12 -0.16,0.26 -0.16,0.43 0,0.16 0.05,0.3 0.16,0.42 0.1,0.12 0.24,0.17 0.39,0.17 0.1,0 0.18,-0.01 0.26,-0.05 0.07,-0.04 0.15,-0.09 0.23,-0.16l0.19 0.19c-0.1,0.1 -0.2,0.17 -0.3,0.22 -0.11,0.05 -0.24,0.07 -0.39,0.07l0 0.01zm1 -0.03l0 -1.68 0.29 0 0 0.69 0.8 0 0 -0.69 0.3 0 0 1.68 -0.3 0 0 -0.71 -0.8 0 0 0.71 -0.29 0zm3.25 -0.23c-0.16,0.17 -0.37,0.26 -0.63,0.26 -0.25,0 -0.46,-0.09 -0.63,-0.26 -0.16,-0.16 -0.24,-0.37 -0.24,-0.61 0,-0.24 0.08,-0.45 0.24,-0.62 0.17,-0.17 0.38,-0.25 0.64,-0.25 0.25,0 0.46,0.08 0.62,0.25 0.17,0.17 0.25,0.37 0.25,0.62 0,0.24 -0.08,0.44 -0.25,0.61l0 0zm-1.03 -0.19c0.1,0.12 0.24,0.17 0.41,0.17 0.16,0 0.3,-0.05 0.4,-0.17 0.11,-0.11 0.16,-0.26 0.16,-0.42 0,-0.17 -0.05,-0.31 -0.16,-0.43 -0.11,-0.11 -0.25,-0.17 -0.41,-0.17 -0.16,0 -0.3,0.06 -0.41,0.17 -0.1,0.12 -0.16,0.26 -0.16,0.43 0,0.16 0.06,0.3 0.17,0.42l0 0zm2.61 -1.49c-0.07,0.06 -0.15,0.09 -0.25,0.09 -0.1,0 -0.19,-0.03 -0.25,-0.09 -0.07,-0.06 -0.11,-0.14 -0.13,-0.24l0.18 -0.04c0.03,0.11 0.09,0.17 0.2,0.17 0.1,0 0.16,-0.06 0.2,-0.17l0.17 0.04c-0.01,0.1 -0.05,0.18 -0.12,0.24l0 0zm-0.97 1.91l0 -1.68 0.29 0 0 1.22 0.85 -1.22 0.28 0 0 1.68 -0.29 0 0 -1.23 -0.85 1.23 -0.28 0zm2.57 0l0 -1.68 1.25 0 0 0.26 -0.95 0 0 0.44 0.84 0 0 0.26 -0.84 0 0 0.45 0.96 0 0 0.27 -1.26 0 0 0zm1.42 0.36l0 -0.63 0.16 0c0.14,-0.28 0.21,-0.67 0.21,-1.18l0 -0.23 1.18 0 0 1.41 0.2 0 -0.04 0.63 -0.24 0 0 -0.36 -1.18 0 -0.03 0.36 -0.26 0zm0.48 -0.63l0.77 0 0 -1.15 -0.59 0 0 0.19c0,0.4 -0.06,0.72 -0.18,0.96zm1.54 0.27l0 -1.68 0.29 0 0 0.6 0.39 0c0.19,0 0.34,0.05 0.46,0.14 0.11,0.09 0.17,0.22 0.17,0.39 0,0.17 -0.06,0.3 -0.17,0.4 -0.11,0.1 -0.27,0.15 -0.46,0.15l-0.68 0 0 0zm0.29 -0.27l0.38 0c0.11,0 0.2,-0.02 0.26,-0.07 0.06,-0.05 0.09,-0.12 0.09,-0.22 0,-0.08 -0.03,-0.15 -0.09,-0.19 -0.07,-0.05 -0.15,-0.07 -0.26,-0.07l-0.38 0 0 0.55 0 0zm1.22 0.27l0 -1.68 0.29 0 0 1.68 -0.29 0z"/>
  </g>
 </g>
</svg>
