<?xml version="1.0" encoding="UTF-8"?>
<!DOCTYPE svg PUBLIC "-//W3C//DTD SVG 1.1//EN" "http://www.w3.org/Graphics/SVG/1.1/DTD/svg11.dtd">
<!-- Creator: CorelDRAW 2021 (64-Bit) -->
<svg xmlns="http://www.w3.org/2000/svg" xml:space="preserve" width="52.5403mm" height="28.5341mm" version="1.1" style="shape-rendering:geometricPrecision; text-rendering:geometricPrecision; image-rendering:optimizeQuality; fill-rule:evenodd; clip-rule:evenodd"
viewBox="0 0 2650.93 1439.69"
 xmlns:xlink="http://www.w3.org/1999/xlink"
 xmlns:xodm="http://www.corel.com/coreldraw/odm/2003">
 <defs>
  <style type="text/css">
   <![CDATA[
    .fil2 {fill:#33CC66}
    .fil1 {fill:#FD7222}
    .fil0 {fill:#FD7222}
    .fil3 {fill:#FD7222;fill-rule:nonzero}
   ]]>
  </style>
 </defs>
 <g id="Слой_x0020_1">
  <metadata id="CorelCorpID_0Corel-Layer"/>
  <g id="_1592490291248">
   <path class="fil0" d="M1652.91 434.52c79.44,-12.07 120.15,35.37 135.84,97.3 17.81,70.29 22.06,133.98 22.61,214.23 0.52,76.07 0.17,153.48 -15.45,221.54 -14.41,62.8 -41.04,115.61 -111.26,125.43 -72.41,10.12 -118.62,-29.41 -137.14,-95.55 -2.03,-7.24 -3.48,-19.65 -5.32,-26.56 -9.88,-37.01 -8.22,-38.06 -10.45,-78.95 -5.71,-104.76 -14.05,-233.54 8.89,-332.26 16.16,-69.56 40.55,-114.26 112.29,-125.16zm-174.38 -74.69c-20,18.7 -34.28,31.62 -51.5,57.34 -15.12,22.58 -25.28,44.63 -36.72,70.87 -18.4,42.25 -35.12,124.93 -37.81,177.18 -12.06,181.97 -2.49,394.3 98.44,493.17 53.38,52.29 121.44,74.59 225.94,72.34 44.98,-0.96 87.74,-9.24 122.66,-24.77 18.01,-8.01 31.28,-15.87 47.28,-27.12 54.4,-45.97 86.69,-85.45 108.76,-158.5 39.7,-131.45 43.69,-294.35 22.62,-432.28 -3.98,-26.08 -7.58,-55.17 -14.71,-78.79 -29.99,-99.32 -81.66,-171.6 -180.15,-199.36 -50.19,-14.14 -118.6,-18.11 -174.2,-8.99 -23.61,3.87 -53.81,14.08 -72.63,22.88 -35.73,16.7 -34.99,21.95 -58,36.04z"/>
   <path class="fil1" d="M2473.83 956.2c-1.09,13.72 -6.19,32.73 -6.66,43.2 -1.64,19.44 -17.66,47.19 -28.84,60.02 -6.75,7.74 -13.19,12.69 -23.53,19.44 -66,43.04 -156.69,14.74 -184.21,-58.73 -7.07,-18.87 -16.06,-55.69 -17.54,-73.28 -3.01,-35.62 -9.75,-80.22 -4.21,-117.33 64.35,-45.91 193.2,-76.18 241.85,-10.16 27.12,36.8 26.69,92.39 23.15,136.85zm-437 -273.96c-1.5,31.48 -4.2,65.92 -4.71,99.65 -1.56,104.25 3.53,173.42 33.07,274.78 58.21,199.7 316.73,208.66 449,128.71 82.62,-49.94 123.1,-128.86 133.72,-224.48 10.09,-90.91 -3.91,-177.93 -60.23,-242.74 -26.38,-30.36 -46.16,-31.4 -57.18,-42.22 -14.97,-3.78 -22.9,-9.63 -39.2,-14.11 -12.5,-3.44 -27.13,-6.76 -41.75,-8.2 -76.59,-7.54 -167.03,-0.41 -231.45,44.6 -16.73,11.69 -12.47,5.31 -13.69,4.09 -6.16,-7.74 3.41,-64.41 5.19,-76.32 25.84,-172.86 143.14,-224.93 305.81,-184.79 22.63,5.59 42.61,18.58 69.96,14.66 10.8,-20.84 13.43,-102.84 -1.72,-120.79 -17.19,-20.36 -69.87,-30.41 -104.79,-34.21 -89.76,-9.76 -163.52,-2.6 -236.25,32.39 -121.1,58.26 -169.2,165.43 -195.3,289.38l-10.49 59.61z"/>
   <path class="fil1" d="M1143.5 956.2c-1.09,13.72 -6.19,32.73 -6.66,43.2 -1.64,19.44 -17.66,47.19 -28.84,60.02 -6.75,7.74 -13.19,12.69 -23.53,19.44 -66,43.04 -156.69,14.74 -184.21,-58.73 -7.07,-18.87 -16.06,-55.69 -17.54,-73.28 -3.01,-35.62 -9.75,-80.22 -4.21,-117.33 64.35,-45.91 193.2,-76.18 241.85,-10.16 27.12,36.8 26.69,92.39 23.15,136.85zm-437 -273.96c-1.5,31.48 -4.2,65.92 -4.71,99.65 -1.37,91.88 7.25,186.17 33.07,274.78 58.21,199.7 316.73,208.66 449,128.71 82.62,-49.94 123.1,-128.86 133.72,-224.48 10.09,-90.91 -3.91,-177.93 -60.23,-242.74 -26.38,-30.36 -46.16,-31.4 -57.18,-42.22 -14.97,-3.78 -22.9,-9.63 -39.2,-14.11 -12.5,-3.44 -27.13,-6.76 -41.75,-8.2 -76.59,-7.54 -167.03,-0.41 -231.45,44.6 -16.73,11.69 -12.47,5.31 -13.69,4.09 -6.16,-7.74 3.41,-64.41 5.19,-76.32 25.84,-172.86 143.14,-224.93 305.81,-184.79 22.63,5.59 42.61,18.58 69.96,14.66 10.8,-20.84 13.43,-102.84 -1.72,-120.79 -17.19,-20.36 -69.87,-30.41 -104.79,-34.21 -89.76,-9.76 -163.52,-2.6 -236.25,32.39 -121.1,58.26 -169.2,165.43 -195.3,289.38l-10.49 59.61z"/>
   <path class="fil2" d="M596.19 1031.38c2.44,-24.14 -27.03,-64.48 -40.15,-85.46 -25.86,-41.35 -33.22,-70.63 -60.5,-54.03 -29.49,17.95 -34.54,52.18 -74.45,7.21 -22.85,-25.75 -86.2,-132.44 -92.21,-156.45 -11.66,-46.6 52.87,-39.28 59.04,-64.11 3.31,-13.34 -33.05,-68.58 -41.41,-82.48 -22.57,-37.54 -35.53,-71.72 -60.38,-51.98 -24.25,19.25 -46.91,28.41 -58.82,65.61 -30.15,94.14 24.47,202.71 72.55,281.56 7.19,11.79 16.72,25.34 24.96,37.19 29.83,42.89 38.84,47.35 73.53,81.81 5.05,5.01 10.28,8.67 17.33,13.8 36.04,26.25 92.28,51.31 140.33,28.8 13.68,-6.41 29.6,-12.91 40.18,-21.47zm-209.61 -605.8c213.51,0 386.58,173.08 386.58,386.58 0,213.51 -173.08,386.58 -386.58,386.58 -213.51,0 -386.58,-173.08 -386.58,-386.58 0,-213.51 173.08,-386.58 386.58,-386.58z"/>
   <path class="fil3" d="M86.41 267.52l0 -91.5 14.78 0c4.97,-3.38 9.51,-8.02 13.65,-14.03 4.14,-6.01 7.68,-14.47 10.59,-25.41 2.96,-10.95 5.08,-25.37 6.31,-43.36l6.7 -90.33 147.1 0 0 173.14 23.05 0 0 91.4 -49.95 0 0 -51.23 -122.27 0 0 51.32 -49.95 0zm74.39 -91.5l74.73 0 0 -131.24 -50.45 0 -3.4 48.44c-0.89,13.54 -2.37,25.47 -4.38,35.83 -2.02,10.31 -4.44,19.35 -7.24,27.03 -2.81,7.62 -5.86,14.27 -9.26,19.94z"/>
   <path id="_1" class="fil3" d="M535.24 109.54c0,23.46 -4.53,43.36 -13.64,59.68 -9.12,16.33 -21.38,28.69 -36.9,37.2 -15.51,8.46 -32.85,12.71 -52.12,12.71 -19.31,0 -36.7,-4.3 -52.17,-12.81 -15.47,-8.55 -27.74,-20.97 -36.8,-37.25 -9.06,-16.28 -13.59,-36.12 -13.59,-59.54 0,-23.46 4.53,-43.36 13.59,-59.68 9.07,-16.28 21.33,-28.69 36.8,-37.15 15.47,-8.51 32.86,-12.71 52.17,-12.71 19.26,0 36.61,4.2 52.12,12.71 15.52,8.46 27.79,20.87 36.9,37.15 9.11,16.33 13.64,36.22 13.64,59.68zm-53.1 0c0,-13.88 -1.97,-25.61 -5.96,-35.19 -3.94,-9.58 -9.6,-16.82 -16.99,-21.75 -7.39,-4.94 -16.26,-7.43 -26.6,-7.43 -10.3,0 -19.11,2.49 -26.55,7.43 -7.44,4.93 -13.1,12.17 -17.04,21.75 -3.94,9.58 -5.96,21.31 -5.96,35.19 0,13.88 2.02,25.62 5.96,35.19 3.94,9.58 9.61,16.87 17.04,21.8 7.44,4.94 16.26,7.38 26.55,7.38 10.34,0 19.21,-2.44 26.6,-7.38 7.39,-4.93 13.05,-12.22 16.99,-21.8 3.99,-9.58 5.96,-21.31 5.96,-35.19z"/>
   <path id="_2" class="fil3" d="M760.57 80.16l-52.46 0c-0.7,-5.33 -2.12,-10.17 -4.29,-14.47 -2.21,-4.3 -5.08,-7.97 -8.62,-11.04 -3.6,-3.03 -7.79,-5.38 -12.66,-7.04 -4.87,-1.61 -10.25,-2.45 -16.11,-2.45 -10.44,0 -19.41,2.54 -26.94,7.63 -7.49,5.08 -13.25,12.41 -17.3,21.99 -4.04,9.58 -6.05,21.17 -6.05,34.75 0,14.18 2.07,26.06 6.16,35.59 4.09,9.53 9.85,16.72 17.34,21.55 7.44,4.84 16.26,7.24 26.5,7.24 5.72,0 10.94,-0.73 15.67,-2.2 4.73,-1.47 8.92,-3.57 12.51,-6.4 3.6,-2.79 6.55,-6.26 8.92,-10.31 2.32,-4.06 3.94,-8.65 4.88,-13.78l52.46 0.29c-0.88,9.44 -3.64,18.77 -8.22,27.91 -4.58,9.19 -10.89,17.55 -18.87,25.08 -7.94,7.53 -17.69,13.49 -29.11,17.94 -11.43,4.45 -24.54,6.7 -39.31,6.7 -19.46,0 -36.85,-4.25 -52.22,-12.76 -15.37,-8.51 -27.49,-20.92 -36.36,-37.25 -8.87,-16.33 -13.35,-36.17 -13.35,-59.59 0,-23.46 4.53,-43.36 13.55,-59.68 9.02,-16.28 21.23,-28.69 36.66,-37.15 15.36,-8.51 32.61,-12.71 51.72,-12.71 13,0 25.08,1.76 36.11,5.33 11.09,3.62 20.79,8.79 29.21,15.64 8.38,6.84 15.22,15.2 20.44,25.17 5.27,9.92 8.52,21.26 9.75,34.02z"/>
   <polygon id="_3" class="fil3" points="783.19,44.77 783.19,2.88 964.87,2.88 964.87,44.77 899.7,44.77 899.7,216.2 848.46,216.2 848.46,44.77 "/>
   <path id="_4" class="fil3" d="M1009.99 216.2l-55.81 0 72.51 -213.31 69.17 0 72.51 213.31 -55.82 0 -50.49 -159.54 -1.68 0 -50.4 159.54zm-7.44 -83.93l116.71 0 0 39.15 -116.71 0 0 -39.15z"/>
   <path id="_5" class="fil3" d="M1191.58 216.2l0 -213.31 89.66 0c16.11,0 29.56,2.3 40.45,6.8 10.88,4.5 19.06,10.8 24.58,18.97 5.47,8.11 8.23,17.5 8.23,28.2 0,8.11 -1.73,15.35 -5.13,21.7 -3.45,6.35 -8.17,11.63 -14.19,15.79 -6.01,4.16 -12.96,7.09 -20.89,8.75l0 2.1c8.67,0.39 16.71,2.73 24.09,6.94 7.39,4.25 13.3,10.12 17.79,17.69 4.49,7.53 6.75,16.42 6.75,26.69 0,11.44 -2.96,21.71 -8.82,30.7 -5.91,9 -14.38,16.03 -25.52,21.22 -11.14,5.18 -24.63,7.77 -40.54,7.77l-96.46 0zm51.97 -41.55l32.12 0c11.28,0 19.56,-2.1 24.92,-6.35 5.37,-4.25 8.03,-10.17 8.03,-17.69 0,-5.52 -1.28,-10.27 -3.89,-14.22 -2.56,-4.01 -6.25,-7.09 -11.03,-9.29 -4.73,-2.2 -10.44,-3.27 -17.09,-3.27l-33.05 0 0 50.83zm0 -84.07l28.77 0c5.66,0 10.69,-0.93 15.13,-2.79 4.38,-1.86 7.83,-4.6 10.29,-8.11 2.51,-3.57 3.74,-7.82 3.74,-12.81 0,-7.18 -2.56,-12.81 -7.63,-16.91 -5.13,-4.06 -12.02,-6.11 -20.69,-6.11l-29.61 0 0 46.73z"/>
   <polygon id="_6" class="fil3" points="1519.18,216.2 1451.59,127.67 1439.81,127.67 1439.81,216.2 1387.84,216.2 1387.84,2.88 1439.81,2.88 1439.81,85.68 1448.09,85.68 1514.64,2.88 1579.63,2.88 1496.81,103.62 1583.91,216.2 "/>
   <path id="_7" class="fil3" d="M1649.52 216.2l-55.81 0 72.51 -213.31 69.17 0 72.51 213.31 -55.82 0 -50.49 -159.54 -1.68 0 -50.4 159.54zm-7.44 -83.93l116.71 0 0 39.15 -116.71 0 0 -39.15z"/>
   <polygon id="_8" class="fil3" points="1894.71,216.2 1894.71,2.88 2044.62,2.88 2044.62,44.77 1946.68,44.77 1946.68,88.52 2036.93,88.52 2036.93,130.46 1946.68,130.46 1946.68,174.31 2044.62,174.31 2044.62,216.2 "/>
   <path id="_9" class="fil3" d="M2067.82 267.52l0 -91.5 14.77 0c4.98,-3.38 9.51,-8.02 13.65,-14.03 4.14,-6.01 7.68,-14.47 10.6,-25.41 2.95,-10.95 5.08,-25.37 6.31,-43.36l6.7 -90.33 147.1 0 0 173.14 23.06 0 0 91.4 -49.95 0 0 -51.23 -122.27 0 0 51.32 -49.95 0zm74.39 -91.5l74.73 0 0 -131.24 -50.44 0 -3.41 48.44c-0.88,13.54 -2.36,25.47 -4.38,35.83 -2.02,10.31 -4.44,19.35 -7.24,27.03 -2.81,7.62 -5.86,14.27 -9.26,19.94z"/>
   <path id="_10" class="fil3" d="M2347.24 78.11l47.88 0c17.54,0 32.81,2.79 45.76,8.41 12.91,5.62 22.96,13.54 30.06,23.75 7.09,10.22 10.64,22.24 10.64,36.03 0,13.83 -3.54,26 -10.64,36.47 -7.09,10.5 -17.15,18.67 -30.06,24.59 -12.96,5.91 -28.22,8.84 -45.76,8.84l-80.3 0 0 -213.31 51.83 0 0 172.5 28.47 0c7.54,0 13.94,-1.32 19.11,-3.91 5.22,-2.59 9.16,-6.16 11.88,-10.61 2.71,-4.5 3.99,-9.48 3.94,-14.95 0.05,-7.92 -2.91,-14.52 -8.92,-19.84 -6,-5.33 -14.68,-7.97 -26.01,-7.97l-47.88 0 0 -39.99zm202.47 -75.23l0 213.31 -51.88 0 0 -213.31 51.88 0z"/>
   <polygon class="fil3" points="863.67,1397.15 863.67,1283.69 892.17,1283.69 892.17,1329.48 902.55,1329.48 938.87,1283.69 973.17,1283.69 928.42,1339.4 973.64,1397.15 939.2,1397.15 906.08,1354.37 892.17,1354.37 892.17,1397.15 "/>
   <path id="_1_0" class="fil3" d="M1037.43 1399.37c-11.81,0 -22.03,-2.43 -30.68,-7.32 -8.64,-4.89 -15.36,-11.68 -20.08,-20.45 -4.76,-8.77 -7.12,-19.03 -7.12,-30.75 0,-11.72 2.36,-21.98 7.12,-30.79 4.72,-8.8 11.44,-15.67 20.08,-20.52 8.64,-4.89 18.87,-7.32 30.68,-7.32 11.78,0 22,2.43 30.68,7.32 8.64,4.85 15.36,11.72 20.09,20.52 4.76,8.81 7.12,19.07 7.12,30.79 0,11.72 -2.37,21.98 -7.12,30.75 -4.73,8.77 -11.44,15.57 -20.09,20.45 -8.68,4.89 -18.9,7.32 -30.68,7.32zm0.15 -21.42c6.39,0 11.74,-1.67 16.06,-5 4.28,-3.32 7.49,-7.8 9.64,-13.42 2.1,-5.58 3.17,-11.86 3.17,-18.75 0,-6.93 -1.07,-13.21 -3.17,-18.86 -2.14,-5.65 -5.35,-10.12 -9.64,-13.48 -4.32,-3.37 -9.67,-5.03 -16.06,-5.03 -6.53,0 -11.99,1.67 -16.32,5.03 -4.32,3.36 -7.57,7.83 -9.67,13.48 -2.14,5.65 -3.18,11.93 -3.18,18.86 0,6.9 1.03,13.17 3.18,18.75 2.1,5.62 5.35,10.09 9.67,13.42 4.32,3.33 9.79,5 16.32,5z"/>
   <path id="_2_1" class="fil3" d="M1119.39 1439.69l0 -156 28.02 0 0 18.75 1.66 0c1.44,-2.74 3.51,-5.69 6.2,-8.8 2.66,-3.12 6.28,-5.83 10.85,-8.04 4.58,-2.26 10.37,-3.37 17.46,-3.37 9.34,0 17.76,2.22 25.29,6.66 7.53,4.48 13.51,11.06 17.94,19.73 4.42,8.7 6.64,19.34 6.64,31.96 0,12.44 -2.18,23.05 -6.53,31.75 -4.35,8.7 -10.27,15.36 -17.8,19.93 -7.49,4.58 -15.98,6.9 -25.47,6.9 -6.91,0 -12.66,-1.11 -17.24,-3.26 -4.54,-2.18 -8.19,-4.79 -10.96,-7.87 -2.73,-3.09 -4.87,-6 -6.39,-8.77l-1.18 0 0 60.43 -28.5 0zm27.94 -99.26c0,7.32 1.1,13.76 3.32,19.27 2.26,5.51 5.46,9.81 9.68,12.9 4.24,3.05 9.37,4.61 15.39,4.61 6.28,0 11.55,-1.59 15.8,-4.78 4.25,-3.15 7.46,-7.52 9.64,-13.07 2.17,-5.55 3.28,-11.86 3.28,-18.93 0,-7.07 -1.11,-13.31 -3.24,-18.79 -2.14,-5.44 -5.36,-9.74 -9.6,-12.83 -4.25,-3.12 -9.52,-4.68 -15.87,-4.68 -6.09,0 -11.26,1.52 -15.5,4.51 -4.25,3.02 -7.46,7.25 -9.64,12.65 -2.18,5.4 -3.25,11.79 -3.25,19.13z"/>
   <path id="_3_2" class="fil3" d="M1310.47 1399.37c-11.81,0 -22.03,-2.43 -30.67,-7.32 -8.64,-4.89 -15.36,-11.68 -20.09,-20.45 -4.76,-8.77 -7.12,-19.03 -7.12,-30.75 0,-11.72 2.37,-21.98 7.12,-30.79 4.72,-8.8 11.44,-15.67 20.09,-20.52 8.64,-4.89 18.87,-7.32 30.67,-7.32 11.78,0 22,2.43 30.68,7.32 8.64,4.85 15.35,11.72 20.08,20.52 4.76,8.81 7.12,19.07 7.12,30.79 0,11.72 -2.36,21.98 -7.12,30.75 -4.73,8.77 -11.44,15.57 -20.08,20.45 -8.68,4.89 -18.91,7.32 -30.68,7.32zm0.15 -21.42c6.39,0 11.74,-1.67 16.06,-5 4.28,-3.32 7.49,-7.8 9.63,-13.42 2.11,-5.58 3.18,-11.86 3.18,-18.75 0,-6.93 -1.07,-13.21 -3.18,-18.86 -2.14,-5.65 -5.35,-10.12 -9.63,-13.48 -4.32,-3.37 -9.67,-5.03 -16.06,-5.03 -6.53,0 -12,1.67 -16.32,5.03 -4.32,3.36 -7.57,7.83 -9.67,13.48 -2.14,5.65 -3.17,11.93 -3.17,18.86 0,6.9 1.03,13.17 3.17,18.75 2.1,5.62 5.35,10.09 9.67,13.42 4.32,3.33 9.78,5 16.32,5z"/>
   <polygon id="_4_3" class="fil3" points="1379.28,1305.63 1379.28,1283.69 1485.01,1283.69 1485.01,1305.63 1445.92,1305.63 1445.92,1397.15 1418.38,1397.15 1418.38,1305.63 "/>
   <polygon id="_5_4" class="fil3" points="1507.72,1397.15 1507.72,1283.69 1536.22,1283.69 1536.22,1329.48 1546.59,1329.48 1582.92,1283.69 1617.21,1283.69 1572.47,1339.4 1617.69,1397.15 1583.25,1397.15 1550.13,1354.37 1536.22,1354.37 1536.22,1397.15 "/>
   <polygon id="_6_5" class="fil3" points="1661.26,1360.96 1709.62,1283.69 1738.89,1283.69 1738.89,1397.15 1711.35,1397.15 1711.35,1319.81 1663.14,1397.15 1633.79,1397.15 1633.79,1283.69 1661.26,1283.69 "/>
   <path id="_7_6" class="fil3" d="M1795.52 1360.96l48.37 -77.27 29.27 0 0 113.46 -27.54 0 0 -77.34 -48.21 77.34 -29.34 0 0 -113.46 27.46 0 0 77.27zm40.5 -116.27l21.3 0c0,8.63 -3.32,15.6 -9.97,20.94 -6.6,5.34 -15.61,8.01 -26.91,8.01 -11.22,0 -20.16,-2.67 -26.8,-8.01 -6.61,-5.34 -9.93,-12.31 -9.85,-20.94l21.15 0c0,3.57 1.18,6.73 3.51,9.5 2.32,2.77 6.31,4.16 11.99,4.16 5.53,0 9.52,-1.35 11.89,-4.12 2.4,-2.74 3.62,-5.93 3.69,-9.54z"/>
   <path id="_8_7" class="fil3" d="M2040.27 1329.35l0 21.94 -64.34 0 0 -21.94 64.34 0zm-55.52 -45.66l0 113.46 -27.47 0 0 -113.46 27.47 0zm74.16 0l0 113.46 -27.36 0 0 -113.46 27.36 0z"/>
   <path id="_9_8" class="fil3" d="M2140.43 1399.37c-11.81,0 -22.03,-2.43 -30.67,-7.32 -8.64,-4.89 -15.36,-11.68 -20.09,-20.45 -4.76,-8.77 -7.12,-19.03 -7.12,-30.75 0,-11.72 2.37,-21.98 7.12,-30.79 4.72,-8.8 11.44,-15.67 20.09,-20.52 8.64,-4.89 18.86,-7.32 30.67,-7.32 11.78,0 22,2.43 30.68,7.32 8.64,4.85 15.35,11.72 20.08,20.52 4.76,8.81 7.12,19.07 7.12,30.79 0,11.72 -2.36,21.98 -7.12,30.75 -4.73,8.77 -11.44,15.57 -20.08,20.45 -8.68,4.89 -18.91,7.32 -30.68,7.32zm0.15 -21.42c6.39,0 11.74,-1.67 16.06,-5 4.28,-3.32 7.49,-7.8 9.63,-13.42 2.11,-5.58 3.18,-11.86 3.18,-18.75 0,-6.93 -1.07,-13.21 -3.18,-18.86 -2.14,-5.65 -5.35,-10.12 -9.63,-13.48 -4.32,-3.37 -9.67,-5.03 -16.06,-5.03 -6.53,0 -12,1.67 -16.32,5.03 -4.32,3.36 -7.57,7.83 -9.67,13.48 -2.14,5.65 -3.17,11.93 -3.17,18.86 0,6.9 1.03,13.17 3.17,18.75 2.1,5.62 5.35,10.09 9.67,13.42 4.32,3.33 9.78,5 16.32,5z"/>
   <path id="_10_9" class="fil3" d="M2291.94 1366.06l35.84 -82.37 23 0 -48.88 113.46 -19.9 0 -47.74 -113.46 22.75 0 34.93 82.37zm-42.08 -82.37l0 113.46 -27.47 0 0 -113.46 27.47 0zm85.34 113.46l0 -113.46 27.21 0 0 113.46 -27.21 0z"/>
   <path id="_11" class="fil3" d="M2444.66 1399.37c-12.11,0 -22.55,-2.39 -31.34,-7.14 -8.78,-4.75 -15.54,-11.47 -20.27,-20.24 -4.69,-8.74 -7.05,-19.03 -7.05,-30.89 0,-11.69 2.36,-21.94 7.12,-30.78 4.72,-8.84 11.37,-15.71 19.93,-20.66 8.53,-4.96 18.57,-7.42 30.13,-7.42 7.42,0 14.47,1.11 21.12,3.37 6.6,2.21 12.51,5.68 17.6,10.36 5.13,4.68 9.16,10.61 12.07,17.86 2.96,7.21 4.39,15.77 4.39,25.72l0 8.21 -99.01 0 0 -18.03 71.73 0c-0.04,-5.13 -1.22,-9.71 -3.54,-13.73 -2.29,-3.99 -5.5,-7.17 -9.64,-9.46 -4.09,-2.33 -8.9,-3.5 -14.35,-3.5 -5.8,0 -10.93,1.32 -15.32,3.95 -4.39,2.63 -7.83,6.1 -10.26,10.36 -2.43,4.26 -3.69,8.91 -3.73,14.01l0 15.71c0,6.62 1.26,12.27 3.84,16.95 2.59,4.72 6.17,8.32 10.78,10.78 4.61,2.5 10,3.74 16.2,3.74 4.14,0 7.91,-0.56 11.26,-1.66 3.32,-1.11 6.24,-2.74 8.71,-4.92 2.48,-2.15 4.32,-4.82 5.58,-8.04l26.62 2.81c-1.7,6.59 -4.87,12.34 -9.56,17.27 -4.72,4.89 -10.7,8.67 -17.98,11.37 -7.31,2.67 -15.65,4.02 -25.03,4.02z"/>
   <path id="_12" class="fil3" d="M2522.45 1439.69l0 -156 28.02 0 0 18.75 1.66 0c1.44,-2.74 3.51,-5.69 6.2,-8.8 2.66,-3.12 6.28,-5.83 10.85,-8.04 4.58,-2.26 10.38,-3.37 17.46,-3.37 9.34,0 17.76,2.22 25.29,6.66 7.53,4.48 13.51,11.06 17.94,19.73 4.43,8.7 6.65,19.34 6.65,31.96 0,12.44 -2.18,23.05 -6.53,31.75 -4.36,8.7 -10.27,15.36 -17.8,19.93 -7.5,4.58 -15.98,6.9 -25.47,6.9 -6.9,0 -12.66,-1.11 -17.24,-3.26 -4.54,-2.18 -8.19,-4.79 -10.96,-7.87 -2.73,-3.09 -4.87,-6 -6.39,-8.77l-1.18 0 0 60.43 -28.5 0zm27.94 -99.26c0,7.32 1.11,13.76 3.32,19.27 2.26,5.51 5.46,9.81 9.68,12.9 4.25,3.05 9.38,4.61 15.39,4.61 6.28,0 11.55,-1.59 15.8,-4.78 4.25,-3.15 7.46,-7.52 9.64,-13.07 2.18,-5.55 3.28,-11.86 3.28,-18.93 0,-7.07 -1.1,-13.31 -3.24,-18.79 -2.14,-5.44 -5.36,-9.74 -9.6,-12.83 -4.24,-3.12 -9.52,-4.68 -15.87,-4.68 -6.09,0 -11.26,1.52 -15.5,4.51 -4.24,3.02 -7.46,7.25 -9.63,12.65 -2.18,5.4 -3.25,11.79 -3.25,19.13z"/>
  </g>
 </g>
</svg>
