<?xml version="1.0" encoding="UTF-8"?>
<!DOCTYPE svg PUBLIC "-//W3C//DTD SVG 1.1//EN" "http://www.w3.org/Graphics/SVG/1.1/DTD/svg11.dtd">
<!-- Creator: CorelDRAW 2021 (64-Bit) -->
<svg xmlns="http://www.w3.org/2000/svg" xml:space="preserve" width="59.5103mm" height="15.3419mm" version="1.1" style="shape-rendering:geometricPrecision; text-rendering:geometricPrecision; image-rendering:optimizeQuality; fill-rule:evenodd; clip-rule:evenodd"
viewBox="0 0 3043.88 784.72"
 xmlns:xlink="http://www.w3.org/1999/xlink"
 xmlns:xodm="http://www.corel.com/coreldraw/odm/2003">
 <defs>
  <style type="text/css">
   <![CDATA[
    .fil0 {fill:#3D2E1D}
    .fil1 {fill:#6EB032}
   ]]>
  </style>
 </defs>
 <g id="Слой_x0020_1">
  <metadata id="CorelCorpID_0Corel-Layer"/>
  <g id="_1628232544864">
   <path class="fil0" d="M1439.24 520.5c0.33,-18.68 14.08,-64.81 19.4,-83.95 6.43,-23.16 18.11,-50.04 29.23,-72.05 15.07,-29.85 61.54,-105.24 110.68,-84.45 36.52,15.46 68.67,73.26 87.81,117.26 10.66,24.49 17.12,50.39 24.73,76.64 16.89,58.28 8.49,46.87 -37.06,46.78l-234.77 -0.24zm-59.61 -1.16c-25.78,11.18 -74.92,-16.19 -62.53,19.91 8.98,26.16 21.19,31.3 46.77,38.6 16.98,4.84 13.03,11.76 19.47,24.72 4.49,9.04 12.56,15.96 20.85,21.06 4.69,2.86 10.28,5.58 17.14,5.07 8.41,-0.63 8.23,-1.19 9.33,-10.78 1.48,-13.01 -0.39,-26.88 2.42,-39.27 20.69,-2.87 285.91,-2.11 293.62,0.85 0.87,15.6 -1.15,37.18 5.31,48.49 41.1,3.98 49.8,-41.41 54.14,-49.64l56.58 -1.75c4.33,-17.95 -8.58,-35.66 -17.79,-43.49 -10.57,-8.99 -23.03,-9.32 -35.87,-11.8 -14.63,-2.82 -13.3,-1.41 -17.3,-28.59 -1.45,-9.79 -3.38,-17.09 -6.1,-25.69 -5.16,-16.24 -9.56,-30.85 -15.41,-46.45 -24.99,-66.72 -94.77,-202.06 -171.81,-201.7 -51.77,0.25 -109.99,80.71 -131.81,118.51 -17.95,31.09 -45.41,95.23 -54.22,132.31 -3.9,16.43 -6,45.17 -12.77,49.64zm1664.01 -300.16c-26.85,0.17 -35.01,3.99 -49.89,18.88 -10.95,10.98 -20.7,22.19 -31.03,36.6l-114.8 156.01c-10.21,13.59 -18.61,25.72 -28.87,38.88 -6.61,8.48 -19.6,34.23 -31.48,34.52l-0.69 -283.99c-20.3,-1.92 -31.72,6.61 -42,17.99 -11.66,12.9 -14.76,20.06 -15.01,41.88 -0.45,39.13 -0.21,78.35 -0.14,117.49 0.06,32.46 -2.43,215.51 2.28,231.94 18.74,3.03 39.58,-8.63 49.21,-16.51 18.1,-14.8 121.03,-159.46 144.17,-190.28 10.01,-13.32 19.48,-26.98 28.28,-39.45 9.89,-14.02 18.52,-32.91 32.34,-33.91 -0.05,34.64 -3.05,264.37 1.89,277.14 9.46,4.43 24.22,0.2 31.9,-4.41 11.66,-7.02 18.67,-11.54 24.07,-23.51l-0.24 -379.26zm-389.5 0.34c-29.01,-6.87 -50.44,14.66 -59.43,33.54 -15.01,31.54 -18.86,77.93 -57.15,133.94 -57.78,84.53 -108.4,72.42 -156.9,-13.45 -12.13,-21.48 -20.34,-40.31 -30.21,-65.27 -14.46,-36.58 -13.4,-49.86 -21.05,-74.89 -9.42,-30.82 -41.91,15.16 -43.91,32.81 -2.12,18.81 15.02,57.01 22.36,72.88 22.74,49.31 43.76,83.96 74.56,116.34 43.94,46.2 74.61,62.02 126.72,30.65 53.47,-32.17 74.83,-95.93 90.13,-98.26 1.9,17.93 -0.36,42.61 -0.5,61.38 -0.27,33.35 -2.57,162.42 1.68,178.33 18.29,4.52 33.28,-6.98 42.11,-16.06 13.19,-13.57 13.59,-21.2 13.56,-44.83l0.09 -232.92c0.05,-25.72 2.71,-92.98 -2.07,-114.21zm-1427.96 408.5c22.5,2.62 38.28,-13.07 45.66,-25.43 12.32,-20.67 8.43,-37.44 3.88,-61.64 -12.63,-67.06 -21.81,-109.51 -51.02,-170.04 -8.81,-18.27 -16.9,-32.23 -26.03,-47.59 -16.77,-28.21 -44.09,-61.93 -67.43,-79.87 -34.77,-26.71 -57.99,-35.06 -102.29,-7.31 -53.52,33.53 -99.95,116.59 -121.34,173.06 -10.59,27.99 -46.06,148.11 -36.48,180.16 6.09,20.37 16.68,28.6 36.28,37.36 12.27,5.46 16.47,3.65 18.04,-9.67 1.42,-12.08 0.48,-24.39 1.32,-36.55 1.49,-21.1 5.41,-45.12 8.13,-65.84 4.54,-34.6 19.97,-85.54 32.36,-115.19 22.01,-52.65 83.81,-169.36 149.27,-103.48 14.52,14.6 20.24,20.74 33.27,40.33 79.43,119.43 68.47,265.86 76.38,291.71zm848.3 -350.03c35.76,-14.11 75.33,38.16 86.78,56.27 19.69,31.19 32.72,59.1 45.83,99.6 13.15,40.6 20.34,76.36 25.04,122.65 0.91,8.89 4.62,63.22 6.3,67.08 4.32,9.88 19.28,2.1 24.94,-0.91 9.17,-4.88 14.23,-10.39 19.09,-16.9 14.53,-19.48 9.15,-35.71 5.85,-61.37 -2.96,-22.99 -6.55,-42.03 -12.02,-62.71 -11.49,-43.4 -20.38,-69.83 -37.82,-107.4 -16.23,-34.96 -33.85,-66.37 -54.89,-90.27 -16.53,-18.79 -48.49,-55.51 -81.76,-63.43 -65.52,-15.63 -132,86.74 -156.96,135.19 -17.72,34.39 -29.44,65.4 -41.49,105.75 -7.29,24.45 -25.33,98.03 -20.41,124.78 3.37,18.3 17.87,33.91 35.28,39.26 26.96,8.28 18.1,-1.73 21.19,-45.77 6.66,-95.23 49.75,-268.18 135.03,-301.8zm-908.17 210.88c-4.74,-15.89 -14.26,-28.75 -25.49,-35.98 -19.39,-12.47 -88.04,-8.26 -113.8,-7.88 -38.95,0.56 -47.14,-3.81 -43.22,16.12 2.74,13.94 15.03,28.86 26.24,34.94 17.6,9.52 29.68,6.99 52.81,6.96 20.57,-0.01 41.13,0.04 61.71,-0.04 37.22,-0.13 47.19,4.15 41.75,-14.13zm1003.65 13.92c12.71,-0.98 10.83,-4.25 8.2,-14.12 -11.84,-44.45 -46.38,-43.47 -78.12,-43.9 -20.47,-0.28 -41.24,-0.12 -61.72,0.05 -36.16,0.3 -48.41,-3.27 -41.69,18.31 12.75,40.86 44.65,39.95 81.52,39.82l91.82 -0.16zm-1242.93 216.33c-0.35,1.8 -0.64,3.8 -0.92,5.99 -0.71,5.49 -1.4,13.85 -2.07,25.09 -0.14,8.77 0.17,17.13 0.91,25.07 0.63,1.45 0.68,2.87 0.09,4.27 -0.19,0.64 -0.81,1.27 -1.85,1.87 -1.02,0.59 -1.91,1.02 -2.7,1.29 -1.45,-0.47 -2.77,-2.07 -4,-4.84 -1.2,-2.78 -2.17,-5.78 -2.9,-8.99 -0.73,-3.2 -1.09,-5.42 -1.09,-6.66 0.25,-3.32 0.34,-6.59 0.34,-9.82l0.21 -10.81c-0.07,-4.31 -0.04,-9.09 0.1,-14.28 0.04,-1.87 0.12,-3.65 0.26,-5.32l-2.64 0.15 -10.86 1.1c-2.38,0.31 -4.73,0.53 -7.02,0.63 -0.88,5.62 -1.59,11.37 -2.12,17.28l-1.02 11.82c-0.26,8.2 -0.08,16.16 0.52,23.91 0.64,1.52 0.68,2.98 0.1,4.36 -0.27,0.64 -0.93,1.31 -1.98,2 -1.04,0.7 -1.93,1.18 -2.68,1.44 -1.31,-0.46 -2.54,-2.05 -3.69,-4.79 -1.15,-2.74 -2.09,-5.68 -2.85,-8.82 -0.76,-3.13 -1.14,-5.32 -1.14,-6.58 0.29,-3.9 0.52,-7.88 0.65,-11.91 0,-1.32 0.03,-2.68 0.1,-4.07 -0.07,-12.61 0.33,-21.79 1.21,-27.55 -0.85,-0.64 -1.68,-1.37 -2.47,-2.18 -2.19,-2.32 -4.06,-4.68 -5.57,-7.06 -0.5,-0.53 -0.68,-0.89 -0.5,-1.09 0.17,-0.21 0.5,-0.31 0.98,-0.31 0.49,0 1.02,0.03 1.57,0.11 0.55,0.08 0.93,0.15 1.14,0.21 7.31,1.04 14.72,1.49 22.23,1.36l3.04 0c5.89,-0.25 11.97,-0.81 18.23,-1.64 0.45,-0.16 0.93,-0.31 1.46,-0.44 1.28,-0.25 2.59,-0.36 3.91,-0.33 1.03,-0.43 2.24,-0.38 3.59,0.15 0.39,0.12 0.84,0.33 1.31,0.63 0.21,0.08 0.35,0.18 0.39,0.28 0.42,0.3 0.83,0.63 1.28,1.02 1.14,1.03 2.02,1.9 2.62,2.61 0,0.94 -0.95,1.96 -2.83,3.09 -1.09,0.63 -2.21,1.21 -3.38,1.75zm93.31 -10.47c0.38,-0.38 0.83,-0.34 1.28,0.05 0.44,0.38 0.96,1.07 1.38,1.84 0.42,0.78 0.88,1.64 1.19,2.43 0.31,0.78 0.59,1.46 0.71,1.83 3.54,11.73 6.19,23.56 7.78,35.4 0.04,0.34 0.19,0.83 0.26,1.21 0.44,2.38 1,4.99 1.62,7.8 0.4,0.1 0.83,0.17 1.21,0.28 0.66,0.2 1.38,0.73 2.12,1.39 0.74,0.66 1.4,1.35 1.96,2.05 0.57,0.71 1.03,1.26 1.21,1.65 0.11,0.25 -0.11,0.65 -0.6,1.04 -0.47,0.37 -1.12,0.81 -1.8,1.14 -0.65,0.33 -1.27,0.67 -1.74,0.83 -0.1,0.04 -0.23,0.1 -0.3,0.13 0.97,3.98 2.08,7.47 3.28,10.51 0.78,0.98 1.1,1.98 0.97,3.01 -0.02,0.18 -0.32,0.56 -0.69,0.94 -0.35,0.37 -0.85,0.84 -1.31,1.24 -0.45,0.39 -0.93,0.76 -1.24,1.01 -0.08,0.07 -0.19,0.18 -0.29,0.25 -1.35,0.25 -2.83,-0.43 -4.35,-1.98 -1.52,-1.56 -3,-3.51 -4.29,-5.7 -1.28,-2.17 -2.3,-4.13 -2.93,-5.78 0,0 -0.02,0 -0.04,0 -0.02,0 -0.04,0 -0.07,0 -0.03,0 -0.1,0 -0.1,0 -3.6,-0.15 -7.19,-0.17 -10.66,0.2 -1.28,0.14 -3.23,0.55 -5.66,0.87 -2.43,0.33 -4.92,0.66 -7.33,0.83 -2.39,0.16 -4.24,0.15 -5.45,-0.1 -0.24,0.38 -0.51,0.81 -0.71,1.16 -0.32,0.56 -0.71,1.14 -1.07,1.7 -0.53,1.97 -1.67,3.53 -3.28,4.64 -0.85,0.59 -2.13,1 -3.67,1.11 -1.54,0.11 -2.94,0.07 -4.13,-0.2 -0.4,-0.71 -0.23,-2.57 0.41,-5.52 0.64,-2.94 1.52,-6.02 2.52,-9.14 -1.78,-1.65 -3.28,-3.36 -4.7,-4.79 -0.49,-0.5 -0.8,-0.78 -0.65,-0.99 0.14,-0.22 0.6,-0.43 1.19,-0.5 0.59,-0.06 1.26,-0.11 1.91,-0.11 0.65,0 1.16,0.05 1.49,0.05 0.07,0 0.2,0 0.2,0 0.88,0.03 1.8,0.1 2.73,0.1 0.81,-1.97 1.82,-3.89 2.93,-5.67 1.32,-2.11 2.59,-4.46 3.49,-6.93 0.76,-2.09 1.85,-5.45 3.24,-9.88 1.29,-4.11 2.65,-8.19 3.94,-12.1 1.29,-3.91 2.26,-6.73 3.03,-8.18 1.29,-2.42 2.93,-4.06 4.45,-4.94 1.53,-0.88 3.25,-1.61 5.01,-2.04 1.66,-0.41 3.53,-1.16 5.55,-2.13zm-17.68 51.96c2.48,0 4.98,0.08 7.43,0.08 3.14,0 6.43,-0.3 9.74,-0.53 1.18,-0.08 2.43,-0.18 3.64,-0.28 -0.17,-0.74 -0.39,-1.53 -0.55,-2.28 -0.32,-1.53 -0.68,-3.11 -1.02,-4.54 -0.44,-1.81 -1.04,-3.73 -1.57,-5.67 -1.64,-5.93 -3.22,-11.85 -4.64,-17.72 -2.64,7.22 -5.59,14.28 -8.69,21.1 -0.53,1.16 -1.09,2.42 -1.57,3.64 -0.4,1 -0.87,2.11 -1.31,3.09 -0.47,1.03 -1.04,2.07 -1.46,3.1zm111.13 -48.32c0.5,-0.09 1.06,-0.17 1.21,0.1 0.15,0.27 0.28,0.8 0.27,1.36 -0.02,0.56 -0.16,1.17 -0.21,1.63 -0.06,0.48 -0.2,0.93 -0.21,0.98 -1.47,7.92 -2.69,16.19 -3.43,24.79 4.44,0.48 8.17,0.83 11.02,0.88 2.84,0.05 6.63,-0.05 11.26,-0.45 -0.1,-4.31 -0.03,-9.14 0.06,-14.29 0.09,-5.17 0.31,-9.79 1.47,-13.3 0.74,-2.26 3.04,-3.58 5.54,-4.04 2.49,-0.45 5.18,-0.32 7.84,0.17 0.83,0.15 1.46,0.37 1.46,0.63 0,0.25 -0.1,0.69 -0.38,1.2 -0.08,0.07 -0.15,0.23 -0.16,0.25 -1.09,3.06 -2.13,7.43 -2.78,12.9 -0.65,5.49 -1.3,10.43 -1.57,14.79 0,0 0,0.18 0,0.28 1.18,0.16 2.36,0.66 3.39,1.33 1.02,0.68 1.98,1.46 2.65,2.13 0.66,0.68 1.04,1.09 1.09,1.19 -0.05,0.73 -0.88,1.64 -2.34,2.58 -1.46,0.93 -3.27,1.92 -5.28,2.79 -0.18,8.81 0.13,17.17 0.91,25.07 0.6,1.45 0.56,2.91 0.09,4.27 -0.21,0.61 -0.9,1.35 -1.86,1.88 -0.97,0.54 -1.9,1.01 -2.68,1.27 -1.45,-0.43 -2.82,-2.07 -4,-4.83 -1.18,-2.76 -2.23,-5.85 -2.9,-9.01 -0.68,-3.15 -1.13,-5.49 -1.09,-6.66 0.11,-3.26 0.35,-6.56 0.35,-9.82 -1.35,0 -2.72,0.05 -4.05,0.05 -1.31,0 -2.77,-0.06 -4.04,0.03 -4.57,0.34 -9.59,0.68 -15.03,0.5 -0.29,8.23 -0.12,16.2 0.53,23.91 0.6,1.55 0.61,3.05 0.1,4.36 -0.25,0.64 -1.03,1.41 -2.01,2.04 -0.98,0.62 -1.92,1.14 -2.66,1.4 -1.31,-0.5 -2.59,-2.15 -3.68,-4.84 -1.09,-2.7 -2.12,-5.7 -2.86,-8.79 -0.74,-3.08 -1.17,-5.38 -1.13,-6.56 0.14,-3.91 0.58,-7.92 0.6,-11.86 0.01,-1.31 0.09,-2.76 0.15,-4.12 -2.76,-2.74 -4.99,-5.6 -6.82,-8.23 -0.39,-0.56 -0.62,-0.97 -0.44,-1.1 0.2,-0.15 0.76,-0.25 1.35,-0.25 0.61,0 1.32,0.13 1.87,0.16 0.55,0.04 1.05,0.18 1.12,0.18 0.44,0 1,0.2 1.42,0.23 0.4,0.03 0.95,0.13 1.41,0.2 0.04,-3.45 0.2,-6.93 0.33,-10.26 0.13,-3.34 0.34,-6.54 1.09,-9.11 0.72,-2.44 2.84,-4.27 5.23,-5.43 2.4,-1.17 5.13,-2.12 7.81,-2.6zm127.37 -3.64c0.38,-0.38 0.87,-0.29 1.27,0.05 0.39,0.34 1.01,1.11 1.39,1.84 0.38,0.73 0.93,1.69 1.19,2.43 0.26,0.74 0.61,1.53 0.71,1.83 3.47,11.71 6.27,23.57 7.78,35.4 0.03,0.26 0.21,0.91 0.26,1.21 0.37,2.36 1,4.99 1.63,7.8 0.4,0.1 0.89,0.2 1.21,0.28 0.63,0.14 1.41,0.76 2.12,1.39 0.71,0.63 1.44,1.38 1.96,2.05 0.53,0.68 1.07,1.29 1.21,1.65 0.08,0.21 -0.16,0.7 -0.6,1.04 -0.41,0.33 -1.17,0.86 -1.79,1.14 -0.61,0.28 -1.3,0.73 -1.74,0.83 -0.03,0.01 -0.23,0.1 -0.29,0.13 0.97,3.98 2.07,7.47 3.28,10.51 0.77,0.98 1.02,2 0.97,3.01 -0.01,0.11 -0.38,0.6 -0.7,0.94 -0.31,0.32 -0.9,0.88 -1.31,1.24 -0.4,0.34 -0.97,0.81 -1.24,1.01 -0.03,0.02 -0.19,0.18 -0.29,0.25 -1.35,0.25 -2.88,-0.48 -4.35,-1.98 -1.49,-1.51 -3.06,-3.56 -4.3,-5.7 -1.23,-2.13 -2.3,-4.13 -2.94,-5.78 0,0 -0.02,0 -0.03,0 -0.02,0 -0.04,0 -0.07,0 -0.04,0 -0.1,0 -0.1,0 -3.6,-0.15 -7.22,-0.11 -10.66,0.2 -1.23,0.11 -3.28,0.59 -5.67,0.87 -2.39,0.29 -4.96,0.71 -7.32,0.83 -2.36,0.12 -4.24,0.15 -5.45,-0.1 -0.24,0.38 -0.55,0.85 -0.71,1.16 -0.27,0.51 -0.71,1.14 -1.07,1.7 -0.53,1.97 -1.71,3.58 -3.28,4.64 -0.81,0.54 -2.14,1.02 -3.67,1.11 -1.53,0.09 -2.94,0.07 -4.13,-0.2 -0.4,-0.71 -0.19,-2.62 0.41,-5.52 0.6,-2.9 1.52,-6.02 2.52,-9.14 -1.77,-1.65 -3.32,-3.41 -4.69,-4.79 -0.44,-0.45 -0.75,-0.83 -0.66,-0.99 0.1,-0.17 0.64,-0.48 1.2,-0.5 0.54,-0.01 1.25,-0.11 1.91,-0.11 0.65,0 1.16,0.05 1.49,0.05 0.07,0 0.2,0 0.2,0 0.88,0.04 1.79,0.1 2.73,0.1 0.81,-1.97 1.86,-3.94 2.93,-5.67 1.27,-2.06 2.64,-4.5 3.49,-6.93 0.71,-2.05 1.9,-5.49 3.24,-9.88 1.24,-4.06 2.7,-8.24 3.94,-12.1 1.24,-3.87 2.3,-6.78 3.03,-8.18 1.24,-2.38 2.97,-4.1 4.45,-4.94 1.48,-0.84 3.3,-1.65 5.01,-2.04 1.61,-0.36 3.53,-1.16 5.55,-2.13zm-17.68 51.96c2.48,0 4.98,0.08 7.43,0.08 3.14,0 6.46,-0.36 9.75,-0.53 1.1,-0.06 2.43,-0.18 3.64,-0.28 -0.17,-0.74 -0.43,-1.59 -0.55,-2.28 -0.26,-1.49 -0.72,-3.16 -1.02,-4.54 -0.39,-1.76 -1.06,-3.8 -1.57,-5.67 -1.58,-5.9 -3.23,-11.85 -4.64,-17.72 -2.64,7.22 -5.65,14.31 -8.69,21.1 -0.49,1.1 -1.14,2.47 -1.57,3.64 -0.35,0.95 -0.92,2.15 -1.32,3.09 -0.42,0.98 -1.03,2.07 -1.46,3.1zm113.52 -50.7c3.87,0.21 7.46,1.04 9.77,1.98 5.26,2.14 8.62,6.17 9.59,11.24 1.53,7.95 -0.94,13.88 -7.62,17.53 5.8,4.1 9.34,9.38 10.46,15.58 1.02,5.72 0.32,10.72 -2.19,14.44 -2.52,3.75 -6.69,6.77 -12.01,8.56 -1.48,0.5 -3.63,1.28 -5.82,1.68 -7.43,1.36 -14.03,1.5 -19.04,-0.1 -2.34,-0.74 -4.66,-2.4 -6.73,-3.77 -1.29,-0.85 -2.84,-2.14 -4.24,-3.49 -1.41,-1.35 -2.73,-2.85 -3.49,-4.16 -1.66,-2.87 -2.42,-6.1 -2.28,-9.2 0.09,-1.96 1.18,-4.01 2.72,-5.57 1.52,-1.55 3.38,-2.84 5.31,-3.57 0.08,0.05 0.06,0.48 0.06,1.17 0,0.7 -0.16,1.69 -0.16,2.7 0,1.05 -0.15,2.25 -0.15,3.27 0,1.01 0.01,1.93 0.06,2.3 0.23,1.92 1.3,3.9 2.72,5.42 2.53,2.73 5.97,4.75 9.71,5.67 1.74,0.43 4.53,0.58 7.79,0.48 3.27,-0.11 7.35,-1.34 11.36,-3.73 2.79,-1.67 4.75,-4.27 5.69,-6.73 0.93,-2.46 0.2,-5.61 -2.61,-8.56 -2.67,-2.81 -6.88,-4.75 -11.68,-5.65 -4.79,-0.9 -8.94,-1.54 -11.92,-1.47 -1.25,0.03 -2.23,-0.19 -2.4,-1.07 -0.16,-0.87 -0.09,-2.11 0.39,-3.3 0.48,-1.2 1.27,-2.21 2.01,-2.59 0.12,-0.06 0.47,-0.19 0.65,-0.28l0.19 -0.1c0.06,-0.07 0.54,-0.23 1.02,-0.4 1.46,-0.53 3.88,-1.73 6.95,-3.04 3.08,-1.31 6.25,-2.96 9.14,-4.52 2.86,-1.55 5.07,-3.3 6.05,-4.74 0.55,-0.81 0.55,-1.79 -0.05,-2.38 -0.4,-0.41 -1.45,-1.03 -2.55,-1.44 -1.1,-0.4 -3.15,-0.85 -5.48,-0.98 -6.96,-0.38 -12.37,-0.36 -15.79,0.21 -3.43,0.58 -6.74,1.85 -9.43,3.27 -0.1,0.05 -0.56,0.4 -0.81,0.53 -0.36,0.18 -0.92,0.56 -1.27,0.78 -0.34,0.2 -0.79,0.35 -1.08,0.35 -0.27,0 -0.47,-0.37 -0.47,-0.73 0,-0.9 0.08,-1.94 0.38,-2.74 0.3,-0.81 0.85,-1.91 1.39,-2.64 2.79,-3.88 7.09,-6.76 12.1,-8.31 5.02,-1.56 9.87,-2.12 13.76,-1.9zm118.19 7.17c0.93,-1.52 2.27,-2.9 3.7,-3.79 2.24,-1.39 4.91,-2.64 7.68,-3.39 0.61,-0.38 1.13,-0.19 1.23,0.21 0.11,0.43 0.23,1.28 0.23,2.03 0,0.76 -0.24,1.69 -0.24,1.92l0 0.3c0,9.18 -2.12,19.13 -2.58,28.76l-0.19 3.96c-0.18,4 -0.05,8.92 0.09,13.9 0.14,4.98 0.6,9.73 1.18,14.09 0.6,1.32 0.54,2.67 0.18,3.67 -0.92,2.5 -2.69,3.51 -4.8,2.84 -2.12,-0.68 -3.9,-2.38 -4.77,-4.66 -0.86,-2.24 -2.43,-7.96 -2.94,-16.62 -0.24,-4 -0.11,-8.4 -0.11,-12.59 0,-1.51 -0.18,-3.36 -0.25,-5.12 -1.45,2.41 -3.09,4.81 -4.38,6.97 -0.23,0.38 -0.74,1.2 -0.97,1.59 -2.79,4.74 -5.67,9.85 -8.04,14.67 -0.37,0.76 -1.84,2.64 -3.6,4.96 -1.76,2.33 -4.1,4.89 -6.62,7.34 -2.53,2.45 -5.1,4.16 -7.02,4.79l-0.15 0.05c-0.43,0.14 -1.28,0.39 -1.92,0.3 -0.64,-0.1 -1.37,-0.69 -2.03,-1.8l-0.2 -0.33c-0.39,-0.66 -0.88,-1.6 -1.16,-2.33 -0.98,-2.59 -2.14,-5.65 -2.71,-8.59 -0.57,-2.93 -1.04,-5.36 -1.04,-6.36 0.04,-5.64 0.45,-11.4 0.45,-16.85 0,-4.17 -0.23,-9.08 -0.23,-14.16 0,-5.06 0.38,-9.88 1.24,-13.76 0.42,-1.94 2.32,-3.99 4.32,-5.62 1.98,-1.63 4.39,-2.76 6.52,-2.76 2.15,0 3.51,1.49 3.58,4.51 0.04,1.63 -1.19,7.9 -3.14,18.34 -0.34,1.79 -0.45,4.08 -0.5,5.95 -0.06,2.33 -0.55,4.96 -0.6,7.13 -0.17,6.95 -0.26,14.08 0.04,21.25l5.2 -6.3c4.17,-5.05 6.71,-11.01 9.35,-16.16 0.83,-1.63 1.82,-3.79 2.69,-5.52 3.94,-7.88 8.29,-15.52 12.43,-22.7 0.04,-0.04 0.06,-0.07 0.09,-0.1zm101.69 -8.43c0.38,-0.38 0.94,-0.23 1.28,0.05 0.33,0.28 1.07,1.17 1.38,1.84 0.31,0.67 1,1.74 1.2,2.43 0.19,0.66 0.64,1.63 0.7,1.83 3.37,11.68 6.39,23.58 7.78,35.4 0.02,0.14 0.24,1 0.27,1.21 0.26,2.33 0.99,4.99 1.61,7.8 0.4,0.1 0.98,0.26 1.21,0.28 0.58,0.07 1.38,0.73 2.12,1.39 0.74,0.66 1.47,1.42 1.97,2.05 0.49,0.63 1.12,1.32 1.21,1.65 0.05,0.16 -0.23,0.76 -0.6,1.04 -0.36,0.27 -1.25,0.92 -1.8,1.14 -0.54,0.21 -1.31,0.78 -1.74,0.83 0,0 -0.22,0.1 -0.3,0.13 0.97,3.98 2.08,7.47 3.28,10.51 0.78,0.98 0.97,2.01 0.97,3.01 0,0.05 -0.44,0.66 -0.69,0.94 -0.24,0.26 -0.97,0.95 -1.31,1.24 -0.33,0.28 -1,0.84 -1.24,1.01 0,0 -0.18,0.18 -0.29,0.25 -1.35,0.25 -2.94,-0.54 -4.35,-1.98 -1.42,-1.45 -3.12,-3.63 -4.29,-5.7 -1.17,-2.07 -2.3,-4.13 -2.93,-5.78 0,0 -0.03,0 -0.04,0 -0.02,0 -0.04,0 -0.07,0 -0.04,0 -0.11,0 -0.11,0 -3.6,-0.15 -7.25,-0.02 -10.66,0.2 -1.13,0.07 -3.35,0.65 -5.66,0.87 -2.32,0.22 -5.03,0.77 -7.33,0.83 -2.28,0.05 -4.24,0.15 -5.45,-0.1 -0.24,0.38 -0.6,0.93 -0.7,1.16 -0.19,0.46 -0.71,1.14 -1.07,1.7 -0.54,1.97 -1.77,3.65 -3.28,4.64 -0.74,0.49 -2.16,1.04 -3.67,1.11 -1.5,0.07 -2.94,0.07 -4.13,-0.2 -0.4,-0.71 -0.12,-2.69 0.42,-5.52 0.53,-2.83 1.51,-6.02 2.52,-9.14 -1.78,-1.65 -3.39,-3.47 -4.69,-4.79 -0.38,-0.39 -0.69,-0.89 -0.66,-0.99 0.04,-0.11 0.66,-0.5 1.19,-0.5 0.53,0 1.26,-0.11 1.91,-0.11 0.65,0 1.16,0.05 1.49,0.05 0.07,0 0.2,0 0.2,0 0.88,0.03 1.8,0.1 2.73,0.1 0.81,-1.97 1.93,-4 2.93,-5.67 1.2,-2 2.64,-4.5 3.49,-6.93 0.71,-2.04 1.96,-5.56 3.24,-9.88 1.17,-4 2.76,-8.3 3.94,-12.1 1.18,-3.8 2.3,-6.78 3.03,-8.18 1.24,-2.38 3.04,-4.17 4.45,-4.94 1.42,-0.78 3.32,-1.68 5.01,-2.04 1.59,-0.34 3.53,-1.16 5.55,-2.13zm-17.68 51.96c2.49,0 4.98,0.08 7.43,0.08 3.14,0 6.5,-0.46 9.74,-0.53 1.01,-0.02 2.43,-0.18 3.65,-0.28 -0.17,-0.74 -0.46,-1.64 -0.55,-2.28 -0.22,-1.47 -0.78,-3.22 -1.02,-4.54 -0.32,-1.7 -1.12,-3.88 -1.57,-5.67 -1.49,-5.86 -3.22,-11.85 -4.63,-17.72 -2.64,7.22 -5.73,14.36 -8.7,21.1 -0.44,1.02 -1.19,2.51 -1.57,3.64 -0.3,0.9 -0.98,2.22 -1.31,3.09 -0.36,0.92 -1.04,2.07 -1.46,3.1zm83.98 -48.42c-0.21,-0.33 -0.25,-0.78 -0.25,-0.86 0,-0.07 0.26,-0.53 0.77,-0.53 0.49,0 1.1,0.1 1.57,0.1 0.45,0 1.16,0.21 1.16,0.21 3.48,0.36 7.36,1.11 11.04,1.13 3.67,0.01 7.56,0.23 11.2,0.23 1.02,0 2.22,0 2.98,0 5.98,0 12.28,-1.02 18.6,-1.64 1.31,-0.12 3.06,-0.38 4.51,-0.53 1.17,-0.61 2.68,-0.47 4.14,-0.1 0.66,0.17 1.98,1.09 2.98,1.97 0.98,0.85 2.03,1.88 2.63,2.62 -0.04,0.91 -1.15,2.07 -2.88,3.06 -1.72,0.97 -4.13,2.28 -6.24,2.99 -2.13,0.72 -4.08,1.45 -5.18,1.45 -2.66,0 -5.42,0.1 -8.19,0.3 0,0.32 -0.06,0.66 -0.06,0.99 0,0.3 -0.14,0.79 -0.14,0.79 -0.38,3.09 -1.1,6.92 -1.14,10.89 -0.04,3.98 -0.33,8.27 -0.33,12.31 0,2.52 -0.21,5.01 -0.21,7.16 0,8.64 0.33,17.45 0.97,26.39 0.54,0.81 0.49,1.47 -0.11,1.98 -0.44,0.13 -1.03,0.1 -1.59,0.1 -0.56,0 -1.42,-0.25 -1.84,-0.25 -0.61,0 -1.36,-0.28 -1.88,-0.28 -2.62,-0.98 -4.61,-2.79 -5.49,-4.99 -0.87,-2.2 -1.53,-4.79 -1.53,-6.78 0,-4.44 0.15,-9.15 0.15,-13.79 0,-0.55 -0.05,-1.43 -0.05,-2.09 0,-0.53 -0.16,-1.38 -0.16,-1.7 -0.07,-4.06 -0.79,-8.74 -0.87,-13.45 -0.09,-4.73 -0.25,-9.2 0.23,-12.5 0.24,-1.63 1.71,-2.97 3.19,-3.68 -5.29,0.71 -10.47,1.06 -14.93,0.39 -2.68,-0.39 -5.4,-2.69 -7.45,-4.87 -2.05,-2.18 -4.2,-4.89 -5.59,-7.04zm156.88 5.85c0.68,0.81 1.08,2.49 0.86,3.32 -0.21,0.84 -1.3,2.03 -2.12,2.5 -0.84,0.47 -1.96,0.99 -2.89,1.01 -0.53,-0.15 -1.33,-0.48 -1.67,-0.58 -2.94,-0.91 -6.51,-2.32 -9.8,-3.02 -3.28,-0.71 -6.59,-1.03 -8.8,-0.32 -3.98,1.28 -7.62,4 -9.85,7.02 -1.87,2.53 -3.69,6.26 -4.67,9.93 -0.98,3.66 -2.09,7.74 -2.15,11.17 -0.06,3.09 0.36,6.85 1.24,10.25 0.88,3.4 3,7.01 5.59,9.52 1.84,1.79 4.74,3.19 7.3,3.44 2.56,0.25 5.69,0.19 8.25,-0.13 2.56,-0.33 5.29,-1.33 7.15,-2.05 0.29,-0.11 1.25,-0.87 2.05,-1.47 0.79,-0.6 2.01,-1.62 2.8,-2.21 0.79,-0.6 2,-1.61 2.51,-2 0.52,-0.39 1.07,-0.89 1.13,-0.94 1.29,-0.43 2.92,-0.23 4.45,0 1.2,0.18 2.71,0.35 3.95,0.18 0.57,0.26 0.5,1.06 0.35,1.88 -0.16,0.83 -1.07,2.31 -1.69,3.41 -0.61,1.08 -1.69,2.51 -2.3,3.39 -0.6,0.86 -1.41,1.78 -1.46,1.84 -3.03,3.05 -7.19,5.9 -11.48,7.45 -3.38,1.22 -7.33,2.11 -11.2,2.11 -3.88,0 -8.09,-1.06 -11.9,-2.89 -4.64,-2.23 -8.71,-5.93 -11.45,-10.07 -2.75,-4.13 -5.02,-8.87 -5.83,-13.37 -1.15,-6.31 -1.2,-12.94 -0.32,-18.92 0.51,-3.45 2.01,-7.49 3.42,-10.99 1.43,-3.51 3.89,-7.17 6.32,-9.9 2.43,-2.75 5.88,-5.33 9.33,-6.56 2.99,-1.05 7.04,-1.67 11.38,-1.67 4.32,0 8.55,1 12.03,2.35 1.48,0.58 3.54,1.86 5.03,2.71 1.48,0.85 3.57,2.54 4.47,3.62zm76.68 -6.83c0.36,0 1.29,0.33 1.29,0.51 0,0.2 -0.03,0.9 -0.03,1.21 0,0.33 -0.4,0.93 -0.51,1.24 0,0 -0.1,0.19 -0.1,0.19 -0.91,2.75 -1.92,6.32 -2.26,10.05 -0.33,3.72 -0.97,7.91 -1.27,11.98 2.63,-2.2 5.26,-4.7 7.12,-7.02 1.19,-1.49 3.22,-4.35 5,-7.22 1.01,-1.64 2.58,-3.72 3.45,-5.07 0.86,-1.35 2.05,-2.92 2.52,-3.29 1.21,-0.96 3.54,-1.87 5.91,-2.13 2.36,-0.27 4.89,-0.62 7.23,-0.62 0.62,0 1.36,-0.07 1.96,-0.1 0.71,-0.26 1.29,-0.07 1.29,0.15 0,0.2 0.01,0.94 -0.06,1.42 -0.07,0.48 -0.52,1.27 -0.63,1.7 -0.1,0.41 -0.5,0.99 -0.5,0.99 -2.26,3.93 -5.09,7.85 -7.49,10.89 -2.38,3.02 -5.5,6.53 -8.74,9.92 0.44,1.07 1.02,2.33 1.27,3.05 1.2,3.37 3.05,7.01 4.2,9.85 1.16,2.86 3.25,6.74 5.2,10.39 1.36,2.54 3.83,5.87 6.2,9.14 2.38,3.27 4.86,6.3 7.13,8.73 0.95,0.48 1.78,1.27 1.78,2.16 0,0.1 -0.11,0.92 -0.16,1.45 -0.05,0.53 -0.58,1.49 -0.6,1.93 -0.02,0.47 -0.44,1.14 -0.6,1.45 -0.95,0.6 -2.6,0.24 -4.34,-0.41 -1.75,-0.65 -4.1,-2.21 -5.82,-3.46 -1.72,-1.26 -3.63,-2.9 -4.25,-3.87 -2.3,-3.58 -5.09,-7.78 -7.44,-11.28 -0.74,-1.1 -2.57,-3.46 -4.14,-5.88 -1.58,-2.43 -3.65,-5.45 -4.95,-7.85 -1.3,-2.4 -2.35,-4.51 -2.48,-5.78 -0.36,0.36 -1.08,1.04 -1.47,1.45 -1,1.06 -2.63,2.65 -3.98,3.9 -1.36,1.25 -2.66,2.15 -3.59,2.44 -0.04,6.67 0.3,13.42 0.3,20.05 0,1.16 0.11,2.74 0.15,4.07 0.51,1.22 0.37,2.52 -0.2,3.39 -0.29,0.43 -1.48,1.07 -2.41,1.07 -0.96,0 -2.11,0.25 -2.88,0.18 -1.38,-0.58 -2.75,-2.18 -3.48,-4.21 -0.73,-2.02 -1.88,-4.78 -2.18,-7.06 -0.3,-2.3 -0.75,-4.38 -0.75,-5.29 0,-2.81 0.34,-5.83 0.34,-8.81 0,-2.97 0.05,-6.06 0.05,-8.81 0,-4.63 -0.26,-9.95 -0.26,-15.58 0,-5.66 0.35,-10.96 1.32,-15.07 0.57,-2.4 3.13,-4.47 5.47,-5.27 2.31,-0.8 5.4,-0.87 8.38,-0.87zm131.46 5.87c0.93,-1.52 2.39,-3 3.7,-3.79 2.13,-1.27 4.91,-2.64 7.68,-3.39 0.62,-0.38 1.21,-0.12 1.23,0.21 0.03,0.36 0.23,1.29 0.23,2.03 0,0.76 -0.24,1.91 -0.24,1.92l0 0.3c0,8.96 -2.14,19.35 -2.59,28.76l-0.19 3.96c-0.17,3.78 0.03,8.99 0.09,13.9 0.06,4.91 0.6,9.73 1.18,14.09 0.6,1.32 0.46,2.81 0.18,3.67 -0.77,2.42 -2.87,3.35 -4.81,2.84 -1.94,-0.5 -4,-2.5 -4.77,-4.66 -0.75,-2.13 -2.59,-8.04 -2.94,-16.62 -0.15,-3.86 -0.11,-8.41 -0.11,-12.59 0,-1.52 -0.18,-3.36 -0.26,-5.12 -1.45,2.41 -3.23,4.89 -4.38,6.97 -0.14,0.25 -0.82,1.33 -0.97,1.59 -2.65,4.65 -5.83,9.92 -8.04,14.67 -0.29,0.61 -1.94,2.75 -3.59,4.96 -1.65,2.22 -4.25,5.02 -6.62,7.34 -2.39,2.32 -5.32,4.25 -7.02,4.79l-0.16 0.05c-0.2,0.06 -1.38,0.3 -1.91,0.3 -0.54,0 -1.33,-0.7 -2.02,-1.8l-0.21 -0.33c-0.4,-0.65 -0.92,-1.67 -1.15,-2.33 -0.88,-2.55 -2.26,-5.76 -2.71,-8.59 -0.45,-2.82 -1.04,-5.41 -1.04,-6.36 0,-5.64 0.45,-11.4 0.45,-16.85 0,-4.16 -0.23,-9.09 -0.23,-14.16 0,-5.06 0.53,-9.96 1.24,-13.76 0.34,-1.8 2.43,-4.1 4.31,-5.62 1.87,-1.51 4.39,-2.76 6.52,-2.76 2.15,0 3.58,1.52 3.58,4.51 0,1.57 -1.3,7.93 -3.14,18.34 -0.3,1.68 -0.5,4.13 -0.5,5.95 0,2.29 -0.6,5.13 -0.6,7.13 0,6.9 -0.26,14.08 0.04,21.25l5.2 -6.3c4.17,-5.05 6.71,-11.01 9.35,-16.16 0.83,-1.63 1.91,-3.92 2.69,-5.52 3.81,-7.8 8.28,-15.52 12.42,-22.7 0.04,-0.04 0.07,-0.07 0.1,-0.1zm117.02 0c0.93,-1.52 2.42,-3.03 3.7,-3.79 2.1,-1.24 4.92,-2.64 7.68,-3.39 0.62,-0.38 1.24,-0.11 1.24,0.21 0.01,0.33 0.23,1.29 0.23,2.03 0,0.76 -0.24,1.92 -0.24,1.92l0 0.3c0,8.89 -2.15,19.42 -2.59,28.76l-0.19 3.96c-0.17,3.72 0.05,9.02 0.09,13.9 0.03,4.88 0.6,9.73 1.17,14.09 0.6,1.32 0.45,2.85 0.19,3.67 -0.74,2.4 -2.91,3.31 -4.82,2.84 -1.9,-0.47 -4.03,-2.53 -4.76,-4.66 -0.72,-2.11 -2.64,-8.06 -2.95,-16.62 -0.13,-3.82 -0.11,-8.41 -0.11,-12.59 0,-1.52 -0.19,-3.36 -0.26,-5.12 -1.45,2.41 -3.27,4.92 -4.38,6.97 -0.11,0.21 -0.84,1.37 -0.97,1.59 -2.61,4.63 -5.86,9.95 -8.04,14.67 -0.27,0.58 -1.98,2.78 -3.59,4.96 -1.62,2.19 -4.27,5.04 -6.63,7.34 -2.36,2.29 -5.38,4.27 -7.01,4.79l-0.16 0.05c-0.13,0.04 -1.38,0.3 -1.91,0.3 -0.54,0 -1.33,-0.7 -2.02,-1.8l-0.21 -0.33c-0.4,-0.65 -0.98,-1.78 -1.15,-2.33 -0.78,-2.49 -2.29,-5.79 -2.72,-8.59 -0.41,-2.78 -1.03,-5.41 -1.03,-6.36 0,-5.64 0.45,-11.4 0.45,-16.85 0,-4.16 -0.23,-9.09 -0.23,-14.16 0,-5.06 0.57,-9.98 1.24,-13.76 0.32,-1.76 2.46,-4.13 4.3,-5.62 1.84,-1.49 4.4,-2.76 6.53,-2.76 2.15,0 3.58,1.52 3.58,4.51 0,1.57 -1.33,7.95 -3.14,18.34 -0.29,1.65 -0.5,4.13 -0.5,5.95 0,2.29 -0.6,5.13 -0.6,7.13 0,6.9 -0.26,14.08 0.05,21.25l5.2 -6.3c4.17,-5.05 6.71,-11.01 9.35,-16.16 0.83,-1.63 1.94,-3.95 2.69,-5.52 3.76,-7.77 8.28,-15.52 12.41,-22.7 0.05,-0.04 0.08,-0.07 0.1,-0.1zm-1.85 -25.91c0.62,0 1.43,0.27 1.43,0.55 0,0.27 -0.35,1.07 -0.53,1.36 -1.24,1.97 -3.09,4.94 -3.58,7.7 -0.05,0.28 -0.6,1.34 -0.68,1.84 -0.16,0.99 -0.32,2.58 -0.32,4.38 0,1.81 0.04,3.34 0.14,4.53 0.29,0.35 0.32,0.72 0.32,0.8 0,0.1 -0.4,0.51 -0.53,0.51 -0.06,0 -0.77,0.26 -1.46,0.26 -0.7,0 -1.52,0.1 -2.29,0.1 -0.75,0 -1.31,0.02 -1.61,0.02 -0.68,0 -1.85,-0.77 -2.74,-1.59 -0.87,-0.81 -2.4,-2.45 -2.98,-3.42 -0.57,-0.95 -1.05,-2.43 -1.05,-2.73 0,-1.25 0.71,-2.87 0.71,-4.31 0,-0.17 0.15,-0.71 0.15,-0.93 0,-1.5 -0.05,-3.22 -0.05,-4.84 0,-1.61 0.48,-3.14 1.15,-4.3 1.53,-0.78 3.98,-0.81 6.63,-0.81 2.65,0 5.42,0.89 7.28,0.89zm149.67 30.46c-4.99,-1.09 -9.98,-3.32 -14.72,-4.94 -1.09,-0.37 -1.11,-1.15 0.38,-1.69 1.5,-0.54 4.88,-1.89 8.49,-2.43 3.63,-0.54 8.37,-1.49 13.07,-1.73 4.7,-0.25 9.83,-0.11 14.11,0.38 8.56,0.97 15.27,4.75 18.8,9.53 3.54,4.81 5,11.51 4.31,18.64 -0.4,3.98 -2.88,8.08 -5.65,10.56 -2.76,2.48 -6.87,5.09 -10.73,6.2 -2.27,0.65 -5.72,1.92 -8.6,2.25 -2.89,0.33 -6.35,0.43 -9.19,0.13 -0.48,-0.05 -1.53,-0.51 -2.38,-0.93 -0.28,7.39 -0.18,14.48 0.29,21.25 0.53,0.94 0.36,1.86 0,2.38 -0.02,0.03 -0.61,0.46 -1.12,0.58 -0.53,0.12 -1.37,0.52 -1.88,0.52 -0.51,0 -1.2,0.34 -1.59,0.36 0,0 -0.12,0 -0.16,0 -1.07,0 -2.22,-0.72 -2.93,-1.65 -0.71,-0.94 -1.89,-2.7 -2.24,-4 -0.35,-1.29 -1.37,-3.36 -1.42,-4.58 -0.04,-1.21 -0.48,-2.96 -0.48,-3.52 0,-4.83 0.65,-9.82 0.65,-14.82 0,-0.04 0,-0.22 0,-0.25 0,-0.58 -0.1,-1.34 -0.1,-1.79 0,-4.04 -0.39,-8.48 -0.39,-12.97 0,-4.51 0.07,-8.91 0.39,-12.44 0.16,-1.76 1.61,-3.65 3.09,-5.04zm8.28 29.25c3.07,-0.81 6.75,-2.15 10.2,-3.21 3.43,-1.05 7.19,-3.09 9.9,-4.84 2.71,-1.75 4.92,-4.36 5.06,-6.73 0.07,-1.2 0.11,-3.43 0.11,-5.17 0,-1.73 -1.19,-3.95 -2.37,-5.04 -1.07,-0.99 -3.54,-2.3 -5.58,-2.5 -2.04,-0.19 -4.74,-0.74 -7.22,-0.74 -2.45,0 -4.75,0.1 -6.65,0.1 -0.65,0 -1.42,0.05 -1.99,0.05 -0.29,9.36 -0.79,18.71 -1.46,28.08zm88.4 -27.45c-1.75,-1.18 -3.64,-3.2 -4.75,-5.24 -1.12,-2.04 -2.79,-4.64 -3.34,-6.1 -0.19,-0.53 -0.51,-1.4 -0.3,-1.4 0.19,0 1.28,0.13 1.61,0.15 1.8,0.11 4.48,0.98 7,0.98 2.52,0 5.31,0.28 7.81,0.28 1.2,0 2.42,0.1 3.43,0.1 2.44,0 5.23,-0.25 7.83,-0.25 2.57,0 5.69,-0.53 8.2,-0.53 2.56,0 5.82,-0.31 7.99,-0.48 4.2,-0.33 8.23,0.64 11.57,4.75 -0.25,0.77 -1.92,1.96 -4.18,2.71 -2.28,0.75 -5.59,2.22 -8.22,2.73 -2.63,0.51 -5.01,1.29 -6.19,1.29 -1.09,0 -2.15,0 -3.04,0 -2.08,0 -4.09,0.05 -5.82,0.05 -1.72,0 -3.88,0.27 -6.25,0.58 -0.74,5.21 -1.38,10.44 -1.89,15.73 1.69,0.13 3.58,0.5 5.06,0.5 3.3,0 7.22,-0.35 11.12,-0.35 1.27,0 3.06,-0.18 4.41,-0.23 0.92,-0.43 2.19,-0.07 2.93,0.18 0.35,0.12 1.69,1.41 2.19,2.21 0.48,0.78 1.37,1.97 1.73,2.68 -0.06,0.71 -1.03,1.84 -2.01,2.51 -0.98,0.68 -2.87,1.97 -4.35,2.59 -1.48,0.63 -3.02,1.14 -3.79,1.14 -3.07,0 -5.52,-0.16 -7.13,-0.16 -1.6,0 -3.16,0.26 -4.2,0.26 -0.77,0 -1.95,0.25 -2.94,0.25 -1,0 -2.43,0.07 -4.08,0.03 -0.31,6.12 -0.18,11.72 0.34,16.86 0.24,0.48 0.36,0.91 0.36,1.29 0,0.36 -0.12,0.73 -0.36,1.09 -0.12,0.08 -0.55,0.4 -0.73,0.4 -0.17,0 -0.77,0.34 -1.23,0.51 3.33,0.13 6.47,0.35 9.35,0.35 0.51,0 1.27,0.05 1.81,0.05 3.16,0 7.01,-0.41 10.63,-0.44 3.59,-0.03 7.4,-0.74 10.5,-1.26 0.68,-0.58 1.68,-0.33 2.49,-0.1 0.1,0.03 1.2,0.95 1.51,1.41 0.31,0.45 1.44,1.66 1.66,2.13 0.04,0.09 0.5,0.62 0.65,0.82 0.32,1.19 -0.41,2.63 -1.27,3.45 -0.88,0.83 -2.9,2.34 -4.29,2.81 -1.38,0.47 -3.17,1.29 -4.29,1.29 -3.48,0 -7.07,0.25 -10.56,0.25 -0.55,0 -1.87,0.13 -2.38,0.13 -2.96,0 -6.82,0.82 -10.7,0.82 -3.84,0 -8,0.14 -10.72,-0.33 -2.24,-0.38 -4.75,-2.93 -6.09,-4.98 -1.33,-2.05 -3.25,-4.84 -3.87,-6.84 -0.1,-0.31 -0.28,-1.22 -0.27,-1.24 0,0 0.55,-0.16 0.94,-0.16 0.41,0 1.4,0.33 1.4,0.33 2.32,0.1 5.23,0.87 8.28,1.07 -1.48,-1.49 -2.81,-3.69 -3.58,-6.2 -0.77,-2.51 -1.37,-4.65 -1.37,-6 0,-0.28 0.1,-0.89 0.1,-1.55 0,-1.24 0.36,-2.97 0.36,-4.63 0,-1.66 0.31,-3.49 0.31,-4.89 0,-1.41 -0.07,-2.6 -0.07,-2.6 -1.27,-2.18 -3.04,-4.62 -3.77,-6.25 -0.2,-0.47 -0.38,-1.3 -0.18,-1.3 0.19,0 1,-0.07 1.59,-0.07 0.6,0 1.43,0.35 2.03,0.41 0,0 0.18,0.05 0.24,0.05 0,-2.47 0.16,-5.01 0.16,-7.34 0,-2.33 0.3,-4.54 0.6,-6.31zm145.3 -5.39c0.39,0.53 0.93,2.62 0.86,3.32 -0.08,0.71 -1.44,2.17 -2.12,2.5 -0.69,0.34 -1.97,0.99 -2.88,1.01 -0.55,-0.15 -1.55,-0.55 -1.68,-0.58 -2.86,-0.71 -6.65,-2.44 -9.81,-3.02 -3.15,-0.57 -6.69,-0.95 -8.79,-0.32 -3.92,1.18 -7.76,4.14 -9.86,7.02 -1.73,2.39 -3.84,6.39 -4.68,9.93 -0.84,3.52 -2.16,7.8 -2.16,11.17 0,3.01 0.52,6.99 1.25,10.25 0.73,3.26 3.14,7.15 5.59,9.52 1.69,1.65 4.88,3.32 7.3,3.44 2.4,0.11 5.83,0.07 8.24,-0.13 2.41,-0.19 5.38,-1.52 7.15,-2.05 0.09,-0.03 1.34,-0.97 2.04,-1.47 0.71,-0.51 2.16,-1.75 2.81,-2.21 0.65,-0.47 2.14,-1.74 2.51,-2 0.38,-0.26 1.08,-0.89 1.12,-0.94 1.3,-0.43 3.07,-0.05 4.46,0 1.02,0.04 2.7,0.35 3.95,0.18 0.56,0.26 0.35,1.21 0.34,1.88 -0.01,0.7 -1.21,2.45 -1.69,3.41 -0.47,0.95 -1.88,2.7 -2.3,3.39 -0.41,0.69 -1.46,1.84 -1.46,1.84 -2.97,2.99 -7.32,6.05 -11.48,7.45 -3.23,1.09 -7.33,2.11 -11.2,2.11 -3.88,0 -8.23,-1.19 -11.9,-2.89 -4.51,-2.09 -8.65,-5.88 -11.45,-10.07 -2.81,-4.19 -5.14,-9.02 -5.83,-13.37 -0.99,-6.18 -1.02,-13.04 -0.32,-18.92 0.39,-3.28 2.14,-7.63 3.42,-10.99 1.28,-3.37 4.04,-7.3 6.32,-9.9 2.3,-2.61 6.02,-5.48 9.33,-6.56 2.83,-0.93 6.99,-1.72 11.37,-1.67 4.38,0.05 8.67,1.16 12.03,2.35 1.32,0.47 3.69,1.99 5.03,2.71 1.35,0.72 3.87,2.8 4.47,3.62zm54.17 -5.85c-0.04,-0.06 -0.46,-0.97 -0.46,-1.04 0,-0.07 0.46,-0.35 0.98,-0.35 0.49,0 1.1,0.1 1.57,0.1 0.44,0 1.15,0.21 1.15,0.21 3.49,0.37 7.39,1.13 11.05,1.13 3.66,0 7.55,0.23 11.19,0.23 1.03,0 2.24,0 2.99,0 5.97,0 12.36,-1.31 18.6,-1.64 1.01,-0.05 3.05,-0.38 4.51,-0.53 1.18,-0.61 2.62,-0.55 4.14,-0.1 0.76,0.23 2.18,1.27 2.99,1.97 0.8,0.68 2.03,1.88 2.62,2.62 -0.03,0.91 -1.32,2.26 -2.87,3.06 -1.53,0.8 -4.16,2.31 -6.25,2.99 -2.09,0.69 -4.07,1.45 -5.17,1.45 -2.66,0 -5.42,0.1 -8.2,0.3 0,0.32 -0.04,0.66 -0.04,0.99 0,0.3 -0.14,0.79 -0.14,0.79 -0.39,3.09 -1.15,6.94 -1.15,10.89 0,3.94 -0.32,8.27 -0.32,12.31 0,2.52 -0.21,5.01 -0.21,7.16 0,8.64 0.33,17.45 0.97,26.39 0.52,0.81 0.49,1.47 -0.11,1.98 -0.45,0.13 -1.04,0.1 -1.58,0.1 -0.58,0 -1.43,-0.25 -1.85,-0.25 -0.61,0 -1.37,-0.28 -1.88,-0.28 -2.62,-0.98 -4.81,-2.98 -5.49,-4.99 -0.68,-2.03 -1.54,-4.79 -1.54,-6.78 0,-4.44 0.16,-9.15 0.16,-13.79 0,-0.54 -0.06,-1.43 -0.06,-2.09 0,-0.53 -0.15,-1.45 -0.15,-1.7 0,-4.05 -0.87,-8.82 -0.87,-13.45 0,-4.64 -0.02,-9.32 0.23,-12.5 0.11,-1.4 1.71,-2.97 3.19,-3.68 -5.31,0.71 -10.61,0.84 -14.93,0.39 -2.45,-0.26 -5.59,-2.86 -7.46,-4.87 -1.85,-1.99 -4.48,-5.06 -5.59,-7.04zm138.61 5.76c0.55,0.35 0.63,0.75 0.63,0.81 0,0.08 -0.54,0.44 -0.94,0.44 -0.39,0 -1.18,0.23 -1.7,0.23 -0.85,0 -1.96,0.4 -2.43,0.4 -0.59,0 -1.81,0.88 -2.17,1.1 -1.97,1.23 -4.43,3.99 -5.48,6.36 -1.07,2.39 -2.71,5.8 -3.33,8.79 -0.62,2.99 -1.4,6.24 -1.4,8.73 0,3.35 0.3,7.39 0.41,10.59 0.11,3.2 1.87,7.48 3.28,10.61 2.19,4.84 6.89,7.14 11.74,6.97 4.36,-0.14 9.12,-2.5 12.06,-4.97 2.94,-2.47 6.07,-6.57 7.66,-10.63 1.59,-4.07 2.96,-8.93 2.96,-13.5 0,-4.57 -0.91,-9.58 -2.03,-13.55 -0.51,-1.83 -2.29,-4.67 -3.29,-6.25 -0.49,-0.79 -2.37,-2.65 -3.84,-3.93 -1.47,-1.27 -3.54,-2.68 -4.33,-3.09 -2.11,-1.08 -4.63,-3.01 -5.76,-3.42 -1.13,-0.4 -3.5,-1.63 -6.04,-2.62 0.35,-0.71 1.56,-1.27 3.31,-1.27 1.71,0 3.98,0.08 5.86,0.08 1.86,0 4.04,0.48 4.49,0.56 4.28,0.81 8.81,3.99 11.89,7.06 3.94,3.94 7.73,9.79 9.3,15.3 1.58,5.54 2.34,11.66 2.01,16.31 -0.39,5.67 -2.88,11.86 -5.25,16.66 -2.37,4.82 -6.85,9.76 -11.42,12.69 -2.16,1.38 -5.79,3.37 -8.7,4.03 -2.9,0.66 -6.83,1.27 -10.21,1.27 -3.37,0 -7.42,-1.5 -10.41,-3.12 -4.06,-2.2 -8.2,-6.46 -10.33,-10.41 -2.15,-3.98 -4.55,-9.3 -5.19,-14.05 -0.63,-4.75 -0.97,-10.24 -0.97,-14.76 0,-4.52 1.49,-9.38 2.35,-12.64 1.08,-4.14 4.41,-8.39 7.82,-10.79 1.25,-0.87 3.59,-2.54 5.06,-2.89 1.45,-0.35 3.87,-0.89 6.06,-0.89 1.48,0 3.45,0.77 4.5,0.97 1.04,0.2 2.69,1.47 3.84,2.81zm100 3.67c-4.99,-1.09 -10.07,-3.47 -14.72,-4.94 -0.94,-0.29 -0.99,-1.26 0.38,-1.69 1.37,-0.43 5,-2.01 8.49,-2.43 3.51,-0.42 8.62,-1.73 13.08,-1.73 4.44,0 10.03,0.01 14.1,0.38 8.44,0.77 15.39,4.85 18.81,9.53 3.42,4.69 4.84,11.6 4.29,18.64 -0.31,3.84 -2.83,8.05 -5.64,10.56 -2.8,2.51 -6.98,5.22 -10.74,6.2 -2.13,0.55 -5.83,2.03 -8.59,2.25 -2.77,0.21 -6.41,0.13 -9.18,0.13 -0.18,0 -1.54,-0.51 -2.39,-0.93 -0.27,7.39 -0.16,14.48 0.29,21.25 0.53,0.94 0.33,1.88 0,2.38 0,0 -0.73,0.58 -1.12,0.58 -0.39,0 -1.36,0.52 -1.87,0.52 -0.51,0 -1.21,0.34 -1.59,0.36 0,0 -0.12,0 -0.17,0 -1.06,0 -2.31,-0.79 -2.94,-1.65 -0.63,-0.85 -1.97,-2.78 -2.23,-4 -0.27,-1.21 -1.42,-3.4 -1.42,-4.58 0,-1.17 -0.48,-2.96 -0.48,-3.52 0,-4.83 0.66,-9.82 0.66,-14.82 0,-0.04 0,-0.22 0,-0.25 0,-0.58 -0.1,-1.34 -0.1,-1.79 0,-4.04 -0.38,-8.48 -0.38,-12.97 0,-4.51 0.31,-9.02 0.38,-12.44 0.03,-1.52 1.6,-3.65 3.08,-5.04zm8.27 29.25c3.09,-0.81 6.87,-2.27 10.2,-3.21 3.31,-0.94 7.11,-3.01 9.91,-4.84 2.8,-1.83 5.08,-4.41 5.08,-6.73 0,-1.04 0.1,-3.44 0.1,-5.17 0,-1.74 -1.32,-4.07 -2.38,-5.04 -0.95,-0.87 -3.49,-2.26 -5.58,-2.5 -2.08,-0.24 -4.74,-0.74 -7.21,-0.74 -2.46,0 -4.75,0.1 -6.65,0.1 -0.64,0 -1.42,0.05 -2,0.05 -0.29,9.36 -0.79,18.71 -1.47,28.08zm112.76 -42.22c0.38,-0.38 1.19,0.01 1.27,0.05 0.08,0.04 1.25,1.35 1.38,1.84 0.14,0.51 1.19,1.94 1.19,2.43 0,0.49 0.71,1.83 0.71,1.83 3.16,11.63 6.55,23.6 7.78,35.4 0,0 0.26,1.21 0.26,1.21 0.06,2.32 1.01,4.99 1.63,7.8 0.39,0.1 1.03,0.28 1.21,0.28 0.53,0 1.37,0.73 2.11,1.39 0.74,0.66 1.65,1.59 1.96,2.05 0.32,0.47 1.21,1.38 1.21,1.65 0,0.1 -0.49,1.02 -0.6,1.04 -0.07,0.01 -1.45,1.14 -1.79,1.14 -0.3,0 -1.3,0.77 -1.74,0.83 0,0 -0.23,0.1 -0.29,0.13 0.97,3.98 2.07,7.47 3.28,10.51 0.77,0.98 0.97,2.01 0.97,3.01 0,0.06 -0.7,0.9 -0.7,0.94 0,0.02 -1.21,1.19 -1.31,1.24 -0.08,0.04 -1,0.84 -1.24,1.01 0,0 -0.19,0.18 -0.28,0.25 -1.36,0.25 -3.22,-0.8 -4.35,-1.98 -1.14,-1.19 -3.4,-3.89 -4.31,-5.7 -0.89,-1.81 -2.29,-4.13 -2.93,-5.78 0,0 -0.02,0 -0.03,0 -0.01,0 -0.03,0 -0.08,0 -0.03,0 -0.1,0 -0.1,0 -3.6,-0.15 -7.33,0.2 -10.65,0.2 -0.91,0 -3.58,0.87 -5.67,0.87 -2.09,0 -5.09,0.83 -7.32,0.83 -2.24,0 -4.24,0.15 -5.45,-0.1 -0.24,0.38 -0.71,1.12 -0.71,1.16 0,0.36 -0.71,1.14 -1.07,1.7 -0.53,1.97 -1.93,3.83 -3.28,4.64 -0.54,0.33 -2.23,1.11 -3.67,1.11 -1.44,0 -2.94,0.07 -4.13,-0.2 -0.39,-0.71 -0.1,-2.71 0.4,-5.52 0.51,-2.81 1.53,-6.02 2.53,-9.14 -1.78,-1.65 -3.67,-3.72 -4.7,-4.79 -0.11,-0.11 -0.65,-0.92 -0.65,-0.99 0,-0.08 0.65,-0.5 1.2,-0.5 0.52,0 1.25,-0.11 1.92,-0.11 0.64,0 1.15,0.05 1.48,0.05 0.07,0 0.19,0 0.19,0 0.89,0.03 1.79,0.1 2.73,0.1 0.82,-1.97 2.19,-4.27 2.93,-5.67 0.92,-1.75 2.92,-4.73 3.49,-6.93 0.47,-1.78 2.25,-5.81 3.24,-9.88 0.91,-3.73 2.78,-8.33 3.93,-12.1 1.15,-3.77 2.53,-7.05 3.03,-8.18 0.97,-2.17 3.23,-4.34 4.46,-4.94 1.23,-0.6 3.63,-1.98 5,-2.04 1.25,-0.05 3.53,-1.16 5.55,-2.13zm-17.69 51.96c2.48,0 4.98,0.08 7.43,0.08 3.14,0 6.53,-0.53 9.74,-0.53 0.93,0 2.43,-0.18 3.64,-0.28 -0.17,-0.74 -0.55,-1.84 -0.55,-2.28 0,-1.38 -0.88,-3.35 -1.02,-4.54 -0.19,-1.6 -1.28,-4.24 -1.56,-5.67 -1.12,-5.7 -3.23,-11.85 -4.65,-17.72 -2.62,7.22 -6.08,14.54 -8.68,21.1 -0.27,0.68 -1.51,2.76 -1.57,3.64 -0.04,0.6 -1.18,2.41 -1.32,3.09 -0.15,0.73 -1.04,2.07 -1.46,3.1zm111.15 -48.32c0,0 1.21,-0.04 1.21,0.1 0,0.11 0.26,0.81 0.26,1.36 0,0.55 -0.21,1.22 -0.21,1.63 0,0.43 -0.21,0.98 -0.21,0.98 -1.41,7.91 -2.69,16.19 -3.42,24.79 4.46,0.48 8.23,0.88 11.03,0.88 2.79,0 6.64,-0.05 11.27,-0.45 -0.11,-4.31 0.04,-9.22 0.04,-14.29 0,-5.09 0.61,-10 1.47,-13.3 0.51,-1.98 3.42,-3.95 5.54,-4.04 2.1,-0.09 5.27,-0.08 7.84,0.17 0.59,0.06 1.45,0.37 1.45,0.63 0,0.25 -0.08,0.69 -0.38,1.2 -0.06,0.07 -0.15,0.25 -0.15,0.25 -1.06,3.05 -2.27,7.56 -2.78,12.9 -0.51,5.35 -1.3,10.43 -1.57,14.79 0,0 0,0.18 0,0.28 1.18,0.16 2.75,1.02 3.39,1.33 0.64,0.31 2.07,1.53 2.66,2.13 0.59,0.6 1.04,1.09 1.09,1.19 -0.05,0.73 -1.26,2.01 -2.33,2.58 -1.08,0.57 -3.27,1.92 -5.3,2.79 -0.17,8.81 0.13,17.17 0.92,25.07 0.59,1.45 0.13,3.09 0.08,4.27 -0.01,0.2 -1.17,1.62 -1.86,1.88 -0.69,0.27 -1.9,1.01 -2.67,1.27 -1.45,-0.43 -3.05,-2.3 -4,-4.83 -0.95,-2.53 -2.44,-6.07 -2.9,-9.01 -0.46,-2.94 -1.09,-5.59 -1.09,-6.66 0,-3.23 0.35,-6.56 0.35,-9.82 -1.34,0 -2.71,0.05 -4.03,0.05 -1.32,0 -3.14,0.03 -4.05,0.03 -4.47,0 -9.59,0.68 -15.01,0.5 -0.31,8.23 -0.12,16.2 0.51,23.91 0.6,1.55 0.52,3.11 0.11,4.36 -0.18,0.55 -1.41,1.77 -2.02,2.04 -0.59,0.26 -1.9,1.14 -2.65,1.4 -1.3,-0.5 -2.86,-2.41 -3.68,-4.84 -0.82,-2.42 -2.36,-5.95 -2.85,-8.79 -0.49,-2.85 -1.14,-5.52 -1.14,-6.56 0,-3.87 0.6,-7.93 0.6,-11.86 0,-1.29 0.09,-2.76 0.15,-4.12 -2.75,-2.74 -5.3,-5.82 -6.82,-8.23 -0.16,-0.26 -0.47,-1.1 -0.42,-1.1 0.05,0 0.75,-0.25 1.35,-0.25 0.61,0 1.35,0.16 1.86,0.16 0.51,0 1.06,0.18 1.12,0.18 0.45,0 1.04,0.23 1.42,0.23 0.37,0 0.96,0.13 1.42,0.2 0.04,-3.45 0.32,-7.06 0.32,-10.26 0,-3.22 0.73,-6.91 1.09,-9.11 0.35,-2.08 3.16,-4.57 5.23,-5.43 2.1,-0.87 5.23,-2.59 7.83,-2.6z"/>
   <path class="fil1" d="M322.3 144.22l9.47 -15.85c13.77,1.24 3.8,7.36 19.6,5.95 12.37,-1.09 10.89,1.63 22.74,1.62 15.24,-0.01 10.21,-2.03 18.74,-8.33 9.59,-7.09 11.76,-1.55 11.69,-17.5 -17.66,-0.02 -7.22,2.61 -16.29,12.72 -7.47,-1.09 -11.28,-5.48 -10.38,-13.91 0.96,-8.91 11.61,-11.25 1.55,-14.69 -14.43,-4.96 -24.78,8.89 -37.46,11.19 -15.08,2.75 -30.49,-0.28 -36.76,12.11 -8.76,17.31 1.44,25.87 17.11,26.7zm87.59 72.79l-1.99 -8.96c-3.65,1.71 -28.36,18.6 -28.95,24.14 0.65,3.15 8.74,14.98 11.42,17.57 6,5.81 14.17,2.56 22.45,0.84 11.12,-2.31 41.09,5.69 54.93,-0.5 -0.39,-8.33 1.54,-5.07 -6.08,-8.16 -1.85,-0.74 -10.19,-2.43 -12.87,-3.08 -0.81,-9.62 -9.27,-26.7 -17.01,-33.99 -5.92,2.14 -6.79,4.1 -10.22,7.07 -3.69,3.19 -5.26,4.71 -11.67,5.06zm40.66 537.9c-2.51,1.4 -5.21,2.84 -8.67,4.37 -14.42,6.39 -12.43,6.85 -29.53,9.42 -39.37,5.94 -62.48,3.44 -101.9,-0.96 -48.17,-5.39 -54.53,-12.4 -87.01,-24.74 -30.17,-11.46 -47.17,-19.29 -70.87,-38.72 -9.62,-7.88 -34.76,-23.98 -38.84,-34.13 4.57,-5.24 34.48,-15.96 42.67,-20.03 15.74,-7.82 49.08,-18.29 67.48,-26.05 39.47,-16.65 128.12,-40.23 167.78,-47.19 26.64,-4.68 91.26,-23.3 102.31,1.7 -3.71,4.99 -1.25,4.5 -15.97,6.18 -6.03,0.69 -12.48,1.94 -18.94,3.05 -41.63,7.21 -98.05,-5.97 -107.27,24.87 12.07,0.48 22.29,-3.44 34.13,-3.09 30.1,0.87 81.1,0.94 106.99,-6.29 -4.04,10.5 -17.57,11.45 -15.88,31.45 20.35,2.82 10.55,-5.52 38.8,-22.02 52.45,-30.64 45.65,-8.33 60.89,0.56 26.41,15.41 11.44,7.44 37.23,17.83l17.15 4.7c3.65,1.4 2.44,0.87 4.56,2.49l-17.18 19.48c-16.84,15.16 -75.65,-0.19 -97.43,6.03 -6.41,16.29 18.71,12.68 30.19,12.55 14.37,-0.19 31.41,-3.66 43.48,2.48 -0.26,10.45 -6.16,9.35 -17.07,15.66 -24.52,14.18 -45.65,2.14 -89.1,9.5 -0.69,22.33 36.82,-2.15 55.97,7.96 -6.93,17.01 -34.47,25.04 -55.42,29.79 -7.23,-1.69 -23.98,-0.68 -35.17,-0.78 -8.63,0.03 -22.28,1.01 -42.08,0.8 -10.86,-0.11 -20.06,12.79 -0.63,13.06 17.04,0.25 29.86,0.21 39.34,0.07zm198.23 -136.09c-6.13,0.31 -20.42,-2.52 -29.94,-3.06 -31.24,-1.78 -39.26,-49.58 -32.91,-56.42l84.72 6.06c10.72,1.92 2.39,11.55 -1.95,17.22 -9.68,6.1 -47.14,-4.81 -53.7,9.91 8.76,10.88 30.17,3.87 41.91,3.91 -0.23,8.03 -4.61,16.39 -8.13,22.38zm-207.04 -178.72c-9.68,9.62 6.5,8.15 -18.86,12.11l-3.04 11.36c-3.44,-5.09 -7.89,-14.1 -9.73,-26.49 -8.89,-2.09 -17.87,-2.34 -20.39,-10.5 -7.05,-22.77 31.02,-6.96 38.94,-2.01 15.86,9.92 4.09,6.2 19.28,2.59 36.75,-8.74 61.74,29.72 58.92,59.43 -12.11,0.23 0.63,-4.81 -17.29,-5.91 -13.46,-0.83 -8.95,-2.63 -20.38,-4.08 0.85,6.21 3.85,19.46 -3.9,24.22 -10.18,6.14 -14.32,-17.52 -17.1,-26.41 -2.1,-6.74 -5.7,-11.56 -5.78,-19.35 -0.09,-8.68 3.67,-8.62 -0.68,-14.97zm29.96 -66.01c-5.28,4.14 -14.3,6.48 -16.64,10.7 -1.67,2.98 -3.41,15.11 -5.56,20.18 -4.81,11.32 -26.03,18.85 -26.88,-11.45 -0.87,-31.47 2.3,-23.8 21.07,-34.2 10.7,-5.93 30.07,-16.82 28.01,14.77zm155.18 -22.73c8.03,2.52 0.21,8.42 15.28,7.36 -0.71,-13.78 -3.21,3.87 -3.83,-13.4 5.88,-0.4 16.79,-1.01 22.01,2.61 7.29,5.07 4.95,12.78 16.3,23.1 5.09,-9.6 -6.12,-9.86 -1.47,-22.84 0.59,-0.26 1.32,-0.51 1.84,-0.63 0.52,-0.13 1.2,-0.43 1.85,-0.55 5.83,-1.13 6.04,-1.87 20.29,3.92 34.04,13.86 57.87,45.21 15.28,51.23 -7.06,1 -12.03,-1.01 -17.7,-0.33 -9.94,1.19 -15.92,19.65 -31.01,-18.03l-32.7 3.76c-0.62,1.6 -1.11,0.42 -1.18,5.86 -0.17,12.84 2.71,-1.87 3.57,20.2l0.86 4.6c6.6,5.77 12.25,-5.4 16.48,-5.84 13.04,2.88 6.44,9.26 22.32,11.66 10.66,1.61 21.26,-0.13 31.78,1.17 4.93,32.9 -10.32,104.32 -23.67,125.99l-97.19 -5.18 -5.97 -6.14c-8.88,-8.72 -15.82,-11.57 -28.93,-13.1 -16.03,-1.85 -34.62,5.32 -48.91,-0.84 -0.72,-16.46 18.46,-16.69 27.24,-22.99 -3.75,-39.29 -32.58,-51.8 9.15,-72.18 36.49,-17.83 45.85,-6.12 68.04,-13.11 6.71,-2.11 14.16,-3.86 19.31,-8.28 -1.01,-5.81 -3.61,-12.76 -6.62,-18.03 -2.03,-3.54 -3.14,-4.37 -5.56,-6.54 -6.4,-5.75 0.03,2.38 -5.87,-5.29 -4.85,-12.29 10.35,-23.42 19.02,-28.16zm-12.42 -2.16c-8.56,8.03 -7.32,7.06 -17.97,12.4 -3.39,20.73 5.49,1.63 7.53,17.91 1.1,8.97 -6.09,11.37 -13.54,12.48 -1.39,-14.32 -5.15,-21.2 -5.04,-38.35 0.21,-35.53 -15.37,-46.02 -21.09,-64.95 -7.24,-23.89 10.96,-16.44 42.65,-14.87 9.92,0.49 9.29,3.01 17.91,4.3 47.12,7.02 46.22,-10.68 60.92,24.64 2.39,5.74 8.89,29.41 9.26,33.47 -36.59,1.32 -50.72,-15.07 -80.62,12.99zm-608.04 150.88c18,79.66 57.87,152.39 121.65,201.21 27.71,21.22 52.67,37.99 87.72,51.79 80.12,31.56 150.37,38.93 233.87,16.78 30.21,-8.02 44.56,-9.38 69.67,-24.13 19.67,-11.55 37.59,-20.01 57.28,-34.17l24.85 -20.7c12.06,-8.57 13.4,-13.84 22.97,-23.19 27.61,-26.96 61.23,-78.41 72.77,-112.74 3.6,-10.7 8.21,-23.11 10.73,-34.62 2.82,-12.9 5.14,-24.77 8.32,-37.38 13.81,-54.71 -10.48,-57.33 21.69,-70.01 9.71,-3.83 23.79,-9.37 30.95,-14.93 27.76,-21.57 34.77,-18.02 19.16,-44.38 -14.44,-24.37 -55.49,-20.07 -79.54,-21.86l-14.18 -43.61c-10.44,-30.72 27.41,-10.13 17.37,-37.59 -15.31,4.54 -6.57,2.76 -25.07,2.86 -7.85,8.31 -11.54,12.43 -35.56,9.54 -18,-2.17 -26.74,-13.64 -30.13,-16.15 -10.86,2.4 -7.82,5.93 -19.91,7.87 -8.48,-2.55 -9.36,-8.44 -20.03,-9.48 -9.27,-0.91 -13.28,3.31 -21.29,5.48 -2.21,8.71 -0.35,12.09 -6.46,17.61 -5.31,-6.32 -4.56,-11.89 -17.28,-9.25 -9.03,-4.4 -10.36,-9.04 -20.16,-13.62 -6.95,-3.25 -11.63,-4.72 -15.15,-12.41l21.74 -0.25 -0.61 -19.28c-28.11,-11.85 -38.05,-35.14 -63.91,-26.77 0.75,7.36 2.49,9.17 5.76,13.89 8,11.51 17.58,11.11 18.33,28.73l-12.46 6.84c11.44,10.1 27.71,25.49 41.53,32.11 7.11,3.41 8.15,5.65 14.3,9.66 13.27,8.63 25.2,27.27 30.29,43.45l1.71 15.88c-4.09,17.67 -78.56,-1.07 -98.56,4.19 -3.45,0.91 -12.33,6.49 -16.91,8.19 -7.65,2.83 -12.87,2.82 -19.29,6.87 -24.35,15.35 -3.86,48.72 -24.59,51.86 -10.38,1.57 -15.06,-2.05 -17.3,-9.98 -2.01,-7.17 -2.04,-15.45 -5.01,-20.78 -4.6,-8.25 -6.75,-6.33 -17.4,-7.58 -25.72,-3.03 -35.53,-29.97 -80.54,-19.02 -1.67,4.86 -3.06,23.5 -4.13,29.41 8.68,-0.15 10.87,-2.05 14.95,-6.88 6.16,-7.3 2.03,-5.78 7.06,-12.62 10.99,-2.86 17.57,1.18 22.74,6.73 0.7,0.75 39.62,30.49 11.31,35.6 -9.14,1.64 -9.26,-1.81 -11.19,-3.8 -5.78,-6 3.96,-6.17 -13.46,-5.26 -4.23,9.1 0.23,6.02 -2.62,13.02 -16.35,-1.68 -2.75,-10.18 -21.61,-2l-39.84 13.62c-6.36,-0.12 -14.29,-3.98 -17.22,-8.95l-3.41 6.79c-14.23,-0.48 -10.05,-1.07 -20.41,-4.69 -6.21,-2.17 -11.09,-0.81 -18.66,-1.35 -10.49,-0.74 -23.49,-5.32 -28.68,-13.22 2.36,-6.4 4.09,-7.39 12.44,-8.16 4.88,-0.45 13.03,-0.18 17.93,0.38 7.04,-9.93 -4.29,-5.81 16.68,-17.38 8.72,-4.8 17.28,-7.36 27.26,-2.82 -2.19,4.51 -7.93,5.35 -13.48,6.78 -9.03,2.33 -9.62,-0.01 -12.66,7.26l8.05 2.12c8.59,0.05 19,-11.83 26.49,-5.16 4.29,3.82 7.8,7.64 14.68,5.03 0.18,-5.67 0.45,-6.57 -4.27,-8.74 -4.14,-1.88 -8.23,-0.96 -11.75,-3.21 2.81,-7.28 5.45,-8.55 13.22,-11.22 8.82,-3.04 11.63,-1.14 18.06,-6.7l-10.57 -3.4c-16.45,-0.25 -31.18,7.28 -45.97,11.45 -7.17,2.02 -11.28,2 -19.11,3.47 -18.89,3.55 -31.73,9.09 -42.4,24.1 -0.79,1.12 -1.42,2.1 -2.47,3.52 -0.72,0.97 -2.53,3.13 -2.74,3.46 -2.99,4.64 -2.08,-1.8 -2.84,7.17 5.5,3.55 9.18,3.13 15.39,6.37 12.94,6.74 4.88,5.86 28.45,15.59 8.06,3.32 12.74,0.76 15.32,5.92 -10.84,5.68 -30.79,-0.85 -41.67,-2.19 -12.96,-1.58 -31.88,8.66 -40.75,-0.64 -3.35,-5.54 2.56,-11.23 7.74,-24.47 3.42,-8.74 10.47,-9.25 12.28,-20.47 -0.5,-0.23 -0.21,-4.48 -8.94,-0.12 -6.46,3.24 -8.27,14.78 -11.23,20.33 -5.47,10.25 -10.49,20.25 -4.83,29.85 12.7,21.49 35.48,22.95 53.92,31.78 11.58,5.54 26.98,1.26 36.6,-0.18 12.78,-1.91 5.89,2.98 16.08,5.3 20.38,4.63 19.96,-19.44 39.46,-23 22.84,-4.16 20.13,2.64 33.49,7.58 7.53,-4.74 13.11,-9.38 23.26,-14.5 11.97,-6.04 26.99,-8.66 36.72,-16.71 8.3,-6.87 16.17,-10.52 27.73,-4.44 8.45,4.44 4.95,2.17 6.16,12.67l-22.33 -0.09 2.61 8.52c9.11,-1.67 3.25,-5.23 15.53,-4.61 17.81,0.9 3.4,2.86 11.85,5.69 21.72,-11.27 24.99,25.24 3.33,28.02 -2.04,-6.38 -3.72,-9.89 -6.89,-14.59 -12.85,2.07 -2.94,5.16 -22.23,4.6 -15.13,-0.42 -28.83,6.35 -40.3,13.03 -11.97,6.97 -2.59,8.43 -13.53,12.8 -2.36,-4.2 -0.21,-5.98 -0.49,-11.86 -22.82,1.64 -11.66,24.5 -3.62,29.23 19.4,2.98 12.57,-6.63 27.9,0.15 13.14,5.81 16.98,-0.13 31.68,0.4 5.79,10.57 5.09,17.5 21.29,8.93 11.65,-6.17 15.78,-2.65 27.33,2.04 14.68,5.97 11.88,4.13 20.13,15.71 5.86,8.21 12.57,10.18 11.03,22.67 -3.73,1.58 -43.25,7.14 -51.46,8.32 -30.94,4.44 -65.29,16.43 -95.68,20.42 -17.11,2.25 -33.97,-5.02 -49.97,-8.55 -57.4,-12.65 -155.17,-23.05 -212.87,-16.12l-8.98 -20.71c-2.79,-8.05 -4.69,-14.41 -7.19,-22.92 -31.77,-108.05 0.35,-239.01 72.45,-316.46 66.74,-71.69 133.27,-105.21 236.37,-117.78 28.98,-3.53 13.5,6.7 51.34,-4.05 8.96,-2.54 17.8,-1.8 25.76,-4.05 9.62,-2.74 10.97,-7.98 18.1,2.14 -2.57,6.86 -7.07,4.97 -10.36,11.94 11.3,8.32 27.87,-0.78 24.76,33.88 -0.75,8.3 -2.32,10.02 -8.09,11.95 -3.73,-4.27 -3.29,-4.64 -5.53,-10.37 -3,-7.67 -2.42,-4.51 -1.71,-14.22l-9.97 -3.94 -2.69 -11.61c-6.5,7.88 -5.46,10.77 -1.02,19.24 6.22,11.87 1.38,5.88 -0.03,18.86 0.52,0.32 1.21,0.62 1.67,0.76l3.44 1.13c0.61,0.12 1.24,0.18 1.82,0.26 0.06,0.01 5.16,-0.22 5.7,-0.25 4,22.19 9.52,38.45 -17.54,41.02l-2.3 -2.4c-0.31,-0.3 -0.76,-0.8 -1.1,-1.12 -2.44,-2.27 -0.94,-1.2 -3.26,-2.72 -10.78,-7.02 -7.73,-4.93 -13.71,-16.23 -14.96,6.28 -16.79,-1.86 -29.04,3.65 -10.04,4.51 -18.31,6.09 -20.21,13.68 7.31,-2.37 13.63,-1.85 19.66,-4.37 5.57,-2.32 6.91,-5.18 13.89,-3.96 5.05,0.87 2.18,0.07 5.39,2.41 -1.63,8.49 -3.39,7.15 -11.5,11.65 -9.29,5.15 -7.64,2.54 -15.33,5.72 -12.21,5.06 -11.76,16.87 -28.08,7.35l-9.65 11.57c-4.74,6.85 -1.65,4.81 -8.27,11.18 -5.39,-2.71 -0.36,1.04 -4.46,-4.6l-3.51 -5.3c-2.53,1.51 -10.57,6.95 -12.11,7.7 -9.59,4.7 -8.85,-0.82 -11.08,10.47 0.54,0.36 1.24,0.68 1.74,0.86 0.51,0.19 1.15,0.59 1.78,0.79l11.71 1.24c7.85,13.02 8.03,1.62 17.65,5.66l2.75 1.66c0.25,-0.46 0.95,0.75 1.5,0.99 26.43,-7.52 10.91,-22.29 25.88,-28.41 3.64,6.86 -1.6,5.55 -3.03,15.34 11.18,-1.6 11.38,-8.19 22.1,-3.93 8.48,3.37 3.19,4.39 15.95,8.89 13.56,-21.09 -4.3,-13.85 23.46,-27.99 12.61,-6.41 28.69,-18.74 42.7,-18.48 7.69,0.14 -1.77,0.43 4.68,0.47 16.49,0.09 -7.46,-17.16 -2.18,-36.46 11.03,-0.08 13.95,4.31 25.15,5.04 -2.09,-23.13 0.37,-13.75 16.49,-35.42 10.78,0.08 32.14,5.44 40.32,9.94 8.73,4.81 27.32,7.11 28.2,18.9 -9.24,0.59 -14.34,-7.24 -22.73,-8.64 -5.96,9.19 -4.18,7.75 -13.94,11.87 -7.07,-10.58 -3.19,-7.47 -7.13,-18.4 -9.54,1.37 -8.93,3.06 -14.13,9.15 -4.77,5.6 -8.32,5.56 -10.77,11.49 6.96,4.25 19.17,0.68 23.87,5.68l4.17 6.89c7.25,-3.54 11,-10.28 19.43,-13.07 0.34,-0.11 0.9,-0.33 1.24,-0.4 4.99,-1.02 7.18,0.88 10.48,5.09 14.12,18.02 13.18,7.72 15.75,5.2 4.26,-4.16 4.17,-11.24 16.72,-3.62 7.32,4.43 18.59,16.72 26.79,23 8.97,6.86 19.84,19.63 22.03,29.85 -12.98,-2.19 -1.69,0.29 -9.45,-4.62 -6.18,-3.91 -16.4,-10.75 -21.28,-0.46l4.49 0.98c7.16,1.77 8.73,2.33 10.19,9.87 -10.93,4.48 -18.76,-2.1 -27.75,-7.49 -2.28,-1.38 -1.54,-0.75 -3.79,-2.32 -24.47,-17.29 -20.67,3.32 -41.89,-5.84l-41.96 -15.38c-0.63,-0.28 -3.8,-1.84 -4.24,-2.07 -6.63,-3.35 -2.51,0.07 -7.58,-4.76 -5.76,-5.5 -3.29,-8.29 -14.95,-8.56 0.42,6.05 0.83,6.25 5.38,10.25 3.66,3.22 5.13,4.29 10.11,5.89 15.57,4.99 6.56,3.15 19.18,10.55 15.66,9.16 59.03,4.61 43.8,35.71 -8.4,17.16 -19.7,3.26 3.23,30.71l8.39 -0.9c4,-20.6 -6.41,-16.9 12.52,-37.47 0.28,-0.31 0.71,-0.73 0.98,-1.04l4.05 -6.33c-12.58,-0.26 -19.95,2.57 -22.03,-9.74 37.48,-6.01 18.47,20.83 47.9,18.56 11.18,-0.86 2.92,0.74 7.13,-3.12l4.68 -6.16c26.4,4.36 19.04,26.11 20.02,34.32 11.15,-5.38 6.94,-19.41 12.49,-31.43l11.7 1.48c5.24,11.36 -3.36,10.58 9.29,14.26 6.47,1.87 11.73,1.76 17.76,4.31 10.9,4.61 17.94,12.88 31.93,13.48 -2.62,-15.99 -16.18,-15.59 -31.55,-19.4 -20.38,-5.05 -19.92,-10.55 -31.6,-20.58l-52.69 -50.84c-39.66,-34.66 -71.1,-43.12 -80.01,-49.66 -6.25,-4.58 0.7,-1.66 -7.92,-5.66l-27.66 -10.53c-9.04,-3.9 -13.5,-5.61 -23.04,-6.31 -8.09,13.57 -18.6,1.73 -18.56,-0.21 0.11,-4.3 0.72,3.88 7.63,-9.56 3.5,-6.79 0.77,-3.79 6.94,-10.35 8.13,0.9 10.43,3.38 19.48,5.4 9.75,2.17 7.98,4.31 15.38,7.72 7.54,3.48 14.87,3.63 22.78,1.96 1.35,-0.29 5.16,-1.42 5.25,-1.44 3.74,-0.76 1.91,-0.27 5.28,-0.7 3.45,-0.44 0.93,0.37 5.19,-0.58 9.81,-2.18 -0.38,3.05 4.28,-1.93 3.22,-8.25 1.45,-3.77 -2.68,-7.56 -5.6,-5.18 -2.85,1.75 -5.61,-6.85 6.55,-8.32 19.75,-6.62 12.73,-20.41 -0.22,-0.41 -0.58,-0.86 -0.82,-1.24 -7.3,-11.28 -20.93,-13.55 -34.29,-14.18 -1.56,-2.9 -3.22,-5.96 -5,-8.12l-3.96 -4.14c-21.44,-21.25 -16.2,3.08 -40.86,-4.15 -24.64,-7.23 -11.6,-4.14 -32.17,2.01 -2.72,0.81 -6.6,1.65 -10.53,3.03 -8.34,2.94 -39.35,26.05 -45.32,31.27 0.91,12.15 3.76,3.01 3.96,16.56l-32.93 9.43c-50.81,7.07 -43.92,3.38 -99.8,23.14 -37.18,13.14 -43.27,19.34 -69.99,35.45 -16.5,9.94 -20.24,14.29 -34.75,25.1 -38.11,28.44 -68.19,70.13 -91.58,115.89 -10.8,21.11 -3.85,13.25 -12.66,29.07 -5.42,9.72 -16.76,49.75 -17.97,63.38 -7.38,47.31 -6.62,88.44 1.31,140.97zm65.06 120.43c10.99,-2.1 61.68,-9.76 74.16,-9.95 35.32,-0.42 49.14,0.81 77.39,4.15 2.76,-1.43 28.5,-7.14 27.93,-8.55 -12.71,-0.24 -73.88,-6.51 -113.16,-6.69 -10.48,-0.05 -70.44,-0.28 -78.85,1.65 4.3,8.14 9.48,15.2 12.52,19.4zm189.87 -19.46c6.35,-1.19 15.62,-4.24 30.73,-7.96 -26.71,-8.42 -120.05,-24.84 -151.95,-25.69 -13.61,-0.36 -80.71,-2.61 -98.86,-1.05 3.51,12.31 13.85,27.34 14.32,27.47 16.46,-2.12 63.5,-4.16 85.48,-2.62 44.67,3.13 86.28,5.27 120.28,9.86zm-154.62 57.75c27.18,-7.51 72.04,-27.43 105.62,-37.9 -28.55,-2.85 -37.67,-0.81 -64.65,0.33 -26.98,1.14 -52.28,5.94 -67.86,9.62 9.91,14.31 17.56,22.79 26.9,27.95zm108.7 54.71c14.07,0.2 41.26,1.89 41.26,-7.33 0,-10.21 -20.98,-5.53 -40.63,-5.73 -10.86,-0.11 -20.05,12.79 -0.63,13.06zm-28.73 -38.34c11.22,2.61 65.26,1.56 86.25,1.21l70.94 0.19c20.89,-0.23 36.88,1.67 36.88,-7.01 0,-8.67 -19.75,-6.37 -37.02,-6.54l-70.53 0.42c-21.53,0.02 -74.87,-0.89 -85.71,-0.13 -10.83,0.76 -12.03,9.24 -0.81,11.85zm99.97 -38.18c19.42,0.28 116.05,-0.23 125.92,-0.3 20.89,-0.23 36.88,1.65 36.88,-7.03 0,-8.68 -19.75,-6.37 -37.02,-6.54 -8.63,0.03 -105.36,1.01 -125.15,0.8 -10.86,-0.11 -20.05,12.79 -0.63,13.06zm130.45 39.39c19.42,0.28 32.99,-0.23 42.85,-0.3 20.89,-0.23 36.88,1.66 36.88,-7.03 0,-8.67 -19.75,-6.37 -37.02,-6.54 -8.63,0.03 -22.28,1.01 -42.08,0.8 -10.86,-0.11 -20.06,12.78 -0.63,13.06zm-123.6 37.11c19.42,0.28 123.48,-0.23 133.34,-0.3 20.89,-0.23 36.88,1.65 36.88,-7.03 0,-8.68 -19.75,-6.37 -37.02,-6.54 -8.63,0.03 -112.79,1.01 -132.58,0.8 -10.86,-0.11 -20.05,12.79 -0.63,13.06zm53.61 38.23c16.74,0.24 32.62,3.12 32.62,-6.1 0,-10.21 -12.34,-6.77 -31.99,-6.97 -10.85,-0.11 -17.37,12.83 -0.63,13.06z"/>
  </g>
 </g>
</svg>
