<?xml version="1.0" encoding="UTF-8"?>
<!DOCTYPE svg PUBLIC "-//W3C//DTD SVG 1.1//EN" "http://www.w3.org/Graphics/SVG/1.1/DTD/svg11.dtd">
<!-- Creator: CorelDRAW 2021 (64-Bit) -->
<svg xmlns="http://www.w3.org/2000/svg" xml:space="preserve" width="60.5534mm" height="43.2937mm" version="1.1" style="shape-rendering:geometricPrecision; text-rendering:geometricPrecision; image-rendering:optimizeQuality; fill-rule:evenodd; clip-rule:evenodd"
viewBox="0 0 2224.1 1590.16"
 xmlns:xlink="http://www.w3.org/1999/xlink"
 xmlns:xodm="http://www.corel.com/coreldraw/odm/2003">
 <defs>
  <style type="text/css">
   <![CDATA[
    .fil0 {fill:#4A2E1F}
   ]]>
  </style>
 </defs>
 <g id="Слой_x0020_1">
  <metadata id="CorelCorpID_0Corel-Layer"/>
  <path class="fil0" d="M481.8 1490.48c-56.2,-9.28 -31.98,-35.31 -61.36,-36.86 0.05,9.89 14.2,22.93 18.83,31.86 18.62,35.92 -2.09,16.95 63.19,36.15 5.99,1.76 12.21,2.55 18.02,5.52 6.53,3.33 7,4.7 15.28,7.86 -1.09,-32.01 -27.03,-40.09 -53.95,-44.54zm1261.51 0c56.2,-9.28 31.98,-35.31 61.36,-36.86 -0.05,9.89 -14.2,22.93 -18.83,31.86 -18.62,35.92 2.09,16.95 -63.19,36.15 -5.99,1.76 -12.21,2.55 -18.02,5.52 -6.53,3.33 -7,4.7 -15.28,7.86 1.09,-32.01 27.03,-40.09 53.95,-44.54zm-1166.63 24.62l34.83 0 0 9.21 -3.75 0c-2.38,0 -3.9,0.35 -4.55,1.05 -0.65,0.7 -0.98,2.37 -0.98,5.04l0 45.73 4.7 0c4.54,0 7.68,-0.26 9.44,-0.77 1.74,-0.5 3.17,-1.37 4.27,-2.6 1.25,-1.36 2.22,-3.28 2.91,-5.76 0.68,-2.46 1.16,-5.91 1.46,-10.34l7.86 0 0 28.68 -56.18 0 0 -9.21 3.31 0c2.32,0 3.81,-0.35 4.46,-1.03 0.66,-0.68 0.98,-2.35 0.98,-5.06l0 -39.64c0,-2.74 -0.33,-4.43 -0.98,-5.1 -0.65,-0.66 -2.14,-0.99 -4.46,-0.99l-3.31 0 0 -9.21zm61.79 70.24l0 -9.21 3.3 0c2.32,0 3.81,-0.35 4.47,-1.03 0.65,-0.68 0.98,-2.35 0.98,-5.06l0 -39.64c0,-2.74 -0.33,-4.43 -0.98,-5.1 -0.65,-0.66 -2.15,-0.99 -4.47,-0.99l-3.3 0 0 -9.21 59.22 0 0 26.8 -7.86 0c-0.49,-4.08 -1.08,-7.19 -1.74,-9.28 -0.67,-2.09 -1.55,-3.74 -2.66,-4.94 -1.1,-1.22 -2.52,-2.09 -4.28,-2.6 -1.74,-0.51 -4.85,-0.77 -9.36,-0.77l-7.78 0 0 19.99 1.49 0c3.32,0 5.54,-0.73 6.66,-2.2 1.12,-1.47 1.68,-4.43 1.68,-8.9l7.5 0 0 32.03 -7.5 -0.05c-0.08,-4.85 -0.64,-8.03 -1.65,-9.47 -1.03,-1.47 -3.25,-2.2 -6.68,-2.2l-1.49 0 0 22.61 8.04 0c6.57,0 11,-1.33 13.31,-3.98 2.31,-2.65 3.8,-7.92 4.47,-15.78l7.86 0 0 28.96 -59.22 0zm119.17 0.71l-2.23 -5.3c-2.96,2.23 -6.01,3.91 -9.14,5.03 -3.13,1.1 -6.38,1.66 -9.8,1.66 -9.17,0 -16.45,-3.26 -21.84,-9.79 -5.4,-6.53 -8.1,-15.35 -8.1,-26.45 0,-11.36 2.8,-20.55 8.4,-27.6 5.62,-7.07 12.91,-10.59 21.9,-10.59 3.26,0 6.31,0.52 9.19,1.59 2.86,1.05 5.62,2.68 8.3,4.9l1.53 -5.17 8.19 0 0 28.3 -8.54 0c-0.64,-6.49 -2.2,-11.31 -4.71,-14.45 -2.5,-3.14 -6.06,-4.71 -10.65,-4.71 -4.66,0 -8.17,2.15 -10.57,6.44 -2.38,4.31 -3.57,10.62 -3.57,18.98 0,9.89 1.1,17.05 3.29,21.49 2.2,4.45 5.69,6.68 10.45,6.68 3.44,0 5.82,-0.66 7.15,-1.99 1.32,-1.33 1.98,-3.81 1.98,-7.42l0 -4.92c0,-2.52 -0.27,-4.05 -0.79,-4.62 -0.52,-0.56 -1.7,-0.84 -3.5,-0.84l-4.37 0 0 -9.21 32.69 0 0 9.21 -3.19 0c-1.59,0 -2.68,0.33 -3.26,0.99 -0.58,0.66 -0.88,1.9 -0.88,3.72l0 24.06 -7.93 0zm17.51 -0.71l0 -9.21 3.31 0c2.32,0 3.81,-0.35 4.46,-1.03 0.66,-0.68 0.98,-2.35 0.98,-5.06l0 -39.64c0,-2.74 -0.33,-4.43 -0.98,-5.1 -0.65,-0.66 -2.14,-0.99 -4.46,-0.99l-3.31 0 0 -9.21 59.22 0 0 26.8 -7.86 0c-0.49,-4.08 -1.07,-7.19 -1.74,-9.28 -0.67,-2.09 -1.55,-3.74 -2.66,-4.94 -1.1,-1.22 -2.52,-2.09 -4.28,-2.6 -1.74,-0.51 -4.85,-0.77 -9.36,-0.77l-7.77 0 0 19.99 1.49 0c3.32,0 5.54,-0.73 6.66,-2.2 1.12,-1.47 1.68,-4.43 1.68,-8.9l7.5 0 0 32.03 -7.5 -0.05c-0.09,-4.85 -0.64,-8.03 -1.65,-9.47 -1.03,-1.47 -3.25,-2.2 -6.68,-2.2l-1.49 0 0 22.61 8.04 0c6.56,0 11,-1.33 13.31,-3.98 2.31,-2.65 3.8,-7.92 4.47,-15.78l7.86 0 0 28.96 -59.22 0zm75.47 -54.94c0,-2.67 -0.33,-4.35 -1,-5.04 -0.67,-0.7 -2.17,-1.05 -4.53,-1.05l-3.14 0 0 -9.21 28.66 0 22.97 48.97 0 -33.67c0,-2.67 -0.33,-4.35 -1,-5.04 -0.67,-0.7 -2.19,-1.05 -4.54,-1.05l-3.39 0 0 -9.21 27.33 0 0 9.21 -2.78 0c-2.35,0 -3.86,0.35 -4.53,1.05 -0.67,0.7 -1,2.37 -1,5.04l0 54.94 -18.41 0 -24.55 -52.24 0 36.94c0,2.67 0.33,4.34 1,5.04 0.67,0.7 2.19,1.05 4.54,1.05l3.39 0 0 9.21 -27.69 0 0 -9.21 3.14 0c2.35,0 3.86,-0.35 4.53,-1.05 0.67,-0.7 1,-2.37 1,-5.04l0 -39.64zm89.93 45.73l6.17 0c5.64,0 9.69,-2.01 12.13,-6 2.46,-4.01 3.68,-10.66 3.68,-19.96 0,-9.48 -1.22,-16.16 -3.68,-20.03 -2.44,-3.89 -6.64,-5.83 -12.58,-5.83l-5.72 0 0 51.82zm-25.54 9.21l0 -9.21 3.3 0c2.32,0 3.81,-0.35 4.47,-1.03 0.65,-0.68 0.98,-2.35 0.98,-5.06l0 -39.64c0,-2.74 -0.33,-4.43 -0.98,-5.1 -0.65,-0.66 -2.15,-0.99 -4.47,-0.99l-3.3 0 0 -9.21 31.71 0c11.95,0 20.81,2.88 26.6,8.64 5.79,5.76 8.68,14.57 8.68,26.43 0,11.9 -2.9,20.73 -8.71,26.5 -5.79,5.77 -14.65,8.67 -26.57,8.67l-31.71 0zm103.12 -31.72l-6.01 -22.21 -6.15 22.21 12.16 0zm-35.92 31.72l0 -9.21 2.16 0c1.95,0 3.38,-0.37 4.27,-1.1 0.91,-0.73 1.8,-2.64 2.67,-5.71l15.39 -54.22 17.85 0 14.74 54.54c0.76,2.65 1.55,4.4 2.38,5.23 0.82,0.84 2.08,1.26 3.76,1.26l3.05 0 0 9.21 -33.06 0 0 -9.21 2.53 0c2.16,0 3.6,-0.18 4.35,-0.54 0.74,-0.35 1.1,-1.01 1.1,-1.97 -0.03,-0.3 -0.12,-0.8 -0.29,-1.48 -0.09,-0.33 -0.15,-0.6 -0.18,-0.77l-2.31 -8.64 -17.22 0 -2.28 8.08c-0.1,0.47 -0.21,0.98 -0.3,1.48 -0.09,0.51 -0.13,0.96 -0.13,1.33 0,0.96 0.31,1.62 0.92,1.97 0.61,0.36 1.92,0.54 3.92,0.54l2.93 0 0 9.21 -26.24 0zm92.34 -41.25l6.34 0c4.54,0 7.62,-0.69 9.26,-2.08 1.62,-1.38 2.44,-3.86 2.44,-7.43 0,-3.75 -0.82,-6.4 -2.44,-7.95 -1.64,-1.55 -4.48,-2.32 -8.56,-2.32l-7.04 0 0 19.78zm0 25.96c0,2.65 0.33,4.32 0.98,5.02 0.65,0.7 2.19,1.05 4.57,1.05l3.2 0 0 9.21 -34.3 0 0 -9.21 3.3 0c2.32,0 3.81,-0.35 4.47,-1.03 0.65,-0.68 0.98,-2.35 0.98,-5.04l0 -39.66c0,-2.74 -0.33,-4.43 -0.98,-5.1 -0.65,-0.66 -2.15,-0.99 -4.47,-0.99l-3.3 0 0 -9.21 39.39 0c7.3,0 12.72,1.45 16.27,4.32 3.56,2.88 5.35,7.26 5.35,13.17 0,4.12 -1.18,7.54 -3.53,10.24 -2.35,2.72 -5.76,4.57 -10.23,5.55 3.82,0.75 6.56,2.23 8.19,4.43 1.62,2.2 2.44,5.45 2.44,9.74l0 6.79c0,2.93 0.19,4.92 0.57,5.96 0.37,1.03 1.04,1.55 2.01,1.55 1.13,0 1.92,-0.77 2.37,-2.32 0.45,-1.55 0.68,-4.45 0.68,-8.67l5.99 0c0,0.33 0.01,0.8 0.04,1.41 0.03,0.59 0.04,1.02 0.04,1.29 0,6.44 -1.13,11.2 -3.38,14.25 -2.26,3.07 -5.77,4.61 -10.54,4.61 -5.03,0 -8.72,-1.45 -11.06,-4.35 -2.34,-2.89 -3.51,-7.45 -3.51,-13.65l0 -6.7c0,-3.91 -0.54,-6.46 -1.59,-7.66 -1.06,-1.19 -3.26,-1.78 -6.59,-1.78l-7.36 0 0 16.75zm81.31 -0.82c0,3.04 0.31,4.97 0.95,5.83 0.64,0.85 2.17,1.27 4.58,1.27l4.23 0 0 9 -36.17 0 0 -9 4.18 0c2.46,0 4.02,-0.44 4.66,-1.31 0.64,-0.87 0.95,-2.8 0.95,-5.8l0 -12.89 -13.12 -24.06c-1.71,-3.18 -3.39,-5.32 -5.05,-6.46 -1.65,-1.12 -3.78,-1.73 -6.4,-1.83l-0.04 -8.9 34.28 0 0 8.9 -2.87 0c-1.25,0 -2.19,0.21 -2.81,0.64 -0.62,0.42 -0.94,1.08 -0.94,1.95 0,0.42 0.15,0.98 0.43,1.67 0.3,0.7 0.83,1.74 1.62,3.14l6.97 12.67 8.11 -14.31c0.36,-0.61 0.62,-1.22 0.8,-1.83 0.19,-0.63 0.28,-1.2 0.28,-1.74 0,-0.79 -0.37,-1.34 -1.13,-1.69 -0.75,-0.33 -1.95,-0.5 -3.62,-0.5l-1.44 0 0 -8.9 25.38 0 0 8.9 -0.27 0c-2.23,0 -4.07,0.5 -5.51,1.54 -1.44,1.01 -3.1,3.26 -4.95,6.75l-13.13 24.06 0 12.89zm78.23 -4.73c0.77,-4.21 2.19,-7.31 4.23,-9.33 2.02,-2.01 4.75,-3.02 8.14,-3.02 2.34,0 4.72,0.6 7.17,1.76 2.46,1.18 5.06,3 7.83,5.46 0.11,-1.4 0.21,-2.85 0.28,-4.35 0.07,-1.5 0.11,-3.09 0.11,-4.75 0,-9.47 -1.19,-16.44 -3.57,-20.88 -2.38,-4.45 -6.08,-6.67 -11.08,-6.67 -4.79,0 -8.39,2.2 -10.82,6.61 -2.43,4.41 -3.65,10.97 -3.65,19.66 0,2.04 0.1,4.35 0.33,6.93 0.22,2.56 0.57,5.42 1.03,8.57zm22.92 9.42c-2.35,-3.19 -4.63,-5.62 -6.85,-7.26 -2.2,-1.66 -4.3,-2.48 -6.27,-2.48 -1.8,0 -3.26,0.61 -4.35,1.83 -1.09,1.22 -1.64,2.85 -1.64,4.85 0,2.21 0.82,4.03 2.43,5.44 1.61,1.41 3.71,2.11 6.3,2.11 1.8,0 3.56,-0.38 5.27,-1.13 1.72,-0.75 3.42,-1.87 5.1,-3.37zm17.49 -1.38c0.64,1.01 1.3,1.78 1.97,2.28 0.67,0.51 1.37,0.77 2.08,0.77 1.31,0 2.26,-0.64 2.86,-1.94 0.61,-1.29 0.95,-3.56 1.07,-6.82l5.9 0c-0.09,7.59 -1.18,13.38 -3.24,17.36 -2.09,3.96 -5.09,5.95 -9.02,5.95 -1.83,0 -3.62,-0.58 -5.36,-1.71 -1.74,-1.15 -3.76,-3.09 -6.06,-5.83 -3.17,1.61 -6.32,2.81 -9.45,3.61 -3.13,0.8 -6.28,1.2 -9.48,1.2 -9.74,0 -17.55,-3.38 -23.42,-10.16 -5.88,-6.75 -8.82,-15.75 -8.82,-27.01 0,-11.58 2.99,-20.69 8.97,-27.32 5.98,-6.63 14.21,-9.95 24.71,-9.95 10.35,0 18.54,3.26 24.55,9.78 6.03,6.53 9.04,15.35 9.04,26.5 0,4.05 -0.52,7.99 -1.55,11.83 -1.02,3.84 -2.6,7.64 -4.73,11.43zm15.59 -48.61l0 -8.84 33.94 0 0 8.9c-0.37,-0.04 -0.79,-0.07 -1.22,-0.09 -0.43,-0.01 -1.03,-0.01 -1.79,-0.01 -2.44,0 -4.06,0.52 -4.88,1.59 -0.82,1.05 -1.22,3.98 -1.22,8.79l0 28.12c0,5.36 0.79,9.13 2.38,11.34 1.58,2.21 4.21,3.33 7.92,3.33 4.42,0 7.58,-1.06 9.47,-3.18 1.89,-2.11 2.83,-5.65 2.83,-10.62l0 -28.49c0,-4.76 -0.42,-7.78 -1.25,-9.02 -0.83,-1.24 -2.53,-1.87 -5.09,-1.87 -0.61,0 -1.09,0 -1.43,0.01 -0.33,0.02 -0.63,0.06 -0.9,0.09l0 -8.9 26.71 0 0 8.9c-2.28,0 -4,0.12 -5.19,0.38 -1.2,0.26 -2.01,0.68 -2.41,1.31 -0.27,0.33 -0.45,1.03 -0.55,2.09 -0.1,1.05 -0.15,3.42 -0.15,7.1l0 29.71c0,7.49 -2.13,13.19 -6.4,17.1 -4.27,3.89 -10.51,5.84 -18.7,5.84 -7.5,0 -13.34,-1.94 -17.51,-5.79 -4.17,-3.87 -6.25,-9.3 -6.25,-16.28l0 -30.88c0,-4.38 -0.4,-7.24 -1.2,-8.62 -0.8,-1.38 -2.31,-2.08 -4.53,-2.08 -0.64,0 -1.15,0 -1.52,0.01 -0.39,0.02 -0.73,0.04 -1.06,0.04zm100.37 29.68l-6.01 -22.21 -6.15 22.21 12.16 0zm-35.92 31.72l0 -9.21 2.16 0c1.95,0 3.38,-0.37 4.28,-1.1 0.91,-0.73 1.8,-2.64 2.66,-5.71l15.39 -54.22 17.85 0 14.74 54.54c0.76,2.65 1.55,4.4 2.38,5.23 0.82,0.84 2.08,1.26 3.76,1.26l3.05 0 0 9.21 -33.06 0 0 -9.21 2.53 0c2.16,0 3.6,-0.18 4.35,-0.54 0.75,-0.35 1.1,-1.01 1.1,-1.97 -0.03,-0.3 -0.12,-0.8 -0.29,-1.48 -0.09,-0.33 -0.15,-0.6 -0.18,-0.77l-2.31 -8.64 -17.22 0 -2.28 8.08c-0.1,0.47 -0.21,0.98 -0.3,1.48 -0.09,0.51 -0.14,0.96 -0.14,1.33 0,0.96 0.32,1.62 0.93,1.97 0.61,0.36 1.92,0.54 3.91,0.54l2.93 0 0 9.21 -26.24 0zm66.8 -70.24l34.83 0 0 9.21 -3.75 0c-2.38,0 -3.9,0.35 -4.55,1.05 -0.65,0.7 -0.98,2.37 -0.98,5.04l0 45.73 4.7 0c4.54,0 7.68,-0.26 9.44,-0.77 1.74,-0.5 3.17,-1.37 4.27,-2.6 1.25,-1.36 2.22,-3.28 2.91,-5.76 0.68,-2.46 1.16,-5.91 1.46,-10.34l7.86 0 0 28.68 -56.18 0 0 -9.21 3.31 0c2.32,0 3.81,-0.35 4.46,-1.03 0.66,-0.68 0.98,-2.35 0.98,-5.06l0 -39.64c0,-2.74 -0.33,-4.43 -0.98,-5.1 -0.65,-0.66 -2.14,-0.99 -4.46,-0.99l-3.31 0 0 -9.21zm61.97 70.24l0 -9.21 3.66 0c2.32,0 3.81,-0.35 4.47,-1.03 0.65,-0.68 0.98,-2.35 0.98,-5.06l0 -39.64c0,-2.74 -0.33,-4.43 -0.98,-5.1 -0.65,-0.66 -2.15,-0.99 -4.47,-0.99l-3.66 0 0 -9.21 35.37 0 0 9.21 -3.66 0c-2.35,0 -3.87,0.35 -4.54,1.05 -0.67,0.7 -1,2.37 -1,5.04l0 39.64c0,2.67 0.33,4.34 1,5.04 0.67,0.7 2.19,1.05 4.54,1.05l3.66 0 0 9.21 -35.37 0zm97.45 -70.24l0 27.11 -8.12 0c0,-6.03 -0.97,-10.48 -2.91,-13.36 -1.93,-2.88 -4.91,-4.33 -8.95,-4.33l-0.92 0 0 44.61c0,2.42 0.11,4.01 0.31,4.78 0.19,0.76 0.58,1.25 1.13,1.44 0.61,0.32 1.43,0.54 2.48,0.66 1.05,0.14 2.89,0.25 5.54,0.32l0 9 -35.55 0 0 -9c1.86,0 3.47,-0.07 4.82,-0.23 1.36,-0.16 2.47,-0.4 3.34,-0.75 0.52,-0.19 0.89,-0.68 1.09,-1.44 0.21,-0.77 0.31,-2.32 0.31,-4.68l0 -1.38 0 -43.34 -0.88 0c-4.06,0 -7.09,1.45 -9.04,4.35 -1.97,2.89 -2.95,7.35 -2.95,13.34l-8.04 0 0 -27.11 58.32 0zm45.09 54.14c0,3.04 0.31,4.97 0.95,5.83 0.64,0.85 2.17,1.27 4.58,1.27l4.23 0 0 9 -36.18 0 0 -9 4.18 0c2.46,0 4.02,-0.44 4.66,-1.31 0.64,-0.87 0.95,-2.8 0.95,-5.8l0 -12.89 -13.12 -24.06c-1.71,-3.18 -3.39,-5.32 -5.05,-6.46 -1.65,-1.12 -3.78,-1.73 -6.4,-1.83l-0.04 -8.9 34.28 0 0 8.9 -2.87 0c-1.25,0 -2.19,0.21 -2.81,0.64 -0.62,0.42 -0.94,1.08 -0.94,1.95 0,0.42 0.15,0.98 0.43,1.67 0.3,0.7 0.83,1.74 1.62,3.14l6.97 12.67 8.11 -14.31c0.36,-0.61 0.62,-1.22 0.8,-1.83 0.19,-0.63 0.29,-1.2 0.29,-1.74 0,-0.79 -0.37,-1.34 -1.13,-1.69 -0.75,-0.33 -1.95,-0.5 -3.62,-0.5l-1.44 0 0 -8.9 25.38 0 0 8.9 -0.27 0c-2.23,0 -4.07,0.5 -5.51,1.54 -1.44,1.01 -3.1,3.26 -4.94,6.75l-13.13 24.06 0 12.89zm-403.94 -770.9l-15.07 -0.99c-4.09,9.13 0.62,9.11 -8,12.8 -1.99,-2.68 -2.02,1.93 -2.44,-6.48 -0.29,-5.95 3.76,-11.6 6.55,-17.8 3.38,-7.53 6.37,-14.66 13.72,-16.94l12.05 13.01c1.18,6.26 2.81,25.47 2.37,31.66 -0.71,10.13 -3.47,22.45 7.97,22.47 2.98,-6.7 1.56,-21.95 2.04,-30.49 0.79,-14.26 1.42,-15.87 12.47,-20.34 13.5,-5.47 18.97,-4.92 34.25,-13.29l6.81 -3.14c13.7,-2.38 3.9,8.82 12.26,19.66 15.57,-14.18 -14.42,-42.72 -27.26,-46.32 -11.46,-3.21 -53.98,7.85 -63.24,15.67 -4.29,3.62 -13.07,13.47 -18.33,19.48 -10.74,12.26 -24.94,57.98 2.16,37.67 11.88,-8.91 20.01,-1.64 21.69,-16.65zm68.91 26.56l8.7 4.35c9.92,-8.13 27.3,-34.28 43.89,-34.9 9.12,11.37 16.06,39.48 31.69,43.51 5.12,-2.82 26.49,-27.33 28.37,-31.62 3.62,-8.26 -0.59,-17.37 -1.96,-25.03 -1.88,-10.55 1.22,-19.18 1.73,-29.53 -3.55,0.48 -62.96,23.95 -67.41,26.6 -9.5,5.65 -7.65,7.96 -20.26,13.21 -12.17,5.06 -5.34,3 -12.94,11.04 -4.94,5.21 -13.31,6.6 -11.83,22.37zm105.01 29.46c13.11,0.36 27.82,-22.95 46.19,-22.46l1.4 13.39c-10.57,7.16 -12.93,-0.84 -19.11,10.33 14.99,0.32 12.65,-4.29 21.72,-3.78 0.35,0.02 1.09,0.25 1.37,0.29 13.02,1.61 4.02,31.5 9.14,42.35 4,8.48 10.84,5.23 11.63,-5.42 2.19,-29.74 4,-22.96 28.76,-48.66 14.88,-15.47 12.59,-15.04 1.65,-35.36 -22.47,-41.69 -29.16,-23.71 -82.79,19.55 -8.76,7.06 -21.09,16.26 -19.97,29.75zm258.52 -12.53c-10.76,-2.39 -2.26,-8.4 -21.39,-2.37 -9.45,2.99 -15.44,2.71 -26.44,1.83 -1.82,-23.49 -4.83,-24.19 13.03,-36.55 8.03,-5.56 26.19,-17.82 35.73,-17.87 -4.69,7.07 -15.04,14.58 -11.16,27.28 4.31,14.1 19.44,16.89 10.23,27.69zm-23.45 -190.6c-2.33,23.41 -27.23,25.53 -8.22,47.59 3.26,3.77 2.74,2.02 5.55,6.35 6.07,9.36 3.16,4.97 1.89,7.01 -9.18,6.49 -48.8,8.07 -61.58,15.5 -13.77,8 -23.1,31.66 -43.88,35.55l0.64 -43.03c6.92,-4.09 19.39,-10.93 24.06,-15.17 -0.19,-10.93 -10.84,-21.59 -17.18,-28.67 -8.04,-8.98 -12.23,-20.43 -22.42,-24.75 -5.56,2.58 -24.82,14.56 -32.85,20.29 -9.48,6.77 -23.93,13.14 -34.16,19.28 -18.56,11.15 -18.07,9.05 -20.49,33.37 -0.9,8.9 0.03,18.82 0.56,27.82 0.63,10.46 1.29,14.85 11.41,15.53 7.03,-18.73 -6.76,-46.26 10.14,-57.39 10.03,-6.6 34.21,-23.65 46.02,-23.99 2.7,7.78 3.03,10.06 8.37,17.37 1.8,2.47 9.58,12.66 10.84,17.02 3.58,12.4 -3.07,40.67 2.52,53.06 7.16,15.86 25.39,7.42 33.46,-1.76 7.9,-8.98 16.96,-24.07 27.55,-27.44 10.12,9.51 8.88,21.37 3.53,35.8 30.84,18.17 8.22,45.9 19.54,77.36 24.25,2.61 28.82,-11.57 53.63,-10.06l0.65 25.15c16.21,-0.54 9.49,-6.68 11.3,-19.61 0.86,-6.13 7.77,-16.82 11.44,-22.95 4.98,-8.28 7.73,-9.95 13.45,-20.15 3.46,-6.17 8.55,-15.9 15.2,-18.83 12.56,5.33 16.27,30.4 39.43,31.76 1.31,-13.73 -5.15,-16.32 -12.44,-24.69 -13.37,-15.37 -15.64,-39.28 -29.01,-46.4 -13.42,-7.15 -20.27,-1.28 -35.25,-4.51 -3.46,-4.9 -4.4,-9.53 -8.04,-15.26 -7.07,-11.13 -6.48,-13.96 8.04,-33.42 16.68,-22.37 17.42,-9.56 25.66,1.58 5.86,7.92 11.89,5.68 21.56,5.72 10.68,0.04 10.08,4.87 19.97,8.15 19.77,6.55 25.68,-7.08 22.01,65.57 -1.45,28.75 -7.42,44.84 10.23,46.32 3.19,-11.66 4.9,-40.82 3.75,-54.26 -3.05,-35.47 13.7,-19.07 20.27,-37.61l-3.43 -1.49c-9.82,-2.03 -4.77,0.07 -12.89,1.14 -1.86,-15.94 6.21,-25.5 12.2,-34.46 20.12,-30.04 18.96,-38.32 32.74,-16.69 2.96,4.65 2.02,2.92 5.76,6.21l7.21 6.61c7.92,7.73 17.27,22.53 30.14,20.54 4.86,-19.54 -14.02,-14.55 -28.26,-38.26 -14.27,-23.77 -6.14,-29.42 -38.55,-27.9 -18.8,0.88 -46.76,-8.83 -58.05,4.5 -3.2,3.76 -3.86,6.07 -6.39,9.47 -13.13,17.63 -16.75,18.15 -12.42,37.02l-19.92 -14.54c-6.78,-6.46 -9.03,-10.99 -15.96,-17.73 -8.39,-8.14 -41.3,-24.61 -42.37,-26.53 -0.01,-0.03 -6.08,-48.43 -2.99,-55.65 2.6,-6.05 6.45,-5.36 7.02,-14.65 -3.39,-8.16 -3.64,-0.1 -6.27,-8.88 -2.51,-8.37 0.94,-7.82 3.71,-11.97 2.64,-3.96 5.17,-9.31 3.42,-14.66 -2.35,-7.18 -4.84,-4.87 -14.63,-4.35l-0.88 47.19c0.56,4.43 2.91,9.7 1.4,16.21 -3.4,14.54 -5.85,-6.47 -6.06,27.98 -0.18,26.31 0.13,13.19 8.31,27.72zm-903.43 41.35c11,-16.08 6.51,-47.51 25.74,-56.04 17.8,4.72 20.86,33.7 43.33,20.38 -0.93,-8.92 -12.12,-13.59 -20.15,-22.97 -11.9,-13.92 -14.54,-29.75 -27.12,-38.02 -2.98,-1.96 -10.18,-6 -14.13,-8.02 -10.33,-5.29 -18.1,-11.09 -31.95,-12.25 -15.47,20.29 -13.6,37.56 -17.76,71.75 -2.55,21.01 -5.46,24.38 14.05,27.56 11.52,1.88 7.04,0.82 12.99,9.07 3.57,4.97 6.81,8.68 14.98,8.54zm-354.72 -75.02c14.77,12.15 51.42,15.54 50.03,40.09 -13,10.27 -36.42,15.9 -72.53,48.11 -5.21,4.65 -20.57,14.6 -11.98,23.59 6.64,6.47 26.51,-6.76 41.63,-7.4 1.02,23.46 -4.28,45.69 -3.57,68.08 0.36,11.34 0.49,13.76 10.48,13.93 7.03,-13.29 -0.53,-46.29 9.78,-63.47 32.63,-0.26 22.37,10.95 67.23,19.42 5.21,0.98 17.1,5.03 23,7.09l2.37 92.82c20.24,8.19 15.46,-3.73 15.53,-20.43 0.06,-15.15 0.21,-30.43 0.14,-45.57 -0.12,-29.8 0.69,-58.47 28.51,-61.65 10.82,2.19 7.58,13.12 16.52,15.87 5.87,1.8 6.44,0.71 8.63,-2.68 6.5,-10.08 -13.02,-21.38 -18.28,-25.73 -17.82,-14.75 -18.94,-9.36 -46.77,-19 -9.91,-3.45 -7.96,-5.6 -17.53,-6.23 -7.99,6.4 -19.38,32.73 -29.71,42.49 -13.51,1.6 -27.67,-4.63 -32.18,-12.38 7.21,-21.37 6.53,7.68 17.45,-60.83 1.25,-7.83 21.41,-40.29 32.55,-45.13 5.57,3.02 1.91,0.43 5.97,4.89 9.11,9.96 11.56,22.83 23.55,26.1 2.49,0.68 5.77,0.75 8.12,1.52l7.02 4.13c-4.25,14.39 -7.36,2.12 -13.45,13.19 -2.88,5.23 -3.91,14.64 -2.89,21.98l7.21 4.76c12.87,-8.65 16.49,-49.27 4.2,-63.73 -35.75,-42.05 -30.52,-51.16 -63.92,-60.92 -50.68,-14.81 -34.26,0.07 -50.73,19.8 -7.95,9.52 -17.44,14.46 -16.39,27.29zm166.78 85.16c7.56,8.96 30.2,15.91 42.3,22.58 6.26,26.67 -5.04,74.72 0.35,100.99 23.61,-0.19 7.5,-55.23 17.74,-70.71 1.72,-2.59 13.45,-13.26 16.63,-15.49 8.95,3.81 11.33,14.28 24.16,10.59 1.22,-15.5 2.74,-13.69 -10.1,-15.61 -28.49,-4.27 -10.52,0.84 -29.14,0.17 -0.42,-19.78 3.61,-21.68 11.86,-33.79 18.38,-27 15.55,-36.58 40.34,-0.12 6.98,10.27 8.67,21.86 28.22,19.54 -0.02,-19.52 -13.77,-27.57 -24.54,-39.09 -21.56,-23.04 -12.85,-29.81 -68.62,-27.22 -15.02,0.7 -14.84,2.46 -21.89,10.35 -9.05,10.13 -23.8,23.65 -27.29,37.83zm126.85 177.02c9.41,-6.89 23.48,-48.03 39.3,-55.97 9.76,6.54 21.28,32.31 45.42,34.83 0.9,-18.28 -8.6,-21.48 -18.45,-34.28 -20.2,-26.22 -14.74,-30.32 -62.77,-44.56 -7.65,-2.26 -13.69,-3.76 -21.97,-5.83 -19.55,-4.87 -13.72,2.2 -38.44,38.47 -30.57,44.85 -21.17,40.31 17.44,54.79 8.65,3.25 31.82,15.15 39.48,12.54zm724.56 -258.22c-8.64,-12.1 -13.68,-46.69 -16.83,-54.62 -8.87,-22.34 -27.58,-19.94 -14.56,-47.81 3.89,-8.32 9.04,-17.27 16.6,-19.73 8.48,-2.78 8.05,-1.37 12.97,3.05 2.57,2.32 7.06,7.36 8.42,9.73l17.57 53.92 -5.31 3.37c-1.22,0.77 -2.31,1.23 -3.82,2.57 0.36,22.28 26.18,4.37 29.26,34.77 -13.26,7.93 -23.39,14.71 -44.3,14.75zm-22.02 13.42c5.87,-1.97 1.98,0.13 6.2,-3.68 4.58,-4.15 4.05,-6.3 11.51,-7.72 -7.75,15.91 -12.26,-1.33 -16.39,31.65l6.64 2.5c9.11,3.6 14.85,17.49 15.86,27.16l-30.47 20.93c-26.7,19.69 -34.98,25.11 -62.47,-5.01 -27.53,-30.15 -43.84,-56.36 -49.33,-101.08 -2.38,-19.46 -10.15,-16.23 -17.03,-34.42 -5.36,-14.18 -15.55,-24.3 -16.24,-36.3 15.27,-3.36 14.12,-7.36 32.31,-10.12 27.95,-4.25 13.12,40.64 32.09,47.8 32.24,12.15 20.33,7.06 35.28,45.75 14.18,36.71 17.22,34.26 52.04,22.53zm-110.62 -238.64l2.98 0.43c1.92,5.14 2.15,9.38 -0.62,15.15 -2.28,4.76 -6.03,6.47 -9.3,9.6 0.18,28.68 -3.64,16.42 -18.99,27.71 -21.57,15.86 31.79,35.57 11.17,58.49 -5.03,5.59 -22.67,14.46 -31.69,15.61 -3.96,-8.29 -5.44,-17.4 -11.29,-24.16 -3.21,-3.71 -34.71,-22.32 -12.15,-44.55 11.28,-11.11 6.2,-7.99 10.41,-25.12 7.76,-31.56 9.54,-25.56 0.72,-60.17 -3.94,-15.44 -22.05,-33.33 3.27,-45.57 13.74,7.71 14.64,27.23 36.8,49.1 12.68,12.52 0.34,20.47 15.99,23.17 0.5,0.08 2.32,0.26 2.71,0.32zm-475.38 113.08c-8.73,-5.34 -11.32,-9.48 -24.14,-12.12 -18.74,-3.85 -51.75,-13.74 -64.14,-1.61 -10.72,10.48 -10.17,12.1 -24.71,8.9 -4.57,-32.57 19.99,-32.5 22.93,-33.57 3.24,-19.18 -9.65,-9.7 -14.89,-25.88 -4.65,-14.34 -0.63,-25.55 -2.6,-39.4 -2.53,-17.77 -37.67,-33.58 -41.24,-41.67 -1.81,-15.35 5.58,-21.1 -0.02,-37.36 -11.38,2.91 -17.05,26.17 -29.34,47.31 -9.01,15.51 -30.42,32.42 -30.24,50.23l22.29 -1.03c-3.4,13.66 -7.74,3.85 -15.82,14.51l-13.46 15.89c-19.84,19.42 -33.41,13.58 -29.34,29.28l29.34 4.83c-0.16,13.05 -7.35,24.3 -15.07,34.16 -14.37,18.32 -20.03,42.53 -41.54,53.46 -11.52,5.86 -25.64,7.3 -28.54,21.66 40.57,-2.46 45.16,-18.46 63.63,-46.09l10.62 -16.98c3.55,-3.96 1.39,-2.71 6.85,-4.35 1.2,17.68 -2.29,76.95 2.2,87.42l11.16 2.06c4.14,-6.77 2.44,-2.75 3.13,-11.28 2.14,-26.22 -5.07,-100.44 -0.14,-113.88l8.44 -1.03c9.82,1.08 17.52,4.4 25.66,-4.63 12.41,-13.76 8.64,-20.69 -2.17,-29.1 2.52,-1.52 5.18,-2.07 6.86,-5.62 4.63,-9.76 4.11,-71.81 11.81,-79.91 4.47,1.08 23.42,20.63 25.68,25.65 7.38,16.33 7.38,27.19 6.45,46.02 -1.21,24.96 3.36,22.29 -7.17,44.85 -4.44,9.48 -4.66,11.23 -0.37,19.75 4.52,8.95 9.35,30.23 -6.52,20.71 -4.08,-2.44 -6.16,-3.7 -11.87,-3.82 -0.48,17.13 12,10.89 18.31,20.71 4.96,7.71 3.61,104.1 4.61,118.29 7.23,3.66 2.08,3.57 10.78,5.2 -0.22,-21.07 -1.9,-138.1 3.9,-148.13 4.47,-4.84 25.31,4.7 32.17,6.77 7.51,2.27 26.64,9.46 31.04,12.13 1.11,10.03 1.23,20.19 -0.11,29.89 -1.84,13.33 2.67,6.56 7.97,17.51 11.34,-17.56 -5.31,-24.51 3.72,-44.97 2.99,-6.77 4.2,-12.62 10.72,-17.14 6.82,-4.73 12.71,-8.88 22.14,-9.49 2.05,14.39 6.6,18.3 8.68,29.24 1.68,8.86 -4.58,19.99 1.78,23.8 13.3,7.96 8.68,-19.57 8.39,-26.4 -0.95,-21.85 -3.33,-8.84 -8.83,-19.16 -5.53,-10.35 4.04,-8.43 8.99,-16.09 9.12,-14.09 14.91,-43.78 35.62,-47.97 17.82,-3.6 35.21,1.51 38.81,15.63 -31.22,1.54 -30.33,-1.37 -42.53,24.51 -4.46,9.47 -6.01,13.84 -6.27,27.37 -0.25,13.46 -0.48,22.13 9.87,26.21 4.26,-8.77 -9.08,-30.09 2.85,-50.92 4.92,-8.59 23.76,-10.39 31.95,-15.69 6.25,-4.03 1.4,-4.63 10.79,-4.92 -1.97,9.12 -5.83,5.83 -0.04,14.17 8.82,-3.58 8.57,-9.94 10.96,-22.08 1.62,-8.18 3.58,-18.34 12.5,-19.56l1.87 31.95c22.4,-1.17 19.87,-16.37 21.72,-36.48 6.54,-71.29 20.85,-40.26 33.19,-52.3 2.96,-2.89 4.15,-21.99 6.56,-29.35 2.06,-6.3 7.29,-24.33 9.66,-27.74 9.81,-14.14 7.85,-1.53 11.43,-24.52 1.75,-11.25 5.13,-18.13 11.98,-25.34 10.06,-10.59 24.75,-27.04 34.63,-38.65 5.66,-6.64 11.13,-13.52 16.7,-20.94 5.27,-7.04 8.69,-15.61 18.93,-18.14l15.1 29.13c-3.24,9.98 -6.48,5.15 -11.07,21.78 -10.21,37.06 -4.49,20.32 -23.49,25.68 -5.31,1.51 -1.24,-0.62 -4.69,2.41 18.72,5.45 22.41,7.79 29.57,23.8 17.53,0.52 13.55,-5.28 16.97,10.95 2.15,10.17 5.58,9.36 13.33,14.48 12.68,8.36 12.11,20.79 16.41,38.65 7.96,33.06 7.76,16.46 19.6,36.09 6.31,10.45 15.2,28.43 8.8,42.02 -6.17,1.98 -19.4,-3.73 -24.81,-6.18 -15.03,-6.85 -17.15,-1.3 -34.74,-2.95 2.28,-6.99 7.15,-9.71 1.41,-16.77 -2.73,-3.36 -11.02,-6.01 -16.46,-5.96 -3.83,1.19 -15.89,17.58 -20.09,21.64 -8.09,7.79 -14.12,15.89 -20.45,22.8 -21.8,-0.28 -30.52,-12.69 -43.97,-13.81 0.29,7.57 10.59,13.71 16.64,19.54 9.45,9.11 9.19,10.65 27.51,12.2 29,-38.02 45.77,9.82 54.71,12.46 -10.58,19.46 5.12,40.15 10.94,58.31 5.21,16.3 9.84,3.09 8.52,17.55 -6.13,3.3 -9.36,1.6 -17.46,6.49 -50.91,30.68 -25.21,9.43 -49,49.81 -3.37,5.71 -6.07,11.9 -9.22,16.7 -6.42,9.8 -24.07,14.98 -17.54,27.92 15.94,-6.55 28.76,-34.04 36.26,-48.95 1.56,-3.1 17.56,-23.28 19.14,-24.37 10.65,-7.33 28.11,0.39 40.89,0.91l14.89 -16.37c3.65,-4.4 12.24,-11.91 19.15,-11.43 15.67,1.09 19.84,25.13 27.38,36.92 14.12,0.65 20.74,-3.81 36.17,0 4.82,5.63 2.99,10.58 8.05,17.84 9.22,13.24 30.64,4.63 27.83,55.89 -4.69,1.62 -7.62,1.99 -12.04,3.4 -8.86,2.81 -4.34,3.52 -11.75,5.16 -11.77,-8.1 -3.39,-7.23 -11.88,-13.28 -11.22,2.46 -15.26,12.3 -27.9,6.49 -34.38,-15.82 -30.97,-3.38 -57.55,17.35 -9.04,7.04 -13.72,14.34 -24.92,18.57 -21.95,8.28 -12.24,3.29 -25.59,18.09 -5.22,5.78 -35.1,17.69 -48.45,9.39 -23.35,-14.47 -21.45,-16.48 -43.35,-6.71 -4.41,-7.59 -10.77,-13.41 -14.86,-24.32l-25.34 2.22c-1.02,-8.21 -0.16,-12.35 -5.35,-17.96 -9.64,0.63 -6.99,0.55 -10.07,9.09 -2.6,7.19 -4.13,7.14 -2.66,12.45 2.25,8.07 13.83,13.02 -1.14,21.44 -17.47,-5.23 -10.91,-19.17 -7.68,-26.5 -13.65,1.55 -21.58,3.66 -26.2,-13.07 -1.78,-6.41 -2.56,-13.64 -1.92,-20.26l1.6 -13.76c-0.5,-3.8 -0.44,-2.94 -1.45,-4.77 -2.12,1.98 -1.23,0.62 -2.96,3.72l-4.66 14.81c-2.18,7.73 -4.43,13.19 -7.72,20.18 -3.63,7.72 -6.39,11.23 -9.7,18.23 -3.84,8.14 -5.07,13.56 -10.6,17.3 -12.09,-6.97 -10.53,-18.78 -12.79,-35.94 -12.52,-7.07 -17.06,-3.73 -25.62,-13.87 0.86,-7.79 3.76,-10.17 6.16,-18.85 2.09,-7.57 3.11,-13.02 2.12,-22.22 -13.96,1.98 -8.62,30.35 -27,39.22 -16.76,8.08 -30.66,16.16 -39.14,28.29 -9.96,-0.28 -16.15,-2.66 -25.71,1.29l-0.48 7.73c17.89,1.11 21.41,-5.77 29.04,5.58 4.46,-5.58 12.37,-11.73 18.04,-17.39 26.21,-26.13 48.86,-8.77 58.7,24.07 8.98,30 37.28,22.1 65.84,41.81 14.48,9.98 16.33,9.74 20.65,16.19 -15.97,0.62 -27.29,-5.59 -42.8,-8.08 -26.46,-4.27 -17.85,9.62 -36.26,14.23 -8.39,-10.9 -25.74,-25.82 -38.26,-32.64 -10.16,-5.53 -43.8,-18.7 -57.54,-15.61 -4.32,4.72 -7.78,10.17 -13.08,16.36l-13.03 17.83 53.94 22.86c16.09,9.14 3.22,24 9.75,39.95 16.47,-3.36 -1.89,-25.5 21.44,-57.91 9.46,-1.2 12.97,-2.55 18.81,3.79 2.94,3.19 6.05,10.05 7.5,14.65 2.85,9.08 2.37,17.82 4.72,26.55 2.82,10.41 -0.04,4.5 5.11,7.16 9.09,-5.49 4.74,-18.88 5.62,-30.37 14.51,-0.57 25.23,8.53 37.47,12.7 19.04,6.49 22.06,2.29 20.32,31.1 -0.62,10.07 -6.97,21.48 6.5,20.36 4.42,-9.95 -2.33,-25.77 1.81,-41.54 0.94,-3.54 0.65,-3.79 1.24,-6.5l2.81 -7.65c5.68,-3.79 15.11,-3.6 21.46,-0.82 4.23,2.57 9.5,14.92 9.79,20.61 0.68,12.99 -0.09,5.23 -2.04,8.22 -8.68,-5.63 -0.45,-1.76 -5.94,-9.71 -8.82,13.31 -11.94,-2.9 -23.52,13.04 7.87,0.05 15.8,-2.61 23.06,0.05 10,3.65 6.43,10.15 12.35,13.24 5.51,-6.07 3.44,-12.94 3.36,-23.21 -0.09,-13.85 0.22,-10.5 -7.06,-19.9 -11.68,-15.07 -23.06,-19.51 -24.38,-34.01 5.02,-4.02 16.36,-11.72 24.6,-14.78 53.97,-20.12 20.21,-25.07 73.63,-14.22 7.62,1.54 12.26,-0.49 19.73,1.4 17.44,4.4 10.49,8.23 30.79,0.4 26.08,-10.05 44.79,-39.93 66.34,-56.57 19.82,-15.32 79.56,-9.51 108.01,-6.35 32.96,3.66 28.77,50.12 100.73,36.78 18.67,-3.46 11.92,-4.68 36.01,-3.42 25.29,1.33 28.12,-1.27 18.56,-48.64 -1.56,-7.77 -7.32,-41.34 -6.71,-46.8 15.19,-9.71 37.13,-17.6 48.43,-26.58 12.38,-9.84 25.95,-25.48 43.58,-31.9 13.7,-4.99 20.83,2.57 29.27,7.06 10.72,5.7 16.8,4.59 17.99,19.82 1.15,14.77 -7.01,59.05 7.3,64.25 6.49,-5.54 4.94,-6.85 5.1,-18.44 0.1,-8.03 0.01,-15.86 -0.04,-23.87 -0.16,-27.05 0.59,-66.95 4.07,-92.33 3.71,-27.18 -4.06,-25.58 -3.81,-44.73l33.33 -0.27c3.25,-19.84 -9.47,-32.44 -3.1,-53.14l14.66 -32.83c2.97,-6.1 2.26,-6.23 7.79,-8.97 2.98,25.08 -2.74,43.73 -3.44,65.85 -0.71,21.99 1.63,13.98 4.62,28.13 3.16,14.95 -4.81,16.26 -4.95,29.19 -0.24,21.99 2.95,32.16 -2.23,64.39 -1.7,10.59 -1.9,21.19 -2.76,32.84 -1.5,20.47 -3.57,21.41 17.23,20.53 -0.94,-30.29 6.74,-106.79 1.24,-126.26 -3.8,-13.47 -1.57,-10.4 -0.37,-23.15 1.09,-11.71 -1.05,-43.21 1.97,-50.37 15.56,5.17 -5.79,51.15 12.68,57.8 13.9,5.01 16.88,-8.62 12.76,-20.56 -3.09,-8.93 -11.28,-14.67 -12.8,-22.72l-13.22 -93.5c-1.27,-12.91 1.56,-22.41 -14.11,-19.86 -2.47,4.81 -7.46,22.9 -7.78,28.56 -1.19,20.95 -1.08,15.54 -7.58,31.43l-31.82 80.67c-4.53,15.32 -7.8,15.65 -11.41,26.21 -5.08,14.83 -0.07,19.99 0.63,33.89 0.67,13.31 -1.38,26.23 -0.43,39.57 -28.9,-3.91 -28.02,-24.38 -47.59,-13.71 -6.63,3.62 -11.49,4.07 -19.95,4.97l-30.41 -32.11c-16.82,-19.23 -24.5,-31.68 -46.3,-44.83 -20.43,-12.33 -17.94,-21.28 -37.96,-3.12 -12.59,11.43 -13.26,5.07 -21.39,10.16 -0.65,11.84 3.9,5.5 11.56,15.38 3.08,7.94 -20.61,40.6 -26.3,41.77 -16.2,3.32 -8.82,-24.34 -15.48,-33.96 -7.87,-11.36 -13.16,-8.94 -15.31,-27.08 16.94,3.67 14.34,17.55 37.43,17.35 -1.32,-9.01 -3,-5.45 -5.5,-14.46 -2.98,-10.73 1.54,-5.33 -9.34,-12.87 -16.36,-11.34 -7.75,-15.94 9.46,-11.5 4.67,9.01 -0.55,11.58 6.94,15.65 1.66,-2.68 1.2,-0.08 1.67,-4.93 0.31,-3.17 0.42,-1.67 -0.22,-5.08 -0.29,-1.53 -3.61,-8.54 -4.31,-9.67 -6.4,-10.44 -20.21,-14.66 -31.46,-19.92 -8.36,-3.91 -8.74,-5.85 -11.25,-14.59 -11.27,-39.09 2.92,-20.1 -21.6,-55.74 -6.37,-9.26 -3.89,-7.88 -5.18,-20.53 -12.51,-8.18 -24.08,-2.85 -33.25,-18.18 -8.06,-13.48 -9.58,-23.07 -21.16,-31.75 -13.18,-3.8 -26.83,27.19 -43.19,-4.68 -4.75,-9.24 -7.47,-12.97 -12.35,-21.51 -5.14,-8.98 -4.59,-13.61 -13.47,-20.18 -14.95,-11.06 -26.1,6.05 -41.65,-21.76 -3.85,-6.89 -3.38,-18.63 -6.17,-27.72 -2.51,-8.19 -7.68,-12.47 -11.13,-21.98 -20.83,0.06 -32.62,20.16 -41.38,35.07 -9.47,16.1 -23.53,29.5 -34.47,40.94 -14.63,15.29 -20.6,24.93 -29.14,45.99 -4.43,10.95 -7.87,14.95 -16.22,21.41 -8.31,6.43 -12.55,11.69 -20.58,17.14 -20.12,13.67 -22.79,20.72 -32.18,43.24 -3.93,9.42 -5.65,17.55 -15.65,21.73 -8.54,3.57 -18.38,8.05 -26.22,11.4 -29.86,12.71 -27.54,8.54 -44.07,31.1 -5.45,7.45 -10.28,13.19 -15.44,22.49 -4.41,7.94 -12.78,16.4 -18.56,19.72zm-223.74 -225.04l-4.23 -3.72 1.63 -1.86c1.24,-1.41 1.82,-2.46 1.73,-3.14 -0.09,-0.69 -0.91,-1.7 -2.44,-3.05l-22.01 -19.35c-1.52,-1.33 -2.62,-2.01 -3.3,-2 -0.69,-0 -1.66,0.71 -2.89,2.12l-1.63 1.85 -4.23 -3.72 27.58 -31.39 14.88 13.08 -3.17 3.61c-4.34,-3.64 -7.7,-5.55 -10.08,-5.71 -2.38,-0.15 -5.03,1.44 -7.96,4.77l-6.73 7.66 11.48 10.09 1.59 -1.81c1.76,-2 2.5,-3.67 2.24,-5 -0.26,-1.33 -1.78,-3.35 -4.57,-6.06l3.15 -3.64 18.75 16.48 -3.21 3.59c-3.33,-2.67 -5.73,-4.12 -7.21,-4.31 -1.48,-0.21 -3.09,0.68 -4.83,2.67l-1.63 1.85 13.16 11.56 7.34 -8.36c2.45,-2.79 3.38,-5.37 2.78,-7.74 -0.6,-2.37 -3.13,-5.76 -7.58,-10.16l3.17 -3.61 15.83 13.91 -27.58 31.39zm11.18 -71.86c-1.39,-1.48 -2.42,-2.26 -3.1,-2.32 -0.69,-0.07 -1.71,0.53 -3.08,1.82l-1.48 1.39 -3.86 -4.12 16.13 -15.1 3.85 4.11 -1.98 1.85c-1.39,1.31 -2.08,2.3 -2.05,3.01 0.02,0.71 0.72,1.79 2.09,3.26l16.29 17.4c2.37,2.54 4.61,3.9 6.69,4.07 2.07,0.18 4.24,-0.81 6.52,-2.93 2.15,-2.01 3.21,-4.14 3.17,-6.37 -0.02,-2.23 -1.16,-4.54 -3.39,-6.92l-16.29 -17.4c-1.38,-1.48 -2.42,-2.26 -3.1,-2.32 -0.68,-0.07 -1.72,0.54 -3.09,1.83l-1.8 1.69 -3.85 -4.12 14.19 -13.28 3.85 4.11 -1.44 1.35c-1.37,1.29 -2.04,2.27 -2.02,2.96 0.03,0.69 0.73,1.77 2.12,3.25l16.29 17.4c3.83,4.09 5.7,8.19 5.61,12.28 -0.1,4.1 -2.13,8.03 -6.11,11.75 -3.96,3.71 -7.96,5.45 -12.01,5.25 -4.05,-0.21 -8,-2.37 -11.85,-6.48l-16.29 -17.4zm55.09 -34.9l5.9 -4.61c2.37,-1.85 3.74,-3.67 4.11,-5.48 0.37,-1.8 -0.25,-3.73 -1.85,-5.79 -1.65,-2.11 -3.35,-3.21 -5.12,-3.29 -1.77,-0.09 -3.95,0.87 -6.53,2.88l-5.74 4.48 9.22 11.82zm11.63 14.9c1.25,1.59 2.2,2.44 2.89,2.57 0.69,0.13 1.8,-0.38 3.29,-1.55l2.35 -1.83 3.47 4.44 -17.97 14.02 -3.47 -4.44 1.95 -1.52c1.48,-1.15 2.24,-2.08 2.28,-2.77 0.04,-0.69 -0.57,-1.83 -1.83,-3.44l-18.03 -23.09c-1.25,-1.6 -2.21,-2.46 -2.88,-2.6 -0.68,-0.13 -1.76,0.39 -3.24,1.54l-1.95 1.52 -3.47 -4.45 20.01 -15.61c4.19,-3.27 7.9,-4.93 11.14,-4.98 3.24,-0.03 6.1,1.54 8.6,4.74 2.2,2.82 3.15,5.7 2.85,8.65 -0.3,2.95 -1.86,5.87 -4.68,8.78 2.72,-1.45 5.01,-1.97 6.88,-1.54 1.87,0.44 4.01,2.03 6.44,4.8l2.96 3.35c1.15,1.31 1.99,2.09 2.53,2.34 0.53,0.26 1.05,0.2 1.53,-0.18 0.96,-0.75 -0.19,-3.3 -3.47,-7.64 -0.06,-0.08 -0.11,-0.14 -0.13,-0.17l3.17 -2.47c0.22,0.22 0.46,0.46 0.68,0.73 0.22,0.27 0.53,0.66 0.94,1.18 2.81,3.6 4.3,6.66 4.48,9.18 0.19,2.52 -0.93,4.72 -3.34,6.6 -1.98,1.55 -4.03,2.13 -6.14,1.73 -2.12,-0.41 -4.09,-1.7 -5.92,-3.93l-3.74 -4.48c-2.49,-2.98 -4.69,-4.62 -6.61,-4.88 -1.93,-0.27 -4.37,0.75 -7.33,3.07l-2.39 1.87 8.16 10.46zm31.26 -40.99c3.52,5.38 7.25,8.93 11.2,10.63 3.94,1.71 7.67,1.41 11.19,-0.89 3.52,-2.3 5.27,-5.59 5.29,-9.87 0.01,-4.28 -1.74,-9.12 -5.27,-14.52 -3.52,-5.38 -7.24,-8.92 -11.15,-10.61 -3.91,-1.7 -7.63,-1.4 -11.16,0.91 -3.52,2.3 -5.3,5.59 -5.32,9.87 -0.04,4.28 1.71,9.11 5.23,14.49zm-8.37 5.48c-4.32,-6.59 -5.98,-13.08 -5.03,-19.47 0.96,-6.38 4.37,-11.49 10.24,-15.33 5.88,-3.85 11.93,-4.92 18.14,-3.24 6.22,1.7 11.48,5.83 15.79,12.43 4.32,6.61 6.01,13.1 5.07,19.5 -0.94,6.39 -4.34,11.5 -10.21,15.33 -5.87,3.84 -11.93,4.91 -18.17,3.21 -6.24,-1.7 -11.53,-5.85 -15.84,-12.44zm59.66 -40.12l3.72 -2.03c3.41,-1.87 5.52,-3.71 6.32,-5.54 0.8,-1.81 0.5,-4.01 -0.89,-6.55 -1.41,-2.6 -3.08,-4.07 -4.97,-4.38 -1.91,-0.33 -4.77,0.56 -8.58,2.64l-3.29 1.8 7.68 14.06zm8.58 15.69c0.96,1.76 1.77,2.77 2.44,3.01 0.66,0.25 1.83,-0.1 3.49,-1l2.61 -1.43 2.7 4.95 -20 10.93 -2.7 -4.95 2.17 -1.18c1.65,-0.9 2.55,-1.69 2.7,-2.36 0.15,-0.68 -0.26,-1.9 -1.24,-3.68l-14.05 -25.72c-0.98,-1.78 -1.78,-2.79 -2.43,-3.03 -0.64,-0.24 -1.8,0.1 -3.44,1l-2.17 1.19 -2.7 -4.95 19.62 -10.72c5.03,-2.75 9.37,-3.81 13.04,-3.2 3.65,0.61 6.57,2.91 8.73,6.87 1.18,2.17 1.86,4.25 2.05,6.24 0.19,2 -0.12,3.94 -0.91,5.84 -0.58,1.33 -1.69,2.67 -3.32,3.99 -1.62,1.32 -4.05,2.88 -7.28,4.65l-5.16 2.82 5.87 10.74zm32.74 -5.62l-2.32 -5.14 2.25 -1.02c1.71,-0.77 2.67,-1.49 2.87,-2.15 0.2,-0.66 -0.12,-1.93 -0.97,-3.79l-12.06 -26.71c-0.83,-1.84 -1.55,-2.91 -2.18,-3.18 -0.62,-0.29 -1.8,-0.04 -3.51,0.73l-2.26 1.02 -2.32 -5.14 38.08 -17.19 8.15 18.06 -4.39 1.98c-2.44,-5.11 -4.72,-8.23 -6.81,-9.36 -2.11,-1.13 -5.18,-0.77 -9.23,1.05l-9.29 4.19 6.29 13.93 2.19 -0.99c2.42,-1.09 3.78,-2.3 4.1,-3.63 0.31,-1.31 -0.24,-3.78 -1.65,-7.4l4.37 -2.01 10.27 22.75 -4.4 1.95c-1.93,-3.81 -3.52,-6.12 -4.79,-6.91 -1.26,-0.8 -3.1,-0.65 -5.5,0.44l-2.25 1.01 7.2 15.96 10.14 -4.58c3.39,-1.53 5.29,-3.5 5.72,-5.91 0.43,-2.41 -0.47,-6.53 -2.71,-12.39l4.39 -1.98 8.67 19.21 -38.08 17.19zm63.35 -49.96l-11.07 -14.28 1.2 17.89 9.87 -3.6zm-18.53 29.9l-1.93 -5.3 1.24 -0.45c1.51,-0.55 2.52,-1.27 3.03,-2.17 0.52,-0.9 0.72,-2.33 0.62,-4.3l-2.35 -41 8.36 -3.05 25.38 32.6c1.46,1.9 2.56,2.98 3.29,3.2 0.72,0.22 1.78,0.09 3.18,-0.42l1.19 -0.43 1.93 5.3 -20.65 7.53 -1.93 -5.3 3.22 -1.18c1.3,-0.47 2.13,-0.92 2.49,-1.36 0.35,-0.42 0.4,-0.98 0.15,-1.66 -0.09,-0.24 -0.22,-0.52 -0.4,-0.81 -0.19,-0.29 -0.5,-0.73 -0.94,-1.28l-3.74 -4.9 -13.15 4.8 0.44 6.53c0.02,0.18 0.04,0.43 0.07,0.79 0.04,0.72 0.11,1.22 0.21,1.5 0.22,0.62 0.57,0.97 1.02,1.06 0.46,0.08 1.4,-0.12 2.78,-0.63l3.08 -1.12 1.94 5.3 -18.55 6.77zm89.95 -29.61l-8.61 2.44 -31.4 -33.25 8.28 29.17c0.55,1.95 1.12,3.11 1.7,3.49 0.58,0.37 1.77,0.31 3.57,-0.21l2.8 -0.8 1.54 5.43 -20.09 5.7 -1.54 -5.42 2.86 -0.81c1.81,-0.51 2.85,-1.08 3.15,-1.7 0.29,-0.62 0.17,-1.91 -0.38,-3.86l-8 -28.19c-0.55,-1.95 -1.12,-3.11 -1.7,-3.49 -0.58,-0.38 -1.77,-0.31 -3.57,0.21l-2.63 0.75 -1.54 -5.42 17.49 -4.97 27.96 29.64 -7.07 -24.92c-0.56,-1.95 -1.12,-3.11 -1.7,-3.49 -0.58,-0.37 -1.76,-0.31 -3.56,0.2l-2.88 0.82 -1.54 -5.42 19.31 -5.48 1.54 5.43 -1.96 0.55c-1.83,0.52 -2.88,1.09 -3.19,1.73 -0.3,0.64 -0.18,1.93 0.37,3.85l10.8 38.04zm61.2 -42.78l6 -1.01c3.39,-0.57 5.73,-1.57 6.98,-2.99 1.27,-1.43 1.67,-3.49 1.21,-6.21 -0.46,-2.72 -1.45,-4.55 -2.99,-5.5 -1.54,-0.96 -3.91,-1.16 -7.1,-0.62l-6.67 1.12 2.57 15.22zm3.83 22.75l6.92 -1.17c3.58,-0.6 6.02,-1.7 7.31,-3.29 1.3,-1.6 1.69,-3.92 1.18,-7 -0.52,-3.07 -1.68,-5.13 -3.47,-6.16 -1.79,-1.04 -4.62,-1.23 -8.46,-0.58l-6.37 1.08 2.89 17.12zm-14.43 8.08l-0.94 -5.56 2.44 -0.41c1.85,-0.31 2.96,-0.76 3.32,-1.35 0.36,-0.59 0.37,-1.88 0.03,-3.88l-4.87 -28.9c-0.34,-2 -0.76,-3.22 -1.3,-3.65 -0.54,-0.44 -1.73,-0.5 -3.58,-0.18l-2.44 0.41 -0.94 -5.56 24.17 -4.07c5.24,-0.89 9.3,-0.54 12.17,1.03 2.88,1.59 4.67,4.44 5.37,8.59 0.48,2.85 0.18,5.29 -0.9,7.26 -1.07,1.99 -2.98,3.65 -5.72,4.99 3.53,0.25 6.31,1.27 8.34,3.09 2.03,1.8 3.34,4.45 3.93,7.93 0.8,4.78 -0.01,8.43 -2.45,10.95 -2.44,2.52 -6.99,4.34 -13.66,5.47l-22.97 3.87zm61.94 -39l7.46 -0.7c3,-0.28 5.13,-1.08 6.42,-2.4 1.29,-1.31 1.8,-3.28 1.56,-5.87 -0.25,-2.67 -1.09,-4.52 -2.54,-5.54 -1.44,-1.03 -3.79,-1.39 -7.05,-1.09l-7.25 0.68 1.4 14.92zm1.76 18.82c0.19,2.01 0.54,3.24 1.05,3.72 0.51,0.49 1.72,0.65 3.61,0.47l2.96 -0.28 0.53 5.62 -22.69 2.12 -0.53 -5.61 2.46 -0.23c1.87,-0.17 3.01,-0.54 3.42,-1.1 0.4,-0.57 0.5,-1.85 0.31,-3.88l-2.73 -29.17c-0.19,-2.02 -0.53,-3.27 -1.03,-3.74 -0.5,-0.47 -1.69,-0.62 -3.56,-0.45l-2.46 0.23 -0.53 -5.62 25.27 -2.37c5.3,-0.5 9.31,0.11 12.07,1.81 2.75,1.72 4.31,4.59 4.69,8.63 0.33,3.56 -0.42,6.5 -2.27,8.82 -1.84,2.32 -4.73,3.95 -8.67,4.87 3.07,0.25 5.28,1.05 6.63,2.41 1.34,1.38 2.28,3.87 2.84,7.51l0.69 4.42c0.27,1.73 0.55,2.83 0.88,3.33 0.31,0.51 0.77,0.73 1.38,0.68 1.22,-0.11 1.62,-2.88 1.19,-8.31 -0.01,-0.1 -0.01,-0.17 -0.02,-0.21l4 -0.38c0.07,0.3 0.13,0.64 0.18,0.98 0.04,0.35 0.09,0.85 0.15,1.5 0.43,4.54 0.03,7.92 -1.18,10.15 -1.2,2.22 -3.33,3.48 -6.37,3.76 -2.5,0.24 -4.54,-0.38 -6.11,-1.86 -1.56,-1.48 -2.52,-3.64 -2.87,-6.5l-0.73 -5.8c-0.49,-3.85 -1.46,-6.42 -2.93,-7.67 -1.48,-1.27 -4.08,-1.72 -7.83,-1.37l-3.03 0.28 1.24 13.21zm37.8 6.9l-0.32 -5.63 2.47 -0.14c1.87,-0.1 3.03,-0.43 3.45,-0.97 0.42,-0.55 0.57,-1.84 0.46,-3.88l-1.65 -29.26c-0.11,-2.01 -0.4,-3.27 -0.89,-3.75 -0.48,-0.49 -1.67,-0.69 -3.54,-0.58l-2.46 0.14 -0.32 -5.63 41.72 -2.35 1.12 19.78 -4.8 0.27c-0.44,-5.65 -1.45,-9.38 -3,-11.18 -1.56,-1.81 -4.55,-2.58 -8.99,-2.33l-10.18 0.57 0.86 15.26 2.4 -0.14c2.66,-0.15 4.36,-0.79 5.13,-1.91 0.76,-1.12 1.14,-3.62 1.12,-7.51l4.8 -0.3 1.4 24.93 -4.8 0.23c-0.43,-4.25 -1.08,-6.97 -1.98,-8.16 -0.89,-1.2 -2.66,-1.72 -5.29,-1.57l-2.46 0.14 0.98 17.48 11.1 -0.62c3.71,-0.21 6.2,-1.37 7.47,-3.45 1.26,-2.09 1.91,-6.26 1.92,-12.54l4.8 -0.27 1.19 21.04 -41.72 2.35zm65.43 -1.97l-8.28 -37.6c-0.63,-2.87 -1.27,-4.7 -1.94,-5.53 -0.67,-0.82 -1.62,-1.24 -2.88,-1.26l-1.02 -0.02 0.11 -5.64 18.09 0.34 -0.11 5.64 -2.02 -0.04c-0.9,-0.02 -1.56,0.15 -1.98,0.52 -0.42,0.37 -0.64,0.95 -0.66,1.74 -0.01,0.32 0.01,0.6 0.04,0.84 0.03,0.24 0.07,0.48 0.12,0.72l6.12 28.23 8.08 -25.49c-0.34,-2.28 -0.86,-3.92 -1.59,-4.91 -0.72,-0.99 -1.76,-1.5 -3.11,-1.53l-1.58 -0.03 0.11 -5.64 18.61 0.35 -0.11 5.64 -2.35 -0.04c-1.1,-0.02 -1.86,0.11 -2.31,0.42 -0.45,0.29 -0.68,0.8 -0.69,1.55 -0.01,0.33 0.08,0.89 0.24,1.67 0.04,0.16 0.07,0.3 0.09,0.4l6.67 27.29 6.78 -25.19c0.19,-0.69 0.35,-1.37 0.47,-2 0.12,-0.64 0.18,-1.19 0.19,-1.67 0.01,-0.78 -0.27,-1.36 -0.83,-1.72 -0.57,-0.37 -1.47,-0.57 -2.68,-0.6l-2.08 -0.04 0.11 -5.64 17.4 0.33 -0.11 5.64 -1.39 -0.03c-1.07,-0.02 -1.95,0.36 -2.63,1.12 -0.69,0.78 -1.28,2.07 -1.79,3.86l-10.4 38.89 -8.36 -0.16 -6.14 -26.75 -8.16 26.48 -8.04 -0.15zm51.71 1.9l0.53 -5.61 2.71 0.25c1.87,0.18 3.06,0.03 3.56,-0.45 0.5,-0.48 0.84,-1.73 1.03,-3.75l2.73 -29.18c0.19,-2.02 0.08,-3.31 -0.32,-3.87 -0.4,-0.56 -1.55,-0.93 -3.42,-1.1l-2.71 -0.26 0.53 -5.61 22.82 2.13 -0.53 5.61 -2.7 -0.25c-1.88,-0.18 -3.07,-0.03 -3.57,0.45 -0.5,0.47 -0.84,1.72 -1.03,3.74l-2.73 29.18c-0.19,2.02 -0.08,3.31 0.32,3.87 0.4,0.56 1.55,0.93 3.43,1.1l2.7 0.25 -0.53 5.61 -22.82 -2.13zm72.3 8.21l-8.87 -1.16 -15.68 -42.96 -3.93 30.07c-0.26,2.01 -0.2,3.31 0.18,3.88 0.39,0.57 1.5,0.98 3.36,1.22l2.89 0.38 -0.73 5.59 -20.71 -2.71 0.73 -5.59 2.95 0.39c1.86,0.24 3.04,0.14 3.56,-0.32 0.52,-0.46 0.91,-1.69 1.18,-3.7l3.8 -29.06c0.26,-2.01 0.2,-3.31 -0.18,-3.88 -0.38,-0.57 -1.5,-0.98 -3.36,-1.22l-2.71 -0.36 0.73 -5.59 18.03 2.36 13.96 38.28 3.36 -25.68c0.26,-2.01 0.21,-3.3 -0.18,-3.88 -0.38,-0.57 -1.49,-0.98 -3.35,-1.22l-2.97 -0.39 0.73 -5.59 19.9 2.6 -0.73 5.59 -2.02 -0.26c-1.88,-0.25 -3.08,-0.14 -3.61,0.33 -0.53,0.47 -0.92,1.7 -1.18,3.69l-5.13 39.21zm48.71 9.86l-1.37 -4.5c-2.27,1.38 -4.51,2.3 -6.75,2.71 -2.23,0.44 -4.56,0.4 -6.98,-0.1 -2.85,-0.58 -5.38,-1.72 -7.6,-3.4 -2.21,-1.69 -4.04,-3.89 -5.48,-6.57 -1.57,-2.86 -2.55,-6.01 -2.94,-9.42 -0.41,-3.4 -0.22,-6.99 0.55,-10.76 0.77,-3.75 2.04,-7.14 3.81,-10.15 1.76,-3 3.94,-5.5 6.55,-7.5 2.42,-1.85 4.97,-3.09 7.64,-3.74 2.67,-0.65 5.43,-0.68 8.27,-0.09 2.39,0.49 4.47,1.37 6.24,2.64 1.78,1.29 3.35,3.01 4.69,5.18l2.62 -3.83 4.38 0.9 -3.92 19.04 -4.77 -0.98c0.12,-4.67 -0.67,-8.47 -2.36,-11.43 -1.67,-2.95 -4.07,-4.74 -7.15,-5.37 -3.7,-0.76 -7,0.42 -9.93,3.54 -2.93,3.12 -5.02,7.73 -6.27,13.81 -1.27,6.17 -1.16,11.18 0.34,15.01 1.5,3.83 4.23,6.16 8.21,6.97 2.86,0.59 5.28,0.26 7.24,-0.95 1.97,-1.24 3.24,-3.21 3.79,-5.92l0.57 -2.78c0.35,-1.69 0.35,-2.83 0.01,-3.4 -0.35,-0.58 -1.64,-1.09 -3.87,-1.55l-2.63 -0.54 1.13 -5.52 22.02 4.53 -1.14 5.52 -2.69 -0.55c-1.44,-0.29 -2.41,-0.22 -2.93,0.24 -0.53,0.46 -0.99,1.66 -1.4,3.63l-3.35 16.28 -4.54 -0.94zm54.14 13.74l1.73 -5.37 2.35 0.76c1.79,0.57 2.98,0.69 3.57,0.33 0.59,-0.36 1.19,-1.5 1.81,-3.43l8.99 -27.91c0.62,-1.92 0.8,-3.2 0.53,-3.83 -0.27,-0.63 -1.31,-1.24 -3.1,-1.81l-2.35 -0.76 1.73 -5.37 21.69 6.98 -1.73 5.37 -2.83 -0.91c-1.81,-0.58 -3.01,-0.7 -3.61,-0.33 -0.61,0.36 -1.22,1.49 -1.83,3.4l-3.37 10.46 17.48 5.63 3.37 -10.46c0.62,-1.92 0.8,-3.2 0.53,-3.83 -0.28,-0.63 -1.3,-1.24 -3.08,-1.81l-2.85 -0.92 1.73 -5.37 21.7 6.98 -1.73 5.37 -2.35 -0.76c-1.81,-0.58 -3.01,-0.7 -3.62,-0.34 -0.6,0.36 -1.21,1.49 -1.83,3.4l-8.98 27.91c-0.62,1.91 -0.79,3.19 -0.51,3.84 0.28,0.65 1.33,1.26 3.13,1.84l2.35 0.76 -1.73 5.37 -21.7 -6.99 1.73 -5.37 2.85 0.92c1.78,0.57 2.96,0.68 3.55,0.33 0.59,-0.36 1.19,-1.5 1.81,-3.43l3.78 -11.72 -17.47 -5.63 -3.78 11.72c-0.61,1.91 -0.79,3.19 -0.5,3.84 0.28,0.65 1.32,1.26 3.13,1.84l2.83 0.91 -1.73 5.37 -21.69 -6.99zm53.17 17.96l2.12 -5.23 2.29 0.93c1.74,0.7 2.92,0.9 3.54,0.59 0.62,-0.31 1.3,-1.42 2.07,-3.31l10.99 -27.17c0.76,-1.87 1.03,-3.13 0.8,-3.77 -0.23,-0.65 -1.22,-1.33 -2.96,-2.04l-2.29 -0.93 2.11 -5.23 38.73 15.67 -7.43 18.36 -4.46 -1.8c2.01,-5.3 2.69,-9.1 2.06,-11.4 -0.64,-2.3 -3.02,-4.28 -7.14,-5.94l-9.45 -3.82 -5.73 14.17 2.23 0.9c2.46,1 4.28,1.15 5.46,0.46 1.17,-0.69 2.57,-2.79 4.22,-6.31l4.47 1.77 -9.36 23.14 -4.45 -1.84c1.42,-4.03 2,-6.77 1.69,-8.22 -0.29,-1.47 -1.67,-2.69 -4.11,-3.68l-2.29 -0.93 -6.57 16.23 10.31 4.17c3.45,1.39 6.19,1.41 8.23,0.06 2.03,-1.36 4.39,-4.85 7.09,-10.52l4.46 1.8 -7.9 19.54 -38.73 -15.67zm74.34 0.55l6.71 3.32c2.7,1.33 4.94,1.77 6.73,1.32 1.79,-0.44 3.25,-1.84 4.41,-4.18 1.19,-2.41 1.44,-4.42 0.75,-6.04 -0.69,-1.64 -2.5,-3.18 -5.43,-4.63l-6.53 -3.22 -6.64 13.44zm-8.37 16.95c-0.89,1.81 -1.25,3.04 -1.07,3.72 0.18,0.68 1.12,1.45 2.82,2.29l2.67 1.32 -2.5 5.06 -20.44 -10.1 2.5 -5.05 2.21 1.09c1.68,0.83 2.85,1.12 3.48,0.85 0.64,-0.26 1.4,-1.31 2.31,-3.14l12.98 -26.27c0.9,-1.82 1.26,-3.06 1.08,-3.72 -0.18,-0.66 -1.11,-1.42 -2.79,-2.25l-2.22 -1.09 2.5 -5.06 22.75 11.24c4.77,2.35 7.87,4.98 9.33,7.87 1.43,2.9 1.26,6.17 -0.54,9.8 -1.59,3.2 -3.76,5.31 -6.56,6.32 -2.78,1.01 -6.09,0.88 -9.94,-0.4 2.49,1.83 3.94,3.66 4.37,5.53 0.42,1.88 -0.08,4.5 -1.52,7.88l-1.74 4.12c-0.68,1.61 -1.01,2.7 -1,3.3 0,0.6 0.28,1.03 0.83,1.3 1.09,0.54 2.89,-1.61 5.37,-6.45 0.04,-0.09 0.08,-0.15 0.09,-0.19l3.61 1.78c-0.1,0.3 -0.22,0.61 -0.36,0.93 -0.14,0.32 -0.37,0.77 -0.66,1.36 -2.02,4.09 -4.13,6.76 -6.33,8.02 -2.19,1.26 -4.66,1.21 -7.39,-0.14 -2.25,-1.11 -3.67,-2.71 -4.22,-4.79 -0.55,-2.08 -0.24,-4.42 0.97,-7.03l2.42 -5.32c1.61,-3.54 2.13,-6.23 1.53,-8.07 -0.59,-1.85 -2.58,-3.6 -5.95,-5.27l-2.73 -1.35 -5.87 11.9zm28.52 26.09l2.88 -4.85 2.34 1.39c1.61,0.95 2.75,1.33 3.41,1.12 0.65,-0.22 1.5,-1.2 2.53,-2.94l14.96 -25.2c1.03,-1.74 1.49,-2.95 1.37,-3.63 -0.13,-0.68 -1,-1.5 -2.62,-2.46l-2.34 -1.39 2.88 -4.85 19.71 11.69 -2.88 4.85 -2.33 -1.38c-1.62,-0.97 -2.77,-1.34 -3.42,-1.12 -0.65,0.21 -1.49,1.2 -2.53,2.94l-14.96 25.2c-1.04,1.74 -1.5,2.95 -1.37,3.63 0.13,0.68 1,1.5 2.63,2.46l2.33 1.38 -2.88 4.85 -19.71 -11.69zm62.62 -13.7l-0.7 -0.45c-2.84,-1.84 -5.56,-2.19 -8.14,-1.04 -2.59,1.16 -5.37,3.97 -8.32,8.4l-4.09 -2.65 11.22 -17.3 33.57 21.77 -11.22 17.3 -4.09 -2.65c2.83,-4.44 4.25,-8.09 4.26,-10.96 0.02,-2.86 -1.39,-5.22 -4.23,-7.06l-0.78 -0.5 -18.53 28.57c-1.09,1.68 -1.59,2.88 -1.49,3.57 0.1,0.7 0.95,1.56 2.53,2.59l3.04 1.97 -3.07 4.73 -20.66 -13.4 3.07 -4.73 3.09 2c1.57,1.02 2.69,1.44 3.35,1.25 0.66,-0.19 1.55,-1.14 2.65,-2.84l18.53 -28.57zm32.26 50.67l6.17 -16.98 -14.49 10.56 8.32 6.43zm-35.18 0.28l3.45 -4.46 1.05 0.81c1.26,0.98 2.42,1.45 3.46,1.41 1.04,-0.04 2.35,-0.63 3.96,-1.77l33.42 -23.87 7.04 5.45 -14.03 38.86c-0.83,2.25 -1.15,3.75 -0.95,4.49 0.2,0.73 0.88,1.56 2.06,2.46l1 0.77 -3.45 4.46 -17.38 -13.44 3.45 -4.46 2.71 2.1c1.09,0.84 1.92,1.31 2.48,1.38 0.54,0.08 1.04,-0.18 1.49,-0.76 0.16,-0.21 0.32,-0.47 0.47,-0.78 0.14,-0.31 0.35,-0.81 0.58,-1.47l2.16 -5.77 -11.08 -8.57 -5.29 3.86c-0.14,0.11 -0.35,0.26 -0.64,0.47 -0.59,0.42 -0.97,0.75 -1.16,0.98 -0.4,0.51 -0.52,0.99 -0.35,1.43 0.17,0.43 0.85,1.11 2.02,2.01l2.6 2.01 -3.45 4.46 -15.62 -12.07zm67.71 57.3l1.16 -4.55c-2.65,0 -5.05,-0.38 -7.18,-1.18 -2.14,-0.78 -4.11,-2.02 -5.92,-3.7 -2.14,-1.98 -3.71,-4.26 -4.73,-6.85 -1.01,-2.59 -1.44,-5.42 -1.29,-8.46 0.14,-3.26 0.93,-6.46 2.36,-9.58 1.41,-3.13 3.43,-6.1 6.05,-8.92 2.6,-2.81 5.44,-5.05 8.52,-6.71 3.06,-1.65 6.22,-2.66 9.48,-3.03 3.03,-0.32 5.85,-0.07 8.47,0.76 2.62,0.82 5,2.24 7.13,4.21 1.79,1.66 3.11,3.49 3.97,5.49 0.86,2.03 1.3,4.31 1.32,6.86l4.22 -1.92 3.28 3.04 -13.22 14.26 -3.57 -3.31c2.52,-3.93 3.81,-7.59 3.9,-11 0.09,-3.39 -1.03,-6.16 -3.34,-8.3 -2.77,-2.57 -6.2,-3.27 -10.32,-2.12 -4.12,1.15 -8.3,4.02 -12.51,8.57 -4.28,4.61 -6.78,8.96 -7.49,13.01 -0.7,4.05 0.43,7.46 3.4,10.22 2.15,1.99 4.38,2.96 6.69,2.93 2.32,-0.04 4.43,-1.07 6.31,-3.1l1.92 -2.08c1.18,-1.27 1.77,-2.24 1.77,-2.91 0,-0.67 -0.83,-1.79 -2.5,-3.33l-1.98 -1.83 3.83 -4.14 16.48 15.28 -3.83 4.14 -2.01 -1.87c-1.08,-1 -1.95,-1.44 -2.64,-1.31 -0.69,0.12 -1.71,0.91 -3.07,2.38l-11.29 12.19 -3.4 -3.15zm11.49 11.66l4.22 -3.75 1.64 1.85c1.25,1.4 2.22,2.11 2.91,2.1 0.69,-0.01 1.8,-0.69 3.33,-2.05l21.91 -19.46c1.51,-1.34 2.31,-2.35 2.39,-3.03 0.09,-0.68 -0.5,-1.73 -1.74,-3.14l-1.64 -1.85 4.22 -3.74 27.75 31.23 -14.81 13.16 -3.2 -3.6c4.15,-3.86 6.45,-6.96 6.91,-9.3 0.44,-2.35 -0.81,-5.17 -3.76,-8.49l-6.77 -7.62 -11.43 10.15 1.6 1.8c1.77,1.99 3.33,2.93 4.69,2.84 1.35,-0.1 3.54,-1.36 6.58,-3.78l3.22 3.57 -18.66 16.58 -3.17 -3.62c3.06,-2.98 4.8,-5.18 5.17,-6.62 0.39,-1.45 -0.3,-3.15 -2.06,-5.12l-1.64 -1.85 -13.09 11.63 7.38 8.32c2.47,2.77 4.92,4.01 7.35,3.71 2.42,-0.3 6.09,-2.39 11.02,-6.27l3.2 3.6 -15.75 14 -27.75 -31.24zm-1389.62 791.33l20.15 -11.35 0 -17.37c0,-16.7 -4.7,-32.06 -13.44,-46.09 2.69,9.35 4.71,18.7 4.71,28.72l0 22.71 -23.51 12.69 12.09 10.68zm-132.96 319.31l149.75 -85.51 0 -168.34c0,-32.06 -17.46,-60.79 -44.99,-76.15l30.89 -18.04 0 -17.37c0,-31.4 -17.46,-60.79 -44.99,-76.15l-15.44 -8.69 -79.24 46.1c-7.39,-19.37 -21.49,-36.08 -39.62,-46.1l-60.44 34.74c27.53,15.36 44.32,45.42 44.32,76.82l0 253.84c0,31.4 16.79,60.79 44.99,76.16l14.77 8.68zm17.46 17.37l149.75 -85.5 0 -168.34c0,-16.7 -4.7,-32.73 -13.43,-46.1 2.69,9.35 4.7,18.71 4.7,28.73l0 173.01 -155.79 89.51 14.77 8.68zm28.2 -60.79c-27.53,-15.36 -44.32,-45.42 -44.32,-76.82l0 -150.97 42.98 -24.05c27.53,15.36 44.32,44.76 44.32,76.15l0 150.97 -42.98 24.71zm-22.83 -33.4c-2.68,-8.69 -4.03,-17.37 -4.03,-26.05l0 -150.97 37.61 -21.38c-4.03,-4.01 -8.06,-7.35 -12.09,-10.02l-34.25 19.37 0 145.63c0,16.03 4.7,30.73 12.76,43.42zm-21.49 -211.76l0 -85.51 -1.34 -15.36 30.22 -17.37c27.53,15.36 44.32,45.42 44.32,76.82l-73.19 41.42zm8.73 -14.7l8.73 -5.34 0 -48.1 -1.34 -15.36 24.85 -14.7c-4.03,-3.34 -8.06,-7.35 -12.09,-10.02l-20.82 12.03 0.67 10.69 0 70.81zm96.03 222.45l0 -138.28c0,-26.72 -10.75,-52.77 -28.88,-72.14 23.5,17.37 37.6,42.75 37.6,72.14l0 133.6 -8.73 4.68zm-14.78 -261.86c-2.68,-22.71 -12.76,-43.42 -28.2,-59.45 18.81,13.36 30.89,32.06 35.59,55.45l-7.39 4.01zm-103.41 315.3c-18.81,-12.69 -30.22,-34.07 -30.22,-57.45l0 -253.84c0,-28.72 -11.42,-55.44 -30.89,-74.81l1.34 -0.67c24.18,24.72 38.28,40.75 38.28,75.48l0 253.84c0,21.38 8.06,42.08 21.49,57.45zm291.44 44.75l123.56 -70.81 0 -17.37 -138.33 79.49 14.77 8.68zm-17.46 -17.37l123.56 -70.81 0 -17.37 -77.9 44.75c-27.53,-15.36 -44.32,-45.42 -44.32,-76.82l122.22 -70.14 0 -37.41c0,-32.06 -17.46,-60.79 -44.99,-76.16l-15.44 -8.68 -122.89 70.14 0 157.65c0,31.4 17.46,60.79 44.99,76.16l14.77 8.68zm22.83 -76.82c-2.68,-8.69 -4.03,-16.7 -4.03,-26.05l122.22 -70.14 0 -37.41c0,-16.7 -4.7,-32.73 -13.43,-46.1 3.36,9.36 4.7,18.71 4.7,28.73l0 42.75 -122.22 70.14c0.67,13.36 5.37,26.72 12.76,38.07zm-21.49 -60.79l0 -122.24 16.79 -9.35c27.53,15.36 44.32,44.75 44.32,76.15l0 20.71 -61.11 34.74zm8.73 -14.69l8.73 -5.34 0 -84.84 11.42 -6.68c-3.36,-4.01 -8.05,-7.35 -12.08,-10.02l-8.06 4.01 0 102.88zm-21.49 124.92c-19.47,-12.69 -30.89,-34.07 -30.89,-57.45l0 -147.63 8.73 -4.68 0 152.3c0,21.38 8.06,42.08 22.16,57.45zm91.33 -157.65c0,-32.06 -6.04,-56.11 -28.2,-80.16 25.52,19.37 36.94,44.09 36.94,74.82l-8.73 5.34zm173.25 202.41l123.56 -70.81 0 -17.37 -138.33 79.49 14.77 8.68zm-17.46 -17.37l123.56 -70.81 0 -17.37 -77.9 44.75c-27.53,-15.36 -44.32,-45.42 -44.32,-76.82l122.22 -70.14 0 -37.41c0,-32.06 -17.46,-60.79 -44.99,-76.16l-15.45 -8.68 -122.89 70.14 0 157.65c0,31.4 17.46,60.79 44.99,76.16l14.78 8.68zm22.83 -76.82c-2.69,-8.69 -4.03,-16.7 -4.03,-26.05l122.22 -70.14 0 -37.41c0,-16.7 -4.7,-32.73 -13.43,-46.1 3.36,9.36 4.7,18.71 4.7,28.73l0 42.75 -122.22 70.14c0.68,13.36 5.37,26.72 12.76,38.07zm-21.49 -60.79l0 -122.24 16.79 -9.35c27.53,15.36 44.32,44.75 44.32,76.15l0 20.71 -61.11 34.74zm8.73 -14.69l8.73 -5.34 0 -84.84 11.41 -6.68c-3.35,-4.01 -8.05,-7.35 -12.08,-10.02l-8.06 4.01 0 102.88zm-21.49 124.92c-19.47,-12.69 -30.89,-34.07 -30.89,-57.45l0 -147.63 8.73 -4.68 0 152.3c0,21.38 8.06,42.08 22.16,57.45zm91.33 -157.65c0,-32.06 -6.05,-56.11 -28.2,-80.16 25.52,19.37 36.93,44.09 36.93,74.82l-8.73 5.34zm174.59 202.41l0 -259.85 11.42 -6.68c-3.36,-4.01 -8.06,-7.35 -12.08,-10.02l-8.06 4.01 0 267.2 8.73 5.34zm-17.46 -17.37l0 -259.85 16.79 -9.35c27.53,15.36 44.32,44.75 44.32,76.15l61.11 -34.74c0,-32.06 -17.46,-60.79 -44.99,-76.16l-15.44 -8.68 -61.78 35.4 0 -35.4 -61.11 34.74 0 243.16 61.11 34.74zm78.57 -175.68l61.11 -34.74c0,-16.7 -4.7,-32.73 -13.43,-46.1 4.03,12.69 4.7,20.04 4.7,33.4l-54.39 31.4c1.34,5.34 2.02,10.69 2.02,16.03zm-4.03 -45.43c-4.7,-16.03 -12.76,-31.39 -24.17,-44.09 14.1,10.69 24.17,23.38 30.89,40.75l-6.72 3.34zm-109.45 181.03l-8.73 -4.68 0 -223.12 8.73 -4.68 0 232.47zm325.02 -135.61l61.11 -34.74c0,-16.7 -4.7,-32.73 -13.44,-46.1 4.04,12.69 4.71,20.04 4.71,33.4l-54.39 31.4c1.34,5.34 2.02,10.69 2.02,16.03zm-79.92 175.68l123.56 -70.81 0 -17.37c0,-31.4 -17.46,-60.79 -44.99,-76.15l-32.91 -18.71c-27.53,-16.03 -44.32,-45.42 -44.32,-76.82l16.79 -9.35c27.53,15.36 44.32,44.75 44.32,76.15l61.11 -34.74c0,-32.06 -17.46,-60.79 -44.99,-76.16l-15.45 -8.68 -122.89 70.14 0 17.37c0,32.06 17.46,60.79 44.99,76.82l32.91 18.7c27.53,15.36 44.32,45.42 44.32,76.82l-16.79 9.35c-27.53,-15.36 -44.32,-45.42 -44.32,-76.82l-61.11 35.4c0,31.4 17.46,60.79 44.99,76.16l14.77 8.68zm22.83 -76.82c-2.69,-8.69 -4.03,-17.37 -4.03,-26.05l-6.05 3.34c2.02,8.02 5.37,15.36 10.07,22.71zm0 -140.28c-2.69,-8.02 -4.03,-16.7 -4.03,-25.38l11.41 -6.68c-3.35,-4.01 -8.05,-7.35 -12.08,-10.02l-8.06 4.01c0.67,14.03 5.37,26.72 12.76,38.08zm-5.37 234.47l123.56 -70.81 0 -17.37c0,-16.7 -4.7,-32.06 -13.44,-46.09 3.36,9.35 4.71,18.7 4.71,28.72l0 22.71 -129.61 74.15 14.78 8.68zm-28.88 -184.37c-24.18,-16.03 -30.89,-37.41 -30.89,-65.46l8.73 -4.68c0,28.72 2.01,48.09 22.16,70.14zm90.66 101.54c-2.68,-22.05 -12.76,-43.42 -27.53,-59.45 18.13,13.36 30.89,32.73 34.92,55.45l-7.39 4.01zm-90.66 38.75c-16.79,-11.36 -27.53,-28.73 -30.22,-48.77l8.06 -4.68c2.68,22.04 7.39,36.74 22.16,53.44zm87.3 -194.39c-4.7,-16.03 -12.76,-31.39 -24.18,-44.09 14.1,10.69 24.18,23.38 30.89,40.75l-6.72 3.34zm181.99 144.29c-2.69,-8.69 -4.03,-17.37 -4.03,-26.05l0 -175.02 44.32 0 0 -17.37 -8.73 0 0 8.68 -44.32 0 0 166.33c0,16.03 4.7,30.73 12.76,43.42zm-4.03 -244.49l0 -111.56 -8.73 4.68 0 106.88 8.73 0zm-18.81 321.31l84.61 -48.1 0 -17.37 -38.95 22.04c-27.54,-15.36 -44.32,-45.42 -44.32,-76.82l0 -175.02 44.32 0 0 -17.37 -44.32 0 0 -137.61 -61.11 34.74 0 102.87 -16.79 0 0 17.37 16.79 0 0 210.42c0,31.4 17.46,60.79 44.99,76.16l14.77 8.68zm17.46 17.37l84.61 -48.1 0 -17.37 -99.39 56.78 14.78 8.68zm-28.88 -44.75c-19.47,-12.69 -30.89,-34.07 -30.89,-57.45l0 -320.64 8.73 -4.68 0 325.32c0,21.38 8.06,42.08 22.16,57.45zm218.25 -16.04c-27.53,-15.36 -44.32,-45.42 -44.32,-76.82l0 -139.61 16.79 -9.35c27.53,15.36 44.32,44.75 44.32,76.15l0 140.28 -16.79 9.35zm-22.83 -33.4c-2.69,-8.69 -4.03,-17.37 -4.03,-26.05l0 -139.61 11.42 -6.68c-3.36,-4.01 -8.06,-7.35 -12.09,-10.02l-8.06 4.01 0 134.94c0,16.03 4.7,30.73 12.76,43.42zm-22.83 76.82l123.56 -70.81 0 -156.98c0,-32.06 -17.46,-60.79 -44.99,-76.16l-15.44 -8.68 -122.89 70.14 0 157.65c0,31.4 17.46,60.79 44.99,76.16l14.78 8.68zm17.46 17.37l123.56 -70.81 0 -156.98c0,-16.7 -4.7,-32.73 -13.43,-46.1 3.36,9.36 4.7,18.71 4.7,28.73l0 162.33 -129.6 74.15 14.77 8.68zm-28.88 -44.75c-19.47,-12.69 -30.89,-34.07 -30.89,-57.45l0 -147.63 8.73 -4.68 0 152.3c0,21.38 8.06,42.08 22.16,57.45zm91.33 -38.08l0 -127.59c0,-26.72 -10.74,-52.77 -28.2,-72.14 22.83,17.37 36.93,42.75 36.93,72.14l0 122.25 -8.73 5.34zm300.84 -11.36c-2.68,-8.69 -4.03,-17.37 -4.03,-26.05l0 -192.39 -8.73 4.68 0 170.34c0,16.03 4.7,30.73 12.76,43.42zm-122.22 0c-2.69,-8.69 -4.03,-17.37 -4.03,-26.05l0 -192.39 -8.73 5.34 0 169.67c0,16.03 4.7,30.73 12.76,43.42zm-5.37 94.19l63.12 -36.07c-4.03,-3.34 -6.71,-7.35 -10.07,-12.03l-67.82 39.41 14.77 8.68zm104.76 -17.37l123.56 -70.81 0 -241.82 -61.11 34.74 0 225.12 -16.79 9.35c-27.53,-15.36 -44.32,-45.42 -44.32,-76.82l0 -192.39 -61.11 34.74 0 193.05c0,10.02 1.34,20.04 4.7,28.73l-21.49 12.69c-27.53,-15.36 -44.32,-45.42 -44.32,-76.82l0 -192.39 -61.11 39.41 0 188.38c0,31.4 17.46,60.79 45,76.16l14.77 8.68 73.87 -42.08c12.09,22.05 24.85,28.73 48.35,42.08zm17.46 17.37l123.57 -70.81 0 -241.82 -8.73 4.68 0 225.12 -129.6 74.15 14.77 8.68zm62.45 -82.83l0 -202.41 8.73 -4.68 0 201.74 -8.73 5.34zm-213.55 38.08c-19.48,-12.69 -30.89,-34.07 -30.89,-57.45l0 -179.02 8.73 -5.34 0 184.37c0,21.38 8.06,42.08 22.16,57.45zm122.22 0c-19.48,-12.69 -30.89,-32.06 -30.89,-57.45l0 -183.03 8.73 -4.68 0 187.71c0,23.38 5.37,38.75 22.16,57.45zm391.5 -40.75c-2.02,-8.69 -3.36,-17.37 -3.36,-26.06l0 -116.23c0,-16.7 -4.7,-32.73 -13.43,-46.1 3.36,9.36 4.7,18.71 4.7,28.73l0 116.23c0,16.03 4.7,30.73 12.09,43.42zm-125.57 85.5l0 -259.85 11.42 -6.68c-3.36,-4.01 -8.06,-7.35 -12.09,-10.02l-8.06 4.01 0 267.2 8.73 5.34zm88.64 -17.37l60.44 -34.74c-27.53,-15.36 -44.32,-45.42 -44.32,-76.82l0 -116.23c0,-32.06 -17.46,-60.79 -44.99,-76.16l-15.44 -8.68 -61.78 35.4 0 -35.4 -61.11 34.74 0 243.16 61.11 34.74 0 -259.85 16.79 -9.35c27.53,15.36 44.32,44.75 44.32,76.15l0 116.9c0,31.4 16.79,60.79 44.99,76.15zm17.46 17.37l60.43 -34.74c-5.37,-2.67 -9.4,-6.01 -14.1,-9.35l-60.44 34.74c4.7,3.34 8.73,6.68 14.1,9.35zm-17.46 -37.41c-17.46,-13.36 -27.53,-34.07 -27.53,-56.11l0 -116.9c0,-26.72 -10.74,-52.77 -28.2,-72.14 22.83,17.37 36.93,42.75 36.93,72.14l0 116.9c0,20.04 7.39,40.08 20.15,55.44l-1.34 0.67zm-141.02 -20.04l-8.73 -4.68 0 -223.12 8.73 -4.68 0 232.47zm192.88 -366.09c-26.36,-4.98 -34.28,7.2 -54.26,17.24 -39.11,19.65 -74.45,-40.96 -118.61,-15.62 -10.56,6.06 -41.16,24.92 -44.1,35.15 10.86,14.92 28.26,-2.76 87.3,27.72 7.29,3.76 20.06,10.53 27.62,13.06l10.32 4.86c32.93,-23 95.94,-64.52 96.88,-67.49 3.55,-3.57 4.19,-8.54 6.29,-12.8l-11.43 -2.11zm0.32 3.71l5.6 0.92c-0.63,2.49 -1.71,6.15 -3.72,7.54l-94.64 65.56 -4.7 -2.03c24.97,-20.52 57.93,-42 84.11,-59.83 8.24,-5.59 11.03,-5.48 13.35,-12.17z"/>
 </g>
</svg>
