<?xml version="1.0" encoding="UTF-8"?>
<!DOCTYPE svg PUBLIC "-//W3C//DTD SVG 1.1//EN" "http://www.w3.org/Graphics/SVG/1.1/DTD/svg11.dtd">
<!-- Creator: CorelDRAW 2021 (64-Bit) -->
<svg xmlns="http://www.w3.org/2000/svg" xml:space="preserve" width="39.9832mm" height="21.8395mm" version="1.1" style="shape-rendering:geometricPrecision; text-rendering:geometricPrecision; image-rendering:optimizeQuality; fill-rule:evenodd; clip-rule:evenodd"
viewBox="0 0 1302.92 711.68"
 xmlns:xlink="http://www.w3.org/1999/xlink"
 xmlns:xodm="http://www.corel.com/coreldraw/odm/2003">
 <defs>
  <style type="text/css">
   <![CDATA[
    .fil1 {fill:#19171A}
    .fil0 {fill:#F8DEE2}
   ]]>
  </style>
 </defs>
 <g id="Слой_x0020_1">
  <metadata id="CorelCorpID_0Corel-Layer"/>
  <g id="_1592502866464">
   <path class="fil0" d="M1032.78 405.87l-2.7 -12.58c2.36,-2.79 -9.44,-63.69 -8.35,-68.03l4 -18.26c0.18,-1.23 0.66,-3.51 0.71,-4.99 0.46,-13.26 -28.04,-34.12 -32.68,-31.95l-13.53 -12.43c1.26,-1.32 2.25,-2.15 3.16,-4.39 -4.16,0.15 -2.1,0.46 -5.74,1.78 -0.17,-4.41 -1.08,-5.01 -6.99,-6.76 -14.5,-4.28 -7.71,0.35 -11.28,-14.48 -0.84,-0.87 -48.37,-14.01 -54.27,-15.07 -17.64,-3.14 -43.14,2.36 -59.02,6.28 -26.59,6.57 -49.05,1.59 -61.27,3.74 -1.9,0.34 -0.33,0.43 -3.43,0.36 -2.88,-0.06 -0.43,-1 -2.56,-0.1l-2.13 1.12c-3.56,2.39 -55.1,11.91 -56.17,9.91 -0.08,-0.15 -0.3,0.31 -0.47,0.44 -10.5,-1.6 -31.23,3.12 -43.35,5.12l-14.19 1.54c-0.08,0.02 -0.3,0.13 -0.38,0.16l-3.73 0.84c-15.72,2.57 -19.86,1.89 -36.55,5.55 -8.84,1.94 -1.54,3.47 -25.24,7.39 -9.24,1.53 -5.42,-2.29 -12.65,2.35 -4.49,2.88 -4.56,-0.4 -14.3,2.67 -4.14,1.31 -3.4,0.87 -6.42,0.68 -7.2,-0.44 -3.27,0.89 -8.92,2.66l-10.05 2.13c-4.76,1.35 -7.89,2.65 -13.43,3.7 -30.47,5.79 -60.31,6.59 -87.53,11.43 -18.16,3.23 -40.68,5.37 -59.3,7.21 -10.24,1.02 -20.57,3.05 -28.64,5.46l-25.82 6.74c-9.66,1.97 -18.03,4.77 -28.34,5.39 -5.1,0.31 -11.91,0.55 -16.03,0.67 -10.02,0.29 -9.64,-3.94 -10.31,-5.48 2.34,-0.93 8.43,-2.41 11.71,-3.26l60.39 -11.15c9.3,-0.62 8.04,-2.46 16.95,-3.46l4.99 -1.72c-1.82,-1.33 -1.51,-1.28 -4.78,-1.15 3.89,-1.6 2.02,-0.99 1.71,-2.01 -2.88,-0.93 -10.31,0.97 -14.96,1.17 -5.36,0.23 -11.53,-0.02 -16.77,0.51l-43.71 6.8c-4.98,0.65 -11.12,0.59 -15.64,1.19 -9.71,1.3 -19.4,2.22 -28.61,5.14 -22.1,7.01 -45.22,7.67 -54.97,12.24 -3.71,1.74 -8.2,2.54 -10.89,6.15 -2.86,3.85 -4.5,6.06 -4.76,12.07 -0.6,13.78 -1.08,13.1 11.24,19.01 0.32,0.15 2.18,0.8 2.62,1.02 -1.04,10.16 -14.45,5.21 -19.38,7.25 -3.02,9.12 10.3,11.32 16.53,13.36 2.78,0.91 9.03,3.53 10.95,4.01 12.17,3.02 17.14,-0.59 12.01,12.8l-1.23 3.35c-1.93,2.13 -7.38,2.32 -10.34,2.55l-35.43 1.47c-43.58,1.41 -24.36,-5.07 -34.34,-16.33l-42.06 90.47 -1.49 2.51c-1.39,2.31 -2.73,3.52 -5.89,4.2l-12.65 4.32c-8.66,1.94 -23.59,3.06 -33.84,3.2 -16.59,0.22 -14.61,1.37 -22.59,10.73 -1.88,2.21 -0.2,-0.03 -1.9,2.73 -0.51,0.83 -0.83,1.34 -1.42,2.33 -1.42,2.37 -1.67,3.55 -2.78,5.66 -1.09,2.07 -5.73,7.43 -2.4,10.24 1.62,1.91 8.94,1.42 11.64,0.53 3.77,-1.24 4.42,-0.45 5.75,-5.04l6.01 0.69c-0.71,-2.87 -0.92,-1.65 3.35,-3.59 10.72,-4.89 21.51,-4.24 21.44,4.34 -0,0.17 -0.27,1.89 -0.46,2.33 -1.84,4.41 -1.17,1.61 -3.63,3.34l-2.82 2.5c-2.62,1.73 -0.99,0.51 -4.37,1.35 -3.98,1 -4.43,1.59 -9.56,2.51 -7.63,1.37 -7.67,3.75 -5.46,9.59 0.97,2.57 0.82,2.37 1.93,4.33 12.57,1.73 13.35,-2.43 22,-0.26 -0.66,3.08 -0.53,6.8 -1.77,9.96l3.47 2.41c1.41,1.15 1.58,1.05 1.97,2.64 1.51,5.97 -5.4,6.98 -8.23,9.85 -2.84,2.88 -5.63,6.24 -10.55,8.29 -28.57,11.93 -11.79,13.46 -11.73,23.78 -5.25,-0.05 -11.56,-0.91 -16.5,0.31 -0.06,6.8 8.66,5.2 15.54,5.19 14.27,-0.02 13.03,16.49 19.22,22.92 14.52,15.14 9.2,8.94 9.06,21.19 -0.11,9.99 10.42,14.07 12.27,18.31 3.56,8.21 1.46,14.78 7.89,25.85 1.61,2.78 0.51,2.92 3.05,5.04 2.42,-1.29 2.5,-0.29 2.19,-2.88l-1.76 -3.88c4.89,-2.96 8.56,-10.2 16.96,-5.49l8.47 5.4c0.15,-0.17 0.31,-0.46 0.37,-0.59 0.06,-0.12 0.27,-0.43 0.33,-0.57 0.07,-0.14 0.22,-0.42 0.28,-0.58l0.6 -3.21c4.49,-2.7 2.13,1.06 6.12,-3.96 2.43,-3.05 2.23,-3.13 7.48,-2.55l0.57 6.18c0.07,0.22 0.18,0.46 0.27,0.66l3.81 5.55c2.11,2.92 10.76,4.87 14.8,5.56 7.13,1.2 8.59,-11.68 8.4,-16.56 -1.88,-0.57 -3.32,-1.35 -5.77,-1 -3.91,0.56 0.2,0.71 -5.55,1.96 0.89,-5.95 3.99,-7.02 7.4,-11.44 4.34,-5.62 2.98,-4.31 9.7,-7.32 4.43,-1.98 0.62,-2.03 5.91,-2.16 6.22,-0.15 6.58,2.96 12.55,4.35 2.36,0.55 4.75,0.66 7.51,0.67 1.88,3.02 3.2,5.13 3.23,9.75 0.03,5.47 -1.43,6.39 -3.43,9.63 -6.39,10.41 -6.34,4.21 -10.9,8.73 -2.79,2.77 -1.1,4.41 -1.03,4.61 2.29,0.99 3.95,-0.22 6.14,-1.26l2.09 1.53c1.59,1.4 0.82,-0.06 1.84,2.05 -1.98,3.88 0.27,2.83 -4.03,3.72 -5.94,1.22 -10.32,1.32 -2.02,11.35 6.79,-0.11 9.13,-3.26 11.25,-7.93 2.32,-5.13 6.73,-4.46 6.33,-11.79 -0.22,-4.2 -1.96,-5.45 -2.77,-8.47 5.09,-2.15 2.44,-0.31 5.19,-4.65 2.4,-3.8 2.63,-2.35 6.95,-4.27 9.07,-4.03 3.15,2.48 12.06,-1.1 -1.29,-3.47 -2.96,-1.65 -5.35,-3.79 -1.63,-1.45 -1.78,-3.12 -1.74,-5.86 5.12,-4.47 16.17,-6.24 24.82,-5.73l5.34 7.94c4.08,-1.74 3.45,-7.12 4.6,-11.39 0.04,-0.14 0.69,-2.14 0.73,-2.25 1.59,-4.55 15.2,-7.08 20.9,-7.06 14.39,0.05 10.66,7.03 15,9.53 5.77,3.34 18.79,-7.78 18.24,4.63 -4.75,1.7 -10.47,1.74 -15.45,4.07 -4.93,2.31 -5.57,5.14 -2.5,9.27 1.55,2.09 1.71,3.27 3.34,5.13 3.06,3.5 7.92,3.74 10.42,7.49l20.9 -13.89c3.61,-1.32 15.7,-10.93 22.34,-14.02 2.92,-1.36 5.46,-3.04 8.4,-4.15 3.11,-1.17 8,-4.28 11.29,-1.15 0.15,0.14 0.36,0.36 0.52,0.51 0.15,0.14 0.35,0.34 0.51,0.48 5.43,4.74 9.23,6.02 1.35,12.18l-10.58 10.03c-2.27,2.65 -3.52,3.11 -4.17,6.07 12.16,-0.31 18.52,-3.99 28.56,-5.46 13.5,-1.96 10.71,5.47 31.63,-0.07l9.55 -2.59c2.98,-1.13 3.58,-1.35 6.09,-1.75l8.7 0.19c3.1,0.54 2.36,0.59 5.62,0.91l11.88 2.13c-3.09,0.92 -1.4,0.86 -4.75,1.67l-13.84 3.12c-4.12,0.45 -6.42,-0.54 -9.02,1.19 -2.82,1.87 -6.84,5.57 -10.78,7.24 -0.1,0.04 -4,1.34 -4.11,1.36 -11.13,2.93 -13.38,6.02 -22.26,11.82 -0.19,4.27 1.75,5.1 4.22,8.31 5.65,7.35 20.92,-0.66 27.73,-2.57 12.59,-3.53 23.74,-9.7 36.63,-12.5 11.32,-2.46 3.8,-6.43 18.61,-11.22l1.45 -0.59c0.13,-0.31 0.5,-0.2 0.7,-0.35 -5.06,-4.62 -5.82,0.59 -11.28,-3.56 0.93,-2.12 0.16,-1.01 2.37,-2.2 3.07,-1.65 7.92,-2.24 10.83,-2.42 7.1,-0.46 14.63,-0.48 19.99,4.19 6.88,6.01 -0.07,2.92 11.03,6.09 4.85,1.39 -1.19,0.99 2.95,3.15 8.83,1.3 20.55,2.45 28.44,4.76 29.15,8.54 54.53,2.39 82.34,-5.74 3.37,-0.98 8.4,-3.07 12.13,-4.46 4.65,-1.73 7.81,-3.31 11.16,-4.72 7.44,-3.14 16.21,-5.37 23.55,-8.43 9.17,-3.83 18.54,-9.43 27.36,-13.7 4.42,-2.13 10.07,-3.61 12.14,-8.75 0.09,-0.22 0.18,-0.59 0.25,-0.77 1.34,-3.72 0.15,2.07 0.4,-1.67 -3.84,-2.44 -0.13,1.02 -3.17,-1.45 -1.99,-1.61 0.8,-0.26 -2.15,-2.16 -2.91,-1.87 -21.42,0.14 -24.17,0.63 -10.55,1.85 -22.52,4.02 -32.97,6.35 -10.52,2.35 -20.29,4.87 -30.72,6.72 -6.69,1.18 -16.22,2.33 -23.02,-0.04 -0.71,-0.24 -1.34,-0.45 -2.06,-0.75l-4.3 -2.31c-2.06,-1.28 -1.03,-0.32 -2.75,-2.04l1.37 -0.93c9.19,-5.58 21.74,-7.41 31.77,-11.59l5.06 -1.6c8.86,-2.67 13.01,-5.99 26.1,-9.24l2.53 -0.71c1.43,-0.81 7.29,-5.4 14.68,-9.23 4.58,-2.38 4.63,-0.29 8.16,-4.93l4.77 -5.6c12.05,-11.9 29.85,-15.48 45.27,-21.36 2.46,-0.93 2.27,-1.22 4.27,-2.16 1.22,-0.58 3.54,-1.43 4.64,-1.86l72.04 -24.86c1.3,-0.54 1.24,-1.03 3.88,-2.49 7.97,-4.44 17.13,-9.04 26.17,-12.3 3.42,-1.24 5.77,-2.84 8.99,-4.09 4.25,-1.64 5.72,-0.89 10.17,-3.01l5.89 -3.42c7.16,-4.52 86.52,-5.66 91.93,-7.14 -1.1,-2.02 0.82,-2.59 -1.79,-1.63l4.17 -0.19 -9.93 -6.81c-10.94,-4.25 -9.4,-6.69 -10.43,-9.4 3.64,-1.96 7.98,2.41 12.23,5.32 0.74,-1.23 13.36,-3.08 15.39,-4.39 23.26,11.59 53.48,-29.26 77.68,-35.15 8.35,-2.03 17,-2.52 25.34,-4.76 18.59,-5.01 44.94,-11.9 63.46,-11.25 7.78,0.27 5.99,2.14 4.58,6.73 4.47,0.98 19.92,-1.52 24.8,-3.06 23.2,-7.34 48.17,-11.14 71.31,-18.49l22.95 -7.91c14.01,-6.03 32,-9.34 46.34,-13.79 4.44,-1.38 7.34,-2.05 11.61,-3.39l11.38 -3.56c-0.8,-0.8 2.5,-3.02 -6.93,-0.44 -16.1,4.39 -33.97,7.19 -49.34,13.55 -2.09,0.86 -2.63,1.34 -5.5,2.21 -5.18,1.58 -6.7,2.08 -11.42,1.63 -3.93,-0.37 -0.59,0.03 -4.8,1.64l-17.63 5.03c-1.42,-1.95 -1.86,-4.43 -1.89,-6.89 5.32,-2.64 12.28,-4.37 18.11,-6.32 1.35,-0.45 1.08,-0.28 2.4,-0.55 5.81,-1.18 8.1,-1.71 8.15,-5.63 -9.96,4.32 -12.02,1.8 -19.22,5.31 -4.21,2.06 0.69,1.26 -4.76,1.85 -5.09,0.55 -12.17,-0.4 -14.81,-3.64 -2.27,3.28 -0.19,1.67 -3.99,3.51l-2.17 -2.54c-0.13,-0.13 -0.31,-0.35 -0.46,-0.47l-3.09 -1.45c-4.46,-1.16 -5.5,-3.2 -10.14,-1.94l-3.95 -4.67c-0.15,-0.12 -0.37,-0.29 -0.52,-0.42l-4.13 -4.28c5.97,-11.37 15.74,-10.2 26.78,-13.97 3.74,-1.27 6.44,-1.74 9.6,-3.41 1.05,-7.93 -5.99,-7.96 -11.93,-8.72 -10.7,-1.38 -8.9,-1.19 -18.57,0.56 -5.11,0.92 -7.98,1.81 -12.49,4.37l-16.34 7.82c-5.48,1.63 -7.47,3.55 -10.78,4.15 -8.92,1.64 -13.73,3.52 -20.28,9.22 -5.1,4.44 -13.44,1.04 -12.63,23.63 1.68,-0.02 4.36,-0.33 5.69,-0.32l16.47 1.33c0.48,-0.14 2.8,-2.49 1.33,0.48l-2.03 3.19c0.23,0.21 0.9,0.68 1.09,0.81 0.13,0.09 0.41,0.27 0.55,0.37l2.12 1.22c-3.17,2.88 -3.67,1.23 -7.19,1.54 -0.12,0.01 -0.39,0.1 -0.51,0.11 -5.15,0.51 -4.93,-1.95 -11.39,-0.81 -2.46,0.44 -4.48,0.97 -5.73,0.89l-17.48 1.53c1.93,-3.43 1.4,2.04 2.9,-4.77 -3.43,0.9 -3.98,0.51 -4.78,3.97 -0.64,-4.67 -1.24,-3.11 -3.72,-4.85 -8.14,-5.71 -4.47,-0.23 -9.46,-4.49 -1.24,-1.06 -0.71,-0.84 -2.18,-1.7 -0.11,-0.06 -1.87,-0.72 -2.51,-1.11 0.07,-3.32 0.49,-1.33 0.16,-3.32 -0.47,-2.8 0.26,0.41 -0.58,-1.58l-0.58 -0.93c2.98,-0.62 3.98,-2.22 7.25,-3.86 13.21,-6.61 6.43,-1.96 19.01,-11.99l7.68 -6.56c-0.2,-0.22 -0.48,-0.46 -0.63,-0.63l-2.06 -2.37c-2.03,-2.34 -0,-1.22 -2.63,-2.33 -6.05,-2.55 -16.74,3.06 -21.53,6.59l-3.95 3.54c-3.61,2.4 -20.42,1.58 -23.14,0.16l-0.94 2.83 -3.08 -3.19c-0.13,-0.15 -0.32,-0.37 -0.45,-0.52l-2.1 -2.13c-1.74,1.55 -0.19,-0.36 -1.64,1.63 -0.18,0.25 -1.12,0.76 -1.42,4.17z"/>
   <path class="fil1" d="M924.54 436.48c1.25,-47.58 40.42,-115.37 82.99,-135.2 4.63,-2.17 19.7,-11.37 19.23,1.89 -2.17,60.33 -63.28,96.25 -102.22,133.31zm35.06 -163.69c-75.1,59.06 -136.14,208.17 -4.61,241.99 43.3,8.26 85.89,-6.93 123.39,-27.89 0.14,-0.08 56.47,-31.55 31.89,-32.42 -13.14,-0.46 -44.87,6.24 -63.46,11.25 -30.73,8.29 -70.69,14.16 -99.7,-0.29 -5.63,-2.81 -15.05,-8.04 -17.07,-13.2 3.15,-3.43 5.72,-2.01 14.27,-4.78 9.5,-3.08 18.89,-5.25 27.85,-9.48l36.91 -20.27c28.82,-22.75 46.33,-36.6 61.57,-74.49 15.24,-37.9 2.54,-76.03 -18.52,-87.41 -21.05,-11.39 -49.26,-17.04 -92.53,16.99zm-289.54 246.9c-0.41,8.87 -2.3,31.74 1.6,33.42 3.9,1.68 8.22,-1.89 11.47,-6.9 17.56,-27.03 27.58,-67.97 37.33,-99.63 10.21,-0.12 166.81,138.01 287.47,128.83 10.52,-0.8 19.88,-1.58 29.16,-4.07 9.27,-2.5 27.62,-7.58 25.21,-11.09 -2.41,-3.51 -23.76,-3.97 -37.5,-6.65 -13.75,-2.68 -56.7,-14.04 -91.16,-30.89 -34.46,-16.85 -165.48,-103.72 -166.56,-107.96 1.51,-2.02 25.19,-13.7 29.75,-16.38 57.58,-34.6 133.43,-79.03 157.37,-145.12 13.59,-44.99 13.45,-59.51 -0.63,-94.96 -14.08,-35.45 -47.99,-62.39 -55.58,-55.11 -4.95,4.66 0.79,16.41 3.08,20.42 3.36,5.92 5.75,11.88 8.79,18.25 15.79,33.13 12.75,55.5 1.82,88.34 -11.54,34.66 -82.86,89.34 -124.59,115.36 -10.97,6.49 -33.27,18.69 -41.99,21.05 2.23,-7.83 7.13,-24.19 9.47,-34.09 17.14,-72.54 46.81,-215.67 52.25,-256.04 5.44,-40.37 2.73,-77.72 -6.32,-76.46 -9.04,1.25 -18.13,18.81 -36.63,83.36 -18.5,64.54 -88.17,314.86 -93.8,436.3zm-64.3 -222.77c-1.48,43.94 -86.1,257.41 -151.71,208 -22.75,-17.12 12.47,-83.44 24.47,-101.58 22.36,-33.79 86.72,-108.14 127.24,-106.43zm-465.48 245.39c24.86,18.37 61.27,28.88 98.47,28.46 49.54,-0.57 96.3,-23.02 132.08,-56.74 11.49,-10.82 13.69,-12.57 23.89,-23.9 14.63,-16.26 3.93,2.22 14.06,27.38 12,29.79 45.49,43.31 78.58,39.06 54.43,-6.98 85.18,-66.68 93.39,-66.65 2.41,4.89 -1.36,38.25 25.3,45.69 25.43,7.1 51.57,-14.11 54.48,-14.53 1.88,-2.93 4.77,-4.74 6.44,-8.99 -9.1,-2.47 -50.72,12 -53.95,-0.22 -12.73,-48.14 29.37,-158.67 46.96,-226.88l-45.78 -11.93 -4.29 5.75c-3.96,0.2 -13.65,-1.52 -26.29,-0.66 -65.91,4.45 -142.52,80.28 -166.45,137.97 -2.53,6.11 -5.32,12.68 -8.25,18.83 -3.91,8.22 -7.46,9.54 -13.15,15.02 -60.9,46.19 -86.94,76.25 -171.1,75.27 -23.03,-0.26 -59.8,-20.17 -72.88,-37.61 -27.32,-36.39 -26.64,-77.43 -24.55,-109.19 2.09,-31.77 16.96,-62.22 20.82,-70.29 35.58,-74.26 111.42,-144.43 172.01,-172.84 60.6,-28.41 126.63,-35.25 169.79,-36.53 43.16,-1.28 76.15,4.68 80.2,0.7 5.03,-4.94 -1.57,-10.62 -6.34,-11.55 -93.89,-18.34 -157.76,-17.53 -253.85,12.6 -96.09,30.13 -196.23,114.46 -222.33,229.16 -26.1,114.69 -0.74,173.1 52.72,212.63z"/>
  </g>
 </g>
</svg>
