<?xml version="1.0" encoding="UTF-8"?>
<!DOCTYPE svg PUBLIC "-//W3C//DTD SVG 1.1//EN" "http://www.w3.org/Graphics/SVG/1.1/DTD/svg11.dtd">
<!-- Creator: CorelDRAW 2021 (64-Bit) -->
<svg xmlns="http://www.w3.org/2000/svg" xml:space="preserve" width="54.6192mm" height="31.9486mm" version="1.1" style="shape-rendering:geometricPrecision; text-rendering:geometricPrecision; image-rendering:optimizeQuality; fill-rule:evenodd; clip-rule:evenodd"
viewBox="0 0 3046.37 1781.92"
 xmlns:xlink="http://www.w3.org/1999/xlink"
 xmlns:xodm="http://www.corel.com/coreldraw/odm/2003">
 <defs>
  <style type="text/css">
   <![CDATA[
    .fil0 {fill:#19171A}
    .fil1 {fill:#CD9B20}
   ]]>
  </style>
 </defs>
 <g id="Слой_x0020_1">
  <metadata id="CorelCorpID_0Corel-Layer"/>
  <g id="_1592661333696">
   <path class="fil0" d="M1104.86 1753.21c22.54,1.43 85.46,-15.43 108.59,-21.86 59.97,-16.68 126.54,-48.71 178.81,-82.26 16.24,-10.41 43.33,-27.2 57.7,-39.83 6.37,-5.61 15.02,-14.7 19.14,-12.23 4.58,5.42 -15.78,21.63 -31.2,32.66 -11.24,8.07 -27.54,21.25 -39.44,28.06 -20.48,11.71 -15.72,11.08 -42.63,24.47 -47.39,23.58 -92.49,45.1 -144.6,57.54 -17.65,4.21 -33.84,11.29 -52.04,14.51 -18.46,3.27 -45.36,13.07 -55.33,11.07 -17.1,-9.92 -15.62,-18.92 -26.36,-36.98 -43.48,-73.05 -56.94,-129.87 -44.45,-216.53 5.1,-35.36 16.98,-52.04 26.13,-74.11 4.45,-10.71 7.61,-14.75 11.74,-23.05l23.96 -45.34c29.48,-3.44 177.61,40.36 211.74,51.84 28.08,9.47 69,25.61 92.99,39.39l58.22 41.9c7.61,5.5 18.47,16.14 11.56,22.16 -3.01,2.42 -28.8,-20.27 -36.25,-25.91 -57.91,-43.72 -55.75,-37.77 -126.21,-66.39 -31.73,-12.9 -61.8,-23.99 -96.85,-31.73 -26.73,-5.91 -81.59,-20.24 -109.35,-18.76 -12.26,14.85 -31.72,58.07 -42.25,80.96 -28.18,61.26 -25.67,148.85 1.66,209.27 12.98,28.7 27.39,56 44.73,81.15zm487.22 -230.87c-5.87,-9.86 43.98,-50.48 66.18,-63.03 27.2,-15.37 53.02,-29.32 84.17,-41.25 28.28,-10.83 173.98,-54.31 198.95,-53.91 14.88,22.1 31.27,58.21 42.51,85.35 29.7,71.66 19.38,144.26 -2.63,217.89 -4.8,16.08 -9,32.66 -17.02,47.9 -24.89,47.26 -25.61,50.59 -76.95,33.27 -17.21,-5.82 -30.63,-7.43 -48.57,-14.8l-94.22 -34.42c-60.63,-29.22 -67.76,-28.18 -123.03,-70 -6.19,-4.67 -10.79,-9.09 -18.23,-14.06 -5.96,-3.97 -15.65,-8.23 -12.64,-15.22 2.47,-5.33 15.82,2.62 21.77,8.13 11.82,11 35.79,26.42 51.59,39.53 19.98,16.57 54.59,33.81 78.79,43.24 25.27,9.83 167.57,61.49 186.28,56.5 7.65,-2.04 12.76,-11.41 15.77,-16.74 28.17,-49.97 44.4,-106.94 48.25,-164.56 3.25,-48.48 -0.65,-68.13 -15.76,-107.72 -13.89,-36.4 -32.41,-62.96 -39.87,-82.06 -11.95,-0.34 -89.72,17.94 -101.87,21.77 -13.72,4.33 -33.43,8.46 -47.51,12.74 -50.83,15.49 -132.4,51.24 -168.81,89.81 -6.24,6.6 -19.42,19.19 -27.16,21.64zm-506.48 259.58c34.16,-3.34 15.43,-0.42 59.4,-8.5 103.43,-24.48 189.67,-48.17 279.1,-111.91 57.39,-40.91 40.63,-36.83 104.39,-37.1 58.89,-0.26 51.05,-8.68 107.75,35.91 58.79,46.29 241.38,118.91 309.97,115.07 56.01,-81.24 74.63,-157.06 72.98,-254.8 -1.07,-62.9 -40.2,-113.1 -60.05,-157.32 -9.01,-20.05 -5.54,-22.24 -28.23,-15.62 -107.25,26.85 -181.58,42.45 -282.26,97.83 -30.91,17 -45.32,34.85 -61.13,47.29 -9.05,7.11 -36.51,3.47 -50.34,3.51 -92.28,0.22 -47.22,3.25 -119.34,-42.93 -55.27,-35.42 -277.38,-108.54 -330.19,-103.98 -16.75,21.87 -63.94,118.87 -69.94,151.52 -16.22,88.22 1.29,160.99 45.55,237.63 7.36,12.73 15.48,31.76 22.35,43.41zm-259.45 -253.4l-0.39 38.07 -691.91 0c-73.62,0 -133.86,-60.23 -133.86,-133.85l0 -1108.13c0,-73.62 60.24,-133.85 133.86,-133.85l357.74 0 -0.25 38.07 -348.42 0c-57.29,0 -104.14,46.86 -104.14,104.14l0 1091.41c0,57.29 46.85,104.14 104.14,104.14l683.23 0zm1392.63 -0.31l689.35 0.31c57.28,0.02 104.13,-46.85 104.13,-104.14l0 -1091.41c0,-57.28 -46.87,-104.16 -104.13,-104.14l-350.77 0.21 -0.08 -38.35 355.22 0.07c73.62,0.01 133.86,60.25 133.86,133.85l0 1108.13c0,73.6 -60.25,133.85 -133.86,133.85l-693.57 0 -0.15 -38.38zm-337.72 -888.95c7.84,4.85 35.36,13.66 45.28,11.54 13.99,-3 20.41,-22.67 26.73,-33.81 8.05,-14.21 39.4,-67.86 39.79,-82.57 -15.37,-14.69 -68.85,-22.82 -81.11,-21.89 -2.55,5.52 -30.92,120.52 -30.68,126.72zm373.53 594.81c0.68,-27.42 60.65,-87.21 70.24,-90.57 10.97,7.68 56.24,64.72 50.49,78.11 -8.79,20.46 -97.08,13.1 -120.73,12.46zm-863.29 -349.2c2.31,-26.12 57.99,-114.85 73.39,-99.71 10.93,10.77 -17.49,92.4 -73.39,99.71zm-535.53 125.14c-2.73,-37.71 25.39,-110.25 38.16,-140.77 9.35,-22.37 56.54,-115.03 84.31,-90.44 7.26,6.43 -10.16,59.13 -12.92,72.53 -7.65,37.07 -7.23,37.78 -25.15,63.82 -13.22,19.21 -67.43,92.28 -84.4,94.86zm1499.45 -56.22c-14.48,-29.28 -1.29,-79.22 8.46,-106.45 8.02,-22.42 34.87,-72.5 51.22,-74.69 -1.05,7.89 0.05,0.04 -1.92,4.98 -17.64,44.11 1.81,57.74 28.66,74.68 -1.77,21.89 -50.35,103.17 -86.42,101.49zm-1361.08 -204.77c-17.14,-3.85 -33.37,-38.37 -68.93,-29.16 -51.95,13.45 -105.09,118.86 -123.9,162.82 -32.96,77.02 -187,176.8 -232.49,114.55 -55.61,-76.14 60.08,-353.97 134.96,-407.37 65.46,-46.68 40.38,83.23 53.75,114.14 9.81,0.88 28.49,-8.6 36.06,-13.46 37.48,-24.07 49.75,-54.74 25.76,-93.54 -21,-34 -71.61,-85.02 -120.45,-72.65 -91.07,23.05 -152.42,125.68 -183.67,208.93 -18.15,48.35 -35.91,100.7 -40.21,157.79 -5.21,68.94 12.52,106.93 47.14,146.4 12.48,14.23 35.48,33.57 58.13,41.31 45.92,15.71 124.07,-26.23 157.66,-57.5 9.13,-8.5 26.28,-31.89 36.63,-34.47 -0.11,30 11.76,45.36 27.51,61.6 15.69,16.16 36.13,35.91 59.1,19.96 17.06,-11.85 31.96,-27.51 44.71,-44.07 6.34,-8.23 27.73,-46.04 37.5,-47.94 1.22,36.35 -0.92,44.94 18.27,70.92 14.04,19 31.29,35.07 55.45,22.92 20.69,-10.39 35,-24.16 48.24,-40.59 20.39,-25.32 19.82,-32.99 29.49,-46.48 2.98,-4.15 1.24,-1.64 3.41,-3.84l3.02 -2.32c7.02,36.02 50.99,107.17 89.38,97.2 20.29,-5.27 42.48,-25.53 53.77,-39.14l38.42 -55.5c9.14,6.46 19.73,35.84 33.57,53.87 71.35,92.91 143.53,1.75 168.32,-0.16 8.58,12.21 21.74,38.6 34.74,41.63 32.18,-33.34 112.15,-295.37 128.08,-314.38 15.2,-1.1 23.85,5.32 33.67,12.45 14.39,10.46 9.45,13.89 2.79,28.65 -9.28,20.58 -17.81,39.05 -29.02,62.18 -17.84,36.78 -40.57,86.92 -50.8,128.73 -4.55,18.61 -2.57,23.59 7.06,34.78 18.23,21.17 50.29,58.61 82.16,44.17 54.53,-24.72 70.87,-81.72 86.23,-93.29 1.56,30.87 1.99,38.14 15.63,60.41 5.45,8.88 25.6,33.86 38.93,35.9 33.79,5.19 72.36,-45.36 84.76,-66.03 14.28,5.97 36.14,70 60.73,65.95 31.58,-14.55 38.64,-109.91 59.35,-145.65 13.45,-23.19 75.88,-104.25 92.61,-110.51 3.39,9.26 -10.88,45.63 -14.26,58.61 -5.32,20.43 -9.93,41.2 -14.55,61.55 -10.97,48.27 -22.32,80.19 14.48,114.6 14.22,13.3 24.75,31 53.95,16.51 34.56,-17.15 70.79,-68.72 87.95,-103.17 1.9,-3.81 4.79,-9.5 6.63,-12.58 13.68,-23.01 31.03,7.77 26.62,19.81 -12.05,14.89 -34.68,40.94 -40.24,66.27 -6.9,31.39 35.52,51.86 35.94,66.16 0.22,7.42 -45.87,43.8 -53.34,51.05 -10.17,9.88 -39.3,42.41 -45.72,58.49 -11.39,28.57 16.14,55.93 29.11,68.75 26.01,25.68 30.91,27.3 75.86,14.69 47.24,-13.26 96.57,-43.66 124.84,-83.81 10.06,-14.26 34.12,-53.28 17.74,-75.55 -11.32,-15.39 -50.76,-48.63 -48.91,-55.33 3.47,-12.46 71.41,-44.64 73.81,-62.95 -20.27,-13.08 -33.17,-6.22 -49.9,4.27 -24.51,15.35 -47.46,40.01 -63.87,27.16 -9.81,-7.68 -47.55,-44.44 -37.52,-56.57 5.98,-7.22 19.22,1.04 25.66,3.34 41.39,14.78 89.66,-29.48 109.6,-59.48 7.32,-11.01 18.51,-29.48 24.53,-42.56 10.03,-21.8 9.48,-41.9 21.76,-47.77 36.95,-17.67 45.65,-11.09 91.58,-45.28 13.54,-10.08 27.6,-17.2 28.5,-39.57 -30.15,0.47 -79.86,26.84 -122.06,25.96 -7.89,-10.83 -11.77,-32.86 -20.53,-48.48 -19.43,-34.65 -28.5,-5.39 -38.08,-3.25 -19.19,4.26 -32.3,-57.41 -95.53,13.03 -49.56,55.21 -50.53,97.21 -71.81,147.68 -6.59,15.66 -74.82,110.51 -94.04,113.94 -8.3,1.48 -3.26,0.49 -6.29,-1.11 -10.98,-22.3 26.96,-107.76 35.66,-130.06 7.42,-19.01 17.38,-40.01 24.67,-60.04 18.3,-50.25 29.5,-46.41 -5.48,-85.63 -31.28,-35.07 -51.35,-13.67 -79.4,11.74 -15.37,13.92 -76.07,89.96 -76.84,90.38l-1.21 -5.76c1.48,-22.78 28.41,-60.09 13.74,-80.8 -7.57,-10.7 -53.64,-34.32 -72.59,-32.34 -2.92,8.83 -4.48,37.58 -6.53,49.83 -8.84,53.05 -12.13,81.43 -40.01,127.28 -14.79,24.33 -81.81,117.23 -103.33,117.07 -4.99,-29.93 8.82,-71.49 15.77,-98.27 10.41,-40.08 16.21,-46.25 35.75,-79.16 7.33,-12.37 13.28,-24.06 19.02,-39.38 5.7,-15.2 13.48,-28.48 -1.48,-41.25 -18.15,-15.49 -42.79,-28.97 -67.37,-35.2l-9.9 -0.16c-4.38,10.94 -13.07,75.61 -17.73,95.36 -9.7,41.22 -12.83,48.84 -32.11,80.52 -9.19,15.1 -81.75,122.92 -106.06,116.62 -4.83,-31.53 42.35,-143.91 54.91,-176.67 4.81,-12.57 10.06,-29.95 16.09,-42.33 23.13,-47.49 -35.71,-44.63 -87.26,-77.18 0.18,-27.84 35.03,-43.3 24.61,-59.48 -6.69,-10.37 -35.9,-34.4 -56.54,-30.22 -18.12,3.66 -35.53,31.87 -44.07,46.76 -25.37,44.3 8.37,45.6 12.38,58.32 -0.21,14.16 -70.1,168.29 -81.83,187.02 -20.45,32.63 -114.87,130.91 -158.92,107.08 -8.68,-4.7 -9.69,-19.47 -9.74,-29.2 -0.08,-20.41 3.58,-41.25 10.37,-60.39 3.71,-10.48 7.98,-12.38 19.52,-14.85 36.26,-7.75 72.94,-22.06 98.78,-42.46 18.29,-14.45 54.72,-56.62 45.27,-94.13 -4.77,-18.91 -53.79,-54.6 -78.25,-63.5 -25.59,-9.32 -34.87,-3.18 -51.61,9.9 -41.45,32.41 -61.74,76.16 -84.85,125.77 -24.53,52.64 -48.9,86.74 -84.99,127.8 -6.61,7.54 -23.7,30.87 -39.08,28.02 -11.16,-23.37 19.96,-134.26 28.23,-160.58 5.83,-18.56 39.13,-134.62 45.8,-147.51l131.35 1.09c1.53,-14.52 -1.47,-29.47 -6.91,-40.72 -21.57,-6.93 -83.58,-0.47 -111.51,-1.78 2.78,-15.4 25.69,-65.37 20.75,-77.43 -4.85,-11.85 -40.87,-38.84 -56.86,-42.43 -11.6,12.41 -40.44,115.29 -46.3,120.18 -6.46,5.38 -64.22,4.91 -77.33,5.37l-79.32 -1.08c-2.04,13.63 2.64,25.51 9.92,33.15 12.11,12.71 106.03,1.39 130.95,6.04 1.24,6.53 -24.5,76.19 -28.87,89.81 -10.11,31.56 -17.78,60.67 -32.57,89.27 -19.48,37.65 -50.1,76.38 -77.41,104.85 -4.81,5.02 -22.17,29.99 -32.66,19.87 -11.81,-12.69 12.97,-88.62 18.62,-103.39 14.82,-38.75 45.4,-56.04 61.33,-127.17 4.5,-20.15 -8.72,-28.07 -21.66,-38.33 -8.72,-6.89 -27.31,-23.6 -39.62,-23.87 -22.73,-0.5 -21.53,21.48 -34.73,30.01z"/>
   <path class="fil1" d="M1104.86 1753.21c22.54,1.43 85.46,-15.43 108.59,-21.86 59.97,-16.68 126.54,-48.71 178.81,-82.26 16.24,-10.41 43.33,-27.2 57.7,-39.83 6.37,-5.61 15.02,-14.7 19.14,-12.23 4.58,5.42 -15.78,21.63 -31.2,32.66 -11.24,8.07 -27.54,21.25 -39.44,28.06 -20.48,11.71 -15.72,11.08 -42.63,24.47 -47.39,23.58 -92.49,45.1 -144.6,57.54 -17.65,4.21 -33.84,11.29 -52.04,14.51 -18.46,3.27 -45.36,13.07 -55.33,11.07 -17.1,-9.92 -15.62,-18.92 -26.36,-36.98 -43.48,-73.05 -56.94,-129.87 -44.45,-216.53 5.1,-35.36 16.98,-52.04 26.13,-74.11 4.45,-10.71 7.61,-14.75 11.74,-23.05l23.96 -45.34c29.48,-3.44 177.61,40.36 211.74,51.84 28.08,9.47 69,25.61 92.99,39.39l58.22 41.9c7.61,5.5 18.47,16.14 11.56,22.16 -3.01,2.42 -28.8,-20.27 -36.25,-25.91 -57.91,-43.72 -55.75,-37.77 -126.21,-66.39 -31.73,-12.9 -61.8,-23.99 -96.85,-31.73 -26.73,-5.91 -81.59,-20.24 -109.35,-18.76 -12.26,14.85 -31.72,58.07 -42.25,80.96 -28.18,61.26 -25.67,148.85 1.66,209.27 12.98,28.7 27.39,56 44.73,81.15zm487.22 -230.87c-5.87,-9.86 43.98,-50.48 66.18,-63.03 27.2,-15.37 53.02,-29.32 84.17,-41.25 28.28,-10.83 173.98,-54.31 198.95,-53.91 14.88,22.1 31.27,58.21 42.51,85.35 29.7,71.66 19.38,144.26 -2.63,217.89 -4.8,16.08 -9,32.66 -17.02,47.9 -24.89,47.26 -25.61,50.59 -76.95,33.27 -17.21,-5.82 -30.63,-7.43 -48.57,-14.8l-94.22 -34.42c-60.63,-29.22 -67.76,-28.18 -123.03,-70 -6.19,-4.67 -10.79,-9.09 -18.23,-14.06 -5.96,-3.97 -15.65,-8.23 -12.64,-15.22 2.47,-5.33 15.82,2.62 21.77,8.13 11.82,11 35.79,26.42 51.59,39.53 19.98,16.57 54.59,33.81 78.79,43.24 25.27,9.83 167.57,61.49 186.28,56.5 7.65,-2.04 12.76,-11.41 15.77,-16.74 28.17,-49.97 44.4,-106.94 48.25,-164.56 3.25,-48.48 -0.65,-68.13 -15.76,-107.72 -13.89,-36.4 -32.41,-62.96 -39.87,-82.06 -11.95,-0.34 -89.72,17.94 -101.87,21.77 -13.72,4.33 -33.43,8.46 -47.51,12.74 -50.83,15.49 -132.4,51.24 -168.81,89.81 -6.24,6.6 -19.42,19.19 -27.16,21.64zm306.82 -1272.43c-11.72,-0.78 -17,5.64 -31.66,7.74 -36.81,5.28 -78.94,0.78 -101.29,-28.96 -12.41,-16.53 -19.3,-44.87 -15.72,-71.47 10.45,-77.53 88,-85.65 138.23,-63.18 10.61,-24.14 19.65,-45.28 25.9,-62.87 -24.27,-14.04 -70.28,-19.54 -102.49,-15.25 -35.42,4.72 -86.02,18.68 -119.54,69.14 -27.59,41.54 -33.9,100.88 -18.03,143.93 28.01,75.98 88.18,99.6 165.48,97.52 5.92,-0.16 32.49,-3.2 38.47,-4.8 15.39,-4.11 20.86,-2.59 31.76,-11.72l-11.12 -60.09zm376.11 168.05c17.01,-4.09 44.54,-10.49 57.99,-19.74 50.46,-34.7 73.15,-99.09 94.3,-157.26 16.96,-47.26 32.77,-92.55 47.9,-140.36l-81.6 -0.89c-5.03,23.94 -19.12,117.54 -34.66,116.95 -15.55,-0.59 -30.46,-92.83 -35.3,-116.35l-85.97 0.04c1.12,14.6 46.01,115.51 54.82,138.69 23.16,60.98 43.65,70 2.95,96.99 -12.4,8.22 -19.65,8.17 -35.69,11.82 6.1,25.84 8.52,40.65 15.25,70.09zm-180.42 -317.65l-27.26 0.11 0.55 60.31 27.16 -0.03c5.78,50.72 -21.57,154.51 56.53,164.08 17.5,2.15 54.97,0.99 66.21,-6.2l0.72 -60.04c-31.1,-0.99 -44.88,11.03 -45.84,-24.4l-0.32 -73.27 47.49 0.01 -0.41 -60.29 -46.39 -0.3 -0.06 -58.29 -78.36 -0.72 -0.03 59.02zm-64.46 220.51l0.73 -220.16 -78.28 -0.01 -0.91 220.64 78.47 -0.48zm-56.86 -306.25c-36.55,11.48 -32.18,79.26 30.15,70.28 22.48,-3.23 34.86,-28.17 29.62,-45.84 -5.23,-17.67 -23.22,-35.92 -59.77,-24.45zm-1308.95 300.35c41.64,15.24 140.94,10.42 176.82,-9.29l-1.1 -160.75c-10.28,-0.11 -54.2,-0.76 -61.51,-0.84 -58.35,0.61 -61.93,-5.29 -61.51,14.26l0.48 40.68 45.19 -0.19c0.39,26.05 0.13,52.05 -0.3,57.89 -14.34,5.56 -38.41,2.67 -52.79,-0.52 -44.4,-9.85 -67.89,-63.44 -55.27,-112.94 15.14,-59.37 87.78,-65.82 138.05,-51.52l21.36 6.79 18 -65.78c-79.67,-23.76 -171.19,-24.46 -229.81,44.12 -66.96,78.31 -35.7,202.19 62.4,238.09zm814.77 -94.89c-3.55,-29.3 9.18,-52.94 28.23,-61.38 11.66,-5.16 25.17,1.73 32.58,7.57 8.71,6.86 12.55,17.65 12.79,32.62 0.52,32.26 2.12,53.61 -27.57,61.95 -27.53,7.73 -43.28,-18.05 -46.03,-40.76zm150.37 -220.02l-75.84 0 -2 107.71c-9.29,-0.09 -30.34,-15.62 -60.07,-12.25 -61.29,6.97 -93.09,58.86 -92.27,122.83 0.88,68.2 55.23,116.81 107.18,107.93 39.87,-6.81 37.84,-17.69 50.06,-20.01 4.98,5.85 3.09,9 6.01,15.14 7.78,2.13 40.12,0.48 53.88,0.78 2.65,0.06 6.24,0.26 8.82,-0.04 7.04,-0.83 3.15,0.45 6.64,-2.15 0.35,-0.5 -2.26,-286.92 -2.4,-319.93zm-600.19 223.53c-14.27,76.84 -79.11,47.38 -70.92,-26.04 6.24,-55.94 57.01,-55.06 67.8,-15.25 3.26,12.03 5.52,28.39 3.12,41.29zm80.17 8.8c4.95,-41.62 -0.09,-67.34 -19.26,-93.38 -53.42,-72.56 -199.11,-52.25 -212.6,49.81 -5.41,40.91 2.68,70.55 20.72,94.62 17.4,23.22 45.14,38.56 73.92,41.75 69.35,7.7 129.45,-27.45 137.22,-92.79zm180.93 0c-4.12,23.54 -26.08,46.85 -49.97,31 -21.21,-14.07 -24.44,-42.89 -18.85,-73.17 11.25,-60.87 84.28,-46.18 68.82,42.17zm81.48 0c8.59,-51.52 -13.65,-99.97 -49.95,-120.82 -27.28,-15.67 -68.39,-19.74 -99.12,-12.24 -41.65,10.17 -77.81,43.66 -83.18,89.14 -17.53,148.44 134.73,159.03 189.48,115.7 21,-16.63 37.15,-38.08 42.77,-71.78z"/>
  </g>
 </g>
</svg>
