<?xml version="1.0" encoding="UTF-8"?>
<!DOCTYPE svg PUBLIC "-//W3C//DTD SVG 1.1//EN" "http://www.w3.org/Graphics/SVG/1.1/DTD/svg11.dtd">
<!-- Creator: CorelDRAW 2021 (64-Bit) -->
<svg xmlns="http://www.w3.org/2000/svg" xml:space="preserve" width="37.7482mm" height="22.0053mm" version="1.1" style="shape-rendering:geometricPrecision; text-rendering:geometricPrecision; image-rendering:optimizeQuality; fill-rule:evenodd; clip-rule:evenodd"
viewBox="0 0 1014.88 591.63"
 xmlns:xlink="http://www.w3.org/1999/xlink"
 xmlns:xodm="http://www.corel.com/coreldraw/odm/2003">
 <defs>
  <style type="text/css">
   <![CDATA[
    .fil0 {fill:#613B15}
   ]]>
  </style>
 </defs>
 <g id="Слой_x0020_1">
  <metadata id="CorelCorpID_0Corel-Layer"/>
  <path class="fil0" d="M422.03 518.27c-2.51,1.15 -10.04,9.53 -12.01,12.29 -17.22,24.11 4.28,40.6 23.38,34.37 1.9,-0.62 6.38,-3 7.83,-3.88 3.24,-1.96 4.39,-3.44 6.8,-5.65 7.3,-6.71 2.34,-8.19 -2.51,-13.57l-16.83 -19c-1.67,-2.02 -3.53,-5.99 -6.66,-4.56zm3.5 -18.69c5.29,-1.14 11,-9.22 13.43,-13.98 3.62,-7.1 0.11,-16.02 -7.37,-17.05 -9.84,-1.36 -23.55,9.32 -6.05,31.02zm34.57 39.92c4.96,-4.15 6.94,-14.67 18.29,-10.36 2.86,2.37 -3.87,11.48 -5.38,13.85 -4.54,7.15 -3.89,7.4 1.67,12.08 4.14,3.48 6.83,6.68 10.46,10.04 1.65,1.53 9.74,7.86 8.57,10.3 -0.2,0.23 -11.76,3.57 -19.38,-3.88 -3.62,-3.54 -8.14,-8.78 -12.77,-12 -3.53,1.37 -6.55,6.9 -13.98,11.52 -5.92,3.68 -11.38,5.39 -19.66,6.62 -35.68,5.31 -52.01,-36.45 -19.79,-63.63 12.54,-10.58 4.83,-6.22 -2.15,-24.21 -5.86,-15.07 4.17,-29.05 16.24,-32.68 18.34,-5.53 34.99,9.93 28.18,31.83 -1.18,3.81 -3.21,5.83 -5.07,8.14 -12.21,15.18 -14.91,9.73 -3.91,21.7 2.34,2.55 3.8,4.6 6.15,7.04 2.52,2.62 3.72,4.02 6.12,7.07 2.24,2.85 3.41,5.51 6.41,6.57zm-12.27 -133.18c-1.21,-4.82 -1.09,-15.85 0.16,-19.98 1.15,-1.47 19.32,-1.46 20.66,-0.05 1.05,1.49 1.68,17.66 0.06,19.38 -1.78,1.91 -17.31,1.01 -20.88,0.65zm-15.7 -20.12c1.79,2.6 1.34,16.03 0.59,19.93 -3.94,0.63 -11.6,0.5 -15.81,0.41 -8.5,-0.19 -6.33,-1.29 -6.42,-10.27 -0.12,-11.64 -0.16,-10.54 5.66,-10.68 4.36,-0.1 12.84,-1.38 15.98,0.6zm183.23 16.18c-2.05,2.18 -3.75,4.7 -7.53,2.89l-12.9 -12.1c-2.05,-1.97 -5.39,-3.7 -4.12,-7.35 0.74,-2.12 3.9,-4.93 6.96,-3.62 1.81,0.77 4.68,4.68 6.23,6.28 5.41,5.57 10.81,8.02 11.35,13.91zm-356.52 -9.9c4.09,-3.93 8.14,-7.53 12.21,-11.85 1.97,-2.09 3.58,-5.55 8.12,-4.14 2.93,0.91 5.51,4.12 3.6,6.98 -0.72,1.08 -2.2,2.08 -3.11,2.85 -3.58,3.01 -12.28,14.29 -16.37,14.13 -3.61,-0.14 -4.76,-3.87 -4.46,-7.97zm369.83 -2.22c-1.68,1.33 -3.53,4.3 -6.97,3.19 -2.73,-0.88 -10.39,-9.5 -12.88,-11.99 -1.98,-1.97 -5.49,-3.74 -5.27,-7.03 0.19,-2.97 3.07,-5.47 6.97,-4.29 1.9,0.57 11.02,10.54 12.78,12.21 2.34,2.23 5.02,3.13 5.37,7.92zm-382.67 -5.68c-0.71,-5.87 1.83,-6.25 8.1,-12.11 2.91,-2.72 7.04,-8.46 11.38,-9.23 3.06,1.23 7.5,4.66 4,8.49l-11.31 10.69c-3.24,3.19 -5.94,9.35 -12.18,2.16zm222.79 -13.94l-21.38 0.58c-1.55,-4.99 -0.45,-16 0.23,-21.06 2.82,-0.11 19.45,-0.44 20.76,0.48 2.04,1.43 1.1,17.51 0.4,20.01zm-36.44 -19.85c1.48,2.62 0.73,17.84 0.19,20.09 -3.88,0.48 -18.56,0.9 -21.54,-0.2 -0.92,-2.48 -1.46,-18.91 0.45,-20.24 1.89,-1.32 19.05,-0.43 20.9,0.36zm-123.7 -6.61c3.79,-0.26 7.22,0.61 7.45,4.57 0.24,4.18 -16.34,18.38 -17.77,18.99 -2.95,1.24 -12.19,-2.26 -1.78,-11.36 2.11,-1.84 3.76,-3.91 5.79,-5.91 2.16,-2.14 3.84,-4.41 6.3,-6.29zm264.69 -6.54c6.76,-0.38 7.05,2.61 14.55,9.89 1.7,1.64 5.46,4.57 6.57,5.92 2.33,2.84 0.44,6.81 -2.43,7.96 -5.04,2.01 -13.42,-9.25 -16.67,-12.33 -0.94,-0.89 -2.97,-2.17 -3.63,-2.96 -2.83,-3.37 0.17,-6.54 1.61,-8.47zm-153.08 -35.38c-0.7,-4.21 -0.33,-9.38 0.72,-13.18 3.93,-0.17 9.15,-1.08 12.76,0.38 2.17,2.68 1.67,8.61 0.98,12.74 -3.39,2.54 -10.82,2.02 -14.46,0.06zm25.33 0.27c-0.67,-3.83 -0.93,-9.76 0.15,-13.45 4.54,-0.41 9.7,-0.54 13.74,0.32 3.61,12.49 -1.26,17.71 -13.88,13.13zm-0.11 -24.18c-0.7,-2.64 -0.99,-8.02 -0.53,-10.86 0.58,-3.63 3.61,-2.83 7.86,-3 5.66,-0.22 6.74,-0.83 7.22,4.57 0.35,3.86 0.3,6.47 -0.84,9.92 -4.58,0.67 -9.66,1.02 -13.71,-0.63zm-24.45 0.55c-0.1,-0.2 -0.19,-0.47 -0.24,-0.63l-0.41 -1.26c-0.66,-2.66 -1.01,-8.99 0.83,-11.09 2.06,-2.36 9.74,-1.54 12.89,-0.93 1.13,3.77 1.9,9.83 0.4,13.51 -3.31,1.65 -10.06,1.24 -13.48,0.4zm-124.79 -200.9c5.28,5.7 8.74,8.13 12.77,12.17 2.67,2.67 0.92,5.9 -1.57,7.22 -5.63,2.99 -11.9,-6.08 -14.89,-9.11 -2.79,-2.82 -12.84,-9.17 -4.41,-13.47 3.58,-1.82 6.43,1.38 8.1,3.18zm271.14 13.63c-9.16,-4.57 2.07,-12.33 3.66,-13.92 6.12,-6.15 9.22,-10.99 13.84,-9.68 9.53,2.72 -1.74,11.88 -3.77,13.88 -2.75,2.72 -8.64,11.35 -13.72,9.71zm60 -43.34c3.22,-1.54 6.86,1.88 7.6,4.05 0.93,2.75 -2.72,4.96 -4.42,6.61 -4.09,3.98 -8.64,9.5 -12.72,12.24 -3.32,2.23 -6.85,-0.12 -7.58,-2.96 -1.27,-4.92 6.29,-8.67 10.71,-13.74 1.75,-1.99 3.9,-5.01 6.4,-6.21zm-350.5 12.89c-4.22,9.77 -10.63,1.81 -14.11,-1.65 -2.06,-2.04 -11.35,-9.44 -11.05,-12.91 0.28,-3.27 3.98,-5.67 7.38,-4 0.23,0.12 16.75,14.41 17.78,18.56zm336.9 -24.88c2.46,-1.75 7.25,0.02 8.22,2.76 1.16,3.26 -2.67,5.41 -4.31,7.02 -3.62,3.56 -15.59,20.72 -19.98,10.4 -1.96,-4.59 4.79,-9.01 10.22,-14.29 2,-1.95 3.37,-4.13 5.84,-5.89zm-325.62 9.63c2.85,4.33 -0.43,7.35 -4.36,8.09 -3.07,-0.85 -7.8,-6.32 -10.79,-9.1 -4.69,-4.35 -6.93,-6.14 -8.71,-10.81 5.99,-9.73 12.16,0.12 16.53,4.44 1.53,1.51 6.25,5.75 7.32,7.38zm69.35 545.69l165.27 0 -0.43 -4.39 -10.77 -0.04c-0.09,-1.48 -1.39,-104.36 0.46,-108.9 1.75,-4.3 8.16,-0.94 10.28,-2.85 1.3,-2.38 0.67,-6.55 0.64,-9.65 -0.15,-13.51 -0.5,-7.95 9.21,-11.27 -0.64,-3.42 -17.54,-26.52 -20,-29.8 -3.31,-4.43 -5.88,-9.04 -9.89,-14.22 -4.84,-6.24 -5.5,-8.33 -7.51,-17.56 -1.91,-8.79 -16.21,-76.17 -15.48,-82.07 5.08,0.13 7.06,5.04 12.04,4.66 1.35,-3.27 0.05,-6.95 1.36,-9.58 3.3,0.11 95.28,99.67 112.66,117.12 3.73,3.74 6.73,7.82 10.25,10.94 5.73,5.08 13.25,-6.01 22.98,-15.1 2.67,-2.49 20.99,-19.48 20.63,-21.87 -1.88,-3.21 -9.18,-7.58 -12.17,-9.86l-51.92 -38.8c-4.07,-3.07 -8.42,-6.92 -12.59,-10.08l-77.54 -57.81c-4.74,-3.53 -8.47,-5.85 -13.07,-9.57 -4.04,-3.27 -8.45,-6.62 -12.89,-9.83 -1.69,-1.22 -25,-18.03 -25.56,-19.88 0.06,-4.87 3.43,-6.79 6.23,-9.7 5.46,-0.2 6.42,1.54 9.67,4.14 5.02,4.02 17.74,17.1 22.76,17.92 0.81,-7.09 0.06,-17.92 0.2,-25.53l-0.4 -25.28c7.43,-3.03 12.61,2.88 11.83,-9.61 -6.27,0.11 -7.64,3.76 -11.33,7.19 -2.03,1.89 -2.84,2.3 -5.21,4.33 -3.81,3.26 -23.32,22.62 -25.62,22.69 -4.29,-1.47 -10.19,-7.66 -12.43,-11.02 1.56,-5.05 180.27,-142.1 216.72,-170.47 -0.42,-4.14 -15.35,-17.41 -19.22,-21.19 -24.41,-23.81 -19.65,-22.09 -30.03,-9.62 -40.96,45.05 -84.1,90.77 -123.72,136.74 -3.01,3.49 -5.58,7.92 -10.1,9.11 -12.19,-7.91 -9.71,-10.64 -30.72,-11.01 -8.93,-0.16 -34.79,-1.36 -41.13,1.14 -3.48,2.95 4.58,9.73 7.44,12.65 4.05,4.21 30.09,30.16 31.29,33.62 -0.95,3.07 -9.26,9.16 -12.24,10.06 -3.09,-2.21 -18.95,-21.91 -21.93,-25.44 -49.11,-58.29 -96.86,-115.55 -145.78,-174 -10.7,-12.66 -11.59,-7.94 -18.71,-0.78l-20.11 20.22c-9.5,9.55 -13.3,9.63 0.49,21.06 13.18,10.92 153.45,127.19 153.61,130.84l-10.03 0.85c-0.5,6.97 -0.85,15.6 0.86,21.67l11.39 -0.28c1.38,4.22 0.63,16.9 0.75,22.14 0.26,11.29 0.62,10.95 -6.2,16.77 -31.25,26.71 -64.59,58.99 -95.85,85.6 -9.33,7.94 -71.24,63.13 -71.41,64.44 -0.37,2.8 16.17,18.05 18.85,20.41 4.19,3.69 18.06,18.35 21.16,19.2 6.16,-3.63 42.6,-52.22 51.59,-62.64 23.08,-26.75 48.71,-61.18 71.62,-88.63l40.46 -50.93c7.04,-0.31 12.97,8.79 12.99,8.94 0.59,2.82 -4.74,7.05 -8.4,10.96l-28.07 30.46c-3.08,3.16 -6.82,5.51 -6.92,11.93 -0.45,28.52 2.66,27.14 -3.52,55.81 -3.17,14.72 -10,48.8 -17.29,60.36l-26.28 41.77c-2.26,2.66 -3.23,2.43 -2.95,7.47 5.3,0.41 15.03,-0.99 19.19,0.75 1.55,4.07 0.47,120.02 0.55,135.33zm-299.77 -15.47c-8.31,0 -15.98,-1.45 -23.03,-4.37 -7.05,-2.91 -13.14,-7 -18.3,-12.27 -5.15,-5.27 -9.18,-11.47 -12.06,-18.61 -2.89,-7.14 -4.34,-14.93 -4.34,-23.39 0,-8.46 1.45,-16.25 4.34,-23.39 2.89,-7.14 6.94,-13.34 12.14,-18.61 5.2,-5.27 11.33,-9.36 18.37,-12.27 7.04,-2.91 14.72,-4.36 23.03,-4.36 7.99,0 15.51,1.4 22.55,4.2 7.05,2.8 12.99,7 17.83,12.6l-7.42 7.74c-4.52,-4.83 -9.51,-8.32 -14.98,-10.46 -5.47,-2.14 -11.36,-3.21 -17.66,-3.21 -6.62,0 -12.77,1.18 -18.45,3.54 -5.68,2.36 -10.62,5.71 -14.83,10.05 -4.2,4.34 -7.49,9.39 -9.86,15.16 -2.37,5.76 -3.55,12.1 -3.55,19.02 0,6.92 1.18,13.26 3.55,19.03 2.37,5.76 5.65,10.81 9.86,15.15 4.21,4.34 9.15,7.69 14.83,10.05 5.68,2.36 11.83,3.54 18.45,3.54 6.31,0 12.2,-1.1 17.66,-3.3 5.47,-2.2 10.46,-5.71 14.98,-10.54l7.42 7.74c-4.84,5.6 -10.78,9.83 -17.83,12.68 -7.04,2.86 -14.61,4.28 -22.71,4.28zm101.47 -75.11c13.04,0 23,3.05 29.89,9.14 6.89,6.09 10.33,15.13 10.33,27.1 0,12.41 -3.68,21.83 -11.04,28.25 -7.36,6.42 -17.88,9.64 -31.54,9.64l-34.45 0 0 -115.3 11.52 0 0 41.18 25.3 0zm-2.68 64.4c10.2,0 17.95,-2.36 23.26,-7.08 5.31,-4.72 7.96,-11.64 7.96,-20.76 0,-9.11 -2.63,-15.84 -7.89,-20.18 -5.26,-4.34 -13.04,-6.51 -23.34,-6.51l-22.62 0 0 54.52 22.62 0zm61.98 9.72l0 -115.3 11.51 0 0 115.3 -11.51 0zm33.69 0l0 -115.3 31.92 0c9.36,0 17.4,1.56 24.13,4.69 6.73,3.13 11.91,7.63 15.53,13.51 3.63,5.87 5.44,12.98 5.44,21.33 0,8.12 -1.81,15.13 -5.44,21 -3.62,5.87 -8.81,10.4 -15.53,13.59 -6.73,3.19 -14.78,4.78 -24.13,4.78l-20.25 0 0 36.4 -11.67 0zm11.67 -47.11l19.94 0c11.04,0 19.42,-2.5 25.16,-7.49 5.73,-5 8.59,-12.05 8.59,-21.16 0,-9.22 -2.86,-16.36 -8.59,-21.41 -5.73,-5.05 -14.12,-7.58 -25.16,-7.58l-19.94 0 0 57.65zm289.39 47.11l0 -115.3 9.62 0 47.96 85.46 47.46 -85.46 9.62 0 0 115.3 -11.2 0 0 -92.22 -43.37 77.56 -5.52 0 -43.37 -77.03 0 91.69 -11.2 0zm161.17 -37.35c-1.88,-0.63 -3.97,-1.47 -5.69,-2.34 -6.26,-3.18 -11.04,-7.71 -14.35,-13.59 -3.31,-5.87 -4.97,-12.93 -4.97,-21.16 0,-8.79 1.79,-16.23 5.36,-22.32 3.57,-6.09 8.65,-10.71 15.22,-13.84 6.57,-3.13 14.22,-4.69 22.95,-4.69l33.5 0 0 115.3 -11.51 0 0 -34.92 -23.57 0c-2.12,0 -4.36,-0.11 -6.33,-0.29l-23.16 35.21 -12.46 0 25.01 -37.35zm40.51 -7.94l0 -59.46 -21.51 0c-10.31,0 -18.27,2.55 -23.89,7.66 -5.63,5.11 -8.44,12.54 -8.44,22.32 0,9.44 2.63,16.72 7.89,21.83 5.26,5.11 13.04,7.66 23.34,7.66l22.62 0zm87.6 46.29c-8.31,0 -15.98,-1.45 -23.03,-4.37 -7.05,-2.91 -13.14,-7 -18.3,-12.27 -5.15,-5.27 -9.17,-11.47 -12.06,-18.61 -2.89,-7.14 -4.34,-14.93 -4.34,-23.39 0,-8.46 1.45,-16.25 4.34,-23.39 2.89,-7.14 6.94,-13.34 12.14,-18.61 5.2,-5.27 11.33,-9.36 18.37,-12.27 7.04,-2.91 14.72,-4.36 23.03,-4.36 7.99,0 15.51,1.4 22.55,4.2 7.04,2.8 12.99,7 17.82,12.6l-7.42 7.74c-4.52,-4.83 -9.51,-8.32 -14.98,-10.46 -5.47,-2.14 -11.36,-3.21 -17.67,-3.21 -6.62,0 -12.77,1.18 -18.45,3.54 -5.68,2.36 -10.62,5.71 -14.83,10.05 -4.2,4.34 -7.49,9.39 -9.85,15.16 -2.37,5.76 -3.55,12.1 -3.55,19.02 0,6.92 1.18,13.26 3.55,19.03 2.36,5.76 5.65,10.81 9.85,15.15 4.21,4.34 9.15,7.69 14.83,10.05 5.68,2.36 11.83,3.54 18.45,3.54 6.31,0 12.2,-1.1 17.67,-3.3 5.47,-2.2 10.46,-5.71 14.98,-10.54l7.42 7.74c-4.84,5.6 -10.78,9.83 -17.82,12.68 -7.04,2.86 -14.61,4.28 -22.71,4.28zm114.32 0c-8.2,0 -15.85,-1.45 -22.95,-4.37 -7.1,-2.91 -13.25,-7.03 -18.45,-12.35 -5.21,-5.32 -9.25,-11.56 -12.14,-18.69 -2.89,-7.14 -4.34,-14.88 -4.34,-23.23 0,-8.34 1.45,-16.09 4.34,-23.22 2.89,-7.14 6.97,-13.34 12.22,-18.62 5.26,-5.27 11.38,-9.39 18.38,-12.35 6.99,-2.97 14.64,-4.45 22.95,-4.45 8.41,0 16.11,1.45 23.1,4.36 6.99,2.91 13.12,7 18.37,12.27 5.26,5.27 9.33,11.47 12.22,18.61 2.89,7.14 4.34,14.93 4.34,23.39 0,8.46 -1.45,16.26 -4.34,23.39 -2.89,7.14 -6.97,13.34 -12.22,18.61 -5.26,5.27 -11.38,9.36 -18.37,12.27 -6.99,2.91 -14.69,4.37 -23.1,4.37zm0 -10.71c6.73,-0.11 12.91,-1.34 18.53,-3.7 5.62,-2.36 10.52,-5.71 14.67,-10.05 4.15,-4.34 7.41,-9.39 9.78,-15.15 2.37,-5.77 3.55,-12.11 3.55,-19.03 -0.1,-6.92 -1.29,-13.26 -3.55,-19.02 -2.26,-5.77 -5.49,-10.82 -9.7,-15.16 -4.2,-4.34 -9.12,-7.69 -14.75,-10.05 -5.62,-2.36 -11.8,-3.59 -18.53,-3.71 -6.52,0.11 -12.62,1.35 -18.3,3.71 -5.68,2.36 -10.62,5.71 -14.82,10.05 -4.2,4.34 -7.47,9.39 -9.78,15.16 -2.31,5.76 -3.47,12.1 -3.47,19.02 0,6.81 1.16,13.12 3.47,18.94 2.31,5.82 5.57,10.9 9.78,15.24 4.2,4.34 9.15,7.69 14.82,10.05 5.68,2.36 11.78,3.6 18.3,3.7z"/>
 </g>
</svg>
