<?xml version="1.0" encoding="UTF-8"?>
<!DOCTYPE svg PUBLIC "-//W3C//DTD SVG 1.1//EN" "http://www.w3.org/Graphics/SVG/1.1/DTD/svg11.dtd">
<!-- Creator: CorelDRAW 2021 (64-Bit) -->
<svg xmlns="http://www.w3.org/2000/svg" xml:space="preserve" width="30.3118mm" height="31.4893mm" version="1.1" style="shape-rendering:geometricPrecision; text-rendering:geometricPrecision; image-rendering:optimizeQuality; fill-rule:evenodd; clip-rule:evenodd"
viewBox="0 0 14468.92 15030.98"
 xmlns:xlink="http://www.w3.org/1999/xlink"
 xmlns:xodm="http://www.corel.com/coreldraw/odm/2003">
 <defs>
  <style type="text/css">
   <![CDATA[
    .fil1 {fill:#41291E}
    .fil0 {fill:#F29224}
   ]]>
  </style>
 </defs>
 <g id="Слой_x0020_1">
  <metadata id="CorelCorpID_0Corel-Layer"/>
  <g id="_1628224927728">
   <path class="fil0" d="M10083.2 5806.94c19.14,86.73 -123.25,503.73 -169.22,593.23 -269.46,524.35 -527.07,981.83 -1030.19,1329.57 -317.14,219.24 -651.61,409.6 -1057.73,524.5 -405.26,114.56 -986.18,160.72 -1431.48,85.87 -1337.88,-224.97 -2154.93,-1100.93 -2544.3,-2192.12 -159.67,-447.26 -114.47,-352.99 267.55,-355.19l5965.37 14.13zm-3557.97 -5257.14c-901.16,120.62 -1141.64,181.24 -1951.35,623.26 -75.13,41.1 -117.42,77.14 -180,116.47 -327.31,205.83 -679.73,519.25 -921.69,807.18 -345.02,410.46 -621.54,855.77 -847.8,1435.64 -470.37,1205.27 -325.54,2656.95 266.93,3780.22 853.81,1618.93 2590.12,2554.42 4473.16,2402.67 1170.09,-94.27 2253.79,-706.12 3022.73,-1558.84 377.72,-418.81 634.86,-909.9 847.7,-1437.5 238.91,-592.14 298.96,-1347.47 252.51,-1989.16 -48.07,-665.84 -239.34,-1273.15 -512.99,-1783.85 -193.18,-360.68 -342.78,-551.23 -579.82,-851.14 -239.96,-303.59 -757.91,-713.04 -1096.2,-910.38 -790.71,-461.3 -1819.94,-762.26 -2773.18,-634.57zm1665.62 4136.12c-36.18,-2.39 -52.51,17.38 -97.71,23.87 -113.56,16.28 -243.49,2.39 -312.46,-89.36 -38.23,-50.98 -59.57,-138.38 -48.55,-220.48 32.32,-239.15 271.51,-264.25 426.45,-194.9 32.75,-74.42 60.62,-139.62 79.91,-193.94 -74.85,-43.29 -216.85,-60.24 -316.19,-47.02 -109.21,14.56 -265.35,57.61 -368.74,213.27 -85.06,128.12 -104.58,311.22 -55.56,444.02 86.35,234.37 272.03,307.21 510.42,300.82 18.33,-0.43 100.29,-9.83 118.76,-14.75 47.4,-12.7 64.3,-8.07 97.95,-36.13l-34.27 -185.4zm1160.21 518.39c52.46,-12.6 137.38,-32.32 178.86,-60.91 155.66,-107.02 225.64,-305.69 290.94,-485.07 52.32,-145.83 101.15,-285.49 147.74,-432.99l-251.65 -2.72c-15.51,73.8 -59,362.58 -106.97,360.77 -47.97,-1.81 -93.94,-286.35 -108.88,-358.91l-265.21 0.1c3.44,45.06 141.91,356.33 169.12,427.88 71.41,188.12 134.66,215.9 9.07,299.19 -38.23,25.35 -60.57,25.2 -110.07,36.47 18.81,79.72 26.3,125.44 47.07,216.19zm-556.62 -979.88l-84.06 0.29 1.72 186.11 83.77 -0.1c17.85,156.47 -66.59,476.62 174.42,506.12 53.94,6.63 169.6,3.05 204.2,-19.09l2.24 -185.21c-95.94,-3.1 -138.48,34.03 -141.39,-75.32l-1.05 -226.02 146.54 0.05 -1.24 -185.97 -143.15 -0.91 -0.14 -179.81 -241.72 -2.24 -0.14 182.1zm-198.86 680.2l2.29 -679.15 -241.48 0 -2.86 680.68 242.06 -1.53zm-175.37 -944.7c-112.79,35.42 -99.24,244.54 92.99,216.81 69.31,-10.02 107.54,-86.88 91.36,-141.43 -16.13,-54.46 -71.65,-110.79 -184.35,-75.37zm-4290.2 926.51c128.5,46.97 434.76,32.12 545.45,-28.64l-3.39 -495.9c-31.7,-0.33 -167.12,-2.39 -189.74,-2.63 -180,1.96 -191.03,-16.28 -189.74,44.01l1.43 125.49 139.48 -0.53c1.19,80.29 0.33,160.53 -1,178.52 -44.15,17.14 -118.47,8.26 -162.82,-1.58 -137,-30.36 -209.46,-195.71 -170.5,-348.41 46.68,-183.11 270.75,-203.06 425.88,-158.95l65.87 20.96 55.51 -202.87c-245.78,-73.37 -528.08,-75.51 -708.89,136.04 -206.59,241.58 -110.12,623.69 192.46,734.48zm2513.41 -292.75c-10.93,-90.41 28.35,-163.3 87.11,-189.36 35.94,-15.9 77.61,5.39 100.53,23.39 26.83,21.15 38.71,54.46 39.43,100.62 1.58,99.48 6.49,165.4 -85.06,191.08 -84.92,23.87 -133.51,-55.66 -142.01,-125.73zm463.88 -678.72l-233.89 0 -6.25 332.27c-28.64,-0.33 -93.61,-48.21 -185.25,-37.81 -189.07,21.53 -287.17,181.58 -284.68,378.91 2.72,210.36 170.41,360.34 330.65,332.94 123.01,-21 116.71,-54.56 154.42,-61.72 15.37,18.04 9.55,27.73 18.52,46.68 24.01,6.59 123.73,1.53 166.26,2.43 8.16,0.14 19.19,0.81 27.16,-0.1 21.72,-2.63 9.74,1.34 20.53,-6.68 1.05,-1.53 -6.97,-885.12 -7.45,-986.94zm-1851.49 689.56c-44.01,237.05 -244.01,146.16 -218.76,-80.34 19.28,-172.56 175.9,-169.84 209.17,-47.02 10.02,37.09 17.04,87.59 9.59,127.35zm247.4 27.11c15.18,-128.36 -0.38,-207.69 -59.48,-288.02 -164.82,-223.82 -614.24,-161.2 -655.86,153.61 -16.66,126.21 8.31,217.67 63.92,291.89 53.7,71.65 139.29,118.95 228.02,128.83 213.99,23.72 399.39,-84.73 423.4,-286.31zm558.05 0c-12.65,72.65 -80.43,144.59 -154.13,95.66 -65.4,-43.39 -75.37,-132.27 -58.14,-225.68 34.75,-187.78 260,-142.48 212.27,130.03zm251.37 0c26.49,-158.91 -42.1,-308.36 -154.08,-372.66 -84.15,-48.35 -210.93,-60.91 -305.73,-37.81 -128.5,31.36 -240.05,134.7 -256.62,274.99 -54.08,457.96 415.62,490.61 584.5,356.95 64.77,-51.31 114.56,-117.47 131.94,-221.48z"/>
   <path class="fil1" d="M7760.82 10231.46c2452.27,-393.8 4325.72,-2519.62 4325.72,-5083.01 0,-2843.44 -2305.01,-5148.45 -5148.4,-5148.45 -2843.44,0 -5148.45,2305.01 -5148.45,5148.45 0,2594.08 1918.56,4740.04 4414.07,5096.42 246.74,61.53 315.33,22.15 482.97,164.78 193.8,164.73 258.67,755 208.79,1101.07 68.64,-91.46 22.24,-129.88 70.12,-129.98 0.19,-410.41 -5.16,-849.09 283.35,-1030.14 96.9,-60.86 367.84,-86.16 511.85,-119.14zm-822.69 -9629.97c2511.17,0 4546.91,2035.74 4546.91,4546.96 0,2511.17 -2035.74,4546.91 -4546.91,4546.91 -2511.22,0 -4546.96,-2035.74 -4546.96,-4546.91 0,-2511.22 2035.74,-4546.96 4546.96,-4546.96zm1228.66 12990.13c52.13,-366.36 -71.08,-758.96 -253.94,-970.9 -342.11,-396.67 -796.48,-562.54 -1342.7,-423.87 -191.17,48.64 -289.89,120.43 -420.77,212.94 -111.84,79.09 -216.52,216.71 -291.65,339.86 -451.7,739.97 -16.71,1769.39 866.99,1897.27 735.24,106.45 1345.9,-379.82 1442.08,-1055.29zm-1447.52 -1623.52c1286.28,-192.27 2147.49,1302.08 1331.77,2341.86 -493.57,629.13 -1451.29,717.44 -2032.26,223.01 -1018.25,-866.65 -502.68,-2385.01 700.49,-2564.87zm176.23 -457.38c-47.3,17.57 -25.25,148.88 -426.74,323.44 -499.05,217.14 -1023.31,576.67 -1101.98,1240.07 -61.96,522.3 -10.07,936.87 240.77,1275.39l283.25 311.32c576.72,442.54 1313.49,507.12 1950.73,90.31 149.64,-97.95 294.18,-233.85 403.54,-394.47 251.65,-369.65 366.74,-897.96 260.34,-1330.48 -102.58,-416.95 -387.5,-766.79 -660.92,-950.85 -151.41,-102.01 -338.34,-176.04 -527.17,-271.75 -181.48,-91.89 -351.13,-174.13 -351.7,-422.97 -47.88,0.1 -1.48,38.52 -70.12,129.98zm5991.71 625.31c321.49,-61 726.12,66.64 977.78,272.89 229.26,187.88 432.51,520.73 451.56,809.85 29.79,451.03 -50.02,724.64 -270.12,992.67 -206.3,251.13 -441.77,391.85 -819.11,452.04 -1112.91,177.76 -1894.88,-1135.68 -1158.64,-2075.93 185.54,-236.9 432.18,-378.24 818.54,-451.51zm-1253.48 1455.59c59.09,379.43 268.36,711.47 516.19,904.31 169.31,131.74 222.53,196.52 463.16,265.06 1074.96,306.31 1952.5,-526.02 1847.24,-1538.55 -41.24,-397 -266.31,-729.66 -505.88,-921.31 -658.72,-526.93 -1534.54,-388.22 -2002.52,206.93 -199.96,254.28 -389.08,628.46 -318.19,1083.55zm-283.39 331.84c-155.8,-10.26 -137.95,25.73 -194.94,129.41 -257.86,469.99 -846.36,735.62 -1421.55,593.23 -1038.83,-257.24 -1233.53,-1677.84 -480.63,-2235.89 236.9,-175.52 593.09,-337.19 917.06,-283.2 881.02,146.97 957.15,679.68 1060.78,745.79 147.83,94.18 161.34,-61.29 -9.4,-290.36 -405.21,-543.92 -1102.74,-766.51 -1702.9,-498.63 -516.19,230.31 -977.35,772.9 -863.5,1542.99 48.97,331.08 194.85,571.32 413.66,791.9 475.71,479.77 1183.41,535.91 1761.32,182.92 182.2,-111.41 525.98,-464.3 520.11,-678.15zm-8294.1 945.94c43.63,-379.24 -59.19,-989.28 12.36,-1343.8 234.09,-32.27 1358.69,13.37 1773.78,1.77l184.2 -8.69c55.75,5.63 27.73,2.82 46.78,12.12 40.05,138.95 13.7,551.9 12.32,729.61 -0.95,123.68 -2.29,247.98 -3.87,371.65 -3.77,291.46 -7.3,248.31 132.7,238.1 18.62,-94.61 3.25,-1970.16 4.15,-2244.63 1.58,-455.9 73.37,-639.96 -128.07,-605.02 -26.59,97.52 -8.54,545.79 -7.45,679.34 1.62,194.61 23.25,501.35 -2.05,682.07 -2.82,0.19 -1984.05,14.22 -2007.29,-11.41 -68.31,-168.6 26.49,-1082.55 -24.96,-1348.52 -37.28,-17.52 -74.32,-18.57 -115.04,-4.82 -29.83,123.77 -9.21,1867.67 -11.17,2150.4 -1.29,201.77 -16.75,510.75 16.52,705.69l117.09 -3.87zm-358.62 -950.23c-155.37,3.63 -126.59,64.11 -298.81,294.56 -269.36,360.68 -741.54,521.01 -1239.64,444.4 -573.09,-88.21 -1025.6,-664.98 -1021.4,-1271.1 6.59,-957.49 1059.64,-1628.53 1973.98,-1059.83 121.72,75.75 212.13,164.01 301.82,275.57 154.04,191.36 127.64,300.91 275.95,285.26 25.82,-258.29 -342.44,-582.06 -558.82,-709.7 -621.97,-366.88 -1331.86,-214.61 -1802.8,316.76 -444.4,501.3 -432.66,1340.46 8.59,1830.92 104.35,115.94 216.28,215.04 338.43,292.99 450.61,287.69 1021.93,257.09 1471.05,9.55 171.94,-94.8 558.39,-435.43 551.66,-709.37z"/>
  </g>
 </g>
</svg>
