<?xml version="1.0" encoding="UTF-8"?>
<!DOCTYPE svg PUBLIC "-//W3C//DTD SVG 1.1//EN" "http://www.w3.org/Graphics/SVG/1.1/DTD/svg11.dtd">
<!-- Creator: CorelDRAW 2021 (64-Bit) -->
<svg xmlns="http://www.w3.org/2000/svg" xml:space="preserve" width="56.3073mm" height="13.3526mm" version="1.1" style="shape-rendering:geometricPrecision; text-rendering:geometricPrecision; image-rendering:optimizeQuality; fill-rule:evenodd; clip-rule:evenodd"
viewBox="0 0 1110.55 263.35"
 xmlns:xlink="http://www.w3.org/1999/xlink"
 xmlns:xodm="http://www.corel.com/coreldraw/odm/2003">
 <defs>
  <style type="text/css">
   <![CDATA[
    .fil0 {fill:#FD7222}
   ]]>
  </style>
 </defs>
 <g id="Слой_x0020_1">
  <metadata id="CorelCorpID_0Corel-Layer"/>
  <path class="fil0" d="M1079.91 263.35c16.86,0 30.65,-13.79 30.65,-30.65l0 -202.06c0,-16.85 -13.8,-30.65 -30.65,-30.65l-1047.14 0c-18.01,0 -32.77,13.8 -32.77,30.65l0 202.06c0,16.85 14.75,30.65 32.77,30.65l1047.14 0zm-463.41 -9.83l-579.68 -0.07c-17.9,-0 -26.87,-9.19 -26.85,-25.24l0.24 -193.09c0.02,-16.05 8.83,-25.24 26.85,-25.24l579.44 0 0 243.63zm159.6 -95.05c-6.22,-0.41 -9.02,2.99 -16.8,4.11 -19.54,2.8 -41.89,0.41 -53.75,-15.37 -6.59,-8.77 -10.25,-23.81 -8.34,-37.93 5.54,-41.14 46.7,-45.46 73.35,-33.53 5.63,-12.81 10.43,-24.03 13.74,-33.36 -12.88,-7.45 -37.3,-10.37 -54.39,-8.09 -18.8,2.5 -45.65,9.91 -63.43,36.69 -14.64,22.04 -17.99,53.54 -9.56,76.38 14.86,40.32 46.79,52.85 87.81,51.75 3.14,-0.08 17.24,-1.7 20.42,-2.54 8.17,-2.18 11.07,-1.38 16.85,-6.22l-5.9 -31.89zm199.59 89.18c9.03,-2.17 23.64,-5.56 30.78,-10.47 26.78,-18.42 38.82,-52.58 50.05,-83.45 9,-25.08 17.39,-49.11 25.42,-74.49l-43.3 -0.47c-2.66,12.7 -10.14,62.37 -18.39,62.06 -8.25,-0.31 -16.16,-49.26 -18.73,-61.74l-45.62 0.02c0.6,7.75 24.41,61.3 29.09,73.6 12.29,32.36 23.17,37.15 1.57,51.47 -6.58,4.36 -10.43,4.34 -18.94,6.27 3.23,13.71 4.52,21.58 8.09,37.19zm-95.74 -168.57l-14.46 0.06 0.29 32.01 14.41 -0.02c3.07,26.92 -11.45,82 30,87.07 9.28,1.14 29.17,0.52 35.13,-3.29l0.38 -31.86c-16.5,-0.52 -23.82,5.85 -24.32,-12.95l-0.17 -38.88 25.2 0.01 -0.22 -31.99 -24.62 -0.16 -0.03 -30.93 -41.58 -0.38 -0.02 31.32zm-34.21 117.02l0.39 -116.84 -41.54 -0 -0.49 117.09 41.64 -0.25zm-30.18 -162.52c-19.4,6.09 -17.08,42.06 16,37.3 11.93,-1.72 18.5,-14.95 15.72,-24.32 -2.78,-9.38 -12.32,-19.06 -31.72,-12.97zm-735.1 159.39c22.1,8.09 74.79,5.53 93.83,-4.93l-0.58 -85.31c-5.46,-0.06 -28.76,-0.4 -32.64,-0.44 -30.96,0.32 -32.87,-2.81 -32.64,7.57l0.25 21.59 23.98 -0.1c0.21,13.82 0.07,27.62 -0.16,30.72 -7.61,2.95 -20.38,1.42 -28.01,-0.27 -23.56,-5.23 -36.03,-33.67 -29.33,-59.93 8.04,-31.5 46.58,-34.93 73.26,-27.34l11.33 3.6 9.55 -34.9c-42.28,-12.61 -90.85,-12.98 -121.96,23.41 -35.53,41.56 -18.94,107.3 33.12,126.35zm432.37 -50.36c-1.88,-15.55 4.87,-28.09 14.98,-32.57 6.19,-2.74 13.35,0.92 17.29,4.02 4.62,3.64 6.66,9.37 6.79,17.31 0.27,17.12 1.12,28.45 -14.64,32.87 -14.61,4.1 -22.97,-9.58 -24.43,-21.63zm79.8 -116.76l-40.25 0 -1.06 57.16c-4.93,-0.05 -16.11,-8.29 -31.88,-6.5 -32.53,3.7 -49.4,31.24 -48.97,65.18 0.46,36.19 29.31,61.99 56.88,57.28 21.15,-3.62 20.08,-9.39 26.56,-10.62 2.64,3.1 1.64,4.78 3.19,8.03 4.13,1.13 21.29,0.25 28.59,0.41 1.41,0.03 3.31,0.14 4.68,-0.02 3.74,-0.44 1.67,0.24 3.52,-1.14 0.18,-0.26 -1.2,-152.26 -1.27,-169.78zm-318.5 118.62c-7.57,40.78 -41.98,25.14 -37.64,-13.82 3.31,-29.69 30.25,-29.22 35.98,-8.09 1.73,6.38 2.92,15.07 1.65,21.91zm42.54 4.67c2.63,-22.09 -0.05,-35.74 -10.22,-49.56 -28.35,-38.51 -105.66,-27.73 -112.82,26.43 -2.87,21.71 1.42,37.44 10.99,50.21 9.23,12.32 23.96,20.46 39.23,22.16 36.8,4.08 68.7,-14.57 72.82,-49.24zm96.02 0c-2.19,12.49 -13.84,24.86 -26.52,16.45 -11.26,-7.47 -12.97,-22.76 -10,-38.82 5.97,-32.3 44.73,-24.51 36.52,22.38zm43.24 0c4.56,-27.34 -7.24,-53.05 -26.51,-64.12 -14.48,-8.32 -36.29,-10.48 -52.6,-6.49 -22.1,5.4 -41.29,23.17 -44.14,47.31 -9.3,78.78 71.5,84.4 100.55,61.4 11.15,-8.82 19.72,-20.2 22.7,-38.09z"/>
 </g>
</svg>
