<?xml version="1.0" encoding="UTF-8"?>
<!DOCTYPE svg PUBLIC "-//W3C//DTD SVG 1.1//EN" "http://www.w3.org/Graphics/SVG/1.1/DTD/svg11.dtd">
<!-- Creator: CorelDRAW 2021 (64-Bit) -->
<svg xmlns="http://www.w3.org/2000/svg" xml:space="preserve" width="54.865mm" height="13.3526mm" version="1.1" style="shape-rendering:geometricPrecision; text-rendering:geometricPrecision; image-rendering:optimizeQuality; fill-rule:evenodd; clip-rule:evenodd"
viewBox="0 0 1065.15 259.23"
 xmlns:xlink="http://www.w3.org/1999/xlink"
 xmlns:xodm="http://www.corel.com/coreldraw/odm/2003">
 <defs>
  <style type="text/css">
   <![CDATA[
    .fil0 {fill:#FD7222}
   ]]>
  </style>
 </defs>
 <g id="Слой_x0020_1">
  <metadata id="CorelCorpID_0Corel-Layer"/>
  <path class="fil0" d="M609 0l425.99 0c16.59,0 30.17,13.6 30.17,30.17l0 198.89c0,16.57 -13.6,30.17 -30.17,30.17l-425.99 0c-16.57,0 -30.17,-13.57 -30.17,-30.17l0 -198.89c0,-16.59 13.57,-30.17 30.17,-30.17zm126.93 155.99c-6.13,-0.4 -8.88,2.95 -16.54,4.04 -19.23,2.76 -41.24,0.41 -52.91,-15.13 -6.48,-8.63 -10.09,-23.44 -8.21,-37.33 5.46,-40.5 45.97,-44.75 72.2,-33 5.54,-12.61 10.27,-23.65 13.53,-32.84 -12.68,-7.34 -36.71,-10.21 -53.54,-7.97 -18.5,2.46 -44.93,9.75 -62.44,36.12 -14.41,21.7 -17.71,52.7 -9.41,75.18 14.63,39.69 46.06,52.02 86.44,50.94 3.09,-0.08 16.97,-1.67 20.1,-2.5 8.04,-2.15 10.9,-1.36 16.59,-6.12l-5.8 -31.39zm196.46 87.78c8.89,-2.14 23.27,-5.48 30.3,-10.31 26.36,-18.13 38.21,-51.76 49.26,-82.14 8.86,-24.69 17.12,-48.34 25.02,-73.32l-42.62 -0.46c-2.62,12.5 -9.98,61.39 -18.11,61.09 -8.12,-0.3 -15.91,-48.49 -18.44,-60.78l-44.9 0.02c0.59,7.63 24.03,60.34 28.63,72.45 12.1,31.86 22.8,36.56 1.54,50.66 -6.48,4.3 -10.27,4.27 -18.64,6.18 3.18,13.5 4.45,21.24 7.96,36.61zm-94.24 -165.93l-14.24 0.05 0.29 31.51 14.19 -0.02c3.02,26.49 -11.27,80.71 29.53,85.71 9.14,1.12 28.72,0.51 34.58,-3.24l0.38 -31.36c-16.25,-0.52 -23.45,5.76 -23.94,-12.75l-0.17 -38.27 24.81 0.01 -0.21 -31.49 -24.23 -0.16 -0.03 -30.45 -40.93 -0.38 -0.02 30.83zm-33.67 115.19l0.38 -115 -40.89 -0 -0.48 115.26 40.99 -0.25zm-29.7 -159.98c-19.09,6 -16.81,41.4 15.75,36.71 11.74,-1.69 18.21,-14.71 15.47,-23.94 -2.74,-9.23 -12.13,-18.77 -31.22,-12.77zm-723.58 156.89c21.75,7.96 73.62,5.44 92.36,-4.85l-0.57 -83.97c-5.37,-0.05 -28.31,-0.4 -32.13,-0.43 -30.48,0.32 -32.35,-2.76 -32.13,7.45l0.25 21.25 23.61 -0.1c0.21,13.61 0.07,27.19 -0.16,30.24 -7.49,2.9 -20.06,1.4 -27.58,-0.27 -23.19,-5.14 -35.47,-33.14 -28.87,-58.99 7.91,-31.01 45.85,-34.38 72.11,-26.91l11.16 3.54 9.4 -34.36c-41.62,-12.41 -89.42,-12.78 -120.04,23.04 -34.97,40.91 -18.65,105.62 32.6,124.37zm425.6 -49.57c-1.85,-15.3 4.8,-27.65 14.75,-32.06 6.09,-2.7 13.15,0.91 17.02,3.96 4.55,3.58 6.56,9.22 6.68,17.04 0.27,16.85 1.11,28 -14.41,32.36 -14.38,4.04 -22.61,-9.43 -24.04,-21.29zm78.55 -114.93l-39.62 0 -1.04 56.26c-4.86,-0.05 -15.85,-8.16 -31.38,-6.4 -32.02,3.64 -48.63,30.75 -48.2,64.16 0.46,35.62 28.85,61.02 55.99,56.38 20.82,-3.56 19.76,-9.24 26.15,-10.45 2.6,3.05 1.61,4.7 3.14,7.91 4.06,1.11 20.96,0.25 28.15,0.41 1.38,0.03 3.26,0.14 4.61,-0.02 3.68,-0.43 1.65,0.23 3.47,-1.12 0.18,-0.26 -1.18,-149.87 -1.25,-167.12zm-313.51 116.77c-7.45,40.14 -41.33,24.75 -37.05,-13.6 3.26,-29.22 29.78,-28.76 35.42,-7.97 1.7,6.28 2.88,14.83 1.63,21.57zm41.88 4.6c2.58,-21.74 -0.05,-35.18 -10.06,-48.78 -27.9,-37.9 -104.01,-27.3 -111.05,26.02 -2.82,21.37 1.4,36.85 10.82,49.42 9.09,12.13 23.58,20.14 38.61,21.81 36.22,4.02 67.62,-14.34 71.68,-48.47zm94.51 0c-2.15,12.3 -13.62,24.47 -26.1,16.19 -11.08,-7.35 -12.77,-22.4 -9.85,-38.22 5.88,-31.8 44.03,-24.12 35.95,22.03zm42.56 0c4.49,-26.91 -7.13,-52.22 -26.09,-63.11 -14.25,-8.18 -35.72,-10.31 -51.77,-6.39 -21.76,5.31 -40.65,22.81 -43.45,46.56 -9.16,77.54 70.38,83.07 98.97,60.44 10.97,-8.69 19.41,-19.89 22.34,-37.49z"/>
 </g>
</svg>
