<?xml version="1.0" encoding="UTF-8"?>
<!DOCTYPE svg PUBLIC "-//W3C//DTD SVG 1.1//EN" "http://www.w3.org/Graphics/SVG/1.1/DTD/svg11.dtd">
<!-- Creator: CorelDRAW 2021 (64-Bit) -->
<svg xmlns="http://www.w3.org/2000/svg" xml:space="preserve" width="51.3607mm" height="11.2457mm" version="1.1" style="shape-rendering:geometricPrecision; text-rendering:geometricPrecision; image-rendering:optimizeQuality; fill-rule:evenodd; clip-rule:evenodd"
viewBox="0 0 951.43 208.32"
 xmlns:xlink="http://www.w3.org/1999/xlink"
 xmlns:xodm="http://www.corel.com/coreldraw/odm/2003">
 <defs>
  <style type="text/css">
   <![CDATA[
    .fil0 {fill:#FD7222}
   ]]>
  </style>
 </defs>
 <g id="Слой_x0020_1">
  <metadata id="CorelCorpID_0Corel-Layer"/>
  <path class="fil0" d="M664.19 124.56c-5.84,-0.39 -8.47,2.81 -15.78,3.86 -18.35,2.63 -39.35,0.39 -50.48,-14.44 -6.19,-8.24 -9.62,-22.36 -7.84,-35.62 5.21,-38.64 43.86,-42.7 68.9,-31.49 5.29,-12.03 9.8,-22.57 12.91,-31.33 -12.09,-7 -35.03,-9.74 -51.08,-7.6 -17.65,2.35 -42.87,9.31 -59.58,34.46 -13.75,20.7 -16.89,50.28 -8.98,71.74 13.96,37.87 43.95,49.64 82.48,48.61 2.95,-0.08 16.19,-1.59 19.18,-2.39 7.67,-2.05 10.4,-1.29 15.83,-5.84l-5.54 -29.95zm187.46 83.76c8.48,-2.04 22.2,-5.23 28.91,-9.84 25.15,-17.3 36.46,-49.39 47,-78.38 8.45,-23.56 16.33,-46.13 23.87,-69.96l-40.67 -0.44c-2.5,11.93 -9.53,58.58 -17.28,58.29 -7.75,-0.29 -15.18,-46.27 -17.59,-57.99l-42.85 0.02c0.56,7.28 22.93,57.57 27.32,69.13 11.54,30.4 21.76,34.89 1.47,48.34 -6.18,4.1 -9.8,4.07 -17.79,5.89 3.04,12.88 4.25,20.27 7.6,34.93zm-89.93 -158.32l-13.59 0.05 0.28 30.06 13.54 -0.01c2.89,25.28 -10.75,77.02 28.18,81.78 8.72,1.07 27.4,0.49 33,-3.09l0.36 -29.92c-15.5,-0.49 -22.37,5.49 -22.85,-12.16l-0.16 -36.52 23.67 0.01 -0.2 -30.05 -23.12 -0.15 -0.03 -29.05 -39.06 -0.36 -0.01 29.42zm-32.13 109.91l0.36 -109.74 -39.02 -0 -0.46 109.98 39.11 -0.24zm-680.75 -2.95c20.75,7.6 70.24,5.19 88.13,-4.63l-0.55 -80.12c-5.13,-0.05 -27.01,-0.38 -30.66,-0.41 -29.08,0.3 -30.87,-2.64 -30.66,7.11l0.24 20.28 22.52 -0.09c0.2,12.98 0.06,25.94 -0.15,28.85 -7.15,2.77 -19.15,1.33 -26.31,-0.26 -22.13,-4.91 -33.84,-31.62 -27.55,-56.29 7.55,-29.59 43.75,-32.81 68.81,-25.68l10.65 3.38 8.97 -32.78c-39.71,-11.84 -85.33,-12.19 -114.54,21.99 -33.37,39.03 -17.79,100.78 31.1,118.67zm406.1 -47.3c-1.77,-14.6 4.58,-26.39 14.07,-30.59 5.81,-2.57 12.54,0.87 16.24,3.78 4.34,3.42 6.26,8.8 6.38,16.26 0.26,16.08 1.06,26.72 -13.75,30.87 -13.72,3.85 -21.57,-9 -22.94,-20.32zm74.95 -109.66l-37.8 0 -1 53.68c-4.63,-0.05 -15.13,-7.79 -29.94,-6.1 -30.55,3.47 -46.4,29.34 -45.99,61.22 0.44,33.99 27.53,58.22 53.42,53.8 19.87,-3.4 18.86,-8.82 24.95,-9.97 2.48,2.91 1.54,4.49 2.99,7.55 3.88,1.06 20,0.24 26.86,0.39 1.32,0.03 3.11,0.13 4.4,-0.02 3.51,-0.41 1.57,0.22 3.31,-1.07 0.17,-0.24 -1.12,-143.01 -1.19,-159.46zm-299.15 111.42c-7.11,38.3 -39.43,23.61 -35.35,-12.98 3.11,-27.88 28.41,-27.44 33.79,-7.6 1.62,6 2.75,14.15 1.55,20.58zm39.96 4.39c2.47,-20.75 -0.04,-33.56 -9.6,-46.54 -26.62,-36.17 -99.24,-26.05 -105.97,24.82 -2.7,20.39 1.34,35.16 10.33,47.16 8.67,11.58 22.5,19.22 36.85,20.81 34.56,3.84 64.52,-13.68 68.39,-46.25zm90.18 0c-2.05,11.73 -13,23.35 -24.91,15.45 -10.57,-7.01 -12.18,-21.37 -9.4,-36.47 5.61,-30.34 42.01,-23.02 34.3,21.02zm40.61 0c4.28,-25.68 -6.8,-49.83 -24.9,-60.22 -13.6,-7.81 -34.09,-9.84 -49.4,-6.1 -20.76,5.07 -38.78,21.76 -41.46,44.43 -8.74,73.99 67.16,79.27 94.44,57.67 10.47,-8.29 18.52,-18.98 21.32,-35.78zm299.76 -108.54c-18.22,5.72 -16.04,39.51 15.03,35.03 11.2,-1.61 17.38,-14.04 14.77,-22.85 -2.61,-8.81 -11.58,-17.91 -29.79,-12.18z"/>
 </g>
</svg>
