<?xml version="1.0" encoding="UTF-8"?>
<!DOCTYPE svg PUBLIC "-//W3C//DTD SVG 1.1//EN" "http://www.w3.org/Graphics/SVG/1.1/DTD/svg11.dtd">
<!-- Creator: CorelDRAW 2021 (64-Bit) -->
<svg xmlns="http://www.w3.org/2000/svg" xml:space="preserve" width="59.4807mm" height="10.7267mm" version="1.1" style="shape-rendering:geometricPrecision; text-rendering:geometricPrecision; image-rendering:optimizeQuality; fill-rule:evenodd; clip-rule:evenodd"
viewBox="0 0 3003.73 541.69"
 xmlns:xlink="http://www.w3.org/1999/xlink"
 xmlns:xodm="http://www.corel.com/coreldraw/odm/2003">
 <defs>
  <style type="text/css">
   <![CDATA[
    .fil0 {fill:#EA0117}
   ]]>
  </style>
 </defs>
 <g id="Слой_x0020_1">
  <metadata id="CorelCorpID_0Corel-Layer"/>
  <path class="fil0" d="M1806.18 210.66c16.25,-0.27 80.27,-1.1 103.26,0.12 -0.04,5.68 1.04,12.97 0.22,25.95 -13.2,-0.21 -84.79,-0.02 -104.1,-0.25 0.7,-12.16 0.16,-13.65 0.62,-25.82zm-119.04 -207.5c-5.8,21.13 -2.84,310.42 -1.81,354.09 14.81,2.43 152.51,0.75 179.9,0.78 30.13,0.04 60.27,-0.11 90.4,-0.05 27.2,0.06 62.95,1.96 89.2,-1.09 9.67,-40.82 -29.95,-197.85 -43.98,-207.16 -7.94,-5.26 -165.77,1.32 -195.29,-1.81l-1.96 -26.11c51.77,-10.26 195.05,4.25 229.43,-4.78 3.79,-13.67 14.99,-101.19 11.96,-115.63 -38.13,-0.45 -348.54,-2.81 -357.85,1.76zm-1206.9 354.42l116.56 -0.15c10.13,-21.3 -2.23,-36.94 42.88,-73.2 11.62,-9.34 60.32,-36 79.46,-35.76l1.27 108.34c10.17,2.87 105.63,1.73 119.34,-0.01l0.99 -355.46 -117.97 -0.04c-7.72,28.19 3.6,104.02 -4.39,121.89 -4.47,5.09 -21.12,8.07 -28.91,10.26 -12.24,3.43 -20.16,6.93 -30.47,11.01 -11.62,4.6 -17.8,6.5 -28.65,12.41 -7.4,4.04 -19.61,13.76 -27.27,10.99l-2.22 -8.29c-3.58,-31.59 -0.44,-126.15 -0.4,-158.53l-119.48 0.59 -0.76 355.95zm600.48 -0.53c2.27,-32.07 1.54,-203.46 2.62,-219.53 11.05,-5.23 40.54,19.29 56.56,18.62 19.55,-0.82 35.9,-20.46 61.1,-18.3l0.16 219.52 31.84 0.62 86.64 -0.64c0.85,-3.07 3.8,-336.25 1.79,-355.71 -14.47,-2.8 -84.21,-1.1 -102.67,-0.15 -14.33,0.74 -61.74,35.37 -77.16,34.96 -18.56,-0.51 -57.99,-32.77 -74.23,-34.42 -15.42,-1.56 -96.16,-2.62 -104.42,2.11 0.36,95.29 -1.89,264.54 -1.23,353.56l119 -0.64zm-1080.72 0.79l119.11 -0.35 1 -122.69c11.36,-6.36 29.4,-8.95 41.92,-13.65 13.52,-5.08 28.07,-13.43 44.02,-12.1 20.43,43.06 20.26,111.83 26.41,148.47 14.31,1.72 112.7,2.23 118.49,-2.14 4.68,-4.37 1.74,-11.74 0.72,-22.71 -3.5,-37.9 -1.75,-34.09 -9.91,-76.55 -5.81,-30.27 -15.66,-62.81 -27.38,-88.82 -7.11,-15.76 -14.9,-26.91 -3.03,-40.23 26.81,-30.1 55.15,-84.74 47.61,-126.05 -18.31,0.62 -108.39,-3.57 -116.74,1.69 -4.97,4.18 -3.84,12.93 -5.47,22.36 -1.56,9.03 -3.38,14.25 -8.22,21.17 -23.05,32.97 -98.98,69.09 -106.44,62.09l-2.04 -11.48c-0.47,-21.8 1.57,-85.39 -0.32,-96.05l-119.72 -0.15 0 357.2zm2820.73 -237.77c31.96,-6.2 62.88,21.83 65.45,51.23 3.15,35.99 -23.16,64.14 -52.03,67.28 -51.52,5.59 -90.19,-54.43 -52.89,-98.53 11.69,-13.81 18.55,-15.91 39.48,-19.98zm176.08 6.89c-7.33,-24.92 -11.7,-35.21 -26.07,-54.83 -98.03,-133.84 -322.5,-69.38 -323.77,107.11 -1.05,146.37 167.04,227.01 281.48,147.29 29.27,-20.39 59.62,-53.56 68.64,-96.81 8.79,-36.4 9.01,-59.78 -0.28,-102.76zm-684.17 78.49c0.29,-10.23 11.79,-29.08 16.85,-37.5 7.32,-12.18 12.41,-30.02 28.03,-9.34 20,26.49 1.53,28.22 -25.44,41.37 -7.05,3.43 -9.89,7.75 -19.44,5.47zm-146.01 145.82l3.46 1.12c2.93,0.57 2.11,0.6 5.59,0.85l106.24 -0.94c10.96,-13.41 2.37,-15.36 25.51,-19.78 12.93,-2.47 22.81,-6.93 33.92,-10.75 22.47,-7.72 54.27,-26.6 62.97,-25.24 2.42,17.34 -2.48,39.57 2.3,54.69l3.36 1.08c13.59,2.71 -9.48,-0.9 3.59,0.71l100.47 -0.33c18.74,-0.4 13.18,-7.13 11.87,-22.14 -1.67,-19.21 -2.23,-48.41 -6.85,-66.11 -5.37,-20.53 -9.24,-40.49 -14.67,-60.01 -20.21,-72.58 -66.05,-142.82 -116.66,-176.31 -36.48,-24.11 -44.03,-32.88 -95.82,9.74 -55.86,45.98 -89.01,110.09 -108.88,184.04 -6.68,24.83 -23.96,104.95 -16.39,129.38zm-678.04 -228.96c-26.61,6.74 -54.83,33.06 -44.95,71.29 7.96,30.84 35.17,50.17 71.99,42.87 27.46,-5.45 52.05,-37.51 43.79,-71.84 -6.31,-26.19 -36.84,-50.91 -70.83,-42.32zm-856.13 391.95l-0.04 11.9 34.04 0 0 14.22 -52.23 0 0 -65.06 51.02 0 0 14.22 -32.83 0 0 10.97 28.93 0 0 13.75 -28.89 0zm74.67 26.12l23.72 -32.95 -22.69 -32.11 20.72 0 13.05 18.8 12.79 -18.8 19.89 0 -22.64 31.43 24.13 33.63 -21.19 0 -13.49 -20.13 -13.28 20.13 -21 0zm102.24 0l0 -65.06 29.74 0c5.94,0 11.07,0.96 15.38,2.88 4.3,1.92 7.64,4.69 9.99,8.32 2.35,3.63 3.53,7.91 3.53,12.87 0,4.89 -1.18,9.15 -3.53,12.73 -2.35,3.59 -5.69,6.37 -9.99,8.32 -4.3,1.95 -9.44,2.93 -15.38,2.93l-11.34 0 0 17.01 -18.4 0zm18.4 -31.51l10.23 0c3.84,0 6.71,-0.84 8.59,-2.51 1.89,-1.67 2.83,-3.99 2.83,-6.97 0,-3.04 -0.94,-5.39 -2.83,-7.06 -1.89,-1.67 -4.77,-2.51 -8.59,-2.51l-10.23 0 0 19.05zm123.11 11l13.98 20.51 -19.7 0 -11.71 -17.29 -10.14 0 0 17.29 -18.4 0 0 -65.06 29.74 0c5.94,0 11.07,0.96 15.38,2.88 4.3,1.92 7.64,4.69 9.99,8.32 2.35,3.63 3.53,7.91 3.53,12.87 0,4.89 -1.18,9.13 -3.53,12.69 -2.19,3.32 -5.26,5.93 -9.15,7.79zm-27.57 -11l10.23 0c3.84,0 6.71,-0.84 8.59,-2.51 1.89,-1.67 2.83,-3.99 2.83,-6.97 0,-3.04 -0.94,-5.39 -2.83,-7.06 -1.89,-1.67 -4.77,-2.51 -8.59,-2.51l-10.23 0 0 19.05zm95.64 5.39l0 11.9 34.02 0 0 14.22 -52.23 0 0 -65.06 51.02 0 0 14.22 -32.81 0 0 10.97 28.91 0 0 13.75 -28.91 0zm99.2 27.42c-5.33,0 -10.46,-0.68 -15.38,-2 -4.92,-1.33 -8.94,-3.05 -12.04,-5.16l6.04 -13.57c2.91,1.86 6.28,3.4 10.08,4.6 3.8,1.2 7.61,1.81 11.38,1.81 2.54,0 4.6,-0.24 6.14,-0.7 1.54,-0.45 2.68,-1.09 3.39,-1.86 0.71,-0.77 1.07,-1.69 1.07,-2.74 0,-1.48 -0.68,-2.66 -2.05,-3.53 -1.36,-0.87 -3.13,-1.58 -5.3,-2.14 -2.17,-0.56 -4.57,-1.12 -7.2,-1.68 -2.63,-0.56 -5.27,-1.28 -7.9,-2.14 -2.63,-0.86 -5.04,-2 -7.21,-3.39 -2.16,-1.39 -3.94,-3.23 -5.3,-5.48 -1.36,-2.25 -2.05,-5.13 -2.05,-8.6 0,-3.9 1.08,-7.44 3.21,-10.59 2.13,-3.16 5.34,-5.7 9.62,-7.62 4.28,-1.92 9.6,-2.88 15.99,-2.88 4.27,0 8.47,0.48 12.59,1.44 4.12,0.96 7.79,2.37 11.01,4.23l-5.67 13.67c-3.1,-1.68 -6.17,-2.93 -9.2,-3.77 -3.04,-0.83 -5.98,-1.25 -8.83,-1.25 -2.54,0 -4.59,0.27 -6.13,0.79 -1.54,0.52 -2.68,1.23 -3.35,2.09 -0.68,0.86 -1.02,1.86 -1.02,2.97 0,1.42 0.66,2.56 1.99,3.39 1.33,0.84 3.11,1.53 5.3,2.05 2.19,0.52 4.62,1.08 7.25,1.63 2.62,0.55 5.27,1.26 7.9,2.09 2.63,0.83 5.03,1.95 7.2,3.35 2.17,1.39 3.93,3.23 5.25,5.48 1.33,2.25 2,5.1 2,8.5 0,3.78 -1.07,7.27 -3.21,10.46 -2.14,3.19 -5.34,5.75 -9.57,7.67 -4.24,1.91 -9.58,2.88 -16.03,2.88zm92.23 0c-5.33,0 -10.47,-0.68 -15.38,-2 -4.92,-1.32 -8.94,-3.05 -12.04,-5.16l6.04 -13.57c2.91,1.86 6.28,3.4 10.08,4.6 3.8,1.2 7.61,1.81 11.38,1.81 2.54,0 4.6,-0.24 6.14,-0.7 1.54,-0.45 2.68,-1.09 3.39,-1.86 0.71,-0.77 1.07,-1.69 1.07,-2.74 0,-1.48 -0.68,-2.66 -2.05,-3.53 -1.36,-0.87 -3.13,-1.58 -5.3,-2.14 -2.17,-0.56 -4.57,-1.12 -7.2,-1.68 -2.63,-0.56 -5.28,-1.28 -7.9,-2.14 -2.63,-0.86 -5.04,-2 -7.21,-3.39 -2.16,-1.38 -3.94,-3.23 -5.3,-5.48 -1.35,-2.25 -2.05,-5.13 -2.05,-8.6 0,-3.9 1.08,-7.44 3.21,-10.59 2.13,-3.15 5.34,-5.7 9.62,-7.62 4.28,-1.92 9.6,-2.88 15.99,-2.88 4.27,0 8.47,0.48 12.59,1.44 4.12,0.96 7.79,2.37 11.01,4.23l-5.67 13.67c-3.1,-1.68 -6.17,-2.93 -9.2,-3.77 -3.04,-0.83 -5.98,-1.25 -8.83,-1.25 -2.54,0 -4.6,0.27 -6.13,0.79 -1.54,0.52 -2.68,1.24 -3.35,2.09 -0.67,0.86 -1.02,1.86 -1.02,2.97 0,1.42 0.66,2.56 1.99,3.39 1.33,0.84 3.11,1.53 5.3,2.05 2.19,0.52 4.63,1.08 7.25,1.63 2.62,0.55 5.28,1.26 7.9,2.09 2.63,0.83 5.03,1.95 7.2,3.35 2.17,1.39 3.93,3.23 5.25,5.48 1.32,2.25 2,5.1 2,8.5 0,3.78 -1.07,7.27 -3.21,10.46 -2.14,3.19 -5.34,5.76 -9.57,7.67 -4.23,1.91 -9.58,2.88 -16.03,2.88zm169.94 -27.51l-8.35 -20.8 -8.35 20.8 16.7 0zm5.45 13.57l-27.59 0 -5.08 12.64 -18.78 0 28.72 -65.06 18.12 0 28.81 65.06 -19.14 0 -5.07 -12.64zm84.38 13.94c-5.33,0 -10.49,-0.7 -15.38,-2 -4.89,-1.3 -8.94,-3.05 -12.04,-5.16l6.04 -13.57c2.91,1.86 6.3,3.42 10.08,4.6 3.77,1.18 7.61,1.81 11.38,1.81 2.54,0 4.62,-0.26 6.14,-0.7 1.51,-0.43 2.68,-1.09 3.39,-1.86 0.71,-0.77 1.07,-1.69 1.07,-2.74 0,-1.48 -0.68,-2.66 -2.05,-3.53 -1.36,-0.87 -3.13,-1.58 -5.3,-2.14 -2.17,-0.56 -4.57,-1.12 -7.2,-1.68 -2.63,-0.56 -5.3,-1.3 -7.9,-2.14 -2.6,-0.84 -5.07,-2.03 -7.21,-3.39 -2.13,-1.36 -3.97,-3.25 -5.3,-5.48 -1.33,-2.23 -2.05,-5.13 -2.05,-8.6 0,-3.9 1.1,-7.47 3.21,-10.59 2.11,-3.13 5.34,-5.7 9.62,-7.62 4.28,-1.92 9.6,-2.88 15.99,-2.88 4.27,0 8.47,0.48 12.59,1.44 4.12,0.96 7.79,2.37 11.01,4.23l-5.67 13.67c-3.1,-1.68 -6.17,-2.93 -9.2,-3.77 -3.04,-0.83 -5.98,-1.25 -8.83,-1.25 -2.54,0 -4.62,0.3 -6.13,0.79 -1.51,0.49 -2.7,1.26 -3.35,2.09 -0.65,0.83 -1.02,1.86 -1.02,2.97 0,1.42 0.66,2.56 1.99,3.39 1.33,0.84 3.13,1.56 5.3,2.05 2.17,0.49 4.65,1.1 7.25,1.63 2.6,0.53 5.3,1.29 7.9,2.09 2.6,0.81 5.03,1.95 7.2,3.35 2.17,1.39 3.95,3.25 5.25,5.48 1.3,2.23 2,5.1 2,8.5 0,3.78 -1.07,7.27 -3.21,10.46 -2.14,3.19 -5.36,5.78 -9.57,7.67 -4.21,1.88 -9.58,2.88 -16.03,2.88zm64.31 -1.3l0 -65.06 18.4 0 0 65.06 -18.4 0zm80.1 -26.21l16.71 0 -8.32 -20.77 -8.39 20.77zm-5.44 13.57l-5.08 12.65 -18.83 -0.01 28.72 -65.06 18.12 0 28.81 65.06 -19.14 0 -5.01 -12.61 -27.59 -0.03zm84 12.64l0 -65.06 15.15 0 28.72 34.67 0 -34.67 18.03 0 0 65.06 -15.15 0 -28.71 -34.67 0 34.67 -18.03 0zm186.69 1.3c-5.14,0 -9.9,-0.82 -14.27,-2.46 -4.37,-1.64 -8.2,-4.03 -11.34,-7.02 -3.14,-2.98 -5.74,-6.66 -7.48,-10.73 -1.74,-4.07 -2.69,-8.66 -2.69,-13.61 0,-4.96 0.9,-9.5 2.69,-13.62 1.79,-4.12 4.29,-7.7 7.48,-10.73 3.19,-3.04 6.97,-5.38 11.34,-7.02 4.37,-1.64 9.13,-2.46 14.27,-2.46 6.01,0 11.44,1.1 16.12,3.16 4.69,2.06 8.69,5.15 11.85,9.11l-11.71 10.59c-2.11,-2.48 -4.46,-4.42 -6.92,-5.67 -2.46,-1.25 -5.31,-1.95 -8.41,-1.95 -2.66,0 -5.12,0.43 -7.34,1.3 -2.23,0.86 -4.19,2.18 -5.71,3.77 -1.53,1.59 -2.87,3.66 -3.72,5.9 -0.85,2.24 -1.34,4.83 -1.34,7.63 0,2.79 0.44,5.33 1.34,7.62 0.9,2.29 2.15,4.26 3.72,5.9 1.58,1.64 3.53,2.95 5.71,3.77 2.18,0.82 4.68,1.3 7.34,1.3 3.1,0 5.91,-0.65 8.41,-1.95 2.5,-1.3 4.82,-3.19 6.92,-5.67l11.71 10.59c-3.16,3.9 -7.16,6.97 -11.85,9.06 -4.69,2.09 -10.11,3.21 -16.12,3.21zm93.22 0c-9.6,0 -17.1,-2.64 -22.49,-7.9 -5.39,-5.27 -8.08,-12.73 -8.08,-22.4l0 -36.06 18.4 0 0 35.51c0,5.47 1.1,9.57 3.3,11.99 2.2,2.41 5.22,3.62 9.06,3.62 3.84,0 6.85,-1.21 9.01,-3.62 2.17,-2.41 3.25,-6.41 3.25,-11.99l0 -35.51 18.12 0 0 36.06c0,9.56 -2.75,17.18 -8.08,22.4 -5.34,5.22 -12.89,7.9 -22.49,7.9zm65.03 -1.3l0 -65.06 18.4 0 0 65.06 -18.4 0zm81.42 1.3c-5.33,0 -10.51,-0.72 -15.38,-2 -4.87,-1.28 -8.94,-3.05 -12.04,-5.16l6.04 -13.57c2.91,1.86 6.32,3.44 10.08,4.6 3.75,1.16 7.61,1.81 11.38,1.81 2.54,0 4.64,-0.28 6.14,-0.7 1.49,-0.41 2.68,-1.09 3.39,-1.86 0.71,-0.77 1.07,-1.69 1.07,-2.74 0,-1.48 -0.68,-2.66 -2.05,-3.53 -1.36,-0.87 -3.13,-1.58 -5.3,-2.14 -2.17,-0.56 -4.57,-1.12 -7.2,-1.68 -2.63,-0.56 -5.32,-1.32 -7.9,-2.14 -2.58,-0.82 -5.09,-2.05 -7.21,-3.39 -2.11,-1.34 -3.99,-3.27 -5.3,-5.48 -1.31,-2.21 -2.05,-5.13 -2.05,-8.6 0,-3.9 1.12,-7.49 3.21,-10.59 2.09,-3.11 5.34,-5.7 9.62,-7.62 4.28,-1.92 9.6,-2.88 15.99,-2.88 4.27,0 8.47,0.48 12.59,1.44 4.12,0.96 7.79,2.37 11.01,4.23l-5.67 13.67c-3.1,-1.68 -6.17,-2.93 -9.2,-3.77 -3.04,-0.83 -5.98,-1.25 -8.83,-1.25 -2.54,0 -4.64,0.32 -6.13,0.79 -1.49,0.47 -2.72,1.28 -3.35,2.09 -0.63,0.81 -1.02,1.86 -1.02,2.97 0,1.42 0.66,2.56 1.99,3.39 1.33,0.84 3.15,1.58 5.3,2.05 2.15,0.47 4.67,1.12 7.25,1.63 2.58,0.5 5.32,1.31 7.9,2.09 2.58,0.79 5.03,1.95 7.2,3.35 2.17,1.39 3.97,3.27 5.25,5.48 1.28,2.21 2,5.1 2,8.5 0,3.78 -1.07,7.27 -3.21,10.46 -2.14,3.19 -5.38,5.8 -9.57,7.67 -4.19,1.86 -9.58,2.88 -16.03,2.88zm64.31 -1.3l0 -65.06 18.4 0 0 65.06 -18.4 0zm48.45 0l0 -65.06 15.15 0 28.72 34.67 0 -34.67 18.03 0 0 65.06 -15.15 0 -28.71 -34.67 0 34.67 -18.03 0zm120.17 -26.12l0 11.9 34.02 0 0 14.22 -52.23 0 0 -65.06 51.02 0 0 14.22 -32.81 0 0 10.97 28.91 0 0 13.75 -28.91 0z"/>
 </g>
</svg>
