<?xml version="1.0" encoding="UTF-8"?>
<!DOCTYPE svg PUBLIC "-//W3C//DTD SVG 1.1//EN" "http://www.w3.org/Graphics/SVG/1.1/DTD/svg11.dtd">
<!-- Creator: CorelDRAW 2021 (64-Bit) -->
<svg xmlns="http://www.w3.org/2000/svg" xml:space="preserve" width="21.9627mm" height="21.6979mm" version="1.1" style="shape-rendering:geometricPrecision; text-rendering:geometricPrecision; image-rendering:optimizeQuality; fill-rule:evenodd; clip-rule:evenodd"
viewBox="0 0 169.37 167.33"
 xmlns:xlink="http://www.w3.org/1999/xlink"
 xmlns:xodm="http://www.corel.com/coreldraw/odm/2003">
 <defs>
  <style type="text/css">
   <![CDATA[
    .fil0 {fill:#FD7222;fill-rule:nonzero}
   ]]>
  </style>
 </defs>
 <g id="Слой_x0020_1">
  <metadata id="CorelCorpID_0Corel-Layer"/>
  <path class="fil0" d="M116.82 0.05c5.35,-0.5 10.32,2.75 11.69,7.88l4.9 18.39c-62.07,1.79 -104.05,42.69 -106.68,103.6l-18.84 -5.16c-5.2,-1.42 -8.43,-6.43 -7.81,-11.73 6.91,-59.08 56.56,-107.37 116.74,-112.99zm19.34 36.6l33.03 124.03c0.24,0.9 0.24,1.85 -0.01,2.75 -0.25,0.9 -0.73,1.72 -1.41,2.37 -0.67,0.65 -1.5,1.12 -2.42,1.36 -0.91,0.23 -1.87,0.23 -2.78,-0.02l-125.38 -34.35c1.41,-57.16 40.72,-95.48 98.96,-96.12l0 -0.01zm-9.13 99.3c2.09,0 4.14,-0.61 5.88,-1.76 1.74,-1.15 3.1,-2.78 3.9,-4.69 0.8,-1.91 1.01,-4.01 0.6,-6.04 -0.41,-2.03 -1.42,-3.89 -2.9,-5.35 -1.48,-1.46 -3.37,-2.46 -5.42,-2.86 -2.05,-0.4 -4.18,-0.2 -6.12,0.6 -1.93,0.79 -3.59,2.13 -4.75,3.85 -1.16,1.72 -1.78,3.74 -1.78,5.81 0,2.77 1.11,5.43 3.1,7.39 1.98,1.96 4.68,3.06 7.49,3.06zm-15.88 -49.68c2.09,0 4.14,-0.61 5.88,-1.76 1.74,-1.15 3.1,-2.78 3.9,-4.69 0.8,-1.91 1.01,-4.01 0.6,-6.04 -0.41,-2.03 -1.42,-3.89 -2.9,-5.35 -1.48,-1.46 -3.37,-2.46 -5.42,-2.86 -2.05,-0.4 -4.18,-0.2 -6.12,0.6 -1.93,0.79 -3.59,2.13 -4.75,3.85 -1.16,1.72 -1.78,3.74 -1.78,5.81 0,2.77 1.12,5.43 3.1,7.4 1.99,1.96 4.68,3.06 7.49,3.06zm-34.4 33.99c2.09,0 4.14,-0.61 5.88,-1.76 1.74,-1.15 3.1,-2.78 3.9,-4.69 0.8,-1.91 1.01,-4.01 0.6,-6.04 -0.41,-2.03 -1.42,-3.89 -2.9,-5.35 -1.48,-1.46 -3.37,-2.46 -5.42,-2.86 -2.05,-0.4 -4.18,-0.2 -6.12,0.6 -1.93,0.79 -3.59,2.13 -4.75,3.85 -1.16,1.72 -1.79,3.74 -1.79,5.81 0,2.77 1.12,5.43 3.1,7.39 1.99,1.96 4.68,3.06 7.48,3.06z"/>
 </g>
</svg>
