<?xml version="1.0" encoding="UTF-8"?>
<!DOCTYPE svg PUBLIC "-//W3C//DTD SVG 1.1//EN" "http://www.w3.org/Graphics/SVG/1.1/DTD/svg11.dtd">
<!-- Creator: CorelDRAW 2021 (64-Bit) -->
<svg xmlns="http://www.w3.org/2000/svg" xml:space="preserve" width="59.3143mm" height="23.5487mm" version="1.1" style="shape-rendering:geometricPrecision; text-rendering:geometricPrecision; image-rendering:optimizeQuality; fill-rule:evenodd; clip-rule:evenodd"
viewBox="0 0 2117.75 840.78"
 xmlns:xlink="http://www.w3.org/1999/xlink"
 xmlns:xodm="http://www.corel.com/coreldraw/odm/2003">
 <defs>
  <style type="text/css">
   <![CDATA[
    .fil0 {fill:#33231B}
   ]]>
  </style>
 </defs>
 <g id="Слой_x0020_1">
  <metadata id="CorelCorpID_0Corel-Layer"/>
  <path class="fil0" d="M668.28 239.86c4.47,-2.65 6.29,-10.42 0.99,-14.16 -6.32,-4.47 -14.09,-1.42 -14.67,6.29 -0.69,9.03 6.87,11.9 13.68,7.87zm-83.99 110.61c2.13,-18.14 -5.92,-62.06 4.95,-72.71 2.26,-12.51 9.79,-18.74 15.98,-14.5 7.73,5.3 -2.52,23.36 -2.99,22.39 -0.12,-0.24 -0.54,0.55 -0.84,0.79 0.51,9.78 -11.04,22.9 -12.15,24.69 7.23,5.17 20.57,29.81 55.34,13.5 18.31,-8.59 34.15,-17.16 50.12,-27.67 64.76,-42.63 24.41,-67.45 16.81,-80.08 -3.55,-5.89 -2.38,-10.19 -8.19,-12.72 -6.49,5.71 -5.47,20.08 -0.7,27.07 13.2,19.33 33.38,19.92 -34.7,54.31 -12.1,6.11 -44.88,23.9 -59.35,23.11 2.07,-21.36 31.93,-44.45 11.2,-70.9 -18.21,-1.89 -23.47,4.93 -29.79,18.41 -6.83,14.56 -10.6,28.12 -16.58,41.63 -7.83,-4.01 -11.47,-25.42 -15.64,-38.69l-24.51 -82.37c-3.71,-11.5 -7.85,-31.87 -12.84,-41.15 -5.59,-1.6 -17.19,-2.41 -22.75,0.31 -3.3,6.47 -0.78,23.82 -0.59,32.22 0.41,17.21 42.08,96.98 51.11,118.73 4.59,11.06 23.18,62.57 36.11,63.65zm195.22 -153.89c9.13,-2.65 11.37,-1.02 14.66,5.67 9.54,19.41 3.99,42.28 -9.83,46.59 -26.35,8.21 -25.96,-46.11 -4.83,-52.25zm-0.48 -13.04c-14.8,6.32 -31.17,32.02 -31.51,53.88 -0.92,60.56 63.03,59.57 71,-12.43 3.85,-34.69 -16.61,-51.22 -39.5,-41.45zm84.45 17.78c21.85,-9.75 31.03,27.99 17.81,34.91 -20.64,10.8 -32.64,-28.3 -17.81,-34.91zm66 -15.88c20.19,-7.88 27.34,29.36 9.18,35.92 -23.1,8.35 -26.63,-29.12 -9.18,-35.92zm-44.41 -5.1c-7.37,0.45 -21.07,-14.59 -37.2,2.96 -21.27,23.13 -7.73,90.97 31.08,78.27 10.08,-3.3 5.81,-9.48 16.75,-10.77 31.88,65.77 -12.49,102.51 -40.93,101.06 -12.62,-0.65 -27.84,-12.55 -38.22,-16.33 -0.72,10.94 53.53,59.3 86.61,15.66 30.09,-39.69 16.2,-62.33 9.68,-111.29 20.64,0.45 31.97,0.65 43.27,-10.88 20.17,-20.58 13.27,-66.44 -19.32,-66.56 -23.27,-0.08 -22.76,10.04 -31.98,21.95 -5.17,-7.33 -4.03,-36.63 -5.82,-53.61l-1.01 -15.42c-0.1,-0.42 -0.29,-0.8 -0.41,-1.17 -0.12,-0.37 -0.41,-0.82 -0.52,-1.11 -0.11,-0.29 -0.32,-0.76 -0.57,-1.08 -4.76,1.52 -4.08,5.44 -9.15,10.68 -7.93,8.2 1.05,28.4 -2.24,57.63zm139.33 -14.09c0.89,8.2 -1.01,15.1 -4.09,21.29 -8.73,17.53 -19.04,13.25 -11.65,-11.69 2.86,-9.66 4.27,-10.84 15.74,-9.59zm-13.99 71.46l1.39 -0.01c21.56,-0.12 37.65,-2.35 55.82,-8.35 17,-5.61 28.87,-14.48 30.41,-35.35 -9.57,1.45 -9.01,4.04 -15.59,7.13 -5.87,2.76 -47.13,16.22 -54.7,9.28 -6.48,-6.43 12.65,-40.06 15.21,-48.91 5.11,-17.69 -4.3,-41.02 -31.45,-14.66 -11.3,10.98 -21.41,25.01 -23.68,45.3 -1.29,11.5 -0.2,20.38 2.22,30.63 2.82,11.91 7.23,15.02 20.37,14.94zm216.2 -155.12c-7.85,2.53 -16.12,15.21 -26.42,11.14 -11,-4.35 -7.63,-18.97 -9.22,-31.32 -15.31,0.36 -21.89,36.91 -5.91,44.87 18.43,9.18 40.77,-14.12 41.54,-24.69zm-53.62 127.86c6.14,12.08 -1.24,34.04 44.85,28.34 22.7,-2.8 45.8,-5.42 47.68,-29.83 -17.02,5.34 -60.96,18.52 -73.67,1.39 -16.37,-22.08 6.99,-50.98 5.71,-72.54 -9.1,-0.17 -10.05,8.42 -13.68,16.01 -3.61,7.55 -6.47,14.05 -10.05,21.79 -4.88,10.55 -18.97,36.35 -34.95,27.79 -6.8,-7.62 34.78,-186.12 31.22,-203.31 -35.06,-2.14 -32.55,35.98 -34.93,53.86 -3.49,26.26 -4.36,54.65 -7.67,80.9 -2.12,16.72 -19.64,121.17 20.88,96.16 11.42,-7.05 15.74,-17.45 24.61,-20.56zm106.14 40.44c12.57,1.47 18.02,-20.53 24.48,-28.55 8.9,-0.4 9.74,4.38 17.42,6.39 8.14,2.12 13.47,-1.06 22.24,-1.54 6.77,23.84 10.73,39.15 34,49.01 26.81,11.37 47.6,1.51 53.64,-21.69 -11.69,0.15 -14,5.78 -38.86,0.15 -35.89,-8.13 -33.2,-21.38 -17.26,-48.9 2.13,-3.68 5.51,-10.98 7.8,-14.49 4.01,-6.14 8.01,-5.17 6.87,-15.95 -22.61,-2.68 -22.72,8.63 -33.16,23.12 -9.06,12.59 -33.73,7.34 -44.75,0.1 0.58,-15 9.8,-23.94 11.16,-35.83 -25.16,0.87 -27.24,12.94 -31.26,34.55 -2.38,12.76 -13.12,43.87 -12.33,53.61zm252.38 12.47c-15.42,-1.69 -16.05,-27.11 -7.78,-29.63 13.61,-4.14 15.74,20.52 7.78,29.63zm-5.14 17.19c-8.48,12.15 -30.61,6.57 -43.5,0.08 -6.7,-3.37 -12.31,-7.49 -17.73,-11.52 -3.68,-2.74 -12,-11.63 -16.56,-11.82 -4.94,25.6 14.92,41.48 29.93,48.62 28.87,13.72 49.13,-8.61 61.27,-10.14 -9.14,43.16 38.44,61.96 53.94,59.77 11.08,-1.56 20.96,-7.1 22.95,-16.62 -2.85,-1.9 -8.89,-2.06 -11.92,-2.78 -19.83,-4.66 -59.78,-29.22 -47.36,-53.45 10.71,-20.89 48.85,-48.21 48.31,-70.87 -8.11,-0.67 -9.23,2.48 -12.78,6.42 -6.41,7.1 -27.41,30.03 -34.99,31.44 -2.47,-4.85 -2.78,-19.44 -14.04,-31.53 -28.66,-30.78 -43.27,18.36 -38.71,35.71 4.46,16.98 18.52,17.84 21.2,26.69zm75.17 -8.24c-10.24,3.5 -10.55,13.45 -4.96,20.99 4.01,5.42 13.75,9.42 22.62,5.58 15.38,-6.66 3.18,-33.72 -17.66,-26.57zm496.98 477.43c17.24,-12.37 21.95,-34.94 17.78,-53.33 -4.17,-18.38 -18.24,-24.57 -26.46,-25.79 0.16,15.82 2.21,22.33 -7.69,31.41 -34.54,31.67 -99.2,22.49 -95.88,-21.21 3.35,-43.96 27.59,-5.11 42.33,-12.92 0.02,-0.01 21.29,-15.98 20.88,-20.48 -0.45,-4.87 -21.89,-15.7 -27.36,-15.42 -9.93,0.51 -18.2,16.77 -26.26,12.61 -13.19,-7.5 -4.3,-43.92 24,-50.47 31.99,-7.4 62.35,6.06 75.11,7.81 3.3,-6.78 14.8,-44.4 14.54,-51.81 -7.94,-6.24 -47.11,-12.86 -61.03,-13.66 -82.68,-4.75 -103.06,42.62 -101.63,126.22 0.87,50.87 10.79,86.97 50.35,101.21 30.57,11 84.09,-1.78 101.32,-14.16zm-170.46 -43.07c-12.94,-0.31 -34.96,4.92 -50.48,6.22 -43.45,3.65 -53.31,6.63 -95.99,-9.64 -10.79,-4.12 -8.58,-6.89 -8.56,-19.72 0.01,-8.55 0.09,-17.3 0.76,-25.71 2.02,-25.37 8.34,-135.96 12.29,-153.51 2.49,-11.07 9.6,-34.74 9.58,-44.55 -5.96,0.88 -29.36,11.04 -37.12,14.28 -13.16,5.48 -22.56,8.36 -35.92,13.54 0.47,12.51 9.91,8.04 12.72,22.59 1.8,9.39 0.77,25.71 0.7,35.77 -0.37,46.64 -5.94,177.11 5.03,207.55 10.38,28.83 90.38,29.02 116.31,26.85 17.68,-1.47 52.36,0.13 58.53,-14.29 3.72,-8.7 12.45,-49.31 12.16,-59.41zm-227.85 -2.88c-10.54,-0.54 -34.28,5.62 -47.69,6.91 -41.38,3.98 -57.63,6.1 -97.28,-9.1 -10.58,-4.06 -9.37,-5.74 -9.52,-18.03 -0.18,-16.09 10.83,-172.16 12.9,-181.26 2.19,-9.64 10.44,-37.89 10.17,-45.07 -5.21,0.6 -45.88,17.98 -55.38,22.05 -5.85,2.52 -13.06,3.92 -18.59,6.17 2.61,13.29 11.65,6.47 13.46,24.33 1.02,10.01 0.09,25.52 0.1,36.18 0.07,43.03 -5.73,185.87 6.53,208.24 13.24,24.15 85.5,26.31 119.47,24.55 16.62,-0.85 50.14,-1.38 54.86,-16.87 2.81,-9.24 12.89,-48.09 10.96,-58.1zm-264.45 -39.65c-1.2,23.31 1.85,26.76 -16.31,37.98 -12.71,7.86 -26.72,11.17 -43.58,11.35 -35.3,0.39 -54.91,-27.53 -35.77,-60.11 14.07,-1.36 24.18,11.62 33.56,8.59 3.33,-1.08 9.18,-7.73 12.3,-10.01 5.53,-4.03 10.31,-4.97 10.33,-12.87 -3.72,-2.43 -9.16,-4.39 -13.21,-7.16 -4.36,-2.98 -7.8,-7.52 -15.33,-6.59 -12.2,1.5 -12.53,16.58 -27.65,12.01 -12.02,-25.06 8.62,-46.4 27.92,-50.31 13.5,-2.74 26.66,-0.25 39.82,0.63 15.62,1.04 24.8,7.98 34.49,8.03 2.55,-6.36 14.27,-47.15 13.62,-53.45 -13.89,-7.01 -57.21,-13.38 -74.55,-13.15 -26.25,0.36 -50.99,11.06 -64.35,24.77 -27.4,28.12 -29.96,102.14 -19.27,148.31 11.5,49.65 53.46,69.69 113.42,57.34 26.8,-5.52 41.74,-18.06 50.97,-38.42 4.16,-9.19 4.19,-29.6 -0.89,-38.39 -3.83,-6.63 -16.57,-16.98 -25.54,-18.57zm-317.21 -101.39c13.37,-0.64 5.19,-13.12 20.57,-21.43 30.15,-16.27 58.76,27.16 42.61,73.06 -10.03,28.51 -44.34,27.51 -56.79,18.58 -20.01,-14.32 -6.69,-53.57 -28.38,-57.85 -3.53,2.46 -12.12,15.91 -13.81,20.84 -2.58,7.57 -17.74,142.04 -20.09,161.05 -2.29,18.5 -8.1,46.12 -6.99,66.08l68.29 -2.61c4.9,-15.99 -8.89,-137 -2.09,-153.29 12.75,0.29 10.21,11.96 13.85,30.26 6.06,30.44 17.25,75.07 51.53,81.67 18.86,3.62 89.68,-2.09 85.27,-46.69 -0.52,-5.33 -2.71,-12.64 -4.24,-17.84 -1.28,-4.32 -2.58,-15.59 -3.58,-18.15 -7.02,0.15 -7.4,4.7 -11,9.36 -2.85,3.68 -7.47,8.28 -11.29,11.11 -7.17,5.32 -20.96,11.16 -33.33,10.2 -24.57,-1.91 -44.82,-31.72 -44.02,-43.26 13.31,-7.11 45.87,-2.34 66.45,-43.21 20.62,-40.91 15.61,-143.92 -63.97,-137.3 -23.22,1.93 -58.51,32.39 -49,59.41zm-137.33 -21.3c-5.3,0.84 -2.27,-1.53 -4.52,1.75 18.11,22.79 26.5,31.48 23.42,73.25 -1.07,14.51 -6.57,24.84 -16.43,31.99 -30.5,22.11 -80.63,-16.13 -58.72,-68.23 15.97,-37.97 43.86,-37.6 46.63,-49.39l-34.83 0.41c-25.62,8.83 -36.31,12.68 -51.81,31.03 -13.3,15.74 -23.61,33.29 -26.52,57.83 -5.16,43.62 23.2,84.6 71.43,95.25 73.3,16.17 130.11,-64.13 94.84,-135.09 -5.53,-11.11 -9.74,-16.66 -17.87,-23.79 -7.26,-6.36 -21.94,-11.09 -25.62,-15.02zm-355.36 221.71c-0.41,12.65 3.13,25.07 5.3,37.04 2.4,13.27 0.85,25.7 12.99,29.95 35.61,12.45 113.37,19.25 139.92,-10.24 11.25,-12.5 24.01,-35.56 27.61,-57.34 3.69,-22.36 9.43,-127.84 12.05,-159.41 2.04,-24.61 13.32,-142.57 11.92,-157.83 -4.8,0.58 -70.75,33.99 -74.04,39.5 1.95,6.41 11.92,9.6 16.89,13.77 6.46,5.44 6.05,14.06 6.11,25.13 0.1,20.6 -1.02,39.06 -1.1,59.76 -0.16,40.68 0.08,81.64 -0.8,122.29 -0.33,15.19 3.38,47.8 -5.03,56.23 -8.58,8.6 -30.49,14.59 -45.19,15.66 -50.18,3.68 -83.72,-13.77 -106.62,-14.5zm-98.73 -107.66c-1.07,-10.55 8.33,-36.65 10.36,-47.5l7.98 -35.04c0.12,-0.36 1.54,-4.15 2,-4.77 2.61,-3.49 0.44,-2.19 5.08,-3.63 3.19,12.37 3.75,33.01 6.02,47.54 1.67,10.66 7.92,31.99 6.92,43.39 -10.43,-2.45 -11.88,-9.32 -19.28,-10 -8.95,-0.82 -10.46,6.99 -19.09,10.03zm59.59 134.99c8.2,-0.39 7.49,-5.9 11.17,-12.22 18.02,-30.92 15.71,-17.29 16.08,-53.03 0.31,-30.54 0.13,-61.16 0.37,-91.72l1.7 -179.59c-4.97,-0.45 -59.37,21.14 -70.8,25.68 -6.61,2.62 -19.72,4.92 -23.65,9.39 2.41,7.53 4.32,6.01 11.79,8.73 3.38,1.23 9.7,3.56 12.99,5.03 1.27,15.13 -33.65,117.99 -40.97,139.78 -8.9,26.5 -12.54,44.14 -33.89,56.45 -9.57,5.52 -26.81,7.43 -38.98,5.34 -13.38,-2.3 -17.67,-15.55 -27.98,-17.18 -8.99,8.58 -16.44,40.87 -5.7,63.1 10.38,21.47 32.3,15.81 59.58,11.94 28.83,-4.09 37.64,-6.46 46.82,-30.58 4.23,-11.13 6.64,-17.39 9.43,-29.75 1.16,-5.17 6.69,-26.24 9.39,-29.45 8.1,0.44 14.29,12.04 22.23,14.33 9.3,-2.7 9.35,-12.68 20.84,-14.7 5.99,10.26 15.12,103.67 19.59,118.43zm-362.83 -116c10.95,8.83 21.86,57.95 -2.73,56.64 -22.87,-1.21 -10.13,-50.59 2.73,-56.64zm-217.79 58.37l-4.21 0.24c-0.55,34.75 -1.37,53.93 -1.9,66.08 1.62,5.92 1.62,3.99 5.32,8.2 4.08,0.4 11.45,3.41 17.74,4.45 7.05,1.16 14.41,1.4 21.58,1.52 38.17,0.66 65.7,-21.06 84.49,-52.22 12.09,-20.05 21.39,-36.32 31.74,-60.08 5.14,-11.8 21.7,-54.62 28.29,-61.15 9.57,-0.32 22.75,13.8 16.59,26.8 -4.72,9.94 -11.92,22.13 -14.58,32.45 -7.43,28.83 6.44,58.02 35.43,55.33 45.11,-4.18 25.31,-71.22 19.25,-102.47 -4.6,-23.71 12.7,-29.8 15.57,-29.16 19.71,10.73 33.03,105.89 44.02,134.86 8.48,22.31 20.95,43.33 50.53,40.45 28.18,-2.75 27.68,-35.94 24.69,-64.28 -9.13,0.55 -16.14,10.33 -27.61,10.89 -54.95,2.66 -35.6,-146.08 -31.3,-178.48 1.42,-10.7 3.89,-22.23 4.23,-32.15 -35.75,-3 -87.24,77.13 -93.74,80.27 -5.85,-3.3 -17.51,-30.63 -22.08,-37.96 -9.62,-15.41 -15.1,-34.97 -23.78,-36.53 -10.25,10.95 -37.2,122.13 -49.67,152.19 -17.53,42.26 -51.6,60.96 -95.78,55.08 -29.73,-3.95 -25.71,-9.81 -34.81,-14.29z"/>
 </g>
</svg>
