<?xml version="1.0" encoding="UTF-8"?>
<!DOCTYPE svg PUBLIC "-//W3C//DTD SVG 1.1//EN" "http://www.w3.org/Graphics/SVG/1.1/DTD/svg11.dtd">
<!-- Creator: CorelDRAW 2021 (64-Bit) -->
<svg xmlns="http://www.w3.org/2000/svg" xml:space="preserve" width="59.5486mm" height="20.7704mm" version="1.1" style="shape-rendering:geometricPrecision; text-rendering:geometricPrecision; image-rendering:optimizeQuality; fill-rule:evenodd; clip-rule:evenodd"
viewBox="0 0 13858.63 4833.86"
 xmlns:xlink="http://www.w3.org/1999/xlink"
 xmlns:xodm="http://www.corel.com/coreldraw/odm/2003">
 <defs>
  <style type="text/css">
   <![CDATA[
    .fil0 {fill:#F90012}
   ]]>
  </style>
 </defs>
 <g id="Слой_x0020_1">
  <metadata id="CorelCorpID_0Corel-Layer"/>
  <path class="fil0" d="M4785.35 3924.96c2.4,-45.96 36.31,-58.16 42.24,-123.83 9.52,-105.01 2.07,-1110.11 2.19,-1240.42 0.16,-232.45 6.12,-468.83 6.59,-697.53 0.21,-105.17 -18.36,-97.72 263.49,-87.04 397.87,15.08 351.54,404.32 351.75,703.05 0.19,235.54 0.3,471 0.21,706.54 0,197.21 20.25,489.43 -82.87,622.25 -48.83,62.86 -119.9,112.76 -232.68,117.99 -90.67,4.14 -267.71,14.8 -350.91,-1zm963.73 -83.99c134.1,-162.89 92.77,-792.53 92.65,-1053.79 -0.05,-192.86 1.35,-387.33 -0.65,-579.98 -1.93,-178.48 -56.79,-335.04 -139.68,-442.09 -31.93,-28.07 -52.29,-60.35 -102.91,-92.95 -129.7,-83.57 -320.4,-119.81 -480.56,-124.09 -103.1,-2.79 -765.63,-18.92 -802.63,10.68 -35.61,38.35 -1.42,108.45 23.37,132.28 122,117.25 104.84,-56.48 105.17,443.98l1.33 1467.4c-0.05,66.7 14.29,311.18 -12.96,347.39 -41.64,55.37 -195.47,78.27 -147.81,202.75 33.47,13.22 1004.62,61.11 1235.44,-85.6 98.05,-62.3 173.06,-108.89 229.26,-225.98zm-2116.92 -2066.74l98.56 345.42c31.86,-0.16 183.51,-2.23 183.88,-0.98l9.98 -574.28c-133.66,-4.84 -1304.35,-4.12 -1330.79,13.64 -17.25,22.39 -10.08,38.94 0.54,65.44 11.52,28.84 13.36,35.72 37.54,53.09 35.61,25.6 80.11,35.96 92.65,89.74 10.15,43.45 3.93,1655.86 3.68,1827.03 -0.63,395.66 31.42,343.72 -117.55,427.85 -17.55,9.91 -35,23.02 -42.4,46.94 -10.66,34.23 -9.12,63.72 9.96,82.08 24.58,23.69 1270.67,18.13 1383.68,8.68 17.8,-45.71 17.9,-530.88 4.86,-575.09 -21.04,-1.12 -139.75,1.05 -161.02,2.51 -41.64,118.2 -63.07,165.35 -92.14,287.63 -11.68,49.13 -14.59,53.95 -63.28,61.74l-561.57 0.3c-3,-82.8 34.19,-27.04 33.42,-206.69 -0.98,-221.86 -5.19,-547.93 3.63,-751.85 64.19,-7.75 313.46,-10.78 354.79,15.29 52.08,32.77 50.5,145.83 114.36,175.78 22.46,10.54 73.26,15.24 85.67,-0.88 11.64,-15.15 13.61,-657.69 -9.12,-619.15l-30.46 -7.35c-127.19,-5.91 -65.86,153.97 -177.71,197.7 -48.55,4.42 -311.11,16.43 -329.92,-5.52 -18.64,-36.98 -21.95,-883.76 -3.37,-951.56 19.13,-26.28 493.8,-8.52 502.13,-7.52zm-2442.09 11.03c22.76,-14.17 214.18,-6.07 255.26,-2.28 77.13,7.12 142.52,11.52 202.29,53.88 113.8,80.76 121.88,221.63 121.72,388.7 -0.51,370.81 36.19,595.23 -290.35,637.42 -365.43,47.27 -296.61,39.1 -295.96,-311.34 0.35,-162.51 -7.89,-679.8 7.05,-766.37zm6.33 1318.94c13.61,-34.72 171.22,-25.2 242.18,47.1 56.39,57.48 84.99,126.53 120.25,215.16 31.42,79.1 173.52,424.36 180.76,488.19 26.07,33.89 35.35,81.69 52.11,120.04 66.93,152.76 107.89,205.01 282.53,205.29 148.25,0.26 284.88,0.98 260.66,-141.66 -11.64,-68.38 -73.87,-38.38 -138.31,-105.31 -83.57,-86.88 -214.23,-537.39 -286.37,-700.91 -74.03,-167.84 -127.09,-104.68 -127.79,-203.15 61.37,-24.09 97.44,-29.65 151.16,-65.51 42.87,-28.63 83.78,-63.93 110.36,-97.82 166.98,-212.78 152.3,-855.16 19.08,-1055.31 -201.38,-302.5 -634.74,-263.47 -994.17,-263.22 -55.41,0.05 -377.9,-13.08 -399.57,16.9 -28.49,55.6 8.77,102.28 45.2,128.47 37.1,26.62 77.24,38.77 85.76,92.58l2.61 1826.38c-3.89,425.78 30.6,310.11 -124.04,415.68 -39.54,26.97 -65.65,92.39 -31.88,124.67 21.18,20.25 520.1,10.82 621.78,10.26 137.29,-0.72 60.46,-114.29 48.17,-128.05 -88.62,-99.35 -136.89,45.13 -133.12,-331.99 1.07,-105.31 -19.25,-537.69 12.66,-597.81zm5524.59 -1734.64c48.57,-65.91 -28.07,-398.06 -43.01,-458.96 -64.12,-261.17 -56.97,-163.89 -53.36,-464.9 -57.09,9.94 -51.06,31.7 -66.28,85.29 -78.62,276.39 -32.19,362.61 63.12,625.04 16.13,44.36 26.6,67.19 43.26,112.2l29 77.24c18.46,27.04 0.35,9.91 27.28,24.09zm45.48 -846.87c1.26,408.97 158.09,430.55 158.14,999.92 69.4,-3.14 100.82,-241.27 103.77,-302.08 7.77,-161.21 -21.62,-237.85 -49.83,-377.23 -67.82,-335.5 -60.42,-498.36 -69.75,-843.29 -57.72,0.3 -49.29,45.82 -63.58,96.88 -33.42,118.97 -79.13,305.6 -78.76,425.8zm802.56 2134.7c150.71,-23.88 412.51,335.55 132.47,612.49 -15.13,14.99 -197.66,159.98 -185,28.65 14.52,-150.44 11.52,-573.54 52.53,-641.14zm-476.67 -667.95c338.32,1.37 347.04,-35.05 320.91,141.64 -32.44,219.14 -63.81,597.95 -84.88,819.83 -10.26,108.61 -79.8,920.88 -92.86,939.31l-18.66 7.89c-45.52,10.87 -931.52,-0.14 -933.31,-2.75 -32.65,-139.29 -46.22,-354.24 -57.51,-500.9 -27.69,-360.05 -65.28,-668.21 -93.95,-1015.07 -36.58,-443.37 -83.39,-391.68 108.8,-390.96l851.46 1zm-1000.27 2086.5l13.1 26.51 1308.33 -0.09c46.38,-118.92 17.01,-423.05 68.33,-541.81 36.03,-16.69 136.82,-21.39 195.4,-42.92 182.09,-67 314.65,-252.7 346.79,-440.65 9.08,-215.81 -10.78,-288.37 -117.09,-425.15 -141.64,-182.2 -290.61,-190.91 -311.48,-221.58 -26.93,-111.01 44.64,-481.91 43.47,-641.98 -170.1,-8.66 -1702.2,-11.73 -1746.69,7.47 -20.83,52.78 116.22,1458.23 144.73,1710.6 20.5,181.34 38.68,383.26 55.11,569.6zm1994.69 -849.99c12.96,64.4 -84.74,193 -124.7,231.63 -64.58,62.53 -126.51,95.23 -199.77,152.02 -9.05,95.07 27.53,168.98 58.11,232.66 18.11,37.66 29.88,56.88 56.11,90.46 23.32,29.88 46.01,48.27 60.21,82.2 34.96,12.99 49.04,38.19 85.76,60.86 250.18,154.62 554.99,152.04 820.69,65.14 327.8,-107.24 396.94,-430.9 389.17,-741.19l-388.24 6.59c-5.47,209.39 13.45,487.52 -233.29,537.07 -220.3,44.24 -422.73,-17.25 -458.33,-276.67 -14.85,-108.08 -1.89,-422.7 -29.35,-478.56 -11.17,11.73 -24.6,27.3 -36.38,37.8zm-268.2 -1348.03c-56.3,124.74 -69.1,250.35 -69.54,392.96 -0.42,155.51 2.44,102.59 129.33,192.14 71.77,50.66 204.27,178.46 208.45,269.01 20.11,23.67 13.17,46.78 54.69,62.81 9.5,-168.61 -2.75,-368.92 -1.02,-542.09 1.91,-191.72 18.06,-310.95 134.24,-420.7 76.99,-72.75 517.33,-178.57 537.35,302.76 3.47,83.41 -1.44,85.25 16.48,121.11 18.62,37.26 327.75,12.61 374.41,5.31l2.16 -719.15c-335.71,-13.87 -219.95,-3.79 -283.07,125.51 -105.26,-9.8 -131.84,-197.82 -637.02,-126.23 -182.74,25.88 -279.37,96.42 -386.98,212.9 -44.2,47.8 -53.83,73.31 -79.48,123.67zm3402.37 -330.33c-59.6,-8.68 -514.89,-6.63 -541.23,7.75 -16.99,15.03 -26.41,97.65 28.16,135.1 39.28,27 82.97,40.45 99.03,79.73 14.55,35.65 5.59,1003.64 5.73,1089.47 0.42,220.77 16.38,507.44 -5.31,720.64 -25.67,252.28 -104.68,352.44 -372.53,354.47 -237.03,1.75 -351.95,-133 -362.75,-359.22 -11.29,-236.48 -1.93,-495.2 -1.79,-734 0.05,-95.88 -10.61,-1029.17 11.38,-1076.93 36.03,-78.31 170.8,-27.74 153.93,-217.6 -46.73,-1.56 -689.43,-6.52 -707.7,8.63 -7.49,6.21 -55.04,105.75 66.75,160.61 85.85,38.68 83.15,46.31 81.73,156.07l-0.42 724.67c-0.51,305.97 -12.24,654.08 6.38,951.3 10.94,174.8 28.23,252.98 108.52,371.6 246.78,364.66 813.06,320.49 1050.09,143.03 233.8,-175.03 233.54,-454.56 235.08,-732.26 1.75,-320 1.79,-640.14 1.95,-960.14 0.09,-147.71 -9.54,-333.83 2.79,-475.6 9.24,-106.33 -22.74,-131.21 63.33,-182.74 84.69,-50.73 83.41,-33.98 76.89,-164.59zm818.99 587.43c0.26,-87.85 -10.19,-283.81 8.05,-352.54 129.05,-19.34 374.44,-8.84 461.13,53.46 108.57,78.01 121.72,235.36 121.74,398.71 0.05,184.6 22.18,546.07 -77.5,660.25 -112.55,128.93 -483.33,111.62 -503.58,87.99 -21.62,-25.25 -9.63,-695.83 -9.84,-847.87zm-380.18 -244.55l0.44 1739.11c-1.05,380.81 26.83,300.03 -121.27,397.55 -65.35,43.05 -55.13,105.64 -32.7,125.49 17.06,15.15 637.49,27.11 692.69,-6.73 25.11,-145.06 -107.5,-136.47 -147.74,-203.61 -19.11,-31.88 -13.27,-639.58 -9.1,-724.32 187.51,-52.25 766.63,95 934.82,-360.26 57.72,-156.3 47.06,-641.7 25.67,-814.41 -13.87,-111.57 -69.63,-238.15 -135.96,-302.08 -243.41,-234.5 -641.31,-194.75 -964.52,-194.54l-280.81 0.65c-61.18,0.37 -98.72,-20.18 -101.21,43.54 -2.47,63.56 10.03,73.31 46.82,100.14 100.65,73.4 93.67,42.4 92.86,199.47zm-11659.77 -1160.64l0 4102.88 13858.63 1.16 0 -4108.33 -6536.01 2.42 2 214.99 6293.6 10.24 10.17 3659.81 -13401.93 -3 -3.72 -3656.76c2024.69,-16.31 4057.2,-1.28 6082.39,-19.94 0.02,-43.47 -4.98,-161.07 -5.31,-205.34l-6299.83 1.86z"/>
 </g>
</svg>
