<?xml version="1.0" encoding="UTF-8"?>
<!DOCTYPE svg PUBLIC "-//W3C//DTD SVG 1.1//EN" "http://www.w3.org/Graphics/SVG/1.1/DTD/svg11.dtd">
<!-- Creator: CorelDRAW 2021 (64-Bit) -->
<svg xmlns="http://www.w3.org/2000/svg" xml:space="preserve" width="42.0386mm" height="16.2991mm" version="1.1" style="shape-rendering:geometricPrecision; text-rendering:geometricPrecision; image-rendering:optimizeQuality; fill-rule:evenodd; clip-rule:evenodd"
viewBox="0 0 1277.73 495.4"
 xmlns:xlink="http://www.w3.org/1999/xlink"
 xmlns:xodm="http://www.corel.com/coreldraw/odm/2003">
 <defs>
  <style type="text/css">
   <![CDATA[
    .fil0 {fill:#5A2411}
   ]]>
  </style>
 </defs>
 <g id="Слой_x0020_1">
  <metadata id="CorelCorpID_0Corel-Layer"/>
  <path class="fil0" d="M534.84 426.3c-7.65,0.45 -17.39,1.85 -24.9,3.32 -18.09,3.53 -84.74,11.47 -102.48,12.08 -64.35,2.22 -125.69,3.77 -189.64,-9.68 -21.69,-4.56 -75.75,-17.66 -83.2,-31.92 2.71,-28.84 102.42,-34.91 125.96,-36.25 88.5,-5.06 195.1,20.96 280.72,44.83 65.79,18.35 126.93,34.62 193.47,50.66 123.66,24.84 315.96,56.36 429.16,4.99 7.97,-3.62 51.52,-21.69 53.45,-28.35 -13.41,-0.8 -41.46,4.6 -56.36,5.49 -66.82,4.02 -105.55,6.52 -175.39,0.04 -173.42,-16.08 -353.68,-85.28 -531.13,-113.58 -91.02,-14.56 -220.8,-17.84 -305.64,13.23 -34.25,12.54 -79.58,41.72 -57.81,83.4 9.68,18.53 33.39,31.55 52.51,40.55 92.89,43.7 266.8,40.36 356.74,-11.55 7.48,-4.31 33.65,-21.51 34.54,-27.25zm742.89 -344.03c-5.13,-0.91 -7.44,-4.97 -12.17,-9.1 -6.11,-5.33 -10.43,-1.29 -18.11,0.47l-40.74 7.84c-2.45,1.9 -2.15,8.8 -2.84,15.66 -1.74,17.49 -6.08,28.47 -11.01,45.19 -4.67,15.84 -12.36,30.49 -21.5,44.07 -1.76,2.61 -1.98,4.25 -5.7,3.51 -0.67,-23.56 14.55,-74.44 6.74,-98.98 -4.23,-13.29 -17.67,-23.58 -33.66,-19.24 -21.7,5.89 -30.09,17.38 -36.44,18.65 -4.46,-3.4 -9.09,-13.5 -15.34,-14.56 -2.57,-0.43 -22.73,2.17 -28.7,2.26 0.16,-5.88 6.33,-25.89 7.98,-34.54 1.12,-5.82 5.92,-9.84 0.9,-15.27 -15.28,-16.51 -10.05,-14.73 -25.11,-9.78l-31.52 10.24c-4.19,1.23 -13.75,2.68 -16.78,4.33 -2.36,10.91 -2.07,28.76 -3.43,40.13 -0.82,6.81 -2.87,6.88 -17.32,10.67 -19.54,5.06 -20.7,0.66 -22.85,12.4 -1.42,7.76 -4.88,18.05 -6.57,29.52l35.07 -0.02c0.39,5.75 -11.77,58.35 -14.06,67.59 -5.55,22.35 -11.21,50.98 6.72,64.21 20,14.77 43.3,3.76 60.1,-7.22 14.26,-9.31 36.21,-23.11 48.86,-34.11 -2.7,-9.6 -13.39,-34.56 -15.9,-39.13 -5.6,5.15 -30.38,24.04 -34.28,24.34 1.73,-8.42 13.31,-69.23 15.65,-74.58 0.97,-2.55 22.58,-1.96 23.52,-0.76 4.85,7.47 12,23.33 17.1,32.55 4.03,-2.75 11.93,-17 20.16,-19.5 0.33,12.01 -4.25,34.96 -5.63,48.65 -2.01,19.85 -8.58,49.66 7.66,66.66 23.21,24.31 48.2,3.02 58.04,-4.28 -1.11,10.35 -14.14,41.1 -20.05,49.02 -3.02,4.05 -7.92,8.54 -15.7,7.48 -6.38,-4.69 -1.85,-13.84 -2.92,-22.17 -0.01,-0.02 -18.72,-12.64 -25.34,-8.47 -7.75,4.89 -15.77,10.46 -23.63,15.03 -5.25,3.04 -7.74,3.88 -7.65,11.65 0.19,16.12 2.89,30.62 17.92,40.04 41.07,25.74 86.61,-10.51 104.87,-31.31 23.36,-26.59 37.53,-64.05 48.83,-104.7 5.54,-19.91 11.05,-40.15 16.98,-60.25 3.95,-13.38 17.84,-52.96 17.84,-64.23zm-1277.73 164.25c5.41,1.36 10.44,6.91 20.73,11.61 29.19,13.33 65.58,12.17 94.41,2.5 17.37,-5.83 34.53,-20.45 43.92,-30.89 12.47,-13.87 20.12,-27.57 23.75,-51.63 3.36,-22.3 -6.14,-46.11 -18.12,-55.55 -21.48,-16.93 -72.95,-20.57 -81.85,-30.57 -7.26,-8.15 -7.46,-41.07 27.54,-40.88 8.71,0.05 24.28,4.38 28.39,9.12l-0.73 35.2c2.78,0.3 36.05,1.25 39.9,-0.36 1.14,-0.47 12.16,-67.45 11.84,-70.93 -4.97,-3.99 -17.49,-10.65 -24.95,-13.39 -30.75,-11.32 -70.08,-9.7 -97.26,5.82 -30.27,17.29 -60.63,55.2 -47.6,104.82 13.85,52.77 91.62,43.65 96.61,60.17 3.41,11.25 -1.19,25.35 -7.54,30.9 -18.87,16.52 -55.27,2.99 -59.93,-2.87 -3.76,-4.71 0.15,-30.06 -1.13,-38.35l-38.97 0.03c-2.59,14.6 -9.01,60.36 -9.01,75.26zm837.98 -30.21c-1.42,-5.73 -24.82,-31.06 -26.9,-31.27l-34.27 19.68c-22.35,10.33 -64.71,17.46 -80.35,-7.22 -8.55,-13.47 -10.09,-25.34 -9.51,-44.98 0.89,-30.21 8.03,-64.2 23.79,-83.56 14.74,-18.12 39.86,-17.99 62.86,-14.97 4.77,0.63 17.98,3.56 20.15,7.73 3.68,8.14 -1.42,29.17 -0.79,38.43 4.8,0.61 39.62,0.58 41.16,-0.86 0.6,-0.54 16.62,-66.46 16.16,-75.83 -21.9,-14.41 -49.62,-23.02 -77.8,-23.11 -28.47,-0.09 -60.61,8.91 -80.33,20.72 -22.59,13.51 -37.99,24.25 -54.07,46.57 -15.15,21.04 -23.62,42.34 -26.98,73.95 -5.26,49.39 9.31,98.4 57.29,115.88 36.52,13.31 71.81,9.8 106.66,-2.6 14.27,-5.08 56.82,-29.91 62.92,-38.58zm-464.18 -94.94c0.42,4.33 10.63,21.88 12.95,27.45 2.01,4.83 1.47,6.52 5.59,9 4.51,-2.39 8.95,-8.97 15,-9.41 0.63,7.48 -19.86,81.16 -23.78,90.24 -7.88,18.29 -3.48,11.66 8.36,26.78 6.14,7.84 9.66,-0.79 31.53,-3.5l20.15 -1.51c10.52,-0.11 4.55,-4.35 11.79,-34.02 5.5,-22.54 14.29,-49.38 29,-67.44 2.79,-3.43 6.92,-8.95 9.5,-9.77 0.51,8.05 -12.36,45.16 -15.08,56.07 -4.98,19.97 -9.7,44.39 7.16,56.75 21.28,15.58 57.53,-11.09 74.71,-23.41 3.27,-2.34 19.37,-12.69 20.9,-14.74 -0.04,-4.33 -13.49,-32.25 -16.24,-39.56 -7.63,5.93 -8.44,7.74 -15.59,11.36 -0.1,-4.4 4.71,-20.12 6.27,-25.68 6.12,-21.86 20.35,-59.78 11.46,-80.97 -7.46,-17.75 -30.28,-18.34 -46.55,-11.1 -10.9,4.85 -21.58,11.69 -30.52,19.09 -7.6,6.29 -5.2,7.32 -9.95,6.81 -1.6,-5.13 0.93,-24.3 -17.24,-28.87 -20.57,-5.17 -47.14,13.63 -63.18,26.52 -8.43,6.78 -17.84,13.7 -26.23,19.9zm-105.77 72.52c1.43,-11.86 10.68,-44.73 14.34,-58.25 4.98,-18.34 12.39,-43.52 -3.48,-55.93 -16.11,-12.6 -41.33,0.88 -54.22,8.36 -15.34,8.91 -30.96,19.82 -43.56,29.22 1.82,7.88 11.41,29.55 14.4,36.59 5.96,-2.68 10.84,-6.58 17.17,-8.98 0.27,20.44 -27.86,76.28 -16.21,105.48 6.35,15.91 26.11,21.14 44.83,13.82 22.93,-8.98 32.97,-24.64 39.23,-25.17 2.59,11.2 0.49,12.36 7.42,20.41 21.07,24.49 70.54,-16.01 90.75,-31.6 1.37,-1.05 3.19,-2.2 3.67,-3.46 1.53,-4.04 -12.38,-39.44 -13.05,-39.69 -1.35,-0.5 -3.62,0.97 -8.07,5.58 -2.33,2.42 -6.6,5.66 -9.19,6.53 -1.34,-3.92 17.35,-67.37 19.4,-76.08 1.25,-5.27 3.72,-13.09 5.66,-18.69 2.98,-8.6 6.59,-10.13 0.51,-17.84 -2.43,-3.08 -9.05,-11.7 -12.14,-11.84 -0.22,-0.01 -17.18,4.48 -19.09,5.06 -29.12,8.85 -33.62,-5.26 -35.14,13.47 -1.63,20.05 -7.04,40.93 -14.62,58.2 -4.12,9.4 -20.26,42.13 -28.61,44.83zm658.7 -118.13c4.87,-1.71 12.84,-4.53 19.75,-14.05 4.92,-6.76 9.86,-13.89 10.13,-24.71 0.3,-12.07 -1.6,-18.63 -8.42,-26.14 -17.84,-19.63 -54.02,-12.29 -62,18.87 -5.25,20.51 4.76,37.93 23.37,42.71 -24.95,2.3 -64.4,38.23 -83.66,50.27 1.58,5.95 14.64,33.07 17.91,36.84l12.66 -10.36c11.9,-11.14 -0.42,21.19 -1.62,25.88 -5.88,23.01 -23.88,69.73 1.54,85.78 16.85,10.64 35.38,-0.07 51.94,-10.26l43.78 -29.18c-2.59,-5.74 -13.99,-31 -16.82,-36.07 -6.68,3.34 -12.67,7.76 -18.03,9.64 0.17,-7.6 13.81,-47.77 16.57,-60.05 3.09,-13.7 10.01,-36.89 3.12,-49.45 -2.34,-4.27 -5.69,-9.33 -10.23,-9.72z"/>
 </g>
</svg>
