<?xml version="1.0" encoding="UTF-8"?>
<!DOCTYPE svg PUBLIC "-//W3C//DTD SVG 1.1//EN" "http://www.w3.org/Graphics/SVG/1.1/DTD/svg11.dtd">
<!-- Creator: CorelDRAW 2021 (64-Bit) -->
<svg xmlns="http://www.w3.org/2000/svg" xml:space="preserve" width="40.1826mm" height="17.8056mm" version="1.1" style="shape-rendering:geometricPrecision; text-rendering:geometricPrecision; image-rendering:optimizeQuality; fill-rule:evenodd; clip-rule:evenodd"
viewBox="0 0 24475.39 10845.46"
 xmlns:xlink="http://www.w3.org/1999/xlink"
 xmlns:xodm="http://www.corel.com/coreldraw/odm/2003">
 <defs>
  <style type="text/css">
   <![CDATA[
    .fil0 {fill:#5A2411}
   ]]>
  </style>
 </defs>
 <g id="Слой_x0020_1">
  <metadata id="CorelCorpID_0Corel-Layer"/>
  <g>
   <path class="fil0" d="M7552.46 9700.11l372.53 0 316.06 709.18 14.56 0 316 -709.18 372.77 0 0 1145.36 -292.92 0 0 -703.39 -10.54 0 -298.95 696.02 -187.12 0 -298.89 -699.92 -10.6 0 0 707.29 -292.92 0 0 -1145.36zm2002.98 694.74l286.46 0 -138.51 -406.03 -9.62 0 -138.33 406.03zm358.21 210.2l-429.84 0 -81.86 240.41 -323.13 0 419.79 -1145.36 400.49 0 419.86 1145.36 -323.19 0 -82.11 -240.41zm1300.07 240.41l-391.35 -475.34 -68.22 0 0 475.34 -300.9 0 0 -1145.36 300.9 0 0 444.59 48 0 385.32 -444.59 376.24 0 -479.49 540.88 504.34 604.47 -374.84 0zm485.46 0l0 -1145.36 867.97 0 0 224.94 -567.08 0 0 234.93 522.55 0 0 225.19 -522.55 0 0 235.42 567.08 0 0 224.88 -867.97 0zm1056.25 0l0 -1145.36 867.91 0 0 224.94 -567.08 0 0 234.93 522.55 0 0 225.19 -522.55 0 0 235.42 567.08 0 0 224.88 -867.91 0zm1056.19 0l0 -1145.36 519.14 0c93.19,0 171.16,12.49 234.14,36.55 62.92,24.06 110.37,57.99 142.35,101.78 31.61,43.61 47.63,93.98 47.63,151.42 0,43.61 -9.99,82.47 -29.66,116.52 -19.98,34.17 -47.33,62.49 -82.17,84.79 -34.78,22.29 -75.04,38.07 -120.91,46.96l0 11.33c50.19,2.07 96.66,14.68 139.42,37.22 42.82,22.84 77.05,54.33 103,95.08 26.01,40.38 39.1,88.14 39.1,143.26 0,61.4 -17.18,116.52 -51.04,164.82 -34.29,48.24 -83.39,86.13 -147.77,113.9 -64.38,27.78 -142.77,41.72 -234.75,41.72l-558.49 0zm300.9 -223.11l186.02 0c65.3,0 113.17,-11.21 144.24,-34.05 31.06,-22.84 46.6,-54.64 46.6,-95.08 0,-29.66 -7.43,-55.12 -22.6,-76.32 -14.8,-21.5 -36.24,-38.07 -63.83,-49.89 -27.41,-11.82 -60.67,-17.54 -98.98,-17.54l-191.44 0 0 272.88zm0 -451.41l166.59 0c32.83,0 61.88,-4.93 87.53,-14.92 25.4,-9.99 45.44,-24.85 59.63,-43.61 14.44,-19.06 21.68,-41.97 21.68,-68.71 0,-38.62 -14.8,-68.77 -44.22,-90.82 -29.66,-21.81 -69.68,-32.83 -119.75,-32.83l-171.46 0 0 250.89zm1595.85 674.52l-391.35 -475.34 -68.16 0 0 475.34 -300.9 0 0 -1145.36 300.9 0 0 444.59 47.94 0 385.32 -444.59 376.24 0 -479.49 540.88 504.34 604.47 -374.84 0zm908.17 -450.62l286.58 0 -138.57 -406.03 -9.68 0 -138.33 406.03zm358.28 210.2l-429.91 0 -81.86 240.41 -323.13 0 419.86 -1145.36 400.49 0 419.79 1145.36 -323.13 0 -82.11 -240.41zm-6729.81 -2439.04c-146.49,8.53 -333.12,35.39 -476.93,63.47 -346.4,67.73 -1623.14,219.7 -1962.96,231.4 -1232.77,42.52 -2407.73,72.3 -3632.7,-185.35 -415.41,-87.41 -1450.95,-338.36 -1593.78,-611.54 51.9,-552.4 1961.92,-668.61 2412.78,-694.38 1695.26,-96.85 3737.22,401.46 5377.35,858.84 1260.18,351.57 2431.3,663.13 3705.91,970.42 2368.68,475.89 6052.36,1079.58 8220.71,95.69 152.64,-69.32 986.81,-415.41 1023.72,-543.14 -256.86,-15.41 -794.21,88.08 -1079.52,105.19 -1279.91,76.87 -2021.8,124.87 -3359.64,0.73 -3321.81,-307.96 -6774.88,-1633.56 -10174.11,-2175.72 -1743.44,-278.85 -4229.44,-341.59 -5854.71,253.39 -656.07,240.23 -1524.47,799.14 -1107.29,1597.44 185.53,354.92 639.5,604.29 1005.87,776.67 1779.32,837.15 5110.69,773.2 6833.66,-221.23 143.2,-82.59 644.61,-412.06 661.61,-521.88zm14230.38 -6589.9c-98.31,-17.54 -142.53,-95.26 -233.17,-174.33 -117.07,-102.02 -199.66,-24.73 -346.95,9.01l-780.32 150.21c-47.02,36.42 -41.36,168.66 -54.45,300.04 -33.32,335.07 -116.52,545.33 -210.87,865.72 -89.42,303.46 -236.7,584.07 -411.82,844.1 -33.68,50.01 -37.95,81.38 -109.27,67.25 -12.85,-451.41 278.73,-1425.91 129.13,-1896.02 -81.01,-254.54 -338.48,-451.77 -644.74,-368.69 -415.71,112.93 -576.46,333 -698.09,357.36 -85.4,-65.11 -174.2,-258.63 -293.83,-278.91 -49.09,-8.22 -435.45,41.54 -549.72,43.37 2.86,-112.5 121.21,-495.99 152.89,-661.67 21.44,-111.59 113.35,-188.52 17.24,-292.43 -292.67,-316.31 -192.66,-282.08 -480.95,-187.48l-603.8 196.25c-80.22,23.57 -263.32,51.41 -321.36,82.84 -45.2,209.17 -39.47,551.12 -65.66,768.81 -15.71,130.47 -54.94,131.75 -331.78,204.35 -374.42,96.85 -396.53,12.67 -437.82,237.43 -27.23,148.74 -93.5,345.85 -125.72,565.55l671.84 -0.3c7.61,110.07 -225.37,1117.71 -269.35,1294.77 -106.29,428.14 -214.65,976.58 128.58,1230.02 383.19,282.75 829.54,71.81 1151.39,-138.33 273.24,-178.35 693.59,-442.7 936.01,-653.33 -51.65,-183.95 -256.49,-662.04 -304.55,-749.5 -107.26,98.61 -582,460.42 -656.74,466.21 33.01,-161.41 254.85,-1326.14 299.8,-1428.71 18.52,-48.79 432.59,-37.58 450.43,-14.5 93.01,143.08 230,446.72 327.58,623.36 77.23,-52.63 228.54,-325.51 386.17,-373.5 6.21,230.06 -81.32,669.71 -107.81,931.99 -38.5,380.26 -164.28,951.36 146.67,1276.93 444.65,465.66 923.28,57.93 1111.8,-81.99 -21.14,198.32 -270.87,787.39 -384.16,939.12 -57.74,77.48 -151.61,163.54 -300.59,143.26 -122.25,-89.78 -35.57,-265.14 -55.98,-424.61 -0.18,-0.37 -358.7,-242.12 -485.4,-162.2 -148.38,93.68 -301.99,200.4 -452.56,287.74 -100.56,58.35 -148.38,74.43 -146.67,223.3 3.59,308.75 55.37,586.45 343.29,767.04 786.78,493.01 1659.02,-201.31 2008.83,-599.72 447.57,-509.39 718.93,-1226.98 935.34,-2005.41 106.05,-381.36 211.6,-769.24 325.38,-1154.13 75.71,-256.25 341.77,-1014.46 341.77,-1230.27zm-24475.39 3146.14c103.55,26.07 199.91,132.36 397.01,222.38 559.22,255.46 1256.03,233.29 1808.37,47.88 332.69,-111.59 661.61,-391.65 841.29,-591.62 238.83,-265.75 385.32,-528.09 454.94,-989 64.44,-427.29 -117.68,-883.26 -347.01,-1064.04 -411.45,-324.41 -1397.47,-394.15 -1567.89,-585.65 -139.06,-156.3 -142.96,-786.66 527.61,-783.19 166.89,0.85 465.11,83.87 543.81,174.69l-13.89 674.28c53.24,5.6 690.54,23.82 764.24,-6.82 21.81,-9.08 232.8,-1292.09 226.71,-1358.67 -95.26,-76.44 -334.95,-204.05 -477.9,-256.74 -589,-216.78 -1342.34,-185.84 -1862.95,111.53 -579.93,331.29 -1161.32,1057.34 -911.77,2007.85 265.33,1010.75 1755.01,836.12 1850.64,1152.73 65.3,215.44 -22.9,485.52 -144.48,591.93 -361.56,316.31 -1058.74,57.32 -1147.98,-55 -72,-90.27 2.86,-575.91 -21.81,-734.7l-746.4 0.55c-49.64,279.58 -172.56,1156.2 -172.56,1441.63zm16051.9 -578.65c-27.17,-109.7 -475.34,-595.03 -515.12,-599.05l-656.49 377.04c-428.08,197.84 -1239.65,334.52 -1539.21,-138.14 -163.73,-258.08 -193.27,-485.4 -182.24,-861.58 16.99,-578.65 153.92,-1229.72 455.79,-1600.66 282.38,-347.07 763.57,-344.63 1204.08,-286.64 91.37,11.94 344.33,68.22 385.99,148.07 70.53,155.93 -27.04,558.79 -15.11,736.1 91.97,11.69 759,11.15 788.49,-16.45 11.51,-10.35 318.26,-1273.03 309.55,-1452.59 -419.43,-275.99 -950.45,-440.99 -1490.3,-442.7 -545.33,-1.71 -1160.83,170.79 -1538.78,396.89 -432.65,258.87 -727.7,464.5 -1035.6,892.15 -290.36,403.17 -452.44,811.02 -516.76,1416.53 -100.68,946.12 178.35,1884.87 1097.36,2219.76 699.56,254.91 1375.66,187.73 2043.24,-49.7 273.31,-97.33 1088.29,-572.98 1205.11,-739.03zm-8891.58 -1818.54c7.92,82.9 203.56,419.12 248.03,525.9 38.5,92.46 28.14,124.87 107.08,172.32 86.31,-45.74 171.46,-171.89 287.38,-180.29 12.12,143.32 -380.45,1554.62 -455.49,1728.64 -151,350.36 -66.64,223.24 159.95,512.93 117.62,150.21 184.98,-15.11 604.05,-67.12l385.99 -29.05c201.55,-2.07 87.22,-83.26 225.86,-651.56 105.19,-431.79 273.73,-945.82 555.5,-1291.85 53.48,-65.66 132.66,-171.52 181.94,-187.12 9.81,154.23 -236.64,864.99 -288.96,1074.09 -95.45,382.52 -185.84,850.25 137.29,1087.01 407.55,298.58 1102.05,-212.52 1431.15,-448.3 62.55,-44.89 371.07,-243.09 400.24,-282.32 -0.73,-83.08 -258.5,-617.69 -311.07,-757.73 -146.25,113.48 -161.72,148.26 -298.64,217.63 -1.83,-84.36 90.33,-385.38 120.12,-492.03 117.25,-418.7 389.89,-1145.24 219.58,-1550.96 -142.83,-340.06 -580.11,-351.27 -891.79,-212.64 -208.74,92.95 -413.4,223.91 -584.68,365.83 -145.39,120.48 -99.65,140.15 -190.53,130.35 -30.7,-98.37 17.72,-465.48 -330.32,-552.88 -394.03,-99.1 -903.12,261 -1210.17,507.99 -161.35,129.8 -341.83,262.58 -502.51,381.18zm-2026.18 1389.18c27.47,-227.13 204.6,-856.77 274.77,-1115.88 95.32,-351.33 237.43,-833.68 -66.51,-1071.48 -308.69,-241.27 -791.71,16.75 -1038.64,160.13 -293.83,170.67 -592.96,379.78 -834.47,559.71 34.9,150.88 218.55,566.16 275.86,700.84 114.15,-51.35 207.7,-126.08 328.92,-172.07 5.18,391.41 -533.64,1461.06 -310.52,2020.46 121.64,304.8 500.32,405.05 858.78,264.66 439.16,-172.01 631.52,-471.93 751.39,-482.05 49.52,214.4 9.26,236.76 142.1,390.98 403.65,469.13 1351.24,-306.62 1738.26,-605.33 26.31,-20.22 61.28,-42.21 70.41,-66.33 29.18,-77.36 -237.12,-755.53 -250.04,-760.22 -25.83,-9.56 -69.32,18.58 -154.59,106.9 -44.59,46.35 -126.51,108.3 -176.03,125.11 -25.77,-75.1 332.27,-1290.45 371.61,-1457.4 23.88,-101.05 71.27,-250.65 108.42,-358.09 57.01,-164.7 126.21,-194 9.87,-341.65 -46.66,-59.02 -173.29,-224.21 -232.62,-226.89 -4.2,-0.24 -329.1,85.82 -365.58,96.97 -557.88,169.39 -644.07,-100.87 -673.3,258.02 -31.25,384.04 -134.92,783.98 -279.94,1114.9 -79,180.11 -388.18,806.94 -548.13,858.72zm12617.77 -2262.82c93.31,-32.83 245.83,-86.86 378.31,-269.16 94.35,-129.56 189.01,-266.12 194.06,-473.4 5.66,-231.22 -30.58,-356.75 -161.23,-500.56 -341.83,-376 -1034.81,-235.54 -1187.63,361.44 -100.62,392.87 91.18,726.6 447.75,818.09 -477.96,44.16 -1233.74,732.2 -1602.61,962.87 30.27,113.9 280.37,633.53 343.11,705.65l242.42 -198.39c228.05,-213.49 -8.04,405.91 -31.06,495.75 -112.75,440.69 -457.56,1335.7 29.48,1643.18 322.83,203.81 677.69,-1.22 994.97,-196.62l838.68 -559.04c-49.76,-109.76 -268.19,-593.69 -322.28,-690.79 -128.03,63.96 -242.67,148.56 -345.42,184.62 3.29,-145.45 264.59,-915.18 317.53,-1150.23 59.14,-262.34 191.69,-706.62 59.87,-947.22 -44.89,-81.68 -109.03,-178.77 -195.95,-186.2z"/>
  </g>
 </g>
</svg>
